<svg id="paper1" xmlns="http://www.w3.org/2000/svg" viewBox="0 0 566.9 566.9"><style>.st0{fill:#904731}.st1{fill:#6d3825}.st2{fill:#647783}.st3{fill:#4b606f}.st4{fill:#354f5c}.st5{fill:#e75426}.st6{fill:#FFF}.st7{fill:#0f1f35}.st8{fill:#d2d2d2}.st9{fill:#c0d9e7}</style><g id="XMLID_14_"><g id="XMLID_17_"><path id="XMLID_35_" class="st0" d="M140.2 287.8c3.2 19.1 9.5 63.5 9.5 63.5s3 19 26.8 21h.2L159.3 410s-4.2 7 1.3 9L266 524.4C140.2 516 40.8 411.4 40.8 283.5 40.8 150.1 148.9 42 282.3 42s241.5 108.1 241.5 241.5c0 10.2-.6 20.3-1.9 30.2L363.8 154.9h-.1l-162.5.2-2.8 55.2h-19.7s-13.5 1-20.8 13.5c-4.4 7.5-9.7 18.1-13.3 25.3-2.3 4.7-3.9 8-3.9 8s-2.3 6.2-2.2 16c0 3.1.3 6.7 1 10.5.2 1.1.5 2.5.7 4.2z"/><path id="XMLID_34_" class="st1" d="M422.1 249l-11.9-23s-6.7-15.7-23.5-15.8h-20.5l-2.6-55.3h.1l158.1 158.8C507 432.8 405.4 525 282.3 525c-5.5 0-10.9-.2-16.3-.5L160.6 419c.8.3 1.8.5 3.1.6 9.9.5 234-.1 234-.1s8.6.1 5-8.5c-2-4.7-10.6-23-17.9-38.7 3.4.4 26.4 2.1 32.8-21.3l9.3-62.8s0-.2.1-.5c.4-1.7 1.7-7.5 1.7-14.8 0-5-.6-10.6-2.5-16-.9-2.7-2.2-5.3-3.8-7.8l-.3-.1z"/><path id="XMLID_33_" class="st2" d="M426.1 257c1.9 5.4 2.5 11 2.5 16h-290c-.1-9.8 2.2-16 2.2-16h285.3z"/><path id="XMLID_32_" class="st3" d="M138.5 273h290c0 7.2-1.3 13.1-1.7 14.8H140.2c-.3-1.6-.5-3.1-.7-4.3-.7-3.8-.9-7.4-1-10.5z"/><path id="XMLID_31_" class="st4" d="M140.2 287.8h286.7c-.1.3-.1.5-.1.5l-9.3 62.8c-6.5 23.4-29.4 21.7-32.8 21.3-1.2-2.5-2.3-4.9-3.4-7.1h20.2v-32H163v32h17l-3.3 7.1h-.2c-23.8-2-26.8-21-26.8-21s-6.3-44.5-9.5-63.6z"/><path id="XMLID_30_" class="st3" d="M426.1 257H140.8s1.6-3.3 3.9-8h277.4l.1.3c1.7 2.4 2.9 5 3.9 7.7z"/><path id="XMLID_27_" class="st4" d="M410.3 226l11.9 23H144.7c3.6-7.2 8.9-17.7 13.3-25.3 7.3-12.5 20.8-13.5 20.8-13.5h208c16.7.1 23.5 15.8 23.5 15.8zm2.9 13.8c0-2.5-3.8-4.4-8.4-4.4-4.6 0-8.4 2-8.4 4.4 0 2.5 3.8 4.4 8.4 4.4 4.7 0 8.4-2 8.4-4.4z"/><path id="XMLID_26_" class="st5" d="M404.8 235.3c4.6 0 8.4 2 8.4 4.4 0 2.5-3.8 4.4-8.4 4.4-4.6 0-8.4-2-8.4-4.4 0-2.4 3.8-4.4 8.4-4.4z"/><path id="XMLID_25_" class="st6" d="M402.6 411c3.6 8.6-5 8.5-5 8.5s-224.1.6-234 .1c-1.3-.1-2.3-.3-3.1-.6-5.5-2.1-1.3-9-1.3-9l17.5-37.7c24.6 2 207.5 0 207.5 0h.4c7.5 15.7 16 34 18 38.7z"/><path id="XMLID_24_" class="st7" d="M401.5 333.2v32h-20.2c-1.3-2.8-2.5-5.4-3.6-7.7-2.7-5.7-4.5-9.4-4.5-9.4s-1-4.6-6.6-3.5l-173.9-.2s-3.3.2-4.9 3.7l-4.3 9.2-3.6 7.9h-17v-32h238.6z"/><path id="XMLID_23_" class="st6" d="M384.7 372.3h-.4s-182.9 2-207.5 0l3.3-7.1h201.3c1 2.2 2.1 4.6 3.3 7.1z"/><path id="XMLID_22_" class="st6" d="M381.3 365.2H180l3.6-7.9 194 .2c1.2 2.3 2.4 4.9 3.7 7.7z"/><path id="XMLID_21_" class="st8" d="M377.7 357.5l-194.1-.2 4.3-9.2c1.6-3.5 4.9-3.7 4.9-3.7l173.9.2c5.6-1.1 6.6 3.5 6.6 3.5s1.7 3.8 4.4 9.4z"/><path id="XMLID_20_" class="st6" d="M363.7 154.9l2.6 55.3h-23.1l-144.8.1 2.8-55.2z"/><path id="XMLID_19_" class="st9" d="M343.2 210.2H198.4h144.8z"/></g></g></svg>