<svg xmlns="http://www.w3.org/2000/svg" width="1271" height="1193.5" viewBox="0 0 1271 1193.5"><style>.st0{fill:#FFF}.st1{fill:#f6b287}.st2{fill:#f8c09c}.st3{fill:#804f1c}.st4{fill:#fad4c0}.st5{fill:#ffe4b7}.st6{fill:none;stroke:#FFF;stroke-width:0;stroke-linecap:round;stroke-linejoin:round}.st7{fill:#c49a6c}.st8{fill:#754c29}.st9{fill:#a97c50}.st10{fill:#a49c8d}.st11{fill:#8b5e3c}.st12{fill:#c2b59b}.st13{fill:#603913}</style><g id="XMLID_174_"><g id="XMLID_209_"><path id="XMLID_235_" class="st0" d="M903.5 897.5l120.2 49.3c-107.9 105.8-246.9 157.8-384.1 159.8V979.9c10.2 0 20.7-.4 31.3-1.2 54-3.7 112.6-17.5 173.5-47.4 19.6-9.6 39.2-20.8 59.1-33.8z"/><path id="XMLID_234_" class="st1" d="M639.6 897.5h263.9c-19.9 13-39.6 24.3-59.1 33.9l-1.1-2.1c-160.4-17.6-179 9.6-179 9.6-2.8 20.7.6 26.7 5.5 26.7l1.1 13.3c-10.6.8-21.1 1.2-31.3 1.2v-82.6z"/><path id="XMLID_233_" class="st1" d="M903.5 897.5H639.6V796.9s87.4-24.4 133.2-96.6c0 0-6.8 145.5 17.6 150.8l113.1 46.4z"/><path id="XMLID_232_" class="st2" d="M851.5 474.5s1.6 18.7-24.9 77.6c0 0-15.6 49.4-26.3 39.1l.9-39.6.5-19.8v-.1c.3-.2.6-.5.9-.9.6-.6 1.3-1.4 2.2-2.6 2.6-3.2 6.7-8.5 11.5-15.6 1-1.4 1.9-2.9 2.8-4.3 1.9-3 3.8-6.3 5.8-9.8 1.1-1.8 2-3.7 2.9-5.4 4.6-8.6 7.9-15.8 9.4-19.4 2.2-2.1 8.6-5.8 14.3.8z"/><path id="XMLID_231_" class="st3" d="M846.5 455.8l-8.4 14.9s-.4 1-1.2 2.8c-.8.6-1.2 1-1.2 1-2.6 6.6-5.4 12.8-8.3 18.5-1 1.8-1.9 3.7-2.9 5.4-1.9 3.6-3.8 6.8-5.8 9.8-1 1.4-1.8 2.9-2.8 4.3-4.7 7.1-8.9 12.4-11.5 15.6-.8.9-1.4 1.7-2.2 2.6-.3.4-.6.7-.9.9 2.9-116.4-1.8-205.1-162-151.7-160.1-53.4-164.9 35.3-162 151.6 0 0-.1 0-.1-.1-1.1-1.1-2-2.3-3.1-3.6-.1 0-.1-.1-.1-.1-1.1-1.3-2.1-2.6-3.2-3.9-.2-.3-.4-.6-.7-.9-14.5-19.7-26.9-48.4-26.9-48.4h-.1l-.2-.2c-.8-.7-4.1-3.6-8.2-3.6l-7.2-9.5c25.9-15.6-14.4-26.5-14.4-26.5l3.4-3.4s-11-5.9 7.7.1c18.7 6.1-.2-20.8-.2-20.8l-8.5-6.6 1.8-12.6-6.6 1.3-4.8-28.8 10.9 2.9c12.6 7.8 4.8-7.8 4.8-7.8-16.3-41.6-15.7-66.2-15.7-66.2l9.6 2.4c32 38.5 6.1-9.6 6.1-9.6l-11.5-16.8L437 270c17.4 1.7 21.7-5.5 21.7-5.5l-39.1-22.8 29.4-2.4c85.5 7.2-6.6-16.3-6.6-16.3l14.4-9.6-11.4-13.2 31.9 1.7 22.8 11.5c65.6 28.3-22.8-30-22.8-30 59.6 4.1 65.5 13.2 65.5 13.2 69.2 39.7 7.2-13.9 7.2-13.9 26.5-15.6 65 1.8 65 1.8 62.6 43.3 18.1-11.5 18.1-11.5l74.6 36.1c15 37.3 13.8-10.2 13.8-10.2l59 47.5c-1.3 46.9 28.9 9.6 28.9 9.6-7.2 56.5 4.8 41.5 4.8 41.5 8.4-2.1 15-11.2 16.6-13.4-7.4 11.5-4.7 69.3-4.7 69.3l16.4-5.4-4.2 56.6h8.5c-10.2 7.2-8.4 51.1-8.4 51.1h8.1z"/><path id="XMLID_230_" class="st1" d="M843.4 929.2l1.1 2.1C783.6 961.2 725 975.1 671 978.7l-1.1-13.3c6.5 0 15.9-11 15.9-11 4.4-13.9 157.6-25.2 157.6-25.2z"/><path id="XMLID_229_" class="st4" d="M835.9 474.5s.4-.4 1.2-1c-1.5 3.7-4.8 10.9-9.4 19.4 2.8-5.6 5.6-11.8 8.2-18.4z"/><path id="XMLID_228_" class="st4" d="M824.7 498.4c1-1.7 1.9-3.6 2.9-5.4-.9 1.7-1.8 3.5-2.9 5.4z"/><path id="XMLID_227_" class="st4" d="M816.1 512.5c1-1.4 1.8-2.9 2.8-4.3-.8 1.4-1.8 2.9-2.8 4.3z"/><path id="XMLID_226_" class="st2" d="M639.6 379.9c160.1-53.4 164.9 35.3 162 151.7h-162V379.9z"/><path id="XMLID_225_" class="st4" d="M801.6 531.7l-.5 19.8c.1-6.7.3-13.3.5-19.8z"/><path id="XMLID_224_" class="st2" d="M801.6 531.6c0 .1 0 .1 0 0-.2 6.6-.4 13.2-.5 19.9-.6 17.3-1.1 35-1.1 52.9 0 38.6-11.1 70.3-27.2 95.9H639.6V531.6h162z"/><path id="XMLID_223_" class="st2" d="M639.6 700.3h133.2c-45.8 72.2-133.2 96.6-133.2 96.6v-96.6z"/><path id="XMLID_222_" class="st5" d="M843.4 929.2s-153.2 11.3-157.6 25.3c0 0-9.3 11-15.9 11-4.9 0-8.3-6-5.5-26.7 0 0 18.5-27.2 179-9.6z"/><path id="XMLID_221_" class="st0" d="M639.6 979.9v126.6c-145.6 2-289.2-52.5-391.2-160.1 0 0 60.8-24.6 121.4-48.9 0 0 23.5 17.4 64.2 36.2 42.1 19.5 102.6 40.4 174.6 45.2 10.1.6 20.5 1 31 1z"/><path id="XMLID_220_" class="st2" d="M639.6 897.5V980c-10.6 0-21-.4-31.1-1.1l1-13.4c4.9 0 8.3-6 5.5-26.7 0 0-18.7-27.2-179-9.6l-2 4.4c-40.7-18.8-64.2-36.2-64.2-36.2h269.8z"/><path id="XMLID_219_" class="st2" d="M639.6 796.9v100.6H369.8c57-22.8 113.7-45.2 119.1-46.4 24.4-5.3 17.5-150.8 17.5-150.8 45.9 72.1 133.2 96.6 133.2 96.6z"/><path id="XMLID_218_" class="st5" d="M639.6 700.3v96.6s-87.4-24.4-133.2-96.6h133.2z"/><path id="XMLID_217_" class="st5" d="M639.6 531.6v168.7H506.4c-16.2-25.6-27.2-57.3-27.2-95.9 0-4.4 0-8.9-.1-13.3v-.5c-.2-11.9-.5-23.9-.8-35.5-.1-1.5-.1-3-.2-4.5l-.4-19v-.1h161.9z"/><path id="XMLID_216_" class="st5" d="M639.6 379.9v151.7H477.8c-.2-.1-.1-.1-.1-.1-2.9-116.3 1.8-205 161.9-151.6z"/><path id="XMLID_215_" class="st5" d="M615 938.8c2.8 20.7-.6 26.7-5.5 26.7-6.6 0-16-11-16-11-4.4-14.1-157.5-25.3-157.5-25.3 160.3-17.6 179 9.6 179 9.6z"/><path id="XMLID_214_" class="st2" d="M609.5 965.5l-1 13.4c-72-4.8-132.5-25.7-174.6-45.2l2-4.4s153.1 11.3 157.5 25.3c.1-.1 9.5 10.9 16.1 10.9z"/><path id="XMLID_213_" class="st5" d="M479.1 590.7l-.8-35.5c.3 11.6.6 23.5.8 35.5z"/><path id="XMLID_212_" class="st5" d="M479.1 590.7v.5c-10.7 10.3-26.3-39.1-26.3-39.1-26.6-58.9-24.9-77.6-24.9-77.6 2.4-2.8 4.9-3.8 7.2-3.8l8.2 3.6.2.2c8.7 22.2 19.9 39 27 48.4.3.3.5.6.7.9 1.2 1.5 2.2 2.9 3.2 3.9 0 0 0 .1.1.1 1.5 1.9 2.6 3.1 3.1 3.6 0 .1.1.1.1.1.2 6.4.4 12.7.5 19.2.1 1.5.1 3 .2 4.5l.7 35.5z"/><path id="XMLID_211_" class="st5" d="M477.8 531.7l.4 19c-.1-6.4-.3-12.8-.5-19.2 0 0-.1 0 .1.2z"/><path id="XMLID_210_" class="st5" d="M443.3 474.3l-8.2-3.6c4.1 0 7.4 2.9 8.2 3.6z"/></g><g id="XMLID_204_"><path id="XMLID_208_" class="st6" d="M639.6 979.9v-82.4"/><path id="XMLID_207_" class="st6" d="M639.6 1106.5v.2"/><path id="XMLID_206_" class="st6" d="M639.6 979.9v126.6"/><path id="XMLID_205_" class="st6" d="M639.6 796.9v100.6"/></g></g><g id="XMLID_112_"><g id="XMLID_155_"><path id="XMLID_173_" class="st7" d="M1173.8 54.4l96.9 256.3-29.5 113.3-59.1-65.7 20.6-66.5z"/><path id="XMLID_172_" class="st7" d="M1241.2 424v166.9l-175.8-158.4z"/><path id="XMLID_171_" class="st7" d="M1182.1 358.3l59.1 65.7-175.8 8.5z"/><path id="XMLID_170_" class="st8" d="M1241.2 590.9l-122.5 324.6-63.9-31.5 131.8-207.2z"/><path id="XMLID_169_" class="st9" d="M1241.2 590.9l-54.6 85.9-62.8-126.6-58.4-117.7z"/><path id="XMLID_168_" class="st10" d="M1140.4 193.8l62.3 98-20.6 66.5-40.4-44.3z"/><path id="XMLID_167_" class="st11" d="M1186.6 676.8L1054.8 884l13.6-65.4v-.1l55.4-268.3z"/><path id="XMLID_166_" class="st12" d="M1141.7 314l40.4 44.3L957 222.1 854.9.3z"/><path id="XMLID_165_" class="st7" d="M1182.1 358.3l-116.7 74.2-292.8-322.1L957 222.1z"/><path id="XMLID_164_" class="st13" d="M1118.7 915.5l-286.5 184.8 23.3-109.9z"/><path id="XMLID_163_" class="st8" d="M1118.7 915.5l-263.2 74.9 124.6-66.5 74.7-39.9z"/><path id="XMLID_162_" class="st8" d="M1068.4 818.5v.1l-13.6 65.4-74.7 39.9 72.1-206.8z"/><path id="XMLID_161_" class="st13" d="M855.5 990.4l-23.3 109.9-92.7 43.8-56.3 26.6 32.8-105.9z"/><path id="XMLID_160_" class="st13" d="M766.9 931.3L716 1064.8l-80.5 43 68.7-92.3z"/><path id="XMLID_159_" class="st13" d="M739.5 1144.1l-56.3 49.1v-22.5z"/><path id="XMLID_158_" class="st13" d="M716 1064.8l-32.8 105.9-47.7 22.5v-85.4z"/><path id="XMLID_157_" class="st8" d="M694.9 938.3l9.3 77.2-68.7 92.3z"/><path id="XMLID_156_" class="st13" d="M683.2 1170.7v22.5h-47.7z"/></g></g><g id="XMLID_30_"><g id="XMLID_93_"><path id="XMLID_111_" class="st7" d="M97.2 54.4L.3 310.7 29.8 424l59-65.7-20.5-66.5z"/><path id="XMLID_110_" class="st7" d="M29.8 424v166.9l175.8-158.3z"/><path id="XMLID_109_" class="st7" d="M88.8 358.3l-59 65.7 175.8 8.6z"/><path id="XMLID_108_" class="st8" d="M29.8 590.9l122.5 324.6 63.9-31.5L84.4 676.8z"/><path id="XMLID_107_" class="st9" d="M29.8 590.9l54.6 85.9 62.8-126.6 58.4-117.6z"/><path id="XMLID_106_" class="st10" d="M130.6 193.8l-62.3 98 20.5 66.5 40.5-44.3z"/><path id="XMLID_105_" class="st11" d="M84.4 676.8L216.2 884l-13.6-65.4-55.4-268.4z"/><path id="XMLID_104_" class="st12" d="M129.3 314l-40.5 44.3L314 222.1 416.1.3z"/><path id="XMLID_103_" class="st7" d="M88.8 358.3l116.8 74.3 292.8-322.2L314 222.1z"/><path id="XMLID_102_" class="st13" d="M152.3 915.5l286.5 184.8-23.3-109.9z"/><path id="XMLID_101_" class="st8" d="M152.3 915.5l263.2 74.9-124.6-66.5-74.7-39.9z"/><path id="XMLID_100_" class="st8" d="M202.6 818.6l13.6 65.4 74.7 39.9-72.1-206.8z"/><path id="XMLID_99_" class="st13" d="M415.5 990.4l23.3 109.9 92.7 43.8 56.3 26.6-32.8-105.8z"/><path id="XMLID_98_" class="st13" d="M504.1 931.3l50.9 133.6 80.5 42.9-68.7-92.3z"/><path id="XMLID_97_" class="st13" d="M531.5 1144.1l56.3 49.1v-22.5z"/><path id="XMLID_96_" class="st13" d="M555 1064.9l32.8 105.8 47.7 22.5v-85.4z"/><path id="XMLID_95_" class="st8" d="M576.1 938.3l-9.3 77.2 68.7 92.3z"/><path id="XMLID_94_" class="st13" d="M587.8 1170.7v22.5h47.7z"/></g></g></svg>