<!-- Generator: Adobe Illustrator 19.0.0, SVG Export Plug-In  -->
<svg version="1.1"
	 xmlns="http://www.w3.org/2000/svg" xmlns:xlink="http://www.w3.org/1999/xlink" xmlns:a="http://ns.adobe.com/AdobeSVGViewerExtensions/3.0/"
	 x="0px" y="0px" width="113.3px" height="96.8px" viewBox="0 0 113.3 96.8" style="enable-background:new 0 0 113.3 96.8;"
	 xml:space="preserve">
<style type="text/css">
	.st0{fill:#33B992;}
	.st1{fill:#343535;}
	.st2{fill:#292929;}
	.st3{fill:#EBEEEF;}
	.st4{fill:#E5556D;}
	.st5{fill:#E6AC24;}
	.st6{fill:#39B54A;}
</style>
<defs>
</defs>
<g id="XMLID_15_">
	<g id="XMLID_28_">
		<polygon id="XMLID_45_" class="st0" points="37.8,44.7 52.9,60 47.5,54.5 42.1,59.9 32.4,50.1 		"/>
		<path id="XMLID_41_" class="st1" d="M113,26.5V92c0,2.5-2,4.5-4.5,4.5H4.8c-2.5,0-4.5-2-4.5-4.5V26.5h0H113z M81.3,75.1v-7.7H57.8
			v7.7H81.3z M52.9,60L37.8,44.7l-5.4,5.4l9.7,9.8l-9.8,9.7l5.4,5.4l9.8-9.7L52.9,60L52.9,60z"/>
		<polygon id="XMLID_40_" class="st2" points="113,22 113,26.5 0.3,26.5 0.3,26.5 0.3,22 		"/>
		<path id="XMLID_35_" class="st3" d="M113,4.8V22H0.3V4.8c0-2.5,2-4.5,4.5-4.5h103.8C111,0.3,113,2.3,113,4.8z M41.9,11.1
			c0-2.3-1.9-4.2-4.3-4.2c-2.3,0-4.3,1.9-4.3,4.2c0,2.3,1.9,4.3,4.3,4.3C40,15.4,41.9,13.5,41.9,11.1z M29.9,11.1
			c0-2.3-1.9-4.2-4.3-4.2c-2.3,0-4.3,1.9-4.3,4.2c0,2.3,1.9,4.3,4.3,4.3C28,15.4,29.9,13.5,29.9,11.1z M17.7,11.1
			c0-2.3-1.9-4.2-4.3-4.2s-4.3,1.9-4.3,4.2c0,2.3,1.9,4.3,4.3,4.3S17.7,13.5,17.7,11.1z"/>
		<path id="XMLID_34_" class="st4" d="M13.5,6.9c2.4,0,4.3,1.9,4.3,4.2c0,2.3-1.9,4.3-4.3,4.3s-4.3-1.9-4.3-4.3
			C9.2,8.8,11.1,6.9,13.5,6.9z"/>
		<path id="XMLID_33_" class="st5" d="M25.6,6.9c2.3,0,4.3,1.9,4.3,4.2c0,2.3-1.9,4.3-4.3,4.3c-2.3,0-4.3-1.9-4.3-4.3
			C21.4,8.8,23.3,6.9,25.6,6.9z"/>
		<path id="XMLID_32_" class="st6" d="M37.7,6.9c2.3,0,4.3,1.9,4.3,4.2c0,2.3-1.9,4.3-4.3,4.3c-2.3,0-4.3-1.9-4.3-4.3
			C33.4,8.8,35.3,6.9,37.7,6.9z"/>
		<rect id="XMLID_31_" x="57.8" y="67.4" class="st0" width="23.5" height="7.7"/>
		<polygon id="XMLID_30_" class="st0" points="52.9,60 47.5,65.4 42.1,59.9 47.5,54.5 		"/>

			<rect id="XMLID_29_" x="36.1" y="60.6" transform="matrix(-0.7045 -0.7097 0.7097 -0.7045 20.1123 143.3743)" class="st0" width="7.7" height="13.8"/>
	</g>
	<g id="XMLID_27_">
	</g>
</g>
</svg>
