<!-- Generator: Adobe Illustrator 19.0.0, SVG Export Plug-In  -->
<svg version="1.1"
	 xmlns="http://www.w3.org/2000/svg" xmlns:xlink="http://www.w3.org/1999/xlink" xmlns:a="http://ns.adobe.com/AdobeSVGViewerExtensions/3.0/"
	 x="0px" y="0px" width="77.8px" height="92.1px" viewBox="0 0 77.8 92.1" style="enable-background:new 0 0 77.8 92.1;"
	 xml:space="preserve">
<style type="text/css">
	.st0{fill:#68BB6C;}
	.st1{fill:#E6E7E8;}
	.st2{fill:#FFFFFF;}
	.st3{fill:#8B9AA6;}
</style>
<defs>
</defs>
<g id="XMLID_15_">
	<g id="XMLID_31_">
		<circle id="XMLID_49_" class="st0" cx="73.6" cy="82.3" r="1.5"/>
		<circle id="XMLID_48_" class="st0" cx="73.6" cy="23.5" r="1.5"/>
		<path id="XMLID_47_" class="st0" d="M73.6,51.6c0.8,0,1.5,0.7,1.5,1.5c0,0.8-0.7,1.5-1.5,1.5s-1.5-0.7-1.5-1.5
			C72.1,52.2,72.8,51.6,73.6,51.6z"/>
		<path id="XMLID_44_" class="st1" d="M77.6,64.8v21.4c0,3.1-17.3,5.7-38.7,5.7c-7,0-13.5-0.3-19.2-0.8l6.9-21
			c3.9,0.2,8,0.3,12.3,0.3C60.3,70.5,77.6,67.9,77.6,64.8z M75.1,82.3c0-0.8-0.7-1.5-1.5-1.5s-1.5,0.7-1.5,1.5s0.7,1.5,1.5,1.5
			S75.1,83.1,75.1,82.3z"/>
		<path id="XMLID_41_" class="st1" d="M77.6,35.5V57c0,1.5-4,2.9-10.5,3.9C60.1,62,50,62.7,38.9,62.7c-3.4,0-6.7-0.1-9.8-0.2l7-21.2
			v0c0.9,0,1.9,0,2.8,0C60.3,41.3,77.6,38.7,77.6,35.5z M75.1,53.1c0-0.8-0.7-1.5-1.5-1.5s-1.5,0.7-1.5,1.5c0,0.8,0.7,1.5,1.5,1.5
			S75.1,53.9,75.1,53.1z"/>
		<path id="XMLID_38_" class="st1" d="M75.1,23.5c0-0.8-0.7-1.5-1.5-1.5s-1.5,0.7-1.5,1.5c0,0.8,0.7,1.5,1.5,1.5
			S75.1,24.3,75.1,23.5z M77.6,5.9v21.4c0,1.6-4.5,3-11.8,4.1c-7,1-16.4,1.6-26.9,1.6c0,0-0.1,0-0.1,0v0l7-21.4v-0.1
			C63.9,11.1,77.6,8.7,77.6,5.9z"/>
		<path id="XMLID_37_" class="st2" d="M26.6,70.2l-6.9,21c-11.6-1-19.5-2.8-19.5-4.9V64.8C0.3,67.3,11.3,69.4,26.6,70.2z"/>
		<path id="XMLID_36_" class="st2" d="M36.1,41.2L36.1,41.2l-7,21.3c-7.2-0.3-13.5-0.8-18.4-1.6c-6.5-1-10.5-2.4-10.5-3.9V35.5
			C0.3,38.6,16.1,41,36.1,41.2z"/>
		<path id="XMLID_35_" class="st2" d="M45.8,11.5v0.1l-7,21.4v0c-10.4,0-19.9-0.6-26.8-1.6c-7.3-1-11.8-2.5-11.8-4.1V5.9
			c0,3.1,17.3,5.7,38.7,5.7C41.3,11.6,43.6,11.6,45.8,11.5z"/>
		<path id="XMLID_34_" class="st3" d="M29.1,62.5c3.1,0.1,6.4,0.2,9.8,0.2c11.1,0,21.2-0.7,28.2-1.8c6.5,1,10.5,2.4,10.5,3.9
			c0,3.2-17.3,5.7-38.7,5.7c-4.3,0-8.4-0.1-12.3-0.3c-15.3-0.8-26.4-2.9-26.4-5.4c0-1.5,4-2.9,10.5-3.9C15.6,61.6,22,62.2,29.1,62.5
			z"/>
		<path id="XMLID_33_" class="st3" d="M65.8,31.5c7.3,1,11.8,2.5,11.8,4.1c0,3.2-17.3,5.7-38.7,5.7c-0.9,0-1.9,0-2.8,0
			C16.1,41,0.3,38.6,0.3,35.5c0-1.6,4.5-3.1,11.8-4.1v0c6.9,1,16.4,1.6,26.8,1.6c0,0,0.1,0,0.1,0C49.4,33.1,58.8,32.5,65.8,31.5
			L65.8,31.5z"/>
		<path id="XMLID_32_" class="st3" d="M77.6,5.9c0,2.8-13.7,5.1-31.8,5.6c-2.3,0.1-4.6,0.1-6.9,0.1c-21.4,0-38.7-2.6-38.7-5.7
			c0-3.1,17.3-5.7,38.7-5.7C60.3,0.3,77.6,2.8,77.6,5.9z"/>
	</g>
	<g id="XMLID_30_">
	</g>
</g>
</svg>
