<!-- Generator: Adobe Illustrator 19.0.0, SVG Export Plug-In  -->
<svg version="1.1"
	 xmlns="http://www.w3.org/2000/svg" xmlns:xlink="http://www.w3.org/1999/xlink" xmlns:a="http://ns.adobe.com/AdobeSVGViewerExtensions/3.0/"
	 x="0px" y="0px" width="102.9px" height="137.2px" viewBox="0 0 102.9 137.2" style="enable-background:new 0 0 102.9 137.2;"
	 xml:space="preserve">
<style type="text/css">
	.st0{fill:#8CC6EC;}
	.st1{fill:#8DC63F;}
	.st2{fill:#A3CF62;}
	.st3{fill:#B2D6F1;}
	.st4{fill:#DBDADB;}
	.st5{fill:#F1F2F2;}
	.st6{fill:#F9F9FA;}
	.st7{fill:#F8F8F8;}
	.st8{fill:#959594;}
	.st9{fill:#00B9F2;}
	.st10{fill:#F15B40;}
</style>
<defs>
</defs>
<g id="XMLID_48_">
	<g id="XMLID_55_">
		<path id="XMLID_59_" class="st0" d="M100.5,36.6c1.4,4.7,2.2,9.7,2.2,14.9c0,28.3-22.9,51.2-51.2,51.2c-14.4,0-27.4-6-36.7-15.5
			l20.9-20.9l4.8,4.6v9.2l7.8,4.7h9.9l4-13.7V55l8.1-3.6l7.2-4.8l13.7-2.1L100.5,36.6z"/>
		<path id="XMLID_58_" class="st1" d="M100.5,36.6l-9.3,7.9l-13.7,2.1l-7.2,4.8L62.1,55v16.1l-4,13.7h-9.9l-7.8-4.7v-9.2l-4.8-4.6
			l51.5-51.5C93.3,20.7,97.9,28.2,100.5,36.6z"/>
		<path id="XMLID_57_" class="st2" d="M87.2,14.8L35.6,66.3l-1-1l-11.2-9.5v-9.1l6.8-13.1h12.9l-0.9-11.2H28.3l-16.8-2.9
			c9.4-11.8,23.8-19.3,40-19.3C65.3,0.3,77.9,5.8,87.2,14.8z"/>
		<path id="XMLID_56_" class="st3" d="M42.2,22.5l0.9,11.2H30.1l-6.8,13.1v9.1l11.2,9.5l1,1L14.8,87.1c-9-9.2-14.5-21.8-14.5-35.7
			c0-12.1,4.2-23.1,11.2-31.9l16.8,2.9H42.2z"/>
	</g>
	<g id="XMLID_54_">
	</g>
</g>
<g id="XMLID_15_">
	<g id="XMLID_30_">
		<rect id="XMLID_47_" x="0.3" y="133.4" class="st4" width="102.4" height="3.5"/>
		<path id="XMLID_43_" class="st5" d="M102.7,106v27.4H0.3V106H102.7z M34.5,119.8c0-1.9-1.5-3.4-3.4-3.4c-1.9,0-3.4,1.5-3.4,3.4
			c0,1.9,1.5,3.4,3.4,3.4C33,123.2,34.5,121.7,34.5,119.8z M20.9,119.8c0-1.9-1.5-3.4-3.4-3.4s-3.4,1.5-3.4,3.4
			c0,1.9,1.5,3.4,3.4,3.4S20.9,121.7,20.9,119.8z"/>
		<polygon id="XMLID_42_" class="st6" points="102.7,102.7 102.7,106 0.3,106 0.3,102.7 7.1,102.7 96,102.7 		"/>
		<polygon id="XMLID_41_" class="st4" points="102.7,92.4 102.7,95.6 96,95.6 7.1,95.6 0.3,95.6 0.3,92.4 		"/>
		<path id="XMLID_37_" class="st5" d="M102.7,65.2v27.2H0.3V65.2H102.7z M34.5,78.7c0-1.9-1.5-3.4-3.4-3.4c-1.9,0-3.4,1.5-3.4,3.4
			s1.5,3.4,3.4,3.4C33,82.2,34.5,80.6,34.5,78.7z M20.9,78.7c0-1.9-1.5-3.4-3.4-3.4s-3.4,1.5-3.4,3.4s1.5,3.4,3.4,3.4
			S20.9,80.6,20.9,78.7z"/>
		<rect id="XMLID_36_" x="0.3" y="61.5" class="st7" width="102.4" height="3.7"/>
		<rect id="XMLID_35_" x="7.1" y="95.6" class="st8" width="88.9" height="7.1"/>
		<path id="XMLID_34_" class="st9" d="M31.1,75.3c1.9,0,3.4,1.5,3.4,3.4s-1.5,3.4-3.4,3.4c-1.9,0-3.4-1.5-3.4-3.4
			S29.2,75.3,31.1,75.3z"/>
		<path id="XMLID_33_" class="st9" d="M31.1,116.4c1.9,0,3.4,1.5,3.4,3.4c0,1.9-1.5,3.4-3.4,3.4c-1.9,0-3.4-1.5-3.4-3.4
			C27.7,117.9,29.2,116.4,31.1,116.4z"/>
		<path id="XMLID_32_" class="st10" d="M17.5,75.3c1.9,0,3.4,1.5,3.4,3.4s-1.5,3.4-3.4,3.4s-3.4-1.5-3.4-3.4S15.6,75.3,17.5,75.3z"
			/>
		<path id="XMLID_31_" class="st10" d="M17.5,116.4c1.9,0,3.4,1.5,3.4,3.4c0,1.9-1.5,3.4-3.4,3.4s-3.4-1.5-3.4-3.4
			C14.1,117.9,15.6,116.4,17.5,116.4z"/>
	</g>
	<g id="XMLID_29_">
	</g>
</g>
</svg>
