<svg xmlns="http://www.w3.org/2000/svg" viewBox="0 0 841.9 538.6"><style>.st0{display:none}.st1{fill:#c49a6c}.st1,.st2{display:inline}.st2{fill:#c2b59b}.st3{fill:none;stroke:#000;stroke-miterlimit:10}.st3,.st4{display:inline}.st5{fill:#e9f0bd}.st6{fill:#ffdcae}.st7{fill:#d3d0e8}.st8{fill:#ffe2bd}.st9{fill:#cfe8d4}.st10{fill:#c4e4ca}.st11{fill:#e2c0a5}.st12{fill:#e4ecae}.st13{fill:#f3bab5}.st14{fill:#dcb493}.st15{fill:#cbe9e6}.st16{fill:#bee4e1}.st17{fill:#f1aaa6}.st18{display:inline}.st18,.st19{fill:none}.st20{fill:#594a42}.st21{fill:none;stroke:#000;stroke-miterlimit:10}.st22{fill:#FFF}.st23{fill:#d1d3d4}.st24{fill:#bcbec0}.st25{fill:#a7a9ac}.st26{fill:#303441}.st27{fill:#444755}.st28{fill:#3c3f4d}.st29{fill:#2d303d}.st30{fill:#333646}.st31{fill:#2d313e}.st32{fill:#8b5e3c}.st33{fill:#feebc7}.st34{fill:#efceac}.st35{fill:#333746}.st36{fill:#e6eaed}.st37{fill:#d4d8dd}.st38{fill:#d4dbe1}.st39{fill:#c3c7cf}.st40{fill:#f1f2f2}.st41{fill:#414042}.st42{fill:#e6e7e8}.st43{fill:url(#XMLID_3975_)}.st44{fill:#d5d8db}.st45{fill:#c2b59b}.st46{fill:#a49c8d}.st47{fill:#cdc1ac}.st48{opacity:.5;fill:#f1f2f2}.st49{fill:#c3c0c6}.st50{fill:#858791}.st51{fill:#333747}.st52{fill:#aeafb6}.st53{opacity:.6}.st54{opacity:.4;fill:#FFF}.st55{opacity:.32}.st56{fill:#c7c8ca}.st57{fill:#6fba86}.st58{fill:#8cc49a}.st59{fill:#f3ece6}.st60{fill:#f9aa8f}.st61{fill:#e4c2a6}.st62{fill:#fabaa2}.st63{fill:#eacfb9}.st64{fill:#739f7f}.st65{fill:none;stroke:#009444;stroke-width:.25;stroke-miterlimit:10}.st66{fill:#46b758}.st67{fill:#128c45}.st68{fill:#1da74a}.st69{fill:#48b756}.st70{fill:#58b96e}.st71{fill:#40b64d}.st72{fill:#1fad4b}.st73{fill:#1fac4b}</style><g id="body"><g id="XMLID_19_"><g id="XMLID_215_"><path id="XMLID_238_" class="st26" d="M511 273c1.5 3.2 2.6 8.8-3.8 13.7h-36.1s4.7-2.5 5.3-4.4v-.1l3.8-4.5h23s5.5.3 7.8-4.7z"/><path id="XMLID_237_" class="st27" d="M509.5 270.5s.8 1 1.5 2.5c-2.3 5-7.7 4.7-7.7 4.7h-23l8.6-10 7.4-8.7 13.2 11.5z"/><path id="XMLID_236_" class="st28" d="M496.2 259l-7.4 8.7-.4-.3-.8-.9h-10.9v-13.8l5.9-5.4z"/><path id="XMLID_235_" class="st28" d="M488.8 267.7l-8.6 10h-3.5v-10.4h11.8l.3.4z"/><path id="XMLID_233_" class="st29" d="M487.6 266.5l.8.9h-11.7v-.9z"/><path id="XMLID_232_" class="st30" d="M482.6 247.3l-5.9 5.4v-10.5z"/><path id="XMLID_231_" class="st31" d="M480.2 277.7l-3.8 4.5c.4-.9.3-4 .3-4.5h3.5z"/><path id="XMLID_230_" class="st32" d="M407 199.7c-.5.5-.7.8-.7.8-.1-2.4 2.7-5 2.7-5-7.7 1.8-7.2 14.3-6.8 18.6 0 0-3.5-9.3-4.7-9.9 0 0 .1-3-.5-3.6-.6-.6-.8-1-.8-1-3.4-6.5 3.1-13 3.1-13-1.3-.4-3.5 3.3-3.5 3.3-.7-3.7 5-7.4 5-7.4-2.3-.4-5.7.8-5.7.8 1.8-3.5 8.2-4 8.2-4-3.7-1.8-4.2-4.2-4.2-4.2 3.1 1 8.9.8 8.9.8-5.7-2.4-3.5-4.2-3.5-4.2 2.3 1.6 8.2 1.6 8.2 1.6-5.1-3.7-1.6-4.5-1.6-4.5 1.6 2.3 7.7 3.3 7.7 3.3l4 .4-3.4-4.4 13.3 3.8-2.1-3.8c4.4.7 11.6 6.5 11.6 6.5l-.1 3 5.4.9-2.3.9c9.5 6.8 7.1 18.4 7.1 18.4l-1.3-2.4v7.4l-.9-1.1.9 7.2-1-1.4-1.6 8.9c.1-.8-.6-2.2-.9-4.1-.7-5.4-1.2-12.1-1.4-14.7 0-.7-.1-1.1-.1-1.1l-15.6 1.8 2.3-3c-.4 0-.8.1-1.2.1l.9-1.2c-4.8.2-8.2 2.6-9.9 4.2.6-1.1 1.1-2.1 1.1-2.1l-1.2.5c.5-.9.9-1.7.9-1.7l-4.2 1.9 1.3-1.6c-.4-.1-.8-.1-1.2 0l.9-1.1c-3-.7-6.4 4.5-6.4 4.5-.1-.1-.2-.3-.3-.4.1-1.3 1.6-2.3 1.6-2.3-.5 0-1 .1-1.6.2.5-.8 1.3-1.4 1.3-1.4-2.6-.4-6.2 3.2-7.7 4.8z"/><path id="XMLID_229_" class="st33" d="M447.6 212.2c.3 1.9 1 3.3.9 4.1l-46.3-2c-.4-4.3-.9-16.9 6.8-18.6 0 0-2.8 2.6-2.7 5 0 0 .3-.3.7-.8-.3.6-.5 1.3-.4 2 0 0 3.6-4.5 6.9-5.6-.4.6-.5 1.3 0 2.1-.1.5.1 1 .6 1.5 0 0 2.5-3.9 5.2-4.5l-1.9 2.4 1.8-.8-1.6 1.9 4.9-2.1c-.5 1-1.1 2.3-1.2 2.9 0 0 .4-.5 1.3-1.3-.5.9-.9 1.9-1 2.4 0 0 3.6-4.5 9.9-5.3l-2.3 3.1 1.3-.1-1 1.3 16.6-1.9c.2 2.1.7 8.9 1.5 14.3z"/><path id="XMLID_228_" class="st34" d="M446.2 197.5l-16.6 1.9 1-1.3 15.6-1.8c-.1.1-.1.5 0 1.2z"/><path id="XMLID_227_" class="st32" d="M432.8 195.1l-2.3 3-1.3.1 2.3-3.1c.4.1.8 0 1.3 0z"/><path id="XMLID_226_" class="st34" d="M432.5 194l-.9 1.2c-6.3.8-9.9 5.3-9.9 5.3.1-.5.5-1.5 1-2.4 1.6-1.5 5-3.9 9.8-4.1z"/><path id="XMLID_225_" class="st32" d="M422.5 196.6l1.2-.5s-.6 1-1.1 2.1c-.8.7-1.3 1.3-1.3 1.3.1-.7.7-1.9 1.2-2.9z"/><path id="XMLID_224_" class="st34" d="M419.2 196.8l4.2-1.9s-.4.8-.9 1.7l-4.9 2.1 1.6-1.9z"/><path id="XMLID_223_" class="st32" d="M420.4 195.2l-1.3 1.6-1.8.8 1.9-2.4c.4-.1.8-.1 1.2 0z"/><path id="XMLID_222_" class="st34" d="M420.2 194.1l-.9 1.1c-2.6.6-5.2 4.5-5.2 4.5-.5-.5-.7-1-.6-1.5.1.1.2.3.3.4 0 0 3.4-5.3 6.4-4.5z"/><path id="XMLID_221_" class="st32" d="M413.5 196.1c.5-.2 1.1-.3 1.6-.2 0 0-1.5 1-1.6 2.3-.5-.7-.4-1.5 0-2.1z"/><path id="XMLID_220_" class="st34" d="M407 199.7c1.5-1.7 5.1-5.2 7.8-5 0 0-.8.6-1.3 1.4-3.3 1.1-6.9 5.6-6.9 5.6-.1-.7.1-1.3.4-2z"/><path id="XMLID_219_" class="st31" d="M378.4 286.7h-37.9c-6.4-4.9-5.2-10.5-3.7-13.7 2.3 5 7.7 4.7 7.7 4.7h26.6s0 3.8.1 4.3c.2.5 1 2.4 1.5 2.7l5.7 2z"/><path id="XMLID_218_" class="st35" d="M371.1 267.4v10.3h-26.6s-5.5.3-7.7-4.7c.7-1.6 1.5-2.5 1.5-2.5l32.8-28.3v24.4H360l-.8.9h11.9v-.1z"/><path id="XMLID_217_" class="st31" d="M371.1 266.5v.9h-11.9l.8-.9h11z"/></g></g></g><g id="desk"><g id="XMLID_9_"><g id="XMLID_194_"><path id="XMLID_213_" class="st22" d="M278.7 292.7H200v-6H647.7v6H335.6z"/><path id="XMLID_212_" class="st36" d="M623.3 301.4v154.9h-93.6V301.4z"/><path id="XMLID_211_" class="st37" d="M529.7 292.7h93.7v8.8h-93.7z"/><path id="XMLID_210_" class="st38" d="M529.7 301.4v144.3H335.6V301.4z"/><path id="XMLID_209_" class="st39" d="M335.6 292.7h194.1v8.8H335.6z"/><path id="XMLID_208_" d="M478.6 445.7c1.2 0 2.2 1 2.2 2.2 0 .6-.2 1.1-.6 1.5-.4.4-.9.6-1.5.6h-23.9c-1.2 0-2.2-1-2.2-2.2 0-.6.2-1.1.6-1.5.4-.4.9-.6 1.5-.6h23.9z"/><path id="XMLID_207_" class="st40" d="M476.7 217.3v63c0 3.5-2.8 6.3-6.3 6.3h-93c-3.5 0-6.3-2.8-6.3-6.3v-63c0-3.5 2.8-6.3 6.3-6.3h93c3.4 0 6.3 2.8 6.3 6.3z"/><path id="XMLID_206_" d="M397.2 445.7c1.2 0 2.2 1 2.2 2.2 0 .6-.2 1.1-.6 1.5-.4.4-.9.6-1.5.6h-23.9c-1.2 0-2.2-1-2.2-2.2 0-.6.3-1.1.6-1.5.4-.4.9-.6 1.5-.6h23.9z"/><path id="XMLID_205_" class="st41" d="M363.5 194v76.5c0 5.7-4.6 10.3-10.3 10.3l-39.9-1.3-2.8-45.5c0-12.7-10.3-23.6-23-23-.3 0-.6 0-.9.1V185.7l66.6-2c5.7 0 10.3 4.6 10.3 10.3z"/><path id="XMLID_204_" class="st36" d="M335.6 445.7v10.6h-56.9V301.4h56.9z"/><path id="XMLID_203_" class="st37" d="M278.7 292.7h56.9v8.8h-56.9z"/><path id="XMLID_202_" class="st22" d="M313.3 279.5l.4 7.1h-35l7.9-52.7V211c.3 0 .6-.1.9-.1 12.7-.6 23 10.3 23 23l2.8 45.6z"/><path id="XMLID_201_" class="st42" d="M286.6 211v23l-7.9 52.7H255l1.3-9.2 6.4-45.2c0-12.5 9.8-20.3 23.9-21.3z"/><linearGradient id="XMLID_3975_" gradientUnits="userSpaceOnUse" x1="223.67" y1="231.591" x2="363.55" y2="231.591"><stop offset="0" stop-color="#3d3d3e"/><stop offset=".415" stop-color="#414142"/><stop offset=".73" stop-color="#4a4a4c"/><stop offset="1" stop-color="#58595b"/></linearGradient><path id="XMLID_200_" class="st43" d="M286.6 211c-14.2 1-23.9 8.8-23.9 21.3l-6.4 45.2h-.1l-22.3-.8c-5.7-.2-10.3-4.6-10.3-10.3v-68.6c0-5.7 4.6-10.3 10.3-10.3l52.6-1.6V211z"/><path id="XMLID_199_" class="st44" d="M223.7 301.4h55.1v154.9h-55.1z"/><path id="XMLID_197_" class="st37" d="M223.7 292.7h55.1v8.8h-55.1z"/></g></g></g><g id="bucket"><g id="XMLID_79_"><g id="XMLID_185_"><path id="XMLID_191_" class="st45" d="M575.1 273.2c.4 2-1.5 4.1-1.5 4.3s-2.8 2.8-2.8 2.8l-3.6 3.5c-.5.4-.9.6-.9.6-.2 0-.4.1-.5.2-.2.2-.3.4-.3.4s0 .1-.1.1c-.6.8-2 1.5-3.1 1.9h-3.8v-20.9h9.5s-.1 2.4 0 3.5v.3l-.1 3.5s1.6-2.4 3.5-2.5c1.8-.1.7-.7.6-.8.9.1 1.4.4 1.4.4 1.7 1 1.7 2.7 1.7 2.7zm-2 4.3c1-1.2 1.4-3.2 1.4-3.2-.3-2-.7-2.6-1.4-2.8-.7-.2-1.5.1-1.5.1-.2 0-.5 0-.9.2-.9.3-1.7 1.5-1.7 1.5-.9 2-1.2 1.8-1.2 1.8s-.6 3.1-.8 4.5v.4l-1.1 3.7c.1.1 6.2-5 7.2-6.2z"/><path id="XMLID_190_" class="st46" d="M574.5 274.3s-.4 2-1.4 3.2c-1 1.2-7.1 6.3-7.1 6.3l1.1-3.7c0 .9.8.5.8.5 1.5-.6 3.7-3.2 4.4-4 .7-.7 1.3-2.4 1.3-2.4s.1-.9-.3-1.6c-.4-.7-1.3-.9-1.3-.9h-.3s.8-.3 1.5-.1c.6.1 1 .7 1.3 2.7z"/><path id="XMLID_189_" class="st46" d="M572 270.3c.2.1 1.2.7-.6.8-1.9.1-3.5 2.5-3.5 2.5l.1-3.5c.2.8.9.5.9.5l1.4-.3c.6-.1 1.2-.1 1.7 0-.1 0 0 0 0 0z"/><path id="XMLID_188_" class="st46" d="M565.5 285.2c-.8 1.8-1.4 1.9-1.4 1.9h-1.7c1.1-.4 2.4-1.1 3.1-1.9z"/><path id="XMLID_187_" class="st47" d="M558.6 266.2v20.9h-5.7c-2.1-2.6-3-8-3-8-.8-3.1-.7-12.9-.7-12.9h9.4z"/></g></g><path id="XMLID_38_" class="st48" d="M557.6 263.4s-6.6-4.7-7.3-10.1c0 0-.4-2.4 4-5.8 0 0 7.2-5.4 7.4-6.7 0 0 2.2-1.9 1.4-7.5 0 0 3.5 3.5.2 8.7 0 0-2.4 3.6-4.9 5.5 0 0-3.3 2.3-4.3 4.4 0 0-1.6 2.6 0 5.5 1.6 2.8 3.5 6 3.5 6z"/><path id="XMLID_77_" class="st48" d="M559.4 265.5s3.7-3.1.3-6.4c0 0-2-1.6-2-5.8 0 0 .9-3.1 3.2-4.5 2.2-1.3 4.4-3.3 8.9-4.1 0 0-4.8 3-6 4s-2.6 3.1-2.6 3.1-1 1.4.9 4.2c2 2.8 2 2.9 2 3.4s.5 1.5-1.6 4l-3.1 2.1z"/></g><g id="light"><g id="XMLID_65_"><g id="XMLID_152_"><path id="XMLID_182_" class="st49" d="M625.4 224.4c2.4 0 4.4 2 4.4 4.4 0 2.4-2 4.4-4.4 4.4-1.2 0-2.3-.5-3.1-1.3-.8-.8-1.3-1.9-1.3-3.1 0-.6.1-1.2.3-1.7.5-1.1 1.3-2 2.5-2.4.5-.2 1.1-.3 1.6-.3zm2.8 4.4c0-1.6-1.3-2.8-2.8-2.8s-2.8 1.3-2.8 2.8 1.3 2.8 2.8 2.8 2.8-1.3 2.8-2.8z"/><path id="XMLID_177_" class="st50" d="M625.4 226c1.5 0 2.8 1.3 2.8 2.8s-1.3 2.8-2.8 2.8-2.8-1.3-2.8-2.8 1.3-2.8 2.8-2.8z"/><path id="XMLID_176_" class="st51" d="M625.4 233.2l-22.7 39.4c-.6-.8-1.5-1.4-2.5-1.6v-.1l22-38.9c1 .7 2 1.2 3.2 1.2z"/><path id="XMLID_175_" class="st51" d="M563.4 200.8l60.5 23.9c-1.1.4-2 1.3-2.5 2.4L562 204.2c.5-.5.9-1 1.2-1.8.1-.5.2-1.1.2-1.6z"/><path id="XMLID_166_" class="st51" d="M618.8 286.7h-38.7c0-1.8 6.6-9.5 15.4-11.4 1.3-.3 2.6-.4 4-.4s2.7.2 4 .4c8.7 1.9 15.3 9.6 15.3 11.4z"/><path id="XMLID_164_" class="st49" d="M603.5 274.9l-.1.4c-1.3-.3-2.6-.4-4-.4s-2.7.2-4 .4l-.1-.4c0-2.3 1.8-4.1 4.1-4.1.3 0 .6 0 .9.1 1 .2 1.9.8 2.5 1.6.4.7.7 1.6.7 2.4z"/><path id="XMLID_163_" class="st49" d="M563.4 200.8c0 .5 0 1.1-.2 1.6-.3.7-.7 1.3-1.2 1.8-1.1 1-2.6 1.3-4.1.8l2.9-7.9c1 .4 1.6 1 2.1 1.8.3.6.4 1.2.5 1.9z"/><path id="XMLID_162_" class="st42" d="M561.8 194.1l-1.1 3-2.9 7.9-2.1 5.7c3 4.9-2 12.7-2 12.7l-3.6-2.4s5-7.9 2-12.8l6.1-16.6 1.2.9-2.1 3 1.6 1.1 2.1-3 .8.5z"/><path id="XMLID_161_" class="st52" d="M561 193.5z"/><path id="XMLID_159_" class="st52" d="M561 193.5l-2.2 3-1.5-1.1 2.1-3 1.6 1.1z"/><path id="XMLID_158_" class="st22" d="M557.8 191.3l.3.3-6.1 16.6c3 4.9-2 12.8-2 12.8l-21.6-14.6s5.4-7.6 11.1-6.6l12.9-12.3.8.6-2.1 3 1.5 1.1 2.1-3 1.5 1.1-2.1 3 1.5 1.1 2.2-3.1z"/><path id="XMLID_156_" class="st52" d="M555.754 194.294l-1.545-1.107 2.153-3.008 1.545 1.105z"/><path id="XMLID_155_" class="st52" d="M554.8 189.1l-2.2 3-1.5-1.1 2.1-3z"/><path id="XMLID_154_" class="st52" d="M554.8 189.1l-1.6-1.1h.1z"/></g></g><g id="XMLID_102_" class="st53"><g id="XMLID_149_"><path id="XMLID_151_" class="st22" d="M546.6 218.6l-35.8 68-3.7.1s9.5-5.9 2.3-16.1L496 258.8l39.1-48 11.5 7.8z"/></g></g><path id="XMLID_113_" class="st54" d="M553.6 223.3l-21.3 63.3h-21.5l35.8-67.9z"/><g id="XMLID_126_" class="st55"><g id="XMLID_145_"><path id="XMLID_147_" class="st22" d="M535.1 210.8l-39.1 48-13.5-11.7 45.8-40.9z"/></g></g></g></svg>