<svg xmlns="http://www.w3.org/2000/svg" width="69.7" height="135.1" viewBox="0 0 69.7 135.1"><style>.st0{fill:#45475b}.st1{fill:#c6c2a6}.st2{fill:#FFF}.st3{fill:#fee2b5}.st4{fill:#9e918a}.st5{fill:#c7bfbb}.st6{fill:#fff685}</style><g id="XMLID_16_"><g id="XMLID_30_"><path id="XMLID_38_" class="st0" d="M69.5 117.9v16.9H5.9v-16.9c0-.9.8-1.7 1.7-1.7h60.1c1 0 1.8.8 1.8 1.7z"/><path id="XMLID_37_" class="st1" d="M66.2 50.4v20.9s-1.2 13.9-3 17c0 0-.6 2.1-4.5 11 0 0-1 3-1 5.8v2.9H29.5c44.5 0 35.4-51 35.1-61.4.9.9 1.6 2.1 1.6 3.8z"/><path id="XMLID_36_" class="st2" d="M65.7 109.9v6.3h-56v-6.3c0-.9.7-1.7 1.7-1.7h52.7c.9 0 1.6.8 1.6 1.7z"/><path id="XMLID_35_" class="st3" d="M64.7 46.7c.2 10.3 9.4 61.3-35.1 61.4H18.3v-3.9s-.3-5.4-4.4-9.1c-4-3.7-10-10-10-10S.6 81.6.6 75.7V54.1s.7-3 3.7-3.1 7 6.2 7 6.2 1.5 2.4 1.5 6.4v6.6s1.8-.3 2.4-1.6V15.1c0-3.2 2.6-5.9 5.9-5.9 3.2 0 5.9 2.6 5.9 5.9v38.3s1.9-.1 1.9-2.1V37.5s.4-3.1 2.7-3.1h4.7s4.3.8 4.3 4.5v16.4s2.1-.3 2.1-1.8V43.2s.7-2.6 2.4-2.6h4.4s4.3.5 4.3 5.2v11.3s1.9-.3 1.9-1.5v-7.5s.7-2.7 2.8-2.7H62s1.4.1 2.7 1.3z"/><path id="XMLID_34_" class="st4" d="M36.7.4c13.3 13.3.1 26.6.1 26.6s-1.5.4-2.5-.5c-1-.8-.5-2.4-.5-2.4 10.3-11.3 0-20.9 0-20.9s-.5-1.6.4-2.4c1-.9 2.5-.4 2.5-.4z"/><path id="XMLID_33_" class="st5" d="M31.9 5.3c8.1 8.1.1 16.1.1 16.1s-.9.2-1.5-.3-.3-1.5-.3-1.5c6.2-6.9 0-12.7 0-12.7s-.4-.9.2-1.4c.5-.5 1.5-.2 1.5-.2z"/><path id="XMLID_32_" class="st5" d="M12.5 5.5c.6.5.2 1.5.2 1.5s-6.2 5.8 0 12.7c0 0 .3 1-.3 1.5s-1.5.3-1.5.3-8-8 .1-16.1c0-.1 1-.4 1.5.1z"/><path id="XMLID_31_" class="st4" d="M8.6.8c.9.8.4 2.4.4 2.4s-10.3 9.6 0 20.9c0 0 .5 1.6-.5 2.4-1 .8-2.5.5-2.5.5S-7.1 13.7 6.2.4c0 0 1.5-.5 2.4.4z"/></g></g><path id="XMLID_15_" class="st6" d="M15.9 124.9l-2.7-2.7c-.4-.4-.9-.4-1.3 0l-2.7 2.7c-.4.4-.4.9 0 1.3l2.7 2.7c.4.4.9.4 1.3 0l2.7-2.7c.4-.3.4-.9 0-1.3z"/></svg>