<svg xmlns="http://www.w3.org/2000/svg" width="502.5" height="550.2" viewBox="0 0 502.5 550.2"><style>.st0{fill:#d5c2ab}.st1{fill:#e1d4c3}.st2{fill:#e4c9bf}.st3{fill:#fbdfc6}.st4{fill:#ecdbd5}.st5{fill:#fce9d7}.st6{fill:#b2d6f1}.st7{fill:#d7e8f7}</style><g id="XMLID_15_"><g id="XMLID_30_"><path id="XMLID_123_" class="st0" d="M432.7 318.2c49.5-8.7 110.4 21.9 32.1 90.9-91.9 81-233.5 133.2-248 138.4.4-.6 1-1.3 1.6-2 9.6-8.5 42.6-38.3 81.9-77.2 189.8-66.2 225.2-134.1 155.4-129.2-9.1-3.6-23.3-3.6-38.8.4 5.4-7.1 10.8-14.3 15.8-21.3z"/><path id="XMLID_122_" class="st1" d="M455.5 339.1c69.8-5 34.4 62.9-155.4 129.2l10.7-10.7c154.6-65.7 171.6-107.9 144.7-118.5z"/><path id="XMLID_121_" class="st2" d="M405.8 165.3c54.9 3.8 78.1 75.9 36.2 139.4-3 4.5-6.1 9-9.3 13.6-9.6 1.7-18.7 4.8-26.3 9.4-46.3 28-34.9 19.9-77.9 48.9 2.5-4.5 5-9.1 7.4-13.7 76.7-96.1 88.3-148.9 64.8-165.4 2.3-11 4-21.7 5.1-32.2z"/><path id="XMLID_120_" class="st0" d="M416.8 339.6c15.5-4 29.7-4 38.8-.4-12.2.9-27.6 3.9-46 9.7 2.4-3.2 4.8-6.3 7.2-9.3z"/><path id="XMLID_119_" class="st2" d="M432.7 318.2c-5 7-10.3 14.2-15.9 21.4-7.2 1.8-14.6 4.5-22 8.1-25.5 12.3-52.5 25.4-68.8 33.5.8-1.5 1.7-3 2.5-4.6 43-29 31.7-20.9 77.9-48.9 7.6-4.7 16.7-7.8 26.3-9.5z"/><path id="XMLID_118_" class="st2" d="M416.8 339.6c-2.4 3.1-4.8 6.2-7.3 9.2l-5.7 1.8c-30.5 10.1-60.7 23.1-78.1 31 .1-.2.2-.3.3-.5 16.4-8 43.3-21.2 68.8-33.5 7.4-3.5 14.8-6.2 22-8z"/><path id="XMLID_117_" class="st2" d="M403.8 350.6c1.9-.6 3.9-1.3 5.7-1.8-29.8 37.4-65.8 75.8-98.6 108.8-13.1 5.6-27.2 11.3-42.4 17.2 17.7-26.5 37.8-58.5 57.1-93.2 17.5-7.9 47.6-20.9 78.2-31z"/><path id="XMLID_116_" class="st3" d="M280 .3c104.8 19.8 134 85.5 125.8 165-6.1-.4-12.7 0-19.6 1.4C397.7 31.3 283.4 1.1 280 .3z"/><path id="XMLID_115_" class="st3" d="M386.2 166.7c6.9-1.4 13.4-1.8 19.6-1.4-1.1 10.5-2.8 21.2-5.1 32.1-4.7-3.3-10.7-5.1-17.9-5.6 1.6-8.7 2.7-17.1 3.4-25.1z"/><path id="XMLID_114_" class="st4" d="M400.7 197.4c23.5 16.5 11.9 69.3-64.8 165.4 1.5-2.8 2.9-5.5 4.4-8.3 59.5-76.1 67.3-111.3 52.2-124.8 3.2-10.9 6-21.7 8.2-32.3z"/><path id="XMLID_113_" class="st3" d="M400.7 197.4c-2.2 10.6-5 21.4-8.2 32.3-4.2-3.7-10.1-5.8-17.1-6.7 3.1-10.9 5.6-21.3 7.4-31.3 7.2.6 13.2 2.4 17.9 5.7z"/><path id="XMLID_112_" class="st5" d="M280 .3c3.4.9 117.8 31 106.2 166.4-9.2 1.9-19.1 5.5-29.4 11.1C376 32.6 283 1.3 280 .3z"/><path id="XMLID_111_" class="st5" d="M386.2 166.7c-.7 8-1.8 16.4-3.4 25.1-8.2-.5-18 .7-28.9 3.7 1.1-6.1 2.1-12 2.8-17.8 10.4-5.5 20.3-9.1 29.5-11z"/><path id="XMLID_110_" class="st5" d="M353.9 195.6c10.9-3 20.6-4.3 28.9-3.7-1.8 9.9-4.3 20.3-7.4 31.3-8.1-1-17.7-.3-27.9 1.4 2.6-10.2 4.7-19.8 6.4-29z"/><path id="XMLID_109_" class="st3" d="M310.5 388.7s.1-.1.3-.1c.1 0 .3-.1.4-.2h.1c.5-.3 1.3-.6 2.3-1.1-24.4 28.9-54.9 62.5-92.5 101.6 89-111.7 134.9-198.5 154.2-265.7 7 .8 13 2.9 17.1 6.7-12.3 41.6-31.2 84.4-52.2 124.8-7.6 9.7-16.1 20.1-25.5 31.3-1.3.7-2.7 1.7-4.2 2.7z"/><path id="XMLID_108_" class="st5" d="M347.5 224.5c10.2-1.7 19.8-2.4 27.9-1.4-19.4 67.3-65.3 154.1-154.2 265.7-1.2 1.2-2.4 2.5-3.6 3.7C291 379.8 330 292.3 347.5 224.5z"/><path id="XMLID_107_" class="st2" d="M356.8 177.8c-.8 5.8-1.7 11.7-2.8 17.8-4.1 1.1-8.4 2.5-12.8 4.1-24.7 9-47.7 24.2-63.9 36.5 28.2-23.8 23-20 63.9-48.7 5.3-3.8 10.5-7 15.6-9.7z"/><path id="XMLID_106_" class="st4" d="M353.9 195.6c-1.7 9.2-3.8 18.9-6.4 28.9-41.3 6.9-92.4 30.6-93.5 31.1l.1-.1c9.7-8.1 17.2-14.4 23.2-19.4 16.2-12.3 39.2-27.4 63.9-36.5 4.3-1.6 8.6-2.9 12.7-4z"/><path id="XMLID_105_" class="st4" d="M340.3 354.5c-1.4 2.8-2.9 5.6-4.4 8.3-5 6.3-10.3 12.8-15.9 19.5-1.6 1.1-3.4 2.3-5.1 3.5 9.3-11.2 17.8-21.6 25.4-31.3z"/><path id="XMLID_104_" class="st2" d="M335.9 362.8c-2.5 4.6-4.9 9.2-7.4 13.7-2.6 1.8-5.4 3.7-8.5 5.7 5.6-6.6 10.9-13.1 15.9-19.4z"/><path id="XMLID_103_" class="st2" d="M328.5 376.5c-.8 1.5-1.7 3.1-2.5 4.6-3.3 1.6-6.2 3-8.5 4.2.9-1 1.7-2 2.5-3 3-2.1 5.8-4 8.5-5.8z"/><path id="XMLID_102_" class="st2" d="M325.9 381.1c-.1.2-.2.3-.3.5-3.3 1.5-6.1 2.8-8.4 3.9l.2-.2c2.4-1.2 5.2-2.6 8.5-4.2z"/><path id="XMLID_101_" class="st4" d="M320 382.3c-.8 1-1.7 2-2.5 3-1.5.7-2.8 1.4-3.8 1.9.4-.5.8-.9 1.2-1.4 1.7-1.2 3.4-2.4 5.1-3.5z"/><path id="XMLID_100_" class="st2" d="M317.2 385.5c2.3-1.1 5.1-2.4 8.4-3.9-19.3 34.7-39.4 66.6-57.1 93.2-16 6.3-33.2 12.7-51.7 19.3 1.1-1.4 2.2-2.8 3.4-4.2 38.9-38.8 71-73.6 97-104.4z"/><path id="XMLID_99_" class="st6" d="M317.4 385.3c0 .1-.1.1-.2.2-1.4.7-2.7 1.3-3.7 1.7l.1-.1c1.1-.5 2.3-1.1 3.8-1.8z"/><path id="XMLID_98_" class="st3" d="M314.8 385.8c-.4.5-.8.9-1.2 1.4l-2.4 1.2h-.1c-.2.1-.3.2-.4.2-.1.1-.2.1-.3.1 1.6-1 3-2 4.4-2.9z"/><path id="XMLID_97_" class="st4" d="M313.6 387.2c1-.5 2.2-1 3.7-1.7-26 30.8-58.1 65.6-97.1 104.5l.9-1.2c37.6-39.1 68.1-72.7 92.5-101.6z"/><path id="XMLID_96_" class="st6" d="M313.6 387.2c-1.1.5-1.9.9-2.4 1.2l2.4-1.2z"/><path id="XMLID_95_" class="st6" d="M310.5 388.7s.1-.1.3-.1c-.2 0-.3.1-.3.1z"/><path id="XMLID_94_" class="st1" d="M310.9 457.6l-10.7 10.7c-11.2 3.9-22.8 7.8-35.1 11.7 1.1-1.7 2.3-3.4 3.4-5.1 15.2-6 29.3-11.7 42.4-17.3z"/><path id="XMLID_93_" class="st0" d="M265.1 480c12.2-3.9 23.9-7.8 35.1-11.7-39.3 39-72.3 68.7-81.9 77.2 7.2-9.4 24.9-33 46.8-65.5z"/><path id="XMLID_92_" class="st1" d="M268.5 474.8c-1.1 1.7-2.3 3.4-3.4 5.1-15.3 4.8-31.4 9.6-48.4 14.3 0-.1.1-.1.1-.1 18.5-6.6 35.7-13 51.7-19.3z"/><path id="XMLID_91_" class="st0" d="M265.1 480c-21.9 32.5-39.6 56.2-46.8 65.6-1.8 1.6-2.8 2.5-2.8 2.5v-52.2l1.2-1.5c17-4.8 33.1-9.6 48.4-14.4z"/><path id="XMLID_90_" class="st5" d="M221.1 488.8l-.9 1.2-2.8 2.8c.1-.1.1-.2.2-.3 1.1-1.2 2.3-2.5 3.5-3.7z"/><path id="XMLID_89_" class="st2" d="M217.4 492.8l2.8-2.8c-1.1 1.4-2.2 2.8-3.4 4.2-.2 0-.3.1-.5.2.4-.6.7-1.1 1.1-1.6z"/><path id="XMLID_88_" class="st5" d="M215.5 494.6c.7-.7 1.3-1.4 2-2.1-.1.1-.1.2-.2.3l-1.8 1.8z"/><path id="XMLID_87_" class="st2" d="M217.4 492.8c-.3.5-.7 1-1 1.5-.3.1-.6.2-.8.3.5-.6 1.1-1.2 1.8-1.8z"/><path id="XMLID_86_" class="st1" d="M216.8 494.2l-.1.1c-.1 0-.3.1-.4.1 0 0 0-.1.1-.1s.3-.1.4-.1z"/><path id="XMLID_85_" class="st0" d="M218.3 545.5c-.6.8-1.1 1.4-1.6 2-.8.3-1.2.4-1.2.4s1-.8 2.8-2.4z"/><path id="XMLID_84_" class="st0" d="M216.7 494.3l-1.2 1.5v-.2c.3-.4.5-.8.8-1.2.2 0 .3-.1.4-.1z"/><path id="XMLID_83_" class="st1" d="M216.4 494.3c-.1.1-.1.1 0 0-.3.2-.6.2-.8.3.2-.1.5-.2.8-.3z"/><path id="XMLID_82_" class="st0" d="M216.3 494.4c-.3.4-.5.8-.8 1.2v-1c.3 0 .5-.1.8-.2z"/><path id="XMLID_81_" class="st0" d="M215.5 548s.4-.1 1.2-.4c-1.2 1.6-1.9 2.4-1.9 2.4v-2.1c.5.1.7.1.7.1z"/><path id="XMLID_80_" class="st0" d="M215.5 495.8V548s-.2-.2-.7-.6v-50.7c.3-.3.5-.6.7-.9z"/><path id="XMLID_79_" class="st0" d="M215.5 495.6v.2c-.2.3-.4.6-.7.8.3-.3.5-.6.7-1z"/><path id="XMLID_78_" class="st0" d="M215.5 494.6v1c-.2.3-.4.7-.7 1-.6-.9-1.2-1.9-1.8-2.8.8.3 1.7.6 2.5.8z"/><path id="XMLID_77_" class="st3" d="M215.5 494.6c-.9-.3-1.7-.6-2.6-.9-.3-.4-.5-.8-.8-1.2 1.2.7 2.3 1.4 3.4 2.1z"/><path id="XMLID_76_" class="st1" d="M215.5 494.6c-.8-.3-1.7-.5-2.5-.8l-.1-.1c.9.3 1.7.6 2.6.9z"/><path id="XMLID_75_" class="st6" d="M215.5 548s-.2 0-.7-.1v-.5c.5.4.7.6.7.6z"/><path id="XMLID_74_" class="st0" d="M214.8 547.9v2.1c-.1-.1-.7-.9-1.8-2.4.8.1 1.4.2 1.8.3z"/><path id="XMLID_73_" class="st0" d="M214.8 547.4v.5c-.4-.1-1-.2-1.8-.3-1.1-1.5-2.7-3.7-4.8-6.5 3.3 3.1 5.6 5.2 6.6 6.3z"/><path id="XMLID_72_" class="st0" d="M214.8 496.6v50.7c-1.1-1-3.3-3.2-6.6-6.3-8.5-11.8-24.2-34.5-41.3-62.8 14 5 29.1 10.2 45.4 15.4.9 1 1.7 2 2.5 3z"/><path id="XMLID_71_" class="st0" d="M213 493.8c.6.9 1.2 1.9 1.8 2.8l-2.4-3c.2.1.4.2.6.2z"/><path id="XMLID_70_" class="st1" d="M212.9 493.7l.1.1c-.2-.1-.4-.1-.6-.2 0-.1-.1-.1-.1-.2.2.2.4.2.6.3z"/><path id="XMLID_69_" class="st3" d="M212.1 492.5c.3.4.5.8.8 1.2-.2-.1-.4-.1-.6-.2l-1.5-1.8c.5.2.9.5 1.3.8z"/><path id="XMLID_68_" class="st1" d="M212.3 493.5c0 .1.1.1.1.2-16.4-5.2-31.5-10.4-45.4-15.4-.5-.8-1-1.7-1.5-2.5 14.1 5.6 29.7 11.5 46.8 17.7z"/><path id="XMLID_67_" class="st7" d="M212.1 492.4l.1.1c-.4-.3-.8-.5-1.3-.8-.1-.1-.1-.1-.1-.2.4.3.8.6 1.3.9z"/><path id="XMLID_66_" class="st5" d="M212.1 492.4c-.4-.3-.9-.6-1.3-.9-21.8-27.3-39.4-52.1-53.5-74.6 5.5 2.7 10.4 5.1 14.2 6.9 10.9 20.8 24.4 43.7 40.6 68.6z"/><path id="XMLID_65_" class="st2" d="M210.9 491.7l1.5 1.8c-17.2-6.2-32.7-12.1-46.8-17.8-6.5-11-13.2-22.7-19.7-35 2.7 2.5 5.5 5.2 8.4 7.8.1 0 .1.1.1.1l.1.1c.1.1.2.2.3.2 15.3 14.2 33.8 28.5 56.1 42.8z"/><path id="XMLID_64_" class="st3" d="M210.7 491.5c.1.1.1.1.1.2-22.2-14.3-40.8-28.6-56.1-42.6 14.5 12.8 32.7 26.9 56 42.4z"/><path id="XMLID_63_" class="st0" d="M208.3 541c2 2.8 3.6 5 4.8 6.5-19.6-3.5-150.1-29-195.3-104.4-46.2-77.2 8.5-85 52.6-75.9.9 1.9 1.8 3.8 2.8 5.8-64.8-16.5-100.8 28.9 66.7 95 28 33 55.7 60.6 68.4 73z"/><path id="XMLID_62_" class="st4" d="M188.9 351.9c-.8-.9-26.1-31.6-45.9-34.2-4-.5-8.6-.7-13.4-.4-2.1-9.7-3.3-18.6-3.9-26.8 6.6.5 13.6 3.3 20.5 8.7 13.5 10.7 24.7 24.8 32.2 35.8 2.6 4.3 6 9.8 10.5 16.9z"/><path id="XMLID_61_" class="st0" d="M180.1 428.1c0-.1 0-.1 0 0 0-.1 0-.1 0 0-.7-.4-4.1-2.4-9.3-5.4-.3-.5-.6-1.1-.8-1.6 3 2.1 6.4 4.4 10.1 7z"/><path id="XMLID_60_" class="st5" d="M177.3 198.5c.4-.1.7-.1 1.1-.2-4.3 1-48.5 12.3-52.8 71.4-5.4-3.2-10.8-5.2-16-6 9.9-49.4 55.5-62.5 66.7-65 .1 0 .2 0 .3-.1h.1c.1 0 .3-.1.4-.1 0 .1.1 0 .2 0z"/><path id="XMLID_59_" class="st2" d="M178.3 334.9c-7.5-11-18.7-25.1-32.2-35.8-6.8-5.4-13.8-8.2-20.5-8.7-.6-7.5-.5-14.4-.1-20.7 7.8 4.6 15.6 11.7 23.1 21.8 19.5 26.3 17.1 22.9 29.7 43.4z"/><path id="XMLID_58_" class="st7" d="M177.3 198.5c-.1 0-.2 0-.3.1.1 0 .2-.1.3-.1z"/><path id="XMLID_57_" class="st1" d="M180 428c-.6-.3-3.8-1.9-8.7-4.3-.2-.4-.4-.7-.6-1.1 5.3 3.1 8.7 5 9.3 5.4z"/><path id="XMLID_56_" class="st5" d="M170.8 422.7c.2.4.4.7.6 1.1-3.8-1.9-8.6-4.2-14.2-6.9l-1.8-3c6 3.4 11.2 6.4 15.4 8.8z"/><path id="XMLID_55_" class="st5" d="M169.9 421.1c.3.5.6 1.1.8 1.6-4.1-2.4-9.4-5.4-15.4-8.8-1.1-1.8-2.3-3.7-3.3-5.5 4.6 3.4 10.4 7.5 17.9 12.7z"/><path id="XMLID_54_" class="st0" d="M167 478.2c17 28.3 32.8 51 41.3 62.8-12.7-12.4-40.3-40.1-68.4-73 8.5 3.3 17.5 6.8 27.1 10.2z"/><path id="XMLID_53_" class="st1" d="M165.5 475.7c.5.8 1 1.7 1.5 2.5-9.6-3.5-18.7-6.9-27.2-10.3-1.3-1.6-2.7-3.1-4-4.7 9.1 4.1 19 8.2 29.7 12.5z"/><path id="XMLID_52_" class="st2" d="M145.8 440.8c6.5 12.3 13.2 24 19.7 35-10.7-4.3-20.6-8.5-29.7-12.5-20.2-24-40.2-50.5-54.8-75.7 8.7.7 18 2.7 26.9 6 7.2 12.8 18.5 28.5 37.9 47.2z"/><path id="XMLID_51_" class="st3" d="M157.2 416.8c14.1 22.5 31.7 47.3 53.5 74.6-23.3-15.4-41.5-29.6-55.9-42.4-.1-.1-.2-.1-.3-.2l-.1-.1-.1-.1c-3-2.8-5.9-5.5-8.7-8.3-6.5-12.3-12.9-25.2-18.7-38.2 10.7 5.2 21.4 10.4 30.3 14.7z"/><path id="XMLID_50_" class="st3" d="M155.4 413.9l1.8 3c-8.9-4.4-19.6-9.5-30.4-14.8-.9-2-1.7-3.9-2.6-5.9 11 6.2 21.9 12.4 31.2 17.7-.1-.1-.1-.1 0 0z"/><path id="XMLID_49_" class="st3" d="M152 408.4c1.1 1.8 2.2 3.6 3.3 5.5-9.2-5.3-20.1-11.5-31.1-17.7-1.3-3-2.6-6-3.8-9 13.8 7.6 18 11.3 31.6 21.2z"/><path id="XMLID_48_" class="st5" d="M169.9 421.1c-7.6-5.2-13.3-9.3-17.9-12.7-20.8-34.5-33.1-63.5-39.3-87.7 5.4-2 11.2-3 16.8-3.4 6 27.7 18.4 61.9 40.4 103.8z"/><path id="XMLID_47_" class="st6" d="M154.2 448.6c-3-2.7-5.8-5.3-8.4-7.8-.1-.2-.2-.3-.3-.5 2.8 2.7 5.7 5.5 8.7 8.3z"/><path id="XMLID_46_" class="st3" d="M176.2 198.7c-11.2 2.5-56.8 15.5-66.7 65-3.2-.5-6.3-.7-9.3-.5 7.6-31.2 30.1-55.1 76-64.5z"/><path id="XMLID_45_" class="st3" d="M152 408.4c-13.6-9.9-17.8-13.6-31.6-21.2-8.2-20.1-14.9-40.4-19-60 3.2-2.8 7.1-4.9 11.3-6.5 6.2 24.2 18.5 53.1 39.3 87.7z"/><path id="XMLID_44_" class="st1" d="M135.8 463.3c1.3 1.6 2.7 3.2 4 4.7-167.4-66.2-131.4-111.5-66.6-95 2.4 4.8 5 9.7 7.8 14.6-41.8-3.6-67.2 21.8 54.8 75.7z"/><path id="XMLID_43_" class="st5" d="M125.6 290.5c.6 8.2 1.9 17.1 3.9 26.8-5.6.4-11.4 1.4-16.8 3.4-2.4-9.3-3.8-17.8-4.5-25.7 5.2-3.4 11.1-5 17.4-4.5z"/><path id="XMLID_42_" class="st5" d="M125.5 269.7c-.5 6.3-.5 13.2.1 20.7-6.3-.5-12.3 1.1-17.4 4.5-1.1-11.8-.5-22.1 1.4-31.3 5.2 1 10.5 2.9 15.9 6.1z"/><path id="XMLID_41_" class="st1" d="M124.2 396.2c.8 2 1.7 3.9 2.6 5.9-3.4-1.6-6.8-3.3-10.2-4.9-2.7-1.3-5.4-2.4-8.2-3.5-1.8-3.1-3.4-6.1-4.9-9.1 1.6.8 3.2 1.6 4.7 2.5 5.3 3 10.7 6 16 9.1z"/><path id="XMLID_40_" class="st0" d="M120.4 387.2c1.2 3 2.5 6 3.8 9-5.4-3-10.8-6.1-16-9-1.6-.9-3.2-1.7-4.7-2.5-.9-1.8-1.8-3.6-2.6-5.4 0-.1-.1-.3-.2-.4-.3-.8-.7-1.6-1-2.4 1.3.6 2.5 1.1 3.6 1.7 7.1 3.6 12.6 6.5 17.1 9z"/><path id="XMLID_39_" class="st1" d="M108.4 393.7c-.2-.1-.3-.1-.5-.2-1.8-3.2-3.3-6.2-4.7-9 .1 0 .1.1.2.1 1.6 3 3.2 6 5 9.1z"/><path id="XMLID_38_" class="st3" d="M108.2 295c.7 7.9 2.2 16.5 4.5 25.7-4.2 1.5-8 3.7-11.3 6.5-1.5-7.4-2.7-14.7-3.4-21.8 2.9-4.4 6.3-7.9 10.2-10.4z"/><path id="XMLID_37_" class="st3" d="M109.6 263.7c-1.8 9.1-2.4 19.5-1.4 31.3-3.9 2.5-7.3 6-10.1 10.4-1.5-15-.9-29.2 2.2-42.1 3-.3 6.1-.2 9.3.4z"/><path id="XMLID_36_" class="st0" d="M103.5 384.6c-.1 0-.1-.1-.2-.1-.9-1.9-1.7-3.6-2.4-5.3.8 1.8 1.6 3.6 2.6 5.4z"/><path id="XMLID_35_" class="st2" d="M103.3 384.5c1.4 2.8 2.9 5.8 4.7 9-8.9-3.2-18.3-5.2-26.9-6-2.8-4.9-5.5-9.8-7.8-14.6 9.5 2.5 19.7 6.3 30 11.6z"/><path id="XMLID_34_" class="st2" d="M100.9 379.2c.7 1.7 1.5 3.5 2.4 5.3-10.3-5.3-20.5-9.1-30.1-11.5-1-1.9-1.9-3.8-2.8-5.8 11 2.3 21.3 5.6 29.3 9.2.3.8.7 1.6 1.1 2.4-.1.1 0 .2.1.4z"/><path id="XMLID_33_" class="st0" d="M100.7 378.8c-.4-.8-.7-1.6-1.1-2.4h.1c.3.8.6 1.6 1 2.4z"/><path id="XMLID_32_" class="st4" d="M98.1 305.4c.7 7.1 1.8 14.4 3.4 21.8-7.3 6.3-11.3 16.1-8.2 30.8-5.7-22.4-2.8-40.7 4.8-52.6z"/><path id="XMLID_31_" class="st2" d="M98.1 305.4c-7.6 11.9-10.5 30.3-4.8 52.6v.1c.8 3.6 2 7.5 3.7 11.8 0 .1.1.2.1.3.8 2.1 1.6 4.2 2.5 6.4-7.9-3.6-18.3-6.9-29.3-9.2-3.8-8.1-6.7-15.9-8.7-23.4-11.5-42.3 9.7-78.4 38.7-80.6-3.1 12.8-3.7 27-2.2 42z"/></g></g></svg>