<svg xmlns="http://www.w3.org/2000/svg" viewBox="0 0 386.802 386.802" width="512" height="512"><path d="M285.08 162.206a9 9 0 0 1 9-9h17.943a9 9 0 0 1 0 18H294.08a9 9 0 0 1-9-9zm30.774 61.165a9 9 0 0 0 9 9h24.15c.055.002.11.002.165.002a9 9 0 0 0 9-9V131.29a9 9 0 0 0-18 0v83.08h-15.316a9 9 0 0 0-9 9zm-2.577-81.772a8.976 8.976 0 0 0 6.546 2.822 9 9 0 0 0 6.542-15.18l-3.9-4.13c-3.41-3.612-9.105-3.777-12.722-.365-3.614 3.412-3.777 9.108-.365 12.723l3.9 4.13zm-138.152-41.8c20.693 0 37.528 16.834 37.528 37.527s-16.835 37.528-37.528 37.528c-20.692 0-37.527-16.835-37.527-37.528 0-20.693 16.835-37.528 37.527-37.528zm0 18c-10.768 0-19.527 8.76-19.527 19.527 0 10.768 8.76 19.528 19.527 19.528s19.528-8.76 19.528-19.528c0-10.767-8.76-19.528-19.528-19.528zm151.24 77.373a9 9 0 0 0-13.088-12.358l-3.9 4.13a9 9 0 0 0 .366 12.722 8.965 8.965 0 0 0 6.177 2.457c2.39 0 4.775-.945 6.546-2.82l3.9-4.13zm-219.043-45.113a67.265 67.265 0 0 1-13.25 1.316c-36.773 0-66.69-29.916-66.69-66.688C27.382 47.915 57.298 18 94.072 18c31.027 0 58.41 21.95 65.106 52.195 1.075 4.853 5.883 7.915 10.733 6.84a9 9 0 0 0 6.842-10.732c-4.103-18.523-14.514-35.35-29.317-47.375C132.412 6.722 113.46 0 94.07 0 47.374 0 9.38 37.99 9.38 84.686c0 46.697 37.992 84.688 84.69 84.688a85.32 85.32 0 0 0 16.806-1.67c4.873-.98 8.027-5.728 7.046-10.6-.982-4.874-5.726-8.024-10.6-7.047zM252.437 368.8h-15.315v-83.083a9 9 0 0 0-8.968-9l-51.79-.186V210.72l63.483 21.192c4.715 1.572 9.813-.973 11.387-5.688a9.002 9.002 0 0 0-5.688-11.387l-75.04-25.05a8.968 8.968 0 0 0-3.46-.557h-.02a8.956 8.956 0 0 0-5.278 1.962 8.943 8.943 0 0 0-2.397 2.932 8.93 8.93 0 0 0-.755 2.067 8.902 8.902 0 0 0-.23 2.318v86.96a8.96 8.96 0 0 0 .762 3.66l.01.024s.002 0 .002.002a.39.39 0 0 1 .01.022v.003l.01.02.004.006a.154.154 0 0 0 .008.02l.003.005.01.02c0 .002 0 .004.002.007a.09.09 0 0 1 .008.017l.005.01.007.014.005.01.007.014c0 .004.002.008.004.012l.007.013.007.014.005.012.008.015c0 .003.003.006.004.01l.01.016c0 .002 0 .004.002.007l.01.02.002.004a.186.186 0 0 1 .01.02l.003.005c.004.006.008.013.01.02.002 0 .002.002.003.003l.01.02.002.004.012.022a.226.226 0 0 1 .013.025c.288.566.634 1.1 1.03 1.588l.017.02v.002l.016.018.003.003.016.02.016.018.003.003.016.017.003.004.012.016.005.005.013.014.005.005.012.014.006.006.012.014.006.007.012.014.007.008.01.012.007.008.01.012a.065.065 0 0 0 .01.01l.008.01.01.01.007.008.01.012.008.008a.12.12 0 0 0 .01.012.043.043 0 0 0 .007.007l.013.015c0 .002.003.003.005.005.004.005.01.01.013.015.002 0 .003.003.005.005l.014.016.003.003.015.015.004.004.014.015s.002 0 .002.002l.017.018.002.002.017.018.02.02a8.98 8.98 0 0 0 6.556 2.87l51.79.185v82.884a8.988 8.988 0 0 0 3.944 7.68 8.96 8.96 0 0 0 5.055 1.552c.063 0 .128 0 .19-.002h24.125c4.97 0 9-4.03 9-9s-4.044-8.994-9.015-8.994zM368.42 243.424c-.064 0-.128 0-.19.002H239.763a9 9 0 0 0 0 18H359.42v107.372h-31.05a9 9 0 0 0 0 18h40.05a9 9 0 0 0 8.854-10.627c.096-.527.146-1.07.146-1.626V252.426v-.002a9 9 0 0 0-9-9zm-175.552 65.444H142.41V226.56c0-4.97-4.028-9-9-9s-9 4.03-9 9v91.04l-.003.268V377.8a9 9 0 0 0 18 0v-50.932h41.46V377.8a9 9 0 0 0 18 0v-59.932a9 9 0 0 0-9-9zm-64.716-190.1a9.002 9.002 0 0 1-12.73 0l-7.293-7.293a30.076 30.076 0 0 1-5.06 2.103v10.31a9 9 0 0 1-18 0v-10.31a30.12 30.12 0 0 1-5.063-2.103l-7.29 7.294a9 9 0 0 1-12.732-12.727l7.293-7.296a30.065 30.065 0 0 1-2.104-5.06H54.87a9 9 0 0 1 0-18h10.308a30.017 30.017 0 0 1 2.104-5.062l-7.293-7.293a9 9 0 0 1 0-12.728 9 9 0 0 1 12.728 0l7.294 7.295a30.096 30.096 0 0 1 5.06-2.104v-10.31a9 9 0 0 1 18 0v10.31c1.76.55 3.452 1.255 5.06 2.102l7.295-7.295a9 9 0 0 1 12.727 12.728l-7.293 7.294a30.065 30.065 0 0 1 2.105 5.06h10.307a9 9 0 0 1 0 18h-10.307a30.1 30.1 0 0 1-2.104 5.062l7.295 7.294a9.004 9.004 0 0 1-.003 12.73zm-21.824-34.082c0-6.758-5.498-12.256-12.257-12.256-6.76 0-12.26 5.498-12.26 12.256 0 6.76 5.5 12.258 12.26 12.258s12.258-5.5 12.258-12.258z" fill="#4e4b4d"/></svg>