<svg xmlns="http://www.w3.org/2000/svg" width="113.3" height="96.8" viewBox="0 0 113.3 96.8"><style>.st0{fill:#33b992}.st1{fill:#343535}.st2{fill:#292929}.st3{fill:#ebeeef}.st4{fill:#e5556d}.st5{fill:#e6ac24}.st6{fill:#39b54a}</style><g id="XMLID_15_"><g id="XMLID_28_"><path id="XMLID_45_" class="st0" d="M37.8 44.7L52.9 60l-5.4-5.5-5.4 5.4-9.7-9.8z"/><path id="XMLID_41_" class="st1" d="M113 26.5V92c0 2.5-2 4.5-4.5 4.5H4.8c-2.5 0-4.5-2-4.5-4.5V26.5H113zM81.3 75.1v-7.7H57.8v7.7h23.5zM52.9 60L37.8 44.7l-5.4 5.4 9.7 9.8-9.8 9.7 5.4 5.4 9.8-9.7 5.4-5.3z"/><path id="XMLID_40_" class="st2" d="M113 22v4.5H.3V22z"/><path id="XMLID_35_" class="st3" d="M113 4.8V22H.3V4.8C.3 2.3 2.3.3 4.8.3h103.8c2.4 0 4.4 2 4.4 4.5zm-71.1 6.3c0-2.3-1.9-4.2-4.3-4.2-2.3 0-4.3 1.9-4.3 4.2 0 2.3 1.9 4.3 4.3 4.3s4.3-1.9 4.3-4.3zm-12 0c0-2.3-1.9-4.2-4.3-4.2-2.3 0-4.3 1.9-4.3 4.2 0 2.3 1.9 4.3 4.3 4.3s4.3-1.9 4.3-4.3zm-12.2 0c0-2.3-1.9-4.2-4.3-4.2s-4.3 1.9-4.3 4.2c0 2.3 1.9 4.3 4.3 4.3s4.3-1.9 4.3-4.3z"/><path id="XMLID_34_" class="st4" d="M13.5 6.9c2.4 0 4.3 1.9 4.3 4.2 0 2.3-1.9 4.3-4.3 4.3s-4.3-1.9-4.3-4.3c0-2.3 1.9-4.2 4.3-4.2z"/><path id="XMLID_33_" class="st5" d="M25.6 6.9c2.3 0 4.3 1.9 4.3 4.2 0 2.3-1.9 4.3-4.3 4.3-2.3 0-4.3-1.9-4.3-4.3.1-2.3 2-4.2 4.3-4.2z"/><path id="XMLID_32_" class="st6" d="M37.7 6.9c2.3 0 4.3 1.9 4.3 4.2 0 2.3-1.9 4.3-4.3 4.3-2.3 0-4.3-1.9-4.3-4.3 0-2.3 1.9-4.2 4.3-4.2z"/><path id="XMLID_31_" class="st0" d="M57.8 67.4h23.5v7.7H57.8z"/><path id="XMLID_30_" class="st0" d="M52.9 60l-5.4 5.4-5.4-5.5 5.4-5.4z"/><path id="XMLID_29_" class="st0" d="M37.688 75.06l-5.425-5.463 9.794-9.722 5.425 5.464z"/></g></g></svg>