<svg xmlns="http://www.w3.org/2000/svg" width="77.8" height="92.1" viewBox="0 0 77.8 92.1"><style>.st0{fill:#68bb6c}.st1{fill:#e6e7e8}.st2{fill:#FFF}.st3{fill:#8b9aa6}</style><g id="XMLID_15_"><g id="XMLID_31_"><circle id="XMLID_49_" class="st0" cx="73.6" cy="82.3" r="1.5"/><circle id="XMLID_48_" class="st0" cx="73.6" cy="23.5" r="1.5"/><path id="XMLID_47_" class="st0" d="M73.6 51.6c.8 0 1.5.7 1.5 1.5s-.7 1.5-1.5 1.5-1.5-.7-1.5-1.5c0-.9.7-1.5 1.5-1.5z"/><path id="XMLID_44_" class="st1" d="M77.6 64.8v21.4c0 3.1-17.3 5.7-38.7 5.7-7 0-13.5-.3-19.2-.8l6.9-21c3.9.2 8 .3 12.3.3 21.4.1 38.7-2.5 38.7-5.6zm-2.5 17.5c0-.8-.7-1.5-1.5-1.5s-1.5.7-1.5 1.5.7 1.5 1.5 1.5 1.5-.7 1.5-1.5z"/><path id="XMLID_41_" class="st1" d="M77.6 35.5V57c0 1.5-4 2.9-10.5 3.9-7 1.1-17.1 1.8-28.2 1.8-3.4 0-6.7-.1-9.8-.2l7-21.2h2.8c21.4 0 38.7-2.6 38.7-5.8zm-2.5 17.6c0-.8-.7-1.5-1.5-1.5s-1.5.7-1.5 1.5.7 1.5 1.5 1.5 1.5-.7 1.5-1.5z"/><path id="XMLID_38_" class="st1" d="M75.1 23.5c0-.8-.7-1.5-1.5-1.5s-1.5.7-1.5 1.5.7 1.5 1.5 1.5 1.5-.7 1.5-1.5zm2.5-17.6v21.4c0 1.6-4.5 3-11.8 4.1-7 1-16.4 1.6-26.9 1.6h-.1l7-21.4v-.1c18.1-.4 31.8-2.8 31.8-5.6z"/><path id="XMLID_37_" class="st2" d="M26.6 70.2l-6.9 21C8.1 90.2.2 88.4.2 86.3V64.8c.1 2.5 11.1 4.6 26.4 5.4z"/><path id="XMLID_36_" class="st2" d="M36.1 41.2l-7 21.3c-7.2-.3-13.5-.8-18.4-1.6C4.2 59.9.2 58.5.2 57V35.5c.1 3.1 15.9 5.5 35.9 5.7z"/><path id="XMLID_35_" class="st2" d="M45.8 11.5v.1l-7 21.4c-10.4 0-19.9-.6-26.8-1.6C4.7 30.4.2 28.9.2 27.3V5.9c0 3.1 17.3 5.7 38.7 5.7 2.4 0 4.7 0 6.9-.1z"/><path id="XMLID_34_" class="st3" d="M29.1 62.5c3.1.1 6.4.2 9.8.2 11.1 0 21.2-.7 28.2-1.8 6.5 1 10.5 2.4 10.5 3.9 0 3.2-17.3 5.7-38.7 5.7-4.3 0-8.4-.1-12.3-.3C11.3 69.4.2 67.3.2 64.8c0-1.5 4-2.9 10.5-3.9 4.9.7 11.3 1.3 18.4 1.6z"/><path id="XMLID_33_" class="st3" d="M65.8 31.5c7.3 1 11.8 2.5 11.8 4.1 0 3.2-17.3 5.7-38.7 5.7h-2.8C16.1 41 .3 38.6.3 35.5c0-1.6 4.5-3.1 11.8-4.1 6.9 1 16.4 1.6 26.8 1.6h.1c10.4.1 19.8-.5 26.8-1.5z"/><path id="XMLID_32_" class="st3" d="M77.6 5.9c0 2.8-13.7 5.1-31.8 5.6-2.3.1-4.6.1-6.9.1C17.5 11.6.2 9 .2 5.9S17.5.2 38.9.2c21.4.1 38.7 2.6 38.7 5.7z"/></g></g></svg>