<svg xmlns="http://www.w3.org/2000/svg" width="325" height="450" viewBox="0 0 325 450"><path fill="#EFC725" d="M40.845 401.254L13.775 97.632h297.45l-27.098 303.573-121.81 33.77z"/><path fill="#FBDE34" d="M162.25 408.787l98.428-27.287 23.158-259.417H162.25z"/><path fill="#EBEBEB" d="M162.193 331.426l-.162.047-41.47-11.2-2.654-29.698H80.526l5.218 58.468 76.277 21.176.173-.05zM167.21 271.937V234.7h-45.855l5.377-58.442 40.58-1.08-.103-38.724H93.064l-2.754 27.45-8.75 98.034-.91 10h10.036z"/><path fill="#FFF" d="M166.957 175.23l.163-.047 40.67 2.45 3.452 38.446H248.622l-6.513-71.947-74.98-7.696-.173.048z"/><path fill="#FFF" d="M244.784 175.343l-3.19-38.89H162.99v38.89h81.794M162.064 234.718v37.236h45.854l-4.322 48.293-41.532 11.212v38.74l76.34-21.157.56-6.29 8.75-98.036.91-10h-10.036z"/><path fill="#151515" d="M214.945 30.57h-24.69l25.677 27.86v13.26H163.05V56.166h25.67l-25.67-27.86v-13.28h51.895V30.57z"/><path fill="#020202" d="M153.63 15.05v56.617H108.09V52.953H134.7V15.05h18.93z"/></svg>