<svg xmlns="http://www.w3.org/2000/svg" width="750" height="750" viewBox="0 0 750 750"><defs><clipPath id="a"><path d="M0 600h600V0H0v600z"/></clipPath><linearGradient x2="1" gradientUnits="userSpaceOnUse" gradientTransform="scale(86.4802) rotate(-116.114 2.776 1.122)" id="b"><stop offset="0" stop-color="#687e67"/><stop offset=".529" stop-color="#687e67"/><stop offset="1" stop-color="#83a178"/></linearGradient><linearGradient x2="1" gradientUnits="userSpaceOnUse" gradientTransform="scale(132.79816) rotate(36.46 -2.712 3.873)" id="c"><stop offset="0" stop-color="#687e67"/><stop offset=".138" stop-color="#687e67"/><stop offset=".697" stop-color="#9bb48f"/><stop offset=".908" stop-color="#9bb48f"/><stop offset="1" stop-color="#9bb48f"/></linearGradient><clipPath id="d"><path d="M239.032 373.393l-42.134-24.315a5.087 5.087 0 0 1-2.545-4.407v-48.665c0-1.818.97-3.497 2.544-4.408l42.133-24.334a5.093 5.093 0 0 1 5.09 0l42.125 24.334a5.093 5.093 0 0 1 2.543 4.408v48.668c0 1.817-.97 3.496-2.545 4.405l-42.123 24.315a5.09 5.09 0 0 1-5.088 0"/></clipPath><linearGradient x2="1" gradientUnits="userSpaceOnUse" gradientTransform="matrix(97.417 0 0 -97.417 192.862 382.166)" id="e"><stop offset="0" stop-color="#9bb48f"/><stop offset=".092" stop-color="#9bb48f"/><stop offset=".303" stop-color="#9bb48f"/><stop offset=".862" stop-color="#687e67"/><stop offset="1" stop-color="#687e67"/></linearGradient><linearGradient x2="1" gradientUnits="userSpaceOnUse" gradientTransform="matrix(97.417 0 0 -97.417 192.862 320.348)" id="f"><stop offset="0" stop-color="#9bb48f"/><stop offset=".092" stop-color="#9bb48f"/><stop offset=".303" stop-color="#9bb48f"/><stop offset=".862" stop-color="#687e67"/><stop offset="1" stop-color="#687e67"/></linearGradient><clipPath id="g"><path d="M239.032 373.393l-42.134-24.315a5.087 5.087 0 0 1-2.545-4.407v-48.665c0-1.818.97-3.497 2.544-4.408l42.133-24.334a5.093 5.093 0 0 1 5.09 0l42.125 24.334a5.093 5.093 0 0 1 2.543 4.408v48.668c0 1.817-.97 3.496-2.545 4.405l-42.123 24.315a5.09 5.09 0 0 1-5.088 0"/></clipPath><linearGradient x2="1" gradientUnits="userSpaceOnUse" gradientTransform="matrix(97.417 0 0 -97.417 192.862 292.538)" id="h"><stop offset="0" stop-color="#9bb48f"/><stop offset=".092" stop-color="#9bb48f"/><stop offset=".303" stop-color="#9bb48f"/><stop offset=".862" stop-color="#687e67"/><stop offset="1" stop-color="#687e67"/></linearGradient><clipPath id="i"><path d="M239.032 373.393l-42.134-24.315a5.087 5.087 0 0 1-2.545-4.407v-48.665c0-1.818.97-3.497 2.544-4.408l42.133-24.334a5.093 5.093 0 0 1 5.09 0l42.125 24.334a5.093 5.093 0 0 1 2.543 4.408v48.668c0 1.817-.97 3.496-2.545 4.405l-42.123 24.315a5.09 5.09 0 0 1-5.088 0"/></clipPath><linearGradient x2="1" gradientUnits="userSpaceOnUse" gradientTransform="matrix(97.417 0 0 -97.417 192.862 279.968)" id="j"><stop offset="0" stop-color="#9bb48f"/><stop offset=".092" stop-color="#9bb48f"/><stop offset=".303" stop-color="#9bb48f"/><stop offset=".862" stop-color="#687e67"/><stop offset="1" stop-color="#687e67"/></linearGradient><clipPath id="k"><path d="M239.032 373.393l-42.134-24.315a5.087 5.087 0 0 1-2.545-4.407v-48.665c0-1.818.97-3.497 2.544-4.408l42.133-24.334a5.093 5.093 0 0 1 5.09 0l42.125 24.334a5.093 5.093 0 0 1 2.543 4.408v48.668c0 1.817-.97 3.496-2.545 4.405l-42.123 24.315a5.09 5.09 0 0 1-5.088 0"/></clipPath><linearGradient x2="1" gradientUnits="userSpaceOnUse" gradientTransform="scale(136.49806) rotate(-116.114 1.932 .614)" id="l"><stop offset="0" stop-color="#687e67"/><stop offset=".529" stop-color="#687e67"/><stop offset="1" stop-color="#83a178"/></linearGradient></defs><g clip-path="url(#a)" transform="matrix(1.25 0 0 -1.25 0 750)"><path d="M296.953 165.056c-1.46 0-2.912.38-4.19 1.12l-13.338 7.893c-1.99 1.113-1.02 1.508-.362 1.737 2.657.922 3.195 1.135 6.03 2.743.296.167.688.103.993-.076l10.247-6.083c.37-.205.895-.205 1.237 0l39.95 23.06c.372.21.61.64.61 1.08v46.104c0 .45-.238.872-.62 1.1l-39.933 23.04a1.25 1.25 0 0 1-1.23 0l-39.924-23.046a1.285 1.285 0 0 1-.634-1.094V196.53c0-.44.245-.86.63-1.068l10.943-6.323c5.938-2.97 9.574.527 9.574 4.04v45.52c0 .643.517 1.15 1.16 1.15h5.066c.634 0 1.158-.507 1.158-1.15v-45.52c0-7.925-4.315-12.47-11.828-12.47-2.31 0-4.127 0-9.202 2.5l-10.476 6.032a8.437 8.437 0 0 0-4.19 7.288v46.104c0 2.995 1.602 5.792 4.19 7.28L292.764 273c2.527 1.43 5.887 1.43 8.395 0l39.946-23.085a8.434 8.434 0 0 0 4.196-7.28V196.53a8.457 8.457 0 0 0-4.196-7.288l-39.947-23.065a8.375 8.375 0 0 0-4.207-1.12" fill="#689f63"/><path d="M309.293 196.818c-17.482 0-21.144 8.024-21.144 14.755 0 .64.513 1.15 1.153 1.15h5.165c.577 0 1.058-.414 1.148-.977.78-5.258 3.105-7.912 13.677-7.912 8.416 0 12 1.904 12 6.37 0 2.573-1.017 4.484-14.096 5.765-10.93 1.08-17.692 3.495-17.692 12.24 0 8.06 6.794 12.867 18.186 12.867 12.8 0 19.132-4.442 19.934-13.972a1.17 1.17 0 0 0-.305-.89c-.22-.228-.525-.368-.847-.368h-5.185a1.15 1.15 0 0 0-1.12.903c-1.245 5.533-4.27 7.3-12.477 7.3-9.188 0-10.256-3.2-10.256-5.6 0-2.905 1.26-3.75 13.667-5.392 12.278-1.623 18.11-3.92 18.11-12.55 0-8.704-7.258-13.69-19.917-13.69M357.94 245.7h1.342c1.098 0 1.304.773 1.304 1.22 0 1.184-.816 1.184-1.264 1.184h-1.383V245.7zm-1.633 3.79h2.975c1.02 0 3.016 0 3.016-2.284 0-1.59-1.02-1.914-1.632-2.118 1.184-.08 1.264-.856 1.426-1.955.083-.692.206-1.875.448-2.28h-1.83c-.044.405-.33 2.606-.33 2.727-.12.49-.285.733-.895.733h-1.506v-3.46h-1.673v8.636zm-3.563-4.3c0-3.585 2.893-6.478 6.436-6.478 3.586 0 6.478 2.954 6.478 6.48 0 3.583-2.932 6.435-6.478 6.435-3.503 0-6.436-2.81-6.436-6.436m14.155-.02c0-4.237-3.465-7.7-7.7-7.7-4.197 0-7.7 3.422-7.7 7.7 0 4.358 3.586 7.7 7.7 7.7 4.156 0 7.7-3.342 7.7-7.7" fill="#689f63"/><path d="M173.243 345.433c0 1.84-.97 3.533-2.558 4.445l-42.355 24.375c-.716.422-1.52.64-2.33.674h-.44a5.052 5.052 0 0 1-2.338-.674l-42.355-24.375a5.132 5.132 0 0 1-2.56-4.445l.092-65.635c0-.913.473-1.762 1.276-2.21a2.46 2.46 0 0 1 2.54 0l25.173 14.414c1.59.945 2.56 2.614 2.56 4.44v30.663c0 1.828.968 3.52 2.554 4.43l10.718 6.172c.8.46 1.672.687 2.564.687a5.01 5.01 0 0 0 2.544-.687l10.715-6.173a5.1 5.1 0 0 0 2.558-4.43v-30.663c0-1.824.982-3.503 2.564-4.438l25.165-14.414a2.49 2.49 0 0 1 2.557 0 2.556 2.556 0 0 1 1.27 2.21l.083 65.635zM373.11 311.257c0-.456-.245-.88-.64-1.106l-14.55-8.385a1.282 1.282 0 0 0-1.276 0l-14.548 8.386c-.397.228-.64.65-.64 1.107v16.8c0 .455.243.878.64 1.107l14.546 8.402c.397.23.884.23 1.28 0l14.548-8.402c.395-.23.64-.652.64-1.108v-16.8zm3.93 124.403a2.56 2.56 0 0 1-3.805-2.235v-65a1.79 1.79 0 0 0-2.685-1.55l-10.608 6.11a5.115 5.115 0 0 1-5.11 0l-42.372-24.453a5.115 5.115 0 0 1-2.56-4.43v-48.917c0-1.828.976-3.516 2.558-4.432l42.37-24.47a5.12 5.12 0 0 1 5.118 0l42.377 24.47a5.122 5.122 0 0 1 2.56 4.432V417.12a5.118 5.118 0 0 1-2.625 4.47l-25.215 14.07zM518.13 328.495a5.116 5.116 0 0 1 2.547 4.424v11.853c0 1.823-.97 3.51-2.548 4.425l-42.1 24.443a5.117 5.117 0 0 1-5.127.008l-42.356-24.453a5.115 5.115 0 0 1-2.558-4.43v-48.903c0-1.84.986-3.537 2.583-4.446l42.093-23.985a5.112 5.112 0 0 1 5.017-.027l25.46 14.15a2.557 2.557 0 0 1 .032 4.456l-42.625 24.464a2.56 2.56 0 0 0-1.286 2.22v15.325c0 .913.488 1.76 1.28 2.215l13.267 7.648c.79.456 1.765.456 2.555 0l13.272-7.648a2.556 2.556 0 0 0 1.28-2.216v-12.06a2.56 2.56 0 0 1 3.844-2.212l25.37 14.747z" fill="#333" fill-rule="evenodd"/><path d="M472.842 330.786a.98.98 0 0 0 .982 0l8.13-4.69c.304-.176.49-.5.49-.85v-9.39a.982.982 0 0 0-.49-.85l-8.13-4.69a.98.98 0 0 0-.982 0l-8.124 4.69a.982.982 0 0 0-.49.85v9.39c0 .35.186.674.49.85l8.124 4.69z" fill="#689f63" fill-rule="evenodd"/></g><path d="M239.032 373.393l-42.134-24.315a5.085 5.085 0 0 1-2.545-4.407v-48.665a5.09 5.09 0 0 1 2.544-4.408l42.133-24.334a5.093 5.093 0 0 1 5.09 0l42.125 24.334a5.093 5.093 0 0 1 2.543 4.408v48.668c0 1.817-.97 3.496-2.545 4.405l-42.123 24.315a5.088 5.088 0 0 1-5.088 0" fill="url(#b)" transform="matrix(1.25 0 0 -1.25 0 750)"/><path d="M195.4 292.914a5.09 5.09 0 0 1 1.497-1.317l36.143-20.874 6.017-3.46c.9-.52 1.927-.74 2.936-.665.337.028.673.09 1 .185l44.43 81.357a5.06 5.06 0 0 1-1.18.938l-27.588 15.925-14.58 8.39c-.416.24-.863.413-1.322.526L195.4 292.913z" fill="url(#c)" transform="matrix(1.25 0 0 -1.25 0 750)"/><g clip-path="url(#d)" transform="matrix(1.25 0 0 -1.25 0 750)"><path d="M237.627 382.33l-.58-.33h.774l-.193.33z" fill="url(#e)"/></g><path d="M241.065 374.048a5.072 5.072 0 0 1-2.033-.655l-42.014-24.245 45.293-82.513c.63.09 1.244.3 1.81.628l42.125 24.334c1.3.753 2.19 2.03 2.458 3.477l-46.178 78.89c-.34.068-.688.102-1.035.102-.142 0-.284-.006-.425-.018" fill="url(#f)" transform="matrix(1.25 0 0 -1.25 0 750)"/><g clip-path="url(#g)" transform="matrix(1.25 0 0 -1.25 0 750)"><path d="M290.28 292.38l-.28.477v-.64l.28.163z" fill="url(#h)"/></g><g clip-path="url(#i)" transform="matrix(1.25 0 0 -1.25 0 750)"><path d="M286.35 291.597l-42.176-24.333a5.084 5.084 0 0 0-1.86-.633l.84-1.53L290 292.22v.64l-1.158 1.978c-.347-1.348-1.263-2.528-2.49-3.24" fill="url(#j)"/></g><g clip-path="url(#k)" transform="matrix(1.25 0 0 -1.25 0 750)"><path d="M286.35 291.597l-42.176-24.333a5.084 5.084 0 0 0-1.86-.633l.84-1.53L290 292.22v.64l-1.158 1.978c-.347-1.348-1.263-2.528-2.49-3.24" fill="url(#l)"/></g></svg>