<svg xmlns="http://www.w3.org/2000/svg" width="102.9" height="137.2" viewBox="0 0 102.9 137.2"><style>.st0{fill:#8cc6ec}.st1{fill:#8dc63f}.st2{fill:#a3cf62}.st3{fill:#b2d6f1}.st4{fill:#dbdadb}.st5{fill:#f1f2f2}.st6{fill:#f9f9fa}.st7{fill:#f8f8f8}.st8{fill:#959594}.st9{fill:#00b9f2}.st10{fill:#f15b40}</style><g id="XMLID_48_"><g id="XMLID_55_"><path id="XMLID_59_" class="st0" d="M100.5 36.6c1.4 4.7 2.2 9.7 2.2 14.9 0 28.3-22.9 51.2-51.2 51.2-14.4 0-27.4-6-36.7-15.5l20.9-20.9 4.8 4.6v9.2l7.8 4.7h9.9l4-13.7V55l8.1-3.6 7.2-4.8 13.7-2.1 9.3-7.9z"/><path id="XMLID_58_" class="st1" d="M100.5 36.6l-9.3 7.9-13.7 2.1-7.2 4.8-8.2 3.6v16.1l-4 13.7h-9.9l-7.8-4.7v-9.2l-4.8-4.6 51.5-51.5c6.2 5.9 10.8 13.4 13.4 21.8z"/><path id="XMLID_57_" class="st2" d="M87.2 14.8L35.6 66.3l-1-1-11.2-9.5v-9.1l6.8-13.1h12.9l-.9-11.2H28.3l-16.8-2.9C20.9 7.7 35.3.2 51.5.2c13.8.1 26.4 5.6 35.7 14.6z"/><path id="XMLID_56_" class="st3" d="M42.2 22.5l.9 11.2h-13l-6.8 13.1v9.1l11.2 9.5 1 1-20.7 20.7C5.8 77.9.3 65.3.3 51.4c0-12.1 4.2-23.1 11.2-31.9l16.8 2.9h13.9z"/></g></g><g id="XMLID_15_"><g id="XMLID_30_"><path id="XMLID_47_" class="st4" d="M.3 133.4h102.4v3.5H.3z"/><path id="XMLID_43_" class="st5" d="M102.7 106v27.4H.3V106h102.4zm-68.2 13.8c0-1.9-1.5-3.4-3.4-3.4s-3.4 1.5-3.4 3.4 1.5 3.4 3.4 3.4 3.4-1.5 3.4-3.4zm-13.6 0c0-1.9-1.5-3.4-3.4-3.4s-3.4 1.5-3.4 3.4 1.5 3.4 3.4 3.4 3.4-1.5 3.4-3.4z"/><path id="XMLID_42_" class="st6" d="M102.7 102.7v3.3H.3v-3.3H96z"/><path id="XMLID_41_" class="st4" d="M102.7 92.4v3.2H.3v-3.2z"/><path id="XMLID_37_" class="st5" d="M102.7 65.2v27.2H.3V65.2h102.4zM34.5 78.7c0-1.9-1.5-3.4-3.4-3.4s-3.4 1.5-3.4 3.4 1.5 3.4 3.4 3.4c1.9.1 3.4-1.5 3.4-3.4zm-13.6 0c0-1.9-1.5-3.4-3.4-3.4s-3.4 1.5-3.4 3.4 1.5 3.4 3.4 3.4 3.4-1.5 3.4-3.4z"/><path id="XMLID_36_" class="st7" d="M.3 61.5h102.4v3.7H.3z"/><path id="XMLID_35_" class="st8" d="M7.1 95.6H96v7.1H7.1z"/><path id="XMLID_34_" class="st9" d="M31.1 75.3c1.9 0 3.4 1.5 3.4 3.4s-1.5 3.4-3.4 3.4-3.4-1.5-3.4-3.4 1.5-3.4 3.4-3.4z"/><path id="XMLID_33_" class="st9" d="M31.1 116.4c1.9 0 3.4 1.5 3.4 3.4s-1.5 3.4-3.4 3.4-3.4-1.5-3.4-3.4 1.5-3.4 3.4-3.4z"/><path id="XMLID_32_" class="st10" d="M17.5 75.3c1.9 0 3.4 1.5 3.4 3.4s-1.5 3.4-3.4 3.4-3.4-1.5-3.4-3.4 1.5-3.4 3.4-3.4z"/><path id="XMLID_31_" class="st10" d="M17.5 116.4c1.9 0 3.4 1.5 3.4 3.4s-1.5 3.4-3.4 3.4-3.4-1.5-3.4-3.4 1.5-3.4 3.4-3.4z"/></g></g></svg>