<svg xmlns="http://www.w3.org/2000/svg" viewBox="-226 350.2 141.7 141.7"><style>.st0{fill:#c2e3c8}.st1{fill:#cee8d2}.st2{fill:#6d6e71}.st3{fill:#e2e3e4}.st4{fill:#e2c7aa}.st5{fill:#888a8c}.st6{fill:#ebebec}.st7{fill:#ead7c3}.st8{fill:#df9f8f}.st9{fill:#e4b0a2}.st10{fill:#7896b5}.st11{fill:#9fb2c9}.st12{fill:#cfde5e}.st13{fill:#d8e481}.st14{fill:#5b585c}.st15{fill:#312d33}.st16{fill:#242926}.st17{fill:#3e3b3e}.st18{fill:#5a5557}.st19{fill:#3d3c3e}.st20{fill:#2a2a2c}.st21{fill:#6c6769}.st22{fill:#283329}.st23{fill:#2d2e30}.st24{fill:#515153}.st25{fill:#3f3b3f}.st26{fill:#6e6770}.st27{fill:#666264}.st28{fill:#f8a391}.st29{fill:#fab9a8}.st30{fill:#8dc63f}.st31{fill:#8cc6ec}.st32{fill:#a3cf62}.st33{fill:#b2d6f1}.st34{fill:#dbdadb}.st35{fill:#f9f9fa}.st36{fill:#f8f8f8}.st37{fill:#f1f2f2}.st38{fill:#959594}.st39{fill:#00b9f2}.st40{fill:#f15b40}.st41{fill:#cdc4e1}.st42{fill:#dad3e8}.st43{fill:#070807}.st44{fill:#d7ebf2}.st45{fill:#312f2f}.st46{fill:#cfe4f6}.st47{fill:#deecf9}.st48{fill:#bfd7dc}.st49{fill:#9cb6c6}.st50{fill:#aec2d0}.st51{fill:#c1cfda}.st52{fill:#deeef4}.st53{fill:#d6ebf2}</style><g id="back_x5F_bg"><g id="XMLID_87_"><path class="st0" d="M-202 467.6l93.7-91.5c11.5 11.8 18.6 28 18.6 45.8 0 36.2-29.3 65.5-65.5 65.5-18.3 0-34.9-7.6-46.8-19.8z"/><path class="st1" d="M-220.6 421.9c0-36.2 29.3-65.5 65.5-65.5 18.4 0 35 7.6 46.8 19.7l-93.7 91.5c-11.5-11.8-18.6-27.9-18.6-45.7z"/></g></g><g id="back"><g id="Calque_2"><g id="XMLID_382_"><g id="XMLID_517_"><path id="XMLID_156_" class="st2" d="M-152.2 410.8l-1.2 4.4-5-1.3.1-.2c.2-.6.5-1.3.7-1.9s.3-1.4.4-2.1l.1-.2 4.9 1.3z"/><path id="XMLID_155_" class="st2" d="M-153.4 400.2l1.1 4.4-5 1.3v-.1c-.2-1.4-.5-2.8-1.1-4.2v-.1l5-1.3z"/><path id="XMLID_154_" class="st2" d="M-156.5 420.4l-3.2 3.2-3.7-3.7.2-.2c1.1-.8 2.1-1.8 2.9-2.9l.1-.1 3.7 3.7z"/><path id="XMLID_153_" class="st2" d="M-157.3 409.5c-.1.7-.2 1.3-.4 2.1-.2.7-.4 1.3-.7 1.9l1.1-4z"/><path id="XMLID_152_" class="st2" d="M-157.3 405.9l-1.1-4.2c.6 1.3 1 2.7 1.1 4.2z"/><path id="XMLID_151_" class="st2" d="M-163.2 419.8l2.9-2.9c-.8 1-1.8 2-2.9 2.9z"/><path id="XMLID_150_" class="st2" d="M-166.3 421.6l1.3 5.1-4.4 1.1-1.3-5 .2-.1c1.3-.2 2.6-.5 3.8-1l.4-.1z"/><path id="XMLID_149_" class="st2" d="M-156.4 394.9l-3.7 3.7-.1-.1c-.8-1.1-1.9-2.2-3.1-3.1l-.1-.1 3.7-3.7 3.3 3.3z"/><path id="XMLID_148_" class="st2" d="M-170.5 422.7l3.8-1c-1.2.5-2.4.8-3.8 1z"/><path id="XMLID_147_" class="st2" d="M-160.2 398.5l-3.1-3.1c1.2.9 2.2 1.9 3.1 3.1z"/><path id="XMLID_146_" class="st2" d="M-177.7 427.2l1.3-4.9c.7.2 1.4.3 2.1.4l.2.1-1.4 5-2.2-.6z"/><path id="XMLID_145_" class="st2" d="M-168.4 392.9l1.3-4.9 2.2.6-1.3 5c-.8-.2-1.5-.5-2.2-.7z"/><path id="XMLID_144_" class="st2" d="M-166.3 393.7l-2.2-.6.1-.2c.7.2 1.4.5 2.1.8z"/><path id="XMLID_143_" class="st2" d="M-163.3 395.4l3.1 3.1c.7 1 1.4 2.1 1.8 3.2l1.1 4.2c.1 1.2.1 2.4 0 3.7l-1.1 4c-.5 1.2-1.1 2.4-1.9 3.3l-2.9 2.9c-1 .8-2.2 1.4-3.4 1.9l-3.8 1c-1.3.2-2.5.2-3.8 0l-2.1-.5 1.6-5.8c4.8 1.3 9.8-1.5 11.1-6.3 1.3-4.8-1.6-9.7-6.3-11.1l1.6-5.9 2.2.6c.9.4 1.9 1.1 2.8 1.7z"/><path id="XMLID_142_" class="st2" d="M-176.3 422.1l2.1.5c-.7-.1-1.4-.2-2.1-.4v-.1z"/><path id="XMLID_141_" class="st3" d="M-168.6 408.6c-.5 2.1-2.7 3.3-4.8 2.8l2.1-7.6c2 .6 3.3 2.7 2.7 4.8z"/><path id="XMLID_140_" class="st4" d="M-163.7 410c-1.3 4.8-6.2 7.6-11.1 6.3l1.3-4.9c2.1.5 4.3-.7 4.8-2.8.5-2.1-.7-4.3-2.8-4.8l1.3-4.9c5 1.3 7.8 6.3 6.5 11.1z"/><path id="XMLID_139_" class="st5" d="M-178.4 421.6c.7.3 1.3.5 2 .7l-1.3 4.9-2.2-.6 1.4-5h.1z"/><path id="XMLID_138_" class="st5" d="M-167.1 388.1l-1.3 4.9c-.7-.2-1.5-.4-2.2-.4l1.3-5 2.2.5z"/><path id="XMLID_137_" class="st5" d="M-176.4 422.3c-.7-.2-1.4-.4-2-.7l2.1.5-.1.2z"/><path id="XMLID_136_" class="st5" d="M-168.5 393.1l-2.2-.6c.7.1 1.5.2 2.2.4v.2z"/><path id="XMLID_135_" class="st6" d="M-176.2 406.6c.5-2.1 2.7-3.3 4.8-2.8l-2.1 7.6c-2.1-.5-3.3-2.7-2.7-4.8z"/><path id="XMLID_134_" class="st5" d="M-184.5 416.7l3 3c-1.2-.8-2.2-1.8-3-3z"/><path id="XMLID_133_" class="st7" d="M-181.1 405.3c1.3-4.8 6.2-7.6 11.1-6.3l-1.3 4.9c-2.1-.5-4.3.7-4.8 2.8-.5 2.1.7 4.3 2.8 4.8l-1.3 4.9c-4.9-1.4-7.8-6.3-6.5-11.1z"/><path id="XMLID_132_" class="st5" d="M-174.2 392.5l-4.1 1.1c1.3-.5 2.7-.9 4.1-1.1z"/><path id="XMLID_131_" class="st5" d="M-170.1 398.9c-4.8-1.3-9.8 1.5-11.1 6.3-1.3 4.8 1.6 9.7 6.3 11.1l-1.6 5.8-2.1-.5c-1.1-.5-2.2-1.1-3.1-1.8l-3-3c-.7-1-1.3-2-1.8-3.1l-1.1-4.3c-.1-1.1-.1-2.3 0-3.5l1.1-4.2c.5-1.1 1.1-2.1 1.8-3.1l3.2-3.1c1-.7 2-1.3 3.1-1.8l4.1-1.1c1.1-.1 2.4-.1 3.5 0l2.2.6-1.5 5.7z"/><path id="XMLID_130_" class="st5" d="M-181.5 419.9l-3.7 3.7-3.2-3.2 3.7-3.7.1.1c.9 1.1 1.9 2.2 3.1 3.1z"/><path id="XMLID_129_" class="st5" d="M-175.4 387.4l1.3 5h-.1c-1.4.2-2.8.5-4.1 1.1l-.2.1-1.3-5 4.4-1.2z"/><path id="XMLID_128_" class="st5" d="M-187.5 409.3l1.1 4.3c-.6-1.3-1-2.8-1.1-4.3z"/><path id="XMLID_127_" class="st5" d="M-181.4 395.4l-3.2 3.1c.9-1.2 2-2.2 3.2-3.1z"/><path id="XMLID_126_" class="st5" d="M-184.6 398.6l-3.7-3.7 3.2-3.2 3.7 3.7c-1.2.9-2.3 1.9-3.2 3.2z"/><path id="XMLID_125_" class="st5" d="M-186.4 401.6l-1.1 4.2c.1-.7.2-1.4.4-2.2s.4-1.4.7-2z"/><path id="XMLID_124_" class="st5" d="M-187.5 405.9l-5-1.3 1.2-4.4 5 1.3v.1c-.3.7-.5 1.3-.7 2.1-.3.7-.4 1.4-.5 2.2z"/><path id="XMLID_123_" class="st5" d="M-191.4 415l-1.1-4.4 5-1.3c.2 1.5.5 3 1.1 4.3v.1l-5 1.3z"/></g></g><g id="XMLID_422_"><g id="XMLID_460_"><path id="XMLID_122_" class="st8" d="M-114.4 395.2l1.1 4.4-5 1.3-.1-.2c-.2-1.3-.5-2.7-1-4l-.1-.2 5.1-1.3z"/><path id="XMLID_121_" class="st8" d="M-125.9 383.6l-1.3 5h-.1c-1.3-.6-2.8-1-4.2-1.1l-.1-.1 1.3-5 4.4 1.2z"/><path id="XMLID_120_" class="st8" d="M-117.4 389.9l-3.7 3.7-.2-.2c-.4-.5-.8-1-1.3-1.5s-1-1-1.6-1.4l-.1-.1 3.7-3.7 3.2 3.2z"/><path id="XMLID_119_" class="st8" d="M-122.6 391.9c.5.5.9 1 1.3 1.5l-2.9-2.9c.6.4 1.1.9 1.6 1.4z"/><path id="XMLID_118_" class="st8" d="M-118.3 400.7l-1-4c.5 1.3.8 2.6 1 4z"/><path id="XMLID_117_" class="st8" d="M-127.4 388.6l-4.2-1.1c1.5.1 2.9.6 4.2 1.1z"/><path id="XMLID_116_" class="st8" d="M-118.2 404.3l5 1.4-1.2 4.4-5-1.4.1-.2c.5-1.2.8-2.5 1-3.8l.1-.4z"/><path id="XMLID_115_" class="st8" d="M-136.4 382.4l1.3 5-.2.1c-1.4.2-2.8.5-4.2 1.1h-.1l-1.3-5 4.5-1.2z"/><path id="XMLID_114_" class="st8" d="M-135.2 387.5l-4.2 1.1c1.3-.5 2.7-1 4.2-1.1z"/><path id="XMLID_113_" class="st8" d="M-119.4 408.5l1-3.8c-.1 1.2-.4 2.6-1 3.8z"/><path id="XMLID_112_" class="st8" d="M-131.5 387.5l4.2 1.1c1.1.5 2.2 1.1 3.2 1.9l2.9 2.9c.8 1 1.4 2.2 1.9 3.4l1 4c.2 1.3.2 2.7-.1 3.9l-1 3.8c-.5 1.1-1.1 2.3-1.9 3.3l-1.5 1.5-4.2-4.3c3.5-3.5 3.6-9.2.1-12.7s-9.2-3.6-12.7 0l-4.3-4.3 1.6-1.6c1-.7 1.9-1.3 3-1.7l4.2-1.1c1.1-.3 2.3-.3 3.6-.1z"/><path id="XMLID_111_" class="st8" d="M-121.2 411.7l3.7 3.7-1.6 1.6-3.6-3.6c.5-.5 1-1 1.4-1.6l.1-.1z"/><path id="XMLID_110_" class="st8" d="M-146.1 386.6l3.7 3.7c-.6.4-1.2.9-1.8 1.5l-3.6-3.6 1.7-1.6z"/><path id="XMLID_109_" class="st8" d="M-142.4 390.3l-1.6 1.6-.1-.1c.5-.5 1.1-1 1.7-1.5z"/><path id="XMLID_108_" class="st8" d="M-122.8 413.2l1.5-1.5c-.4.5-.9 1.1-1.4 1.6l-.1-.1z"/><path id="XMLID_107_" class="st4" d="M-136.2 399.8l-3.6-3.6c3.5-3.5 9.2-3.5 12.7 0s3.5 9.2-.1 12.7l-3.6-3.6c1.6-1.5 1.6-4 0-5.6-1.3-1.4-3.9-1.4-5.4.1z"/><path id="XMLID_106_" class="st3" d="M-130.6 405.4l-5.6-5.6c1.6-1.5 4-1.5 5.6 0 1.5 1.5 1.5 4.1 0 5.6z"/><path id="XMLID_105_" class="st9" d="M-122.7 413.4l3.6 3.6-1.6 1.6-3.7-3.7.1-.1c.6-.5 1.1-.9 1.6-1.4z"/><path id="XMLID_104_" class="st9" d="M-122.8 413.2l.1.1c-.5.5-1 1-1.6 1.4l1.5-1.5z"/><path id="XMLID_103_" class="st7" d="M-127.1 409c-3.6 3.5-9.2 3.5-12.7 0s-3.5-9.2.1-12.7l3.6 3.6c-1.6 1.6-1.6 4 0 5.6 1.5 1.6 4 1.6 5.6 0l3.4 3.5z"/><path id="XMLID_102_" class="st9" d="M-144 391.9l-1.6 1.6c.4-.6 1-1.1 1.6-1.6z"/><path id="XMLID_101_" class="st9" d="M-145.6 393.5l-3.7-3.7 1.6-1.6 3.6 3.6c-.6.5-1.1 1.1-1.5 1.7z"/><path id="XMLID_100_" class="st6" d="M-130.6 405.4c-1.6 1.5-4 1.5-5.6 0-1.5-1.6-1.5-4 0-5.6l5.6 5.6z"/><path id="XMLID_99_" class="st9" d="M-127.4 416.6l1.3 5-4.4 1.1-1.3-5 .2-.1c1.4-.2 2.8-.5 4.1-1.1h.1z"/><path id="XMLID_98_" class="st9" d="M-147.4 396.6l-1.1 4.1c.2-1.4.5-2.8 1.1-4.1z"/><path id="XMLID_60_" class="st9" d="M-131.6 417.7l4.1-1.1c-1.3.6-2.7.9-4.1 1.1z"/><path id="XMLID_59_" class="st9" d="M-148.6 400.9l-5-1.4 1.2-4.4 5 1.4v.1c-.6 1.3-1 2.7-1.1 4.1l-.1.2z"/><path id="XMLID_56_" class="st9" d="M-148.6 404.3l1.1 4.3c-.5-1.4-.9-2.9-1.1-4.3z"/><path id="XMLID_55_" class="st9" d="M-139.5 416.6l4.3 1.1c-1.5-.2-3-.5-4.3-1.1z"/><path id="XMLID_54_" class="st9" d="M-135.2 417.7l-1.3 5-4.4-1.2 1.3-5c1.4.6 2.8 1 4.3 1.1l.1.1z"/><path id="XMLID_53_" class="st9" d="M-139.8 408.9c3.5 3.5 9.2 3.6 12.7 0l4.2 4.3-1.5 1.5c-1 .7-2.1 1.3-3.1 1.8l-4.1 1.1c-1.2.2-2.5.2-3.7 0l-4.3-1.1c-1-.5-2.1-1-3-1.8l-3.1-3.1c-.7-1-1.3-2-1.8-3.1l-1.1-4.3c-.1-1.2-.1-2.4.1-3.6l1.1-4.1c.5-1.1 1-2.1 1.8-3l1.6-1.6 4.3 4.3c-3.6 3.5-3.6 9.2-.1 12.7z"/><path id="XMLID_52_" class="st9" d="M-145.7 411.7l3.1 3.1c-.6-.4-1.1-.9-1.7-1.4-.5-.6-.9-1.1-1.4-1.7z"/><path id="XMLID_51_" class="st9" d="M-142.5 414.8l-3.7 3.7-3.2-3.2 3.7-3.7.1.1c.4.5.9 1.1 1.4 1.6.5.5 1.1 1 1.7 1.5z"/><path id="XMLID_50_" class="st9" d="M-147.4 408.6l-5 1.3-1.1-4.4 5-1.3v.1c.1 1.4.5 2.9 1.1 4.3z"/></g></g><g id="XMLID_475_"><g id="XMLID_551_"><path id="XMLID_49_" class="st10" d="M-140.8 457.8l-4.4 1.2-1.4-5h.1c1.4-.2 2.8-.5 4.2-1.1h.1l1.4 4.9z"/><path id="XMLID_48_" class="st10" d="M-150 454l-1.3 5-4.4-1.1 1.3-5 .2.1c.6.2 1.3.5 1.9.7.7.2 1.4.3 2.1.4l.2-.1z"/><path id="XMLID_47_" class="st10" d="M-154.2 452.9l4 1c-.7-.1-1.3-.2-2.1-.4-.6-.1-1.3-.3-1.9-.6z"/><path id="XMLID_46_" class="st10" d="M-161.1 454.8l-3.2-3.2 3.7-3.7.2.2c.8 1.1 1.8 2.1 2.9 2.9l.1.1-3.7 3.7z"/><path id="XMLID_45_" class="st10" d="M-146.5 453.9l4.2-1.1c-1.4.6-2.8 1-4.2 1.1z"/><path id="XMLID_44_" class="st10" d="M-160.5 448.1l2.9 2.9c-1-.8-2-1.8-2.9-2.9z"/><path id="XMLID_43_" class="st10" d="M-135.6 454.7l-3.7-3.6.1-.1c1.1-.8 2.2-1.9 3-3.1l.1-.1 3.7 3.6-3.2 3.3z"/><path id="XMLID_42_" class="st10" d="M-167.3 446.4l-1.2-4.4 5-1.3.1.2c.2 1.3.5 2.6 1 3.8l.1.4-5 1.3z"/><path id="XMLID_41_" class="st10" d="M-139.1 451l3-3.1c-.9 1.1-1.9 2.2-3 3.1z"/><path id="XMLID_40_" class="st10" d="M-163.4 440.9l1 3.8c-.5-1.2-.8-2.5-1-3.8z"/><path id="XMLID_39_" class="st3" d="M-152.2 437.9l7.6 2c-.5 2.1-2.7 3.4-4.8 2.8-2.1-.6-3.3-2.7-2.8-4.8z"/><path id="XMLID_38_" class="st10" d="M-150.7 447.6c4.8 1.3 9.7-1.6 11-6.5l5.9 1.5-.6 2.2c-.5 1.1-1 2.1-1.8 3l-3 3.1c-1 .7-2.1 1.4-3.1 1.9l-4.2 1.1c-1.2.2-2.4.2-3.7 0l-4-1c-1.2-.5-2.4-1.1-3.4-1.9l-2.9-2.9c-.8-1-1.4-2.2-2-3.4l-1-3.8c-.2-1.3-.2-2.5 0-3.8l.5-2.1 5.9 1.5c-1.2 4.9 1.6 9.8 6.4 11.1z"/><path id="XMLID_37_" class="st10" d="M-163.5 437.3l-5.1-1.3.6-2.2 4.9 1.3c-.2.7-.3 1.4-.4 2.1v.1z"/><path id="XMLID_36_" class="st10" d="M-129.4 446.2l-5-1.3c.3-.7.5-1.4.7-2.2l4.9 1.3-.6 2.2z"/><path id="XMLID_35_" class="st10" d="M-134.4 444.9l.6-2.2.2.1c-.3.7-.5 1.4-.8 2.1z"/><path id="XMLID_34_" class="st10" d="M-162.9 435l-.5 2.1c.1-.7.2-1.4.4-2.1h.1z"/><path id="XMLID_33_" class="st4" d="M-139.7 441.1c-1.3 4.8-6.2 7.7-11 6.5-4.8-1.3-7.7-6.2-6.4-11l4.9 1.3c-.5 2.1.7 4.3 2.8 4.8s4.3-.7 4.8-2.8l4.9 1.2z"/><path id="XMLID_32_" class="st11" d="M-133.6 442.7l-.2-.1.6-2.2c-.1.8-.3 1.6-.4 2.3z"/><path id="XMLID_31_" class="st11" d="M-128.8 444l-4.9-1.3c.2-.7.4-1.5.4-2.2l5 1.3-.5 2.2z"/><path id="XMLID_30_" class="st11" d="M-162.4 433c-.3.7-.5 1.3-.7 2l-4.9-1.3.6-2.2 5 1.3v.2z"/><path id="XMLID_29_" class="st11" d="M-163.1 435c.2-.7.4-1.4.7-2l-.5 2.1-.2-.1z"/><path id="XMLID_28_" class="st6" d="M-144.6 439.9l-7.6-2c.5-2.1 2.7-3.4 4.8-2.8 2.1.5 3.4 2.6 2.8 4.8z"/><path id="XMLID_27_" class="st7" d="M-139.7 441.1l-4.9-1.3c.5-2.1-.7-4.3-2.8-4.8-2.1-.5-4.2.7-4.8 2.8l-4.9-1.3c1.3-4.8 6.2-7.7 11-6.5 4.8 1.4 7.7 6.3 6.4 11.1z"/><path id="XMLID_26_" class="st11" d="M-128.2 435.7l-5 1.3c-.2-1.4-.5-2.8-1.1-4.1l-.1-.2 5-1.3 1.2 4.3z"/><path id="XMLID_25_" class="st11" d="M-133.3 437l-1.1-4.1c.6 1.3.9 2.7 1.1 4.1z"/><path id="XMLID_24_" class="st11" d="M-157.6 426.8c-1.1.8-2.1 1.9-3 3l-.1.1-3.7-3.7 3.2-3.3 3.7 3.6-.1.3z"/><path id="XMLID_23_" class="st11" d="M-160.6 429.8c.8-1.1 1.9-2.2 3-3l-3 3z"/><path id="XMLID_22_" class="st11" d="M-150.2 423.7l-4.3 1.2c1.4-.6 2.8-1 4.3-1.2z"/><path id="XMLID_21_" class="st11" d="M-132.5 426.1l-3.7 3.7c-.9-1.2-1.9-2.3-3.2-3.1l3.7-3.7 3.2 3.1z"/><path id="XMLID_20_" class="st11" d="M-136.2 429.8l-3.2-3.1c1.3.8 2.3 1.9 3.2 3.1z"/><path id="XMLID_19_" class="st11" d="M-139.4 426.6l3.2 3.1c.7 1 1.3 2 1.8 3.1l1.1 4.1c.1 1.1.2 2.4 0 3.5l-.6 2.2-5.9-1.5c1.3-4.8-1.6-9.7-6.4-11-4.8-1.3-9.7 1.6-11 6.5l-5.9-1.5.5-2.1c.5-1.1 1.1-2.2 1.8-3.2l3-3c1-.7 2-1.4 3.1-1.9l4.3-1.2c1.1-.1 2.3-.1 3.5 0l4.2 1.1c1.4.5 2.4 1.1 3.3 1.8z"/><path id="XMLID_18_" class="st11" d="M-146.7 423.7c.7.1 1.4.2 2.2.4.7.2 1.4.4 2.1.7l-4.3-1.1z"/><path id="XMLID_17_" class="st11" d="M-146.7 423.7l1.3-5 4.4 1.1-1.3 5h-.1c-.7-.3-1.3-.5-2.1-.7-.7-.2-1.5-.3-2.2-.4z"/><path id="XMLID_16_" class="st11" d="M-155.9 419.9l4.4-1.2 1.4 5c-1.5.2-3 .6-4.3 1.2h-.1l-1.4-5z"/></g></g></g></g></svg>