<svg xmlns="http://www.w3.org/2000/svg" viewBox="-226 350.2 141.7 141.7"><style>.st0{fill:#c2e3c8}.st1{fill:#cee8d2}.st2{fill:#6d6e71}.st3{fill:#e2e3e4}.st4{fill:#e2c7aa}.st5{fill:#888a8c}.st6{fill:#ebebec}.st7{fill:#ead7c3}.st8{fill:#df9f8f}.st9{fill:#e4b0a2}.st10{fill:#7896b5}.st11{fill:#9fb2c9}.st12{fill:#cfde5e}.st13{fill:#d8e481}.st14{fill:#5b585c}.st15{fill:#312d33}.st16{fill:#242926}.st17{fill:#3e3b3e}.st18{fill:#5a5557}.st19{fill:#3d3c3e}.st20{fill:#2a2a2c}.st21{fill:#6c6769}.st22{fill:#283329}.st23{fill:#2d2e30}.st24{fill:#515153}.st25{fill:#3f3b3f}.st26{fill:#6e6770}.st27{fill:#666264}.st28{fill:#f8a391}.st29{fill:#fab9a8}.st30{fill:#8dc63f}.st31{fill:#8cc6ec}.st32{fill:#a3cf62}.st33{fill:#b2d6f1}.st34{fill:#dbdadb}.st35{fill:#f9f9fa}.st36{fill:#f8f8f8}.st37{fill:#f1f2f2}.st38{fill:#959594}.st39{fill:#00b9f2}.st40{fill:#f15b40}.st41{fill:#cdc4e1}.st42{fill:#dad3e8}.st43{fill:#070807}.st44{fill:#d7ebf2}.st45{fill:#312f2f}.st46{fill:#cfe4f6}.st47{fill:#deecf9}.st48{fill:#bfd7dc}.st49{fill:#9cb6c6}.st50{fill:#aec2d0}.st51{fill:#c1cfda}.st52{fill:#deeef4}.st53{fill:#d6ebf2}</style><g id="front_x5F_bg"><g id="XMLID_88_"><path class="st41" d="M-202 467.6l93.7-91.5c11.5 11.8 18.6 28 18.6 45.8 0 36.2-29.3 65.5-65.5 65.5-18.3 0-34.9-7.6-46.8-19.8z"/><path class="st42" d="M-108.3 376.1l-93.7 91.5c-11.5-11.8-18.6-28-18.6-45.8 0-36.2 29.3-65.5 65.5-65.5 18.3.1 34.9 7.6 46.8 19.8z"/></g></g><g id="front"><g id="XMLID_90_"><path class="st43" d="M-114 393v40.5h-.1l-7.2-4h1.8v-.1h.1v-34.5h-17.1l4.7-4.6v-.4h14.5c1.9-.1 3.3 1.3 3.3 3.1z"/><path class="st44" d="M-114.1 433.4v3.8c0 1.8-1.4 3.2-3.2 3.2h-34.6v-1c1-.1 1.8-.9 1.8-1.8 0-1-.8-1.8-1.8-1.8v-2.3h37.8zM-114.1 433.4h-.1.1z"/><path class="st45" d="M-114.1 433.4z"/><path class="st43" d="M-114.1 433.4h-37.8 37.7z"/><path class="st45" d="M-121.4 429.3h1.9v.1h-1.8z"/><path class="st43" d="M-121.3 429.4h-.1l-.1-.1h.1z"/><path class="st31" d="M-121.4 429.3h-.1l-3.4-1.9zM-121.4 429.3l.1.1-.1-.1z"/><path class="st46" d="M-124.7 416.1v11.3h-.2l-16-8.9v-2.4zM-124.7 397.2v16.5h-24.8l-.1-.1h-.1l-3.9-2.1 14.7-14.3z"/><path class="st46" d="M-124.9 427.4h-16v-8.9z"/><path class="st45" d="M-131.7 389.8v.4l-4.7 4.6h-47.1l-2.9-1.6-2.5-1.4c.5-1.1 1.6-2 3-2h54.2z"/><path class="st47" d="M-138.9 397.2l-14.7 14.3-25.5-14.2v-.1z"/><path class="st31" d="M-140.9 418.5v8.9-8.9zM-140.9 418.5zM-140.9 418.5l-2.9-1.6z"/><path class="st48" d="M-142.7 451.8h5.9c1 0 1.8.5 1.8 1.1 0 .3-.2.6-.6.8-.4.2-.8.4-1.4.4h-15v-2.3h9.3z"/><path class="st49" d="M-143.9 440.4l.5 4.6h-8.5v-4.6z"/><path class="st50" d="M-143.4 445l.7 6.8h-9.2V445h8z"/><path class="st46" d="M-143.9 416.9v10.5H-160v-9.6l1.7-1.7h13z"/><path class="st46" d="M-143.9 416.1v.8l-1.4-.8z"/><path class="st31" d="M-136.4 394.8h16.9v34.5h-1.9l-3.5-1.9h.2v-11.3h-16.2v2.4l-2.9-1.6h-.1v-.8h-1.4l-.1-.1h.1l-4.2-2.3h24.8v-16.5h-14.2z"/><path class="st31" d="M-145.3 416h-.1l-4.2-2.3h.1zM-145.4 416h-12.8l2.4-2.3h6.2z"/><path class="st47" d="M-149.5 413.7h-.1l-.1-.1h.1z"/><path class="st46" d="M-149.6 413.7h-6.2v-.1h6.1z"/><path class="st46" d="M-149.7 413.6h-6.1l2.2-2.1z"/><path class="st50" d="M-150.2 437.6c0 1-.8 1.8-1.8 1.8v-.1c1.1 0 1.8-.8 1.8-1.7z"/><path class="st50" d="M-151.9 439.4v-3.6c1 .1 1.7.8 1.8 1.8-.1.9-.8 1.7-1.8 1.8z"/><path class="st51" d="M-151.9 445v6.8h-8.9v-.1l.7-6.7h.5z"/><path class="st43" d="M-151.9 433.4H-176l4.2-4.1h50.3l.1.1h.1l3.3 1.8 3.8 2.2h-37.7z"/><path class="st50" d="M-151.9 440.4v4.6h-8.2l.5-4.6h7.6z"/><path class="st43" d="M-152 433.4h-37.2 13.2z"/><path class="st51" d="M-152 439.4c-1 0-1.8-.8-1.8-1.8s.8-1.8 1.8-1.8h.1l-.1 3.6z"/><path class="st52" d="M-152 439.4c-1 0-1.8-.8-1.8-1.8 0 1 .7 1.8 1.8 1.8z"/><path class="st47" d="M-153.6 411.5l-2.2 2.1h-23.3v-16.3z"/><path class="st52" d="M-152 440.4h-34c-1.8 0-3.2-1.4-3.2-3.2v-3.9h.1v.1h37.2v2.3h-.1c-1 0-1.8.8-1.8 1.8s.8 1.8 1.8 1.8h.1v1.1z"/><path class="st46" d="M-155.8 413.6v.1h-23.3v-.1z"/><path class="st47" d="M-158.3 416.1l-1.7 1.7v-1.7z"/><path class="st31" d="M-160 427.4v.1h16.2v-10.6l2.9 1.6v8.9h16l3.4 1.9h-50.3l1.9-1.8h7v-6.9l2.9-2.8z"/><path class="st46" d="M-162.9 420.6v6.9h-7z"/><path class="st47" d="M-162.9 416.1v4.5l-7 6.9h-9.2v-11.4z"/><path class="st53" d="M-151.9 451.8v2.3h-14.8c-.9 0-1.7-.5-1.7-1.2 0-.3.2-.6.5-.8.3-.2.8-.4 1.3-.4h14.7z"/><path class="st31" d="M-162.9 416.1h-16.2v11.4h9.2l-1.9 1.8h-12.6v-34.5h.8l4.5 2.5V413.7h23.3l-2.4 2.3h-1.8v1.8l-2.9 2.8z"/><path class="st31" d="M-179.1 397.2v.1l-4.5-2.5h47.2l-2.5 2.4z"/><path class="st45" d="M-184.4 394.8v34.5h12.6l-4.1 4h-13.2V393c0-.4.1-.8.2-1.2l2.5 1.4 2.9 1.6h-.9z"/></g></g></svg>