<svg xmlns="http://www.w3.org/2000/svg" viewBox="-226 350.2 141.7 141.7"><style>.st0{fill:#c2e3c8}.st1{fill:#cee8d2}.st2{fill:#6d6e71}.st3{fill:#e2e3e4}.st4{fill:#e2c7aa}.st5{fill:#888a8c}.st6{fill:#ebebec}.st7{fill:#ead7c3}.st8{fill:#df9f8f}.st9{fill:#e4b0a2}.st10{fill:#7896b5}.st11{fill:#9fb2c9}.st12{fill:#cfde5e}.st13{fill:#d8e481}.st14{fill:#5b585c}.st15{fill:#312d33}.st16{fill:#242926}.st17{fill:#3e3b3e}.st18{fill:#5a5557}.st19{fill:#3d3c3e}.st20{fill:#2a2a2c}.st21{fill:#6c6769}.st22{fill:#283329}.st23{fill:#2d2e30}.st24{fill:#515153}.st25{fill:#3f3b3f}.st26{fill:#6e6770}.st27{fill:#666264}.st28{fill:#f8a391}.st29{fill:#fab9a8}.st30{fill:#8dc63f}.st31{fill:#8cc6ec}.st32{fill:#a3cf62}.st33{fill:#b2d6f1}.st34{fill:#dbdadb}.st35{fill:#f9f9fa}.st36{fill:#f8f8f8}.st37{fill:#f1f2f2}.st38{fill:#959594}.st39{fill:#00b9f2}.st40{fill:#f15b40}.st41{fill:#cdc4e1}.st42{fill:#dad3e8}.st43{fill:#070807}.st44{fill:#d7ebf2}.st45{fill:#312f2f}.st46{fill:#cfe4f6}.st47{fill:#deecf9}.st48{fill:#bfd7dc}.st49{fill:#9cb6c6}.st50{fill:#aec2d0}.st51{fill:#c1cfda}.st52{fill:#deeef4}.st53{fill:#d6ebf2}</style><g id="graphic_x5F_bg"><g id="XMLID_89_"><path class="st12" d="M-202 467.8l93.7-91.5c11.5 11.8 18.6 28 18.6 45.8 0 36.2-29.3 65.5-65.5 65.5-18.3-.1-34.9-7.6-46.8-19.8z"/><path class="st13" d="M-220.6 422c0-36.2 29.3-65.5 65.5-65.5 18.4 0 35 7.6 46.8 19.7l-93.7 91.5c-11.5-11.7-18.6-27.9-18.6-45.7z"/></g></g><g id="graphic"><g id="Calque_3_3_"><g id="XMLID_193_"><g id="XMLID_195_"><path id="XMLID_228_" class="st14" d="M-113.2 451.8h1.4v2.3h-1.4z"/><path id="XMLID_227_" class="st15" d="M-115.8 455v-4.1h2.6v4.1z"/><path id="XMLID_226_" class="st16" d="M-115.8 455v1.1h-5v-6.3h5v1.1z"/><path id="XMLID_207_" class="st17" d="M-120.8 449.8v6.3h-54V449.8z"/><path id="XMLID_206_" class="st18" d="M-173 433.2l36-36.2h14.8v36.2z"/><path id="XMLID_205_" class="st19" d="M-133.8 393.7h16v43h-58.3v-.3l3.1-3.2h50.8V397H-137z"/><path id="XMLID_204_" class="st20" d="M-133.8 393.7H-193v-6.5h74.6c3.9 0 6.9 3.1 6.9 6.9V436c0 3.9-3.1 6.9-6.9 6.9H-193v-6.3H-117.8v-43h-16z"/><path id="XMLID_203_" class="st21" d="M-177.4 433.2V397h40.4l-36 36.2z"/><path id="XMLID_202_" class="st22" d="M-176.7 454.7v-4.2h1.9v4.9h-1.9z"/><path id="XMLID_201_" class="st23" d="M-178.1 453.8v-2.6h1.4v3.5h-1.4z"/><path id="XMLID_200_" class="st24" d="M-176.1 436.7h-8v-43h50.3l-3.2 3.3h-40.4v36.2h4.4l-3.1 3.2z"/><path id="XMLID_199_" class="st25" d="M-181.3 453.5v-1.7h3.2v2h-3.2z"/><path id="XMLID_198_" class="st26" d="M-185.3 452.1h4v1.4h-2z"/><path id="XMLID_197_" class="st27" d="M-193 414.9h8.9v21.8h-8.9z"/><path id="XMLID_196_" class="st21" d="M-193 393.7h8.9v21.2h-8.9z"/></g></g></g></g></svg>