<svg xmlns="http://www.w3.org/2000/svg" viewBox="-226 350.2 141.7 141.7"><style>.st0{fill:#c2e3c8}.st1{fill:#cee8d2}.st2{fill:#6d6e71}.st3{fill:#e2e3e4}.st4{fill:#e2c7aa}.st5{fill:#888a8c}.st6{fill:#ebebec}.st7{fill:#ead7c3}.st8{fill:#df9f8f}.st9{fill:#e4b0a2}.st10{fill:#7896b5}.st11{fill:#9fb2c9}.st12{fill:#cfde5e}.st13{fill:#d8e481}.st14{fill:#5b585c}.st15{fill:#312d33}.st16{fill:#242926}.st17{fill:#3e3b3e}.st18{fill:#5a5557}.st19{fill:#3d3c3e}.st20{fill:#2a2a2c}.st21{fill:#6c6769}.st22{fill:#283329}.st23{fill:#2d2e30}.st24{fill:#515153}.st25{fill:#3f3b3f}.st26{fill:#6e6770}.st27{fill:#666264}.st28{fill:#f8a391}.st29{fill:#fab9a8}.st30{fill:#8dc63f}.st31{fill:#8cc6ec}.st32{fill:#a3cf62}.st33{fill:#b2d6f1}.st34{fill:#dbdadb}.st35{fill:#f9f9fa}.st36{fill:#f8f8f8}.st37{fill:#f1f2f2}.st38{fill:#959594}.st39{fill:#00b9f2}.st40{fill:#f15b40}.st41{fill:#cdc4e1}.st42{fill:#dad3e8}.st43{fill:#070807}.st44{fill:#d7ebf2}.st45{fill:#312f2f}.st46{fill:#cfe4f6}.st47{fill:#deecf9}.st48{fill:#bfd7dc}.st49{fill:#9cb6c6}.st50{fill:#aec2d0}.st51{fill:#c1cfda}.st52{fill:#deeef4}.st53{fill:#d6ebf2}</style><g id="operate_x5F_bg"><g id="XMLID_86_"><path class="st28" d="M-155.1 487.4c-18.4 0-35-7.6-46.9-19.7l93.7-91.5c11.5 11.8 18.6 28 18.6 45.8 0 36.1-29.3 65.4-65.4 65.4z"/><path class="st29" d="M-155.1 356.4c18.4 0 35 7.6 46.8 19.7l-93.7 91.5c-11.5-11.8-18.6-27.9-18.6-45.8 0-36.1 29.3-65.4 65.5-65.4z"/></g></g><g id="operate"><g id="Calque_1_2_"><g id="XMLID_82_"><g id="XMLID_84_"><path id="XMLID_163_" class="st30" d="M-153 431.2l-4.7-2.8v-5.6l-2.9-2.8 31.1-31.1c3.7 3.6 6.5 8.1 8 13.2l-5.6 4.8-8.3 1.3-4.3 2.9-4.9 2.2v9.7l-2.4 8.3h-6z"/><path id="XMLID_162_" class="st31" d="M-127 406.8l5.6-4.8c.8 2.8 1.3 5.9 1.3 9 0 17.1-13.8 30.9-30.9 30.9-8.7 0-16.5-3.6-22.2-9.4l12.6-12.6 2.9 2.8v5.6l4.7 2.8h5.9l2.4-8.3v-9.7l4.9-2.2 4.3-2.9 8.5-1.2z"/><path id="XMLID_161_" class="st32" d="M-156.6 393.5h-8.4l-10.1-1.8c5.7-7.1 14.4-11.7 24.2-11.7 8.4 0 16 3.3 21.6 8.8l-31.1 31.2-.6-.6-6.8-5.7v-5.5l4.1-7.9h7.7l-.6-6.8z"/><path id="XMLID_85_" class="st33" d="M-165 393.5h8.4l.5 6.8h-7.8l-4.1 7.9v5.5l6.8 5.7.6.6-12.6 12.6c-5.4-5.6-8.8-13.2-8.8-21.6 0-7.3 2.5-13.9 6.8-19.3l10.2 1.8z"/></g></g><g id="XMLID_57_"><g id="XMLID_61_"><path id="XMLID_73_" class="st34" d="M-181.9 460.5h61.8v2.1h-61.8z"/><path id="XMLID_72_" class="st35" d="M-177.8 442h57.7v2h-61.8v-2z"/><path id="XMLID_70_" class="st36" d="M-181.9 417.1h61.8v2.2h-61.8z"/><path id="XMLID_69_" class="st37" d="M-181.9 419.3h61.8v16.4h-61.8v-16.4zm12.4 8.2c0-1.1-.9-2.1-2.1-2.1-1.1 0-2.1.9-2.1 2.1 0 1.1.9 2.1 2.1 2.1 1.2-.1 2.1-1 2.1-2.1zm8.2 0c0-1.1-.9-2.1-2.1-2.1-1.1 0-2.1.9-2.1 2.1 0 1.1.9 2.1 2.1 2.1 1.2-.1 2.1-1 2.1-2.1z"/><path id="XMLID_68_" class="st38" d="M-177.8 437.7h53.7v4.3h-53.7z"/><path id="XMLID_67_" class="st39" d="M-163.3 425.4c1.1 0 2.1.9 2.1 2.1 0 1.1-.9 2.1-2.1 2.1-1.1 0-2.1-.9-2.1-2.1 0-1.2.9-2.1 2.1-2.1z"/><path id="XMLID_66_" class="st39" d="M-163.3 450.2c1.1 0 2.1.9 2.1 2.1s-.9 2.1-2.1 2.1c-1.1 0-2.1-.9-2.1-2.1s.9-2.1 2.1-2.1z"/><path id="XMLID_65_" class="st37" d="M-169.5 452.3c0-1.1-.9-2.1-2.1-2.1-1.1 0-2.1.9-2.1 2.1s.9 2.1 2.1 2.1c1.2 0 2.1-1 2.1-2.1zm-12.4 8.2V444h61.8v16.5h-61.8zm20.6-8.2c0-1.1-.9-2.1-2.1-2.1-1.1 0-2.1.9-2.1 2.1s.9 2.1 2.1 2.1c1.2 0 2.1-1 2.1-2.1z"/><path id="XMLID_64_" class="st40" d="M-171.5 425.4c1.1 0 2.1.9 2.1 2.1 0 1.1-.9 2.1-2.1 2.1-1.1 0-2.1-.9-2.1-2.1 0-1.2.9-2.1 2.1-2.1z"/><path id="XMLID_63_" class="st40" d="M-171.5 450.2c1.1 0 2.1.9 2.1 2.1s-.9 2.1-2.1 2.1c-1.1 0-2.1-.9-2.1-2.1s.9-2.1 2.1-2.1z"/><path id="XMLID_62_" class="st34" d="M-177.8 437.7h-4.1v-1.9h61.8v1.9h-4z"/></g></g></g></g></svg>