<svg xmlns="http://www.w3.org/2000/svg" viewBox="-226 350.2 141.7 141.7"><style>.st0{fill:#c2e3c8}.st1{fill:#cee8d2}.st2{fill:#6d6e71}.st3{fill:#e2e3e4}.st4{fill:#e2c7aa}.st5{fill:#888a8c}.st6{fill:#ebebec}.st7{fill:#ead7c3}.st8{fill:#df9f8f}.st9{fill:#e4b0a2}.st10{fill:#7896b5}.st11{fill:#9fb2c9}.st12{fill:#cfde5e}.st13{fill:#d8e481}.st14{fill:#5b585c}.st15{fill:#312d33}.st16{fill:#242926}.st17{fill:#3e3b3e}.st18{fill:#5a5557}.st19{fill:#3d3c3e}.st20{fill:#2a2a2c}.st21{fill:#6c6769}.st22{fill:#283329}.st23{fill:#2d2e30}.st24{fill:#515153}.st25{fill:#3f3b3f}.st26{fill:#6e6770}.st27{fill:#666264}.st28{fill:#f8a391}.st29{fill:#fab9a8}.st30{fill:#8dc63f}.st31{fill:#8cc6ec}.st32{fill:#a3cf62}.st33{fill:#b2d6f1}.st34{fill:#dbdadb}.st35{fill:#f9f9fa}.st36{fill:#f8f8f8}.st37{fill:#f1f2f2}.st38{fill:#959594}.st39{fill:#00b9f2}.st40{fill:#f15b40}.st41{fill:#cdc4e1}.st42{fill:#dad3e8}.st43{fill:#070807}.st44{fill:#d7ebf2}.st45{fill:#312f2f}.st46{fill:#cfe4f6}.st47{fill:#deecf9}.st48{fill:#bfd7dc}.st49{fill:#9cb6c6}.st50{fill:#aec2d0}.st51{fill:#c1cfda}.st52{fill:#deeef4}.st53{fill:#d6ebf2}</style><g id="back_x5F_bg"><g id="XMLID_87_"><path class="st0" d="M-202 467.6l93.7-91.5c11.5 11.8 18.6 28 18.6 45.8 0 36.2-29.3 65.5-65.5 65.5-18.3 0-34.9-7.6-46.8-19.8z"/><path class="st1" d="M-220.6 421.9c0-36.2 29.3-65.5 65.5-65.5 18.4 0 35 7.6 46.8 19.7l-93.7 91.5c-11.5-11.8-18.6-27.9-18.6-45.7z"/></g></g><g id="back"><g id="Calque_2"><g id="XMLID_382_"><g id="XMLID_517_"><path id="XMLID_156_" class="st2" d="M-152.2 410.8l-1.2 4.4-5-1.3.1-.2c.2-.6.5-1.3.7-1.9s.3-1.4.4-2.1l.1-.2 4.9 1.3z"/><path id="XMLID_155_" class="st2" d="M-153.4 400.2l1.1 4.4-5 1.3v-.1c-.2-1.4-.5-2.8-1.1-4.2v-.1l5-1.3z"/><path id="XMLID_154_" class="st2" d="M-156.5 420.4l-3.2 3.2-3.7-3.7.2-.2c1.1-.8 2.1-1.8 2.9-2.9l.1-.1 3.7 3.7z"/><path id="XMLID_153_" class="st2" d="M-157.3 409.5c-.1.7-.2 1.3-.4 2.1-.2.7-.4 1.3-.7 1.9l1.1-4z"/><path id="XMLID_152_" class="st2" d="M-157.3 405.9l-1.1-4.2c.6 1.3 1 2.7 1.1 4.2z"/><path id="XMLID_151_" class="st2" d="M-163.2 419.8l2.9-2.9c-.8 1-1.8 2-2.9 2.9z"/><path id="XMLID_150_" class="st2" d="M-166.3 421.6l1.3 5.1-4.4 1.1-1.3-5 .2-.1c1.3-.2 2.6-.5 3.8-1l.4-.1z"/><path id="XMLID_149_" class="st2" d="M-156.4 394.9l-3.7 3.7-.1-.1c-.8-1.1-1.9-2.2-3.1-3.1l-.1-.1 3.7-3.7 3.3 3.3z"/><path id="XMLID_148_" class="st2" d="M-170.5 422.7l3.8-1c-1.2.5-2.4.8-3.8 1z"/><path id="XMLID_147_" class="st2" d="M-160.2 398.5l-3.1-3.1c1.2.9 2.2 1.9 3.1 3.1z"/><path id="XMLID_146_" class="st2" d="M-177.7 427.2l1.3-4.9c.7.2 1.4.3 2.1.4l.2.1-1.4 5-2.2-.6z"/><path id="XMLID_145_" class="st2" d="M-168.4 392.9l1.3-4.9 2.2.6-1.3 5c-.8-.2-1.5-.5-2.2-.7z"/><path id="XMLID_144_" class="st2" d="M-166.3 393.7l-2.2-.6.1-.2c.7.2 1.4.5 2.1.8z"/><path id="XMLID_143_" class="st2" d="M-163.3 395.4l3.1 3.1c.7 1 1.4 2.1 1.8 3.2l1.1 4.2c.1 1.2.1 2.4 0 3.7l-1.1 4c-.5 1.2-1.1 2.4-1.9 3.3l-2.9 2.9c-1 .8-2.2 1.4-3.4 1.9l-3.8 1c-1.3.2-2.5.2-3.8 0l-2.1-.5 1.6-5.8c4.8 1.3 9.8-1.5 11.1-6.3 1.3-4.8-1.6-9.7-6.3-11.1l1.6-5.9 2.2.6c.9.4 1.9 1.1 2.8 1.7z"/><path id="XMLID_142_" class="st2" d="M-176.3 422.1l2.1.5c-.7-.1-1.4-.2-2.1-.4v-.1z"/><path id="XMLID_141_" class="st3" d="M-168.6 408.6c-.5 2.1-2.7 3.3-4.8 2.8l2.1-7.6c2 .6 3.3 2.7 2.7 4.8z"/><path id="XMLID_140_" class="st4" d="M-163.7 410c-1.3 4.8-6.2 7.6-11.1 6.3l1.3-4.9c2.1.5 4.3-.7 4.8-2.8.5-2.1-.7-4.3-2.8-4.8l1.3-4.9c5 1.3 7.8 6.3 6.5 11.1z"/><path id="XMLID_139_" class="st5" d="M-178.4 421.6c.7.3 1.3.5 2 .7l-1.3 4.9-2.2-.6 1.4-5h.1z"/><path id="XMLID_138_" class="st5" d="M-167.1 388.1l-1.3 4.9c-.7-.2-1.5-.4-2.2-.4l1.3-5 2.2.5z"/><path id="XMLID_137_" class="st5" d="M-176.4 422.3c-.7-.2-1.4-.4-2-.7l2.1.5-.1.2z"/><path id="XMLID_136_" class="st5" d="M-168.5 393.1l-2.2-.6c.7.1 1.5.2 2.2.4v.2z"/><path id="XMLID_135_" class="st6" d="M-176.2 406.6c.5-2.1 2.7-3.3 4.8-2.8l-2.1 7.6c-2.1-.5-3.3-2.7-2.7-4.8z"/><path id="XMLID_134_" class="st5" d="M-184.5 416.7l3 3c-1.2-.8-2.2-1.8-3-3z"/><path id="XMLID_133_" class="st7" d="M-181.1 405.3c1.3-4.8 6.2-7.6 11.1-6.3l-1.3 4.9c-2.1-.5-4.3.7-4.8 2.8-.5 2.1.7 4.3 2.8 4.8l-1.3 4.9c-4.9-1.4-7.8-6.3-6.5-11.1z"/><path id="XMLID_132_" class="st5" d="M-174.2 392.5l-4.1 1.1c1.3-.5 2.7-.9 4.1-1.1z"/><path id="XMLID_131_" class="st5" d="M-170.1 398.9c-4.8-1.3-9.8 1.5-11.1 6.3-1.3 4.8 1.6 9.7 6.3 11.1l-1.6 5.8-2.1-.5c-1.1-.5-2.2-1.1-3.1-1.8l-3-3c-.7-1-1.3-2-1.8-3.1l-1.1-4.3c-.1-1.1-.1-2.3 0-3.5l1.1-4.2c.5-1.1 1.1-2.1 1.8-3.1l3.2-3.1c1-.7 2-1.3 3.1-1.8l4.1-1.1c1.1-.1 2.4-.1 3.5 0l2.2.6-1.5 5.7z"/><path id="XMLID_130_" class="st5" d="M-181.5 419.9l-3.7 3.7-3.2-3.2 3.7-3.7.1.1c.9 1.1 1.9 2.2 3.1 3.1z"/><path id="XMLID_129_" class="st5" d="M-175.4 387.4l1.3 5h-.1c-1.4.2-2.8.5-4.1 1.1l-.2.1-1.3-5 4.4-1.2z"/><path id="XMLID_128_" class="st5" d="M-187.5 409.3l1.1 4.3c-.6-1.3-1-2.8-1.1-4.3z"/><path id="XMLID_127_" class="st5" d="M-181.4 395.4l-3.2 3.1c.9-1.2 2-2.2 3.2-3.1z"/><path id="XMLID_126_" class="st5" d="M-184.6 398.6l-3.7-3.7 3.2-3.2 3.7 3.7c-1.2.9-2.3 1.9-3.2 3.2z"/><path id="XMLID_125_" class="st5" d="M-186.4 401.6l-1.1 4.2c.1-.7.2-1.4.4-2.2s.4-1.4.7-2z"/><path id="XMLID_124_" class="st5" d="M-187.5 405.9l-5-1.3 1.2-4.4 5 1.3v.1c-.3.7-.5 1.3-.7 2.1-.3.7-.4 1.4-.5 2.2z"/><path id="XMLID_123_" class="st5" d="M-191.4 415l-1.1-4.4 5-1.3c.2 1.5.5 3 1.1 4.3v.1l-5 1.3z"/></g></g><g id="XMLID_422_"><g id="XMLID_460_"><path id="XMLID_122_" class="st8" d="M-114.4 395.2l1.1 4.4-5 1.3-.1-.2c-.2-1.3-.5-2.7-1-4l-.1-.2 5.1-1.3z"/><path id="XMLID_121_" class="st8" d="M-125.9 383.6l-1.3 5h-.1c-1.3-.6-2.8-1-4.2-1.1l-.1-.1 1.3-5 4.4 1.2z"/><path id="XMLID_120_" class="st8" d="M-117.4 389.9l-3.7 3.7-.2-.2c-.4-.5-.8-1-1.3-1.5s-1-1-1.6-1.4l-.1-.1 3.7-3.7 3.2 3.2z"/><path id="XMLID_119_" class="st8" d="M-122.6 391.9c.5.5.9 1 1.3 1.5l-2.9-2.9c.6.4 1.1.9 1.6 1.4z"/><path id="XMLID_118_" class="st8" d="M-118.3 400.7l-1-4c.5 1.3.8 2.6 1 4z"/><path id="XMLID_117_" class="st8" d="M-127.4 388.6l-4.2-1.1c1.5.1 2.9.6 4.2 1.1z"/><path id="XMLID_116_" class="st8" d="M-118.2 404.3l5 1.4-1.2 4.4-5-1.4.1-.2c.5-1.2.8-2.5 1-3.8l.1-.4z"/><path id="XMLID_115_" class="st8" d="M-136.4 382.4l1.3 5-.2.1c-1.4.2-2.8.5-4.2 1.1h-.1l-1.3-5 4.5-1.2z"/><path id="XMLID_114_" class="st8" d="M-135.2 387.5l-4.2 1.1c1.3-.5 2.7-1 4.2-1.1z"/><path id="XMLID_113_" class="st8" d="M-119.4 408.5l1-3.8c-.1 1.2-.4 2.6-1 3.8z"/><path id="XMLID_112_" class="st8" d="M-131.5 387.5l4.2 1.1c1.1.5 2.2 1.1 3.2 1.9l2.9 2.9c.8 1 1.4 2.2 1.9 3.4l1 4c.2 1.3.2 2.7-.1 3.9l-1 3.8c-.5 1.1-1.1 2.3-1.9 3.3l-1.5 1.5-4.2-4.3c3.5-3.5 3.6-9.2.1-12.7s-9.2-3.6-12.7 0l-4.3-4.3 1.6-1.6c1-.7 1.9-1.3 3-1.7l4.2-1.1c1.1-.3 2.3-.3 3.6-.1z"/><path id="XMLID_111_" class="st8" d="M-121.2 411.7l3.7 3.7-1.6 1.6-3.6-3.6c.5-.5 1-1 1.4-1.6l.1-.1z"/><path id="XMLID_110_" class="st8" d="M-146.1 386.6l3.7 3.7c-.6.4-1.2.9-1.8 1.5l-3.6-3.6 1.7-1.6z"/><path id="XMLID_109_" class="st8" d="M-142.4 390.3l-1.6 1.6-.1-.1c.5-.5 1.1-1 1.7-1.5z"/><path id="XMLID_108_" class="st8" d="M-122.8 413.2l1.5-1.5c-.4.5-.9 1.1-1.4 1.6l-.1-.1z"/><path id="XMLID_107_" class="st4" d="M-136.2 399.8l-3.6-3.6c3.5-3.5 9.2-3.5 12.7 0s3.5 9.2-.1 12.7l-3.6-3.6c1.6-1.5 1.6-4 0-5.6-1.3-1.4-3.9-1.4-5.4.1z"/><path id="XMLID_106_" class="st3" d="M-130.6 405.4l-5.6-5.6c1.6-1.5 4-1.5 5.6 0 1.5 1.5 1.5 4.1 0 5.6z"/><path id="XMLID_105_" class="st9" d="M-122.7 413.4l3.6 3.6-1.6 1.6-3.7-3.7.1-.1c.6-.5 1.1-.9 1.6-1.4z"/><path id="XMLID_104_" class="st9" d="M-122.8 413.2l.1.1c-.5.5-1 1-1.6 1.4l1.5-1.5z"/><path id="XMLID_103_" class="st7" d="M-127.1 409c-3.6 3.5-9.2 3.5-12.7 0s-3.5-9.2.1-12.7l3.6 3.6c-1.6 1.6-1.6 4 0 5.6 1.5 1.6 4 1.6 5.6 0l3.4 3.5z"/><path id="XMLID_102_" class="st9" d="M-144 391.9l-1.6 1.6c.4-.6 1-1.1 1.6-1.6z"/><path id="XMLID_101_" class="st9" d="M-145.6 393.5l-3.7-3.7 1.6-1.6 3.6 3.6c-.6.5-1.1 1.1-1.5 1.7z"/><path id="XMLID_100_" class="st6" d="M-130.6 405.4c-1.6 1.5-4 1.5-5.6 0-1.5-1.6-1.5-4 0-5.6l5.6 5.6z"/><path id="XMLID_99_" class="st9" d="M-127.4 416.6l1.3 5-4.4 1.1-1.3-5 .2-.1c1.4-.2 2.8-.5 4.1-1.1h.1z"/><path id="XMLID_98_" class="st9" d="M-147.4 396.6l-1.1 4.1c.2-1.4.5-2.8 1.1-4.1z"/><path id="XMLID_60_" class="st9" d="M-131.6 417.7l4.1-1.1c-1.3.6-2.7.9-4.1 1.1z"/><path id="XMLID_59_" class="st9" d="M-148.6 400.9l-5-1.4 1.2-4.4 5 1.4v.1c-.6 1.3-1 2.7-1.1 4.1l-.1.2z"/><path id="XMLID_56_" class="st9" d="M-148.6 404.3l1.1 4.3c-.5-1.4-.9-2.9-1.1-4.3z"/><path id="XMLID_55_" class="st9" d="M-139.5 416.6l4.3 1.1c-1.5-.2-3-.5-4.3-1.1z"/><path id="XMLID_54_" class="st9" d="M-135.2 417.7l-1.3 5-4.4-1.2 1.3-5c1.4.6 2.8 1 4.3 1.1l.1.1z"/><path id="XMLID_53_" class="st9" d="M-139.8 408.9c3.5 3.5 9.2 3.6 12.7 0l4.2 4.3-1.5 1.5c-1 .7-2.1 1.3-3.1 1.8l-4.1 1.1c-1.2.2-2.5.2-3.7 0l-4.3-1.1c-1-.5-2.1-1-3-1.8l-3.1-3.1c-.7-1-1.3-2-1.8-3.1l-1.1-4.3c-.1-1.2-.1-2.4.1-3.6l1.1-4.1c.5-1.1 1-2.1 1.8-3l1.6-1.6 4.3 4.3c-3.6 3.5-3.6 9.2-.1 12.7z"/><path id="XMLID_52_" class="st9" d="M-145.7 411.7l3.1 3.1c-.6-.4-1.1-.9-1.7-1.4-.5-.6-.9-1.1-1.4-1.7z"/><path id="XMLID_51_" class="st9" d="M-142.5 414.8l-3.7 3.7-3.2-3.2 3.7-3.7.1.1c.4.5.9 1.1 1.4 1.6.5.5 1.1 1 1.7 1.5z"/><path id="XMLID_50_" class="st9" d="M-147.4 408.6l-5 1.3-1.1-4.4 5-1.3v.1c.1 1.4.5 2.9 1.1 4.3z"/></g></g><g id="XMLID_475_"><g id="XMLID_551_"><path id="XMLID_49_" class="st10" d="M-140.8 457.8l-4.4 1.2-1.4-5h.1c1.4-.2 2.8-.5 4.2-1.1h.1l1.4 4.9z"/><path id="XMLID_48_" class="st10" d="M-150 454l-1.3 5-4.4-1.1 1.3-5 .2.1c.6.2 1.3.5 1.9.7.7.2 1.4.3 2.1.4l.2-.1z"/><path id="XMLID_47_" class="st10" d="M-154.2 452.9l4 1c-.7-.1-1.3-.2-2.1-.4-.6-.1-1.3-.3-1.9-.6z"/><path id="XMLID_46_" class="st10" d="M-161.1 454.8l-3.2-3.2 3.7-3.7.2.2c.8 1.1 1.8 2.1 2.9 2.9l.1.1-3.7 3.7z"/><path id="XMLID_45_" class="st10" d="M-146.5 453.9l4.2-1.1c-1.4.6-2.8 1-4.2 1.1z"/><path id="XMLID_44_" class="st10" d="M-160.5 448.1l2.9 2.9c-1-.8-2-1.8-2.9-2.9z"/><path id="XMLID_43_" class="st10" d="M-135.6 454.7l-3.7-3.6.1-.1c1.1-.8 2.2-1.9 3-3.1l.1-.1 3.7 3.6-3.2 3.3z"/><path id="XMLID_42_" class="st10" d="M-167.3 446.4l-1.2-4.4 5-1.3.1.2c.2 1.3.5 2.6 1 3.8l.1.4-5 1.3z"/><path id="XMLID_41_" class="st10" d="M-139.1 451l3-3.1c-.9 1.1-1.9 2.2-3 3.1z"/><path id="XMLID_40_" class="st10" d="M-163.4 440.9l1 3.8c-.5-1.2-.8-2.5-1-3.8z"/><path id="XMLID_39_" class="st3" d="M-152.2 437.9l7.6 2c-.5 2.1-2.7 3.4-4.8 2.8-2.1-.6-3.3-2.7-2.8-4.8z"/><path id="XMLID_38_" class="st10" d="M-150.7 447.6c4.8 1.3 9.7-1.6 11-6.5l5.9 1.5-.6 2.2c-.5 1.1-1 2.1-1.8 3l-3 3.1c-1 .7-2.1 1.4-3.1 1.9l-4.2 1.1c-1.2.2-2.4.2-3.7 0l-4-1c-1.2-.5-2.4-1.1-3.4-1.9l-2.9-2.9c-.8-1-1.4-2.2-2-3.4l-1-3.8c-.2-1.3-.2-2.5 0-3.8l.5-2.1 5.9 1.5c-1.2 4.9 1.6 9.8 6.4 11.1z"/><path id="XMLID_37_" class="st10" d="M-163.5 437.3l-5.1-1.3.6-2.2 4.9 1.3c-.2.7-.3 1.4-.4 2.1v.1z"/><path id="XMLID_36_" class="st10" d="M-129.4 446.2l-5-1.3c.3-.7.5-1.4.7-2.2l4.9 1.3-.6 2.2z"/><path id="XMLID_35_" class="st10" d="M-134.4 444.9l.6-2.2.2.1c-.3.7-.5 1.4-.8 2.1z"/><path id="XMLID_34_" class="st10" d="M-162.9 435l-.5 2.1c.1-.7.2-1.4.4-2.1h.1z"/><path id="XMLID_33_" class="st4" d="M-139.7 441.1c-1.3 4.8-6.2 7.7-11 6.5-4.8-1.3-7.7-6.2-6.4-11l4.9 1.3c-.5 2.1.7 4.3 2.8 4.8s4.3-.7 4.8-2.8l4.9 1.2z"/><path id="XMLID_32_" class="st11" d="M-133.6 442.7l-.2-.1.6-2.2c-.1.8-.3 1.6-.4 2.3z"/><path id="XMLID_31_" class="st11" d="M-128.8 444l-4.9-1.3c.2-.7.4-1.5.4-2.2l5 1.3-.5 2.2z"/><path id="XMLID_30_" class="st11" d="M-162.4 433c-.3.7-.5 1.3-.7 2l-4.9-1.3.6-2.2 5 1.3v.2z"/><path id="XMLID_29_" class="st11" d="M-163.1 435c.2-.7.4-1.4.7-2l-.5 2.1-.2-.1z"/><path id="XMLID_28_" class="st6" d="M-144.6 439.9l-7.6-2c.5-2.1 2.7-3.4 4.8-2.8 2.1.5 3.4 2.6 2.8 4.8z"/><path id="XMLID_27_" class="st7" d="M-139.7 441.1l-4.9-1.3c.5-2.1-.7-4.3-2.8-4.8-2.1-.5-4.2.7-4.8 2.8l-4.9-1.3c1.3-4.8 6.2-7.7 11-6.5 4.8 1.4 7.7 6.3 6.4 11.1z"/><path id="XMLID_26_" class="st11" d="M-128.2 435.7l-5 1.3c-.2-1.4-.5-2.8-1.1-4.1l-.1-.2 5-1.3 1.2 4.3z"/><path id="XMLID_25_" class="st11" d="M-133.3 437l-1.1-4.1c.6 1.3.9 2.7 1.1 4.1z"/><path id="XMLID_24_" class="st11" d="M-157.6 426.8c-1.1.8-2.1 1.9-3 3l-.1.1-3.7-3.7 3.2-3.3 3.7 3.6-.1.3z"/><path id="XMLID_23_" class="st11" d="M-160.6 429.8c.8-1.1 1.9-2.2 3-3l-3 3z"/><path id="XMLID_22_" class="st11" d="M-150.2 423.7l-4.3 1.2c1.4-.6 2.8-1 4.3-1.2z"/><path id="XMLID_21_" class="st11" d="M-132.5 426.1l-3.7 3.7c-.9-1.2-1.9-2.3-3.2-3.1l3.7-3.7 3.2 3.1z"/><path id="XMLID_20_" class="st11" d="M-136.2 429.8l-3.2-3.1c1.3.8 2.3 1.9 3.2 3.1z"/><path id="XMLID_19_" class="st11" d="M-139.4 426.6l3.2 3.1c.7 1 1.3 2 1.8 3.1l1.1 4.1c.1 1.1.2 2.4 0 3.5l-.6 2.2-5.9-1.5c1.3-4.8-1.6-9.7-6.4-11-4.8-1.3-9.7 1.6-11 6.5l-5.9-1.5.5-2.1c.5-1.1 1.1-2.2 1.8-3.2l3-3c1-.7 2-1.4 3.1-1.9l4.3-1.2c1.1-.1 2.3-.1 3.5 0l4.2 1.1c1.4.5 2.4 1.1 3.3 1.8z"/><path id="XMLID_18_" class="st11" d="M-146.7 423.7c.7.1 1.4.2 2.2.4.7.2 1.4.4 2.1.7l-4.3-1.1z"/><path id="XMLID_17_" class="st11" d="M-146.7 423.7l1.3-5 4.4 1.1-1.3 5h-.1c-.7-.3-1.3-.5-2.1-.7-.7-.2-1.5-.3-2.2-.4z"/><path id="XMLID_16_" class="st11" d="M-155.9 419.9l4.4-1.2 1.4 5c-1.5.2-3 .6-4.3 1.2h-.1l-1.4-5z"/></g></g></g></g><g id="graphic_x5F_bg"><g id="XMLID_89_"><path class="st12" d="M-202 467.8l93.7-91.5c11.5 11.8 18.6 28 18.6 45.8 0 36.2-29.3 65.5-65.5 65.5-18.3-.1-34.9-7.6-46.8-19.8z"/><path class="st13" d="M-220.6 422c0-36.2 29.3-65.5 65.5-65.5 18.4 0 35 7.6 46.8 19.7l-93.7 91.5c-11.5-11.7-18.6-27.9-18.6-45.7z"/></g></g><g id="graphic"><g id="Calque_3_3_"><g id="XMLID_193_"><g id="XMLID_195_"><path id="XMLID_228_" class="st14" d="M-113.2 451.8h1.4v2.3h-1.4z"/><path id="XMLID_227_" class="st15" d="M-115.8 455v-4.1h2.6v4.1z"/><path id="XMLID_226_" class="st16" d="M-115.8 455v1.1h-5v-6.3h5v1.1z"/><path id="XMLID_207_" class="st17" d="M-120.8 449.8v6.3h-54V449.8z"/><path id="XMLID_206_" class="st18" d="M-173 433.2l36-36.2h14.8v36.2z"/><path id="XMLID_205_" class="st19" d="M-133.8 393.7h16v43h-58.3v-.3l3.1-3.2h50.8V397H-137z"/><path id="XMLID_204_" class="st20" d="M-133.8 393.7H-193v-6.5h74.6c3.9 0 6.9 3.1 6.9 6.9V436c0 3.9-3.1 6.9-6.9 6.9H-193v-6.3H-117.8v-43h-16z"/><path id="XMLID_203_" class="st21" d="M-177.4 433.2V397h40.4l-36 36.2z"/><path id="XMLID_202_" class="st22" d="M-176.7 454.7v-4.2h1.9v4.9h-1.9z"/><path id="XMLID_201_" class="st23" d="M-178.1 453.8v-2.6h1.4v3.5h-1.4z"/><path id="XMLID_200_" class="st24" d="M-176.1 436.7h-8v-43h50.3l-3.2 3.3h-40.4v36.2h4.4l-3.1 3.2z"/><path id="XMLID_199_" class="st25" d="M-181.3 453.5v-1.7h3.2v2h-3.2z"/><path id="XMLID_198_" class="st26" d="M-185.3 452.1h4v1.4h-2z"/><path id="XMLID_197_" class="st27" d="M-193 414.9h8.9v21.8h-8.9z"/><path id="XMLID_196_" class="st21" d="M-193 393.7h8.9v21.2h-8.9z"/></g></g></g></g><g id="operate_x5F_bg"><g id="XMLID_86_"><path class="st28" d="M-155.1 487.4c-18.4 0-35-7.6-46.9-19.7l93.7-91.5c11.5 11.8 18.6 28 18.6 45.8 0 36.1-29.3 65.4-65.4 65.4z"/><path class="st29" d="M-155.1 356.4c18.4 0 35 7.6 46.8 19.7l-93.7 91.5c-11.5-11.8-18.6-27.9-18.6-45.8 0-36.1 29.3-65.4 65.5-65.4z"/></g></g><g id="operate"><g id="Calque_1_2_"><g id="XMLID_82_"><g id="XMLID_84_"><path id="XMLID_163_" class="st30" d="M-153 431.2l-4.7-2.8v-5.6l-2.9-2.8 31.1-31.1c3.7 3.6 6.5 8.1 8 13.2l-5.6 4.8-8.3 1.3-4.3 2.9-4.9 2.2v9.7l-2.4 8.3h-6z"/><path id="XMLID_162_" class="st31" d="M-127 406.8l5.6-4.8c.8 2.8 1.3 5.9 1.3 9 0 17.1-13.8 30.9-30.9 30.9-8.7 0-16.5-3.6-22.2-9.4l12.6-12.6 2.9 2.8v5.6l4.7 2.8h5.9l2.4-8.3v-9.7l4.9-2.2 4.3-2.9 8.5-1.2z"/><path id="XMLID_161_" class="st32" d="M-156.6 393.5h-8.4l-10.1-1.8c5.7-7.1 14.4-11.7 24.2-11.7 8.4 0 16 3.3 21.6 8.8l-31.1 31.2-.6-.6-6.8-5.7v-5.5l4.1-7.9h7.7l-.6-6.8z"/><path id="XMLID_85_" class="st33" d="M-165 393.5h8.4l.5 6.8h-7.8l-4.1 7.9v5.5l6.8 5.7.6.6-12.6 12.6c-5.4-5.6-8.8-13.2-8.8-21.6 0-7.3 2.5-13.9 6.8-19.3l10.2 1.8z"/></g></g><g id="XMLID_57_"><g id="XMLID_61_"><path id="XMLID_73_" class="st34" d="M-181.9 460.5h61.8v2.1h-61.8z"/><path id="XMLID_72_" class="st35" d="M-177.8 442h57.7v2h-61.8v-2z"/><path id="XMLID_70_" class="st36" d="M-181.9 417.1h61.8v2.2h-61.8z"/><path id="XMLID_69_" class="st37" d="M-181.9 419.3h61.8v16.4h-61.8v-16.4zm12.4 8.2c0-1.1-.9-2.1-2.1-2.1-1.1 0-2.1.9-2.1 2.1 0 1.1.9 2.1 2.1 2.1 1.2-.1 2.1-1 2.1-2.1zm8.2 0c0-1.1-.9-2.1-2.1-2.1-1.1 0-2.1.9-2.1 2.1 0 1.1.9 2.1 2.1 2.1 1.2-.1 2.1-1 2.1-2.1z"/><path id="XMLID_68_" class="st38" d="M-177.8 437.7h53.7v4.3h-53.7z"/><path id="XMLID_67_" class="st39" d="M-163.3 425.4c1.1 0 2.1.9 2.1 2.1 0 1.1-.9 2.1-2.1 2.1-1.1 0-2.1-.9-2.1-2.1 0-1.2.9-2.1 2.1-2.1z"/><path id="XMLID_66_" class="st39" d="M-163.3 450.2c1.1 0 2.1.9 2.1 2.1s-.9 2.1-2.1 2.1c-1.1 0-2.1-.9-2.1-2.1s.9-2.1 2.1-2.1z"/><path id="XMLID_65_" class="st37" d="M-169.5 452.3c0-1.1-.9-2.1-2.1-2.1-1.1 0-2.1.9-2.1 2.1s.9 2.1 2.1 2.1c1.2 0 2.1-1 2.1-2.1zm-12.4 8.2V444h61.8v16.5h-61.8zm20.6-8.2c0-1.1-.9-2.1-2.1-2.1-1.1 0-2.1.9-2.1 2.1s.9 2.1 2.1 2.1c1.2 0 2.1-1 2.1-2.1z"/><path id="XMLID_64_" class="st40" d="M-171.5 425.4c1.1 0 2.1.9 2.1 2.1 0 1.1-.9 2.1-2.1 2.1-1.1 0-2.1-.9-2.1-2.1 0-1.2.9-2.1 2.1-2.1z"/><path id="XMLID_63_" class="st40" d="M-171.5 450.2c1.1 0 2.1.9 2.1 2.1s-.9 2.1-2.1 2.1c-1.1 0-2.1-.9-2.1-2.1s.9-2.1 2.1-2.1z"/><path id="XMLID_62_" class="st34" d="M-177.8 437.7h-4.1v-1.9h61.8v1.9h-4z"/></g></g></g></g><g id="front_x5F_bg"><g id="XMLID_88_"><path class="st41" d="M-202 467.6l93.7-91.5c11.5 11.8 18.6 28 18.6 45.8 0 36.2-29.3 65.5-65.5 65.5-18.3 0-34.9-7.6-46.8-19.8z"/><path class="st42" d="M-108.3 376.1l-93.7 91.5c-11.5-11.8-18.6-28-18.6-45.8 0-36.2 29.3-65.5 65.5-65.5 18.3.1 34.9 7.6 46.8 19.8z"/></g></g><g id="front"><g id="XMLID_90_"><path class="st43" d="M-114 393v40.5h-.1l-7.2-4h1.8v-.1h.1v-34.5h-17.1l4.7-4.6v-.4h14.5c1.9-.1 3.3 1.3 3.3 3.1z"/><path class="st44" d="M-114.1 433.4v3.8c0 1.8-1.4 3.2-3.2 3.2h-34.6v-1c1-.1 1.8-.9 1.8-1.8 0-1-.8-1.8-1.8-1.8v-2.3h37.8zM-114.1 433.4h-.1.1z"/><path class="st45" d="M-114.1 433.4z"/><path class="st43" d="M-114.1 433.4h-37.8 37.7z"/><path class="st45" d="M-121.4 429.3h1.9v.1h-1.8z"/><path class="st43" d="M-121.3 429.4h-.1l-.1-.1h.1z"/><path class="st31" d="M-121.4 429.3h-.1l-3.4-1.9zM-121.4 429.3l.1.1-.1-.1z"/><path class="st46" d="M-124.7 416.1v11.3h-.2l-16-8.9v-2.4zM-124.7 397.2v16.5h-24.8l-.1-.1h-.1l-3.9-2.1 14.7-14.3z"/><path class="st46" d="M-124.9 427.4h-16v-8.9z"/><path class="st45" d="M-131.7 389.8v.4l-4.7 4.6h-47.1l-2.9-1.6-2.5-1.4c.5-1.1 1.6-2 3-2h54.2z"/><path class="st47" d="M-138.9 397.2l-14.7 14.3-25.5-14.2v-.1z"/><path class="st31" d="M-140.9 418.5v8.9-8.9zM-140.9 418.5zM-140.9 418.5l-2.9-1.6z"/><path class="st48" d="M-142.7 451.8h5.9c1 0 1.8.5 1.8 1.1 0 .3-.2.6-.6.8-.4.2-.8.4-1.4.4h-15v-2.3h9.3z"/><path class="st49" d="M-143.9 440.4l.5 4.6h-8.5v-4.6z"/><path class="st50" d="M-143.4 445l.7 6.8h-9.2V445h8z"/><path class="st46" d="M-143.9 416.9v10.5H-160v-9.6l1.7-1.7h13z"/><path class="st46" d="M-143.9 416.1v.8l-1.4-.8z"/><path class="st31" d="M-136.4 394.8h16.9v34.5h-1.9l-3.5-1.9h.2v-11.3h-16.2v2.4l-2.9-1.6h-.1v-.8h-1.4l-.1-.1h.1l-4.2-2.3h24.8v-16.5h-14.2z"/><path class="st31" d="M-145.3 416h-.1l-4.2-2.3h.1zM-145.4 416h-12.8l2.4-2.3h6.2z"/><path class="st47" d="M-149.5 413.7h-.1l-.1-.1h.1z"/><path class="st46" d="M-149.6 413.7h-6.2v-.1h6.1z"/><path class="st46" d="M-149.7 413.6h-6.1l2.2-2.1z"/><path class="st50" d="M-150.2 437.6c0 1-.8 1.8-1.8 1.8v-.1c1.1 0 1.8-.8 1.8-1.7z"/><path class="st50" d="M-151.9 439.4v-3.6c1 .1 1.7.8 1.8 1.8-.1.9-.8 1.7-1.8 1.8z"/><path class="st51" d="M-151.9 445v6.8h-8.9v-.1l.7-6.7h.5z"/><path class="st43" d="M-151.9 433.4H-176l4.2-4.1h50.3l.1.1h.1l3.3 1.8 3.8 2.2h-37.7z"/><path class="st50" d="M-151.9 440.4v4.6h-8.2l.5-4.6h7.6z"/><path class="st43" d="M-152 433.4h-37.2 13.2z"/><path class="st51" d="M-152 439.4c-1 0-1.8-.8-1.8-1.8s.8-1.8 1.8-1.8h.1l-.1 3.6z"/><path class="st52" d="M-152 439.4c-1 0-1.8-.8-1.8-1.8 0 1 .7 1.8 1.8 1.8z"/><path class="st47" d="M-153.6 411.5l-2.2 2.1h-23.3v-16.3z"/><path class="st52" d="M-152 440.4h-34c-1.8 0-3.2-1.4-3.2-3.2v-3.9h.1v.1h37.2v2.3h-.1c-1 0-1.8.8-1.8 1.8s.8 1.8 1.8 1.8h.1v1.1z"/><path class="st46" d="M-155.8 413.6v.1h-23.3v-.1z"/><path class="st47" d="M-158.3 416.1l-1.7 1.7v-1.7z"/><path class="st31" d="M-160 427.4v.1h16.2v-10.6l2.9 1.6v8.9h16l3.4 1.9h-50.3l1.9-1.8h7v-6.9l2.9-2.8z"/><path class="st46" d="M-162.9 420.6v6.9h-7z"/><path class="st47" d="M-162.9 416.1v4.5l-7 6.9h-9.2v-11.4z"/><path class="st53" d="M-151.9 451.8v2.3h-14.8c-.9 0-1.7-.5-1.7-1.2 0-.3.2-.6.5-.8.3-.2.8-.4 1.3-.4h14.7z"/><path class="st31" d="M-162.9 416.1h-16.2v11.4h9.2l-1.9 1.8h-12.6v-34.5h.8l4.5 2.5V413.7h23.3l-2.4 2.3h-1.8v1.8l-2.9 2.8z"/><path class="st31" d="M-179.1 397.2v.1l-4.5-2.5h47.2l-2.5 2.4z"/><path class="st45" d="M-184.4 394.8v34.5h12.6l-4.1 4h-13.2V393c0-.4.1-.8.2-1.2l2.5 1.4 2.9 1.6h-.9z"/></g></g></svg>