<?xml version="1.0" encoding="utf-8"?>
<!-- Generator: Adobe Illustrator 19.0.0, SVG Export Plug-In . SVG Version: 6.00 Build 0)  -->
<svg version="1.1" xmlns="http://www.w3.org/2000/svg" xmlns:xlink="http://www.w3.org/1999/xlink" x="0px" y="0px"
	 viewBox="-226 350.2 141.7 141.7" style="enable-background:new -226 350.2 141.7 141.7;" xml:space="preserve">
<style type="text/css">
	.st0{fill:#C2E3C8;}
	.st1{fill:#CEE8D2;}
	.st2{fill:#6D6E71;}
	.st3{fill:#E2E3E4;}
	.st4{fill:#E2C7AA;}
	.st5{fill:#888A8C;}
	.st6{fill:#EBEBEC;}
	.st7{fill:#EAD7C3;}
	.st8{fill:#DF9F8F;}
	.st9{fill:#E4B0A2;}
	.st10{fill:#7896B5;}
	.st11{fill:#9FB2C9;}
	.st12{fill:#CFDE5E;}
	.st13{fill:#D8E481;}
	.st14{fill:#5B585C;}
	.st15{fill:#312D33;}
	.st16{fill:#242926;}
	.st17{fill:#3E3B3E;}
	.st18{fill:#5A5557;}
	.st19{fill:#3D3C3E;}
	.st20{fill:#2A2A2C;}
	.st21{fill:#6C6769;}
	.st22{fill:#283329;}
	.st23{fill:#2D2E30;}
	.st24{fill:#515153;}
	.st25{fill:#3F3B3F;}
	.st26{fill:#6E6770;}
	.st27{fill:#666264;}
	.st28{fill:#F8A391;}
	.st29{fill:#FAB9A8;}
	.st30{fill:#8DC63F;}
	.st31{fill:#8CC6EC;}
	.st32{fill:#A3CF62;}
	.st33{fill:#B2D6F1;}
	.st34{fill:#DBDADB;}
	.st35{fill:#F9F9FA;}
	.st36{fill:#F8F8F8;}
	.st37{fill:#F1F2F2;}
	.st38{fill:#959594;}
	.st39{fill:#00B9F2;}
	.st40{fill:#F15B40;}
	.st41{fill:#CDC4E1;}
	.st42{fill:#DAD3E8;}
	.st43{fill:#070807;}
	.st44{fill:#D7EBF2;}
	.st45{fill:#312F2F;}
	.st46{fill:#CFE4F6;}
	.st47{fill:#DEECF9;}
	.st48{fill:#BFD7DC;}
	.st49{fill:#9CB6C6;}
	.st50{fill:#AEC2D0;}
	.st51{fill:#C1CFDA;}
	.st52{fill:#DEEEF4;}
	.st53{fill:#D6EBF2;}
</style>
<g id="back_x5F_bg">
	<g id="XMLID_87_">
		<g>
			<path class="st0" d="M-202,467.6l93.7-91.5h0c11.5,11.8,18.6,28,18.6,45.8c0,36.2-29.3,65.5-65.5,65.5
				C-173.5,487.4-190.1,479.8-202,467.6z"/>
			<path class="st1" d="M-220.6,421.9c0-36.2,29.3-65.5,65.5-65.5c18.4,0,35,7.6,46.8,19.7l-93.7,91.5h0
				C-213.5,455.8-220.6,439.7-220.6,421.9z"/>
		</g>
		<g>
		</g>
	</g>
</g>
<g id="back">
	<g id="Calque_2">
		<g id="XMLID_382_">
			<g id="XMLID_517_">
				<path id="XMLID_156_" class="st2" d="M-152.2,410.8l-1.2,4.4l-5-1.3l0.1-0.2c0.2-0.6,0.5-1.3,0.7-1.9s0.3-1.4,0.4-2.1l0.1-0.2
					L-152.2,410.8z"/>
				<path id="XMLID_155_" class="st2" d="M-153.4,400.2l1.1,4.4l-5,1.3v-0.1c-0.2-1.4-0.5-2.8-1.1-4.2v-0.1L-153.4,400.2z"/>
				<path id="XMLID_154_" class="st2" d="M-156.5,420.4l-3.2,3.2l-3.7-3.7l0.2-0.2c1.1-0.8,2.1-1.8,2.9-2.9l0.1-0.1L-156.5,420.4z"
					/>
				<path id="XMLID_153_" class="st2" d="M-157.3,409.5c-0.1,0.7-0.2,1.3-0.4,2.1c-0.2,0.7-0.4,1.3-0.7,1.9L-157.3,409.5z"/>
				<path id="XMLID_152_" class="st2" d="M-157.3,405.9l-1.1-4.2C-157.8,403-157.4,404.4-157.3,405.9z"/>
				<path id="XMLID_151_" class="st2" d="M-163.2,419.8l2.9-2.9C-161.1,417.9-162.1,418.9-163.2,419.8z"/>
				<path id="XMLID_150_" class="st2" d="M-166.3,421.6l1.3,5.1l-4.4,1.1l-1.3-5l0.2-0.1c1.3-0.2,2.6-0.5,3.8-1L-166.3,421.6z"/>
				<path id="XMLID_149_" class="st2" d="M-156.4,394.9l-3.7,3.7l-0.1-0.1c-0.8-1.1-1.9-2.2-3.1-3.1l-0.1-0.1l3.7-3.7L-156.4,394.9z
					"/>
				<path id="XMLID_148_" class="st2" d="M-170.5,422.7l3.8-1C-167.9,422.2-169.1,422.5-170.5,422.7z"/>
				<path id="XMLID_147_" class="st2" d="M-160.2,398.5l-3.1-3.1C-162.1,396.3-161.1,397.3-160.2,398.5z"/>
				<path id="XMLID_146_" class="st2" d="M-177.7,427.2l1.3-4.9c0.7,0.2,1.4,0.3,2.1,0.4l0.2,0.1l-1.4,5L-177.7,427.2z"/>
				<path id="XMLID_145_" class="st2" d="M-168.4,392.9l1.3-4.9l2.2,0.6l-1.3,5l0,0C-167,393.4-167.7,393.1-168.4,392.9z"/>
				<path id="XMLID_144_" class="st2" d="M-166.3,393.7l-2.2-0.6l0.1-0.2C-167.7,393.1-167,393.4-166.3,393.7z"/>
				<path id="XMLID_143_" class="st2" d="M-163.3,395.4l3.1,3.1c0.7,1,1.4,2.1,1.8,3.2l1.1,4.2c0.1,1.2,0.1,2.4,0,3.7l-1.1,4
					c-0.5,1.2-1.1,2.4-1.9,3.3l-2.9,2.9c-1,0.8-2.2,1.4-3.4,1.9l-3.8,1c-1.3,0.2-2.5,0.2-3.8,0l-2.1-0.5l1.6-5.8l0,0
					c4.8,1.3,9.8-1.5,11.1-6.3c1.3-4.8-1.6-9.7-6.3-11.1l0,0l1.6-5.9l2.2,0.6l0,0C-165.2,394.1-164.2,394.8-163.3,395.4z"/>
				<path id="XMLID_142_" class="st2" d="M-176.3,422.1l2.1,0.5c-0.7-0.1-1.4-0.2-2.1-0.4L-176.3,422.1z"/>
				<path id="XMLID_141_" class="st3" d="M-168.6,408.6c-0.5,2.1-2.7,3.3-4.8,2.8l0,0l2.1-7.6l0,0
					C-169.3,404.4-168,406.5-168.6,408.6z"/>
				<path id="XMLID_140_" class="st4" d="M-163.7,410c-1.3,4.8-6.2,7.6-11.1,6.3l0,0l1.3-4.9l0,0c2.1,0.5,4.3-0.7,4.8-2.8
					c0.5-2.1-0.7-4.3-2.8-4.8l0,0l1.3-4.9l0,0C-165.2,400.2-162.4,405.2-163.7,410z"/>
				<path id="XMLID_139_" class="st5" d="M-178.4,421.6c0.7,0.3,1.3,0.5,2,0.7l-1.3,4.9l-2.2-0.6l1.4-5H-178.4z"/>
				<path id="XMLID_138_" class="st5" d="M-167.1,388.1l-1.3,4.9c-0.7-0.2-1.5-0.4-2.2-0.4l1.3-5L-167.1,388.1z"/>
				<path id="XMLID_137_" class="st5" d="M-176.4,422.3c-0.7-0.2-1.4-0.4-2-0.7l2.1,0.5L-176.4,422.3z"/>
				<path id="XMLID_136_" class="st5" d="M-168.5,393.1l-2.2-0.6c0.7,0.1,1.5,0.2,2.2,0.4L-168.5,393.1z"/>
				<path id="XMLID_135_" class="st6" d="M-176.2,406.6c0.5-2.1,2.7-3.3,4.8-2.8l-2.1,7.6C-175.6,410.9-176.8,408.7-176.2,406.6z"/>
				<path id="XMLID_134_" class="st5" d="M-184.5,416.7l3,3C-182.7,418.9-183.7,417.9-184.5,416.7z"/>
				<path id="XMLID_133_" class="st7" d="M-181.1,405.3c1.3-4.8,6.2-7.6,11.1-6.3l-1.3,4.9c-2.1-0.5-4.3,0.7-4.8,2.8
					c-0.5,2.1,0.7,4.3,2.8,4.8l-1.3,4.9C-179.5,415-182.4,410.1-181.1,405.3z"/>
				<path id="XMLID_132_" class="st5" d="M-174.2,392.5l-4.1,1.1C-177,393.1-175.6,392.7-174.2,392.5z"/>
				<path id="XMLID_131_" class="st5" d="M-170.1,398.9c-4.8-1.3-9.8,1.5-11.1,6.3c-1.3,4.8,1.6,9.7,6.3,11.1l-1.6,5.8l-2.1-0.5
					c-1.1-0.5-2.2-1.1-3.1-1.8l-3-3c-0.7-1-1.3-2-1.8-3.1l-1.1-4.3l0,0c-0.1-1.1-0.1-2.3,0-3.5l1.1-4.2c0.5-1.1,1.1-2.1,1.8-3.1
					l3.2-3.1c1-0.7,2-1.3,3.1-1.8l4.1-1.1c1.1-0.1,2.4-0.1,3.5,0l2.2,0.6L-170.1,398.9z"/>
				<path id="XMLID_130_" class="st5" d="M-181.5,419.9l-3.7,3.7l-3.2-3.2l3.7-3.7l0.1,0.1C-183.7,417.9-182.7,419-181.5,419.9
					L-181.5,419.9z"/>
				<path id="XMLID_129_" class="st5" d="M-175.4,387.4l1.3,5h-0.1c-1.4,0.2-2.8,0.5-4.1,1.1l-0.2,0.1l-1.3-5L-175.4,387.4z"/>
				<path id="XMLID_128_" class="st5" d="M-187.5,409.3l1.1,4.3C-187,412.3-187.4,410.8-187.5,409.3z"/>
				<path id="XMLID_127_" class="st5" d="M-181.4,395.4l-3.2,3.1C-183.7,397.3-182.6,396.3-181.4,395.4z"/>
				<path id="XMLID_126_" class="st5" d="M-184.6,398.6l-3.7-3.7l3.2-3.2l3.7,3.7l0,0C-182.6,396.3-183.7,397.3-184.6,398.6
					L-184.6,398.6z"/>
				<path id="XMLID_125_" class="st5" d="M-186.4,401.6l-1.1,4.2c0.1-0.7,0.2-1.4,0.4-2.2S-186.7,402.2-186.4,401.6z"/>
				<path id="XMLID_124_" class="st5" d="M-187.5,405.9l-5-1.3l1.2-4.4l5,1.3v0.1c-0.3,0.7-0.5,1.3-0.7,2.1
					C-187.3,404.4-187.4,405.1-187.5,405.9L-187.5,405.9z"/>
				<path id="XMLID_123_" class="st5" d="M-191.4,415l-1.1-4.4l5-1.3l0,0c0.2,1.5,0.5,3,1.1,4.3v0.1L-191.4,415z"/>
			</g>
			<g id="XMLID_516_">
			</g>
		</g>
		<g id="XMLID_422_">
			<g id="XMLID_460_">
				<path id="XMLID_122_" class="st8" d="M-114.4,395.2l1.1,4.4l-5,1.3l-0.1-0.2c-0.2-1.3-0.5-2.7-1-4l-0.1-0.2L-114.4,395.2z"/>
				<path id="XMLID_121_" class="st8" d="M-125.9,383.6l-1.3,5h-0.1c-1.3-0.6-2.8-1-4.2-1.1l-0.1-0.1l1.3-5L-125.9,383.6z"/>
				<path id="XMLID_120_" class="st8" d="M-117.4,389.9l-3.7,3.7l-0.2-0.2c-0.4-0.5-0.8-1-1.3-1.5c-0.5-0.5-1-1-1.6-1.4l-0.1-0.1
					l3.7-3.7L-117.4,389.9z"/>
				<path id="XMLID_119_" class="st8" d="M-122.6,391.9c0.5,0.5,0.9,1,1.3,1.5l-2.9-2.9C-123.6,390.9-123.1,391.4-122.6,391.9z"/>
				<path id="XMLID_118_" class="st8" d="M-118.3,400.7l-1-4C-118.8,398-118.5,399.3-118.3,400.7z"/>
				<path id="XMLID_117_" class="st8" d="M-127.4,388.6l-4.2-1.1C-130.1,387.6-128.7,388.1-127.4,388.6z"/>
				<path id="XMLID_116_" class="st8" d="M-118.2,404.3l5,1.4l-1.2,4.4l-5-1.4l0.1-0.2c0.5-1.2,0.8-2.5,1-3.8L-118.2,404.3z"/>
				<path id="XMLID_115_" class="st8" d="M-136.4,382.4l1.3,5l-0.2,0.1c-1.4,0.2-2.8,0.5-4.2,1.1h-0.1l-1.3-5L-136.4,382.4z"/>
				<path id="XMLID_114_" class="st8" d="M-135.2,387.5l-4.2,1.1C-138.1,388.1-136.7,387.6-135.2,387.5z"/>
				<path id="XMLID_113_" class="st8" d="M-119.4,408.5l1-3.8C-118.5,405.9-118.8,407.3-119.4,408.5z"/>
				<path id="XMLID_112_" class="st8" d="M-131.5,387.5l4.2,1.1c1.1,0.5,2.2,1.1,3.2,1.9l2.9,2.9c0.8,1,1.4,2.2,1.9,3.4l1,4
					c0.2,1.3,0.2,2.7-0.1,3.9l-1,3.8c-0.5,1.1-1.1,2.3-1.9,3.3l-1.5,1.5l-4.2-4.3l0,0c3.5-3.5,3.6-9.2,0.1-12.7
					c-3.5-3.5-9.2-3.6-12.7,0l0,0l-4.3-4.3l1.6-1.6l0,0c1-0.7,1.9-1.3,3-1.7l4.2-1.1C-134,387.3-132.8,387.3-131.5,387.5z"/>
				<path id="XMLID_111_" class="st8" d="M-121.2,411.7l3.7,3.7l-1.6,1.6l-3.6-3.6c0.5-0.5,1-1,1.4-1.6L-121.2,411.7z"/>
				<path id="XMLID_110_" class="st8" d="M-146.1,386.6l3.7,3.7l0,0c-0.6,0.4-1.2,0.9-1.8,1.5l-3.6-3.6L-146.1,386.6z"/>
				<path id="XMLID_109_" class="st8" d="M-142.4,390.3l-1.6,1.6l-0.1-0.1C-143.6,391.3-143,390.8-142.4,390.3z"/>
				<path id="XMLID_108_" class="st8" d="M-122.8,413.2l1.5-1.5c-0.4,0.5-0.9,1.1-1.4,1.6L-122.8,413.2z"/>
				<path id="XMLID_107_" class="st4" d="M-136.2,399.8l-3.6-3.6l0,0c3.5-3.5,9.2-3.5,12.7,0c3.5,3.5,3.5,9.2-0.1,12.7l0,0l-3.6-3.6
					l0,0c1.6-1.5,1.6-4,0-5.6C-132.1,398.3-134.7,398.3-136.2,399.8L-136.2,399.8z"/>
				<path id="XMLID_106_" class="st3" d="M-130.6,405.4l-5.6-5.6l0,0c1.6-1.5,4-1.5,5.6,0C-129.1,401.3-129.1,403.9-130.6,405.4
					L-130.6,405.4z"/>
				<path id="XMLID_105_" class="st9" d="M-122.7,413.4l3.6,3.6l-1.6,1.6l-3.7-3.7l0.1-0.1C-123.7,414.3-123.2,413.9-122.7,413.4z"
					/>
				<path id="XMLID_104_" class="st9" d="M-122.8,413.2l0.1,0.1c-0.5,0.5-1,1-1.6,1.4L-122.8,413.2z"/>
				<path id="XMLID_103_" class="st7" d="M-127.1,409c-3.6,3.5-9.2,3.5-12.7,0c-3.5-3.5-3.5-9.2,0.1-12.7l3.6,3.6
					c-1.6,1.6-1.6,4,0,5.6c1.5,1.6,4,1.6,5.6,0L-127.1,409z"/>
				<path id="XMLID_102_" class="st9" d="M-144,391.9l-1.6,1.6C-145.2,392.9-144.6,392.4-144,391.9L-144,391.9z"/>
				<path id="XMLID_101_" class="st9" d="M-145.6,393.5l-3.7-3.7l1.6-1.6l3.6,3.6C-144.7,392.3-145.2,392.9-145.6,393.5z"/>
				<path id="XMLID_100_" class="st6" d="M-130.6,405.4c-1.6,1.5-4,1.5-5.6,0c-1.5-1.6-1.5-4,0-5.6L-130.6,405.4z"/>
				<path id="XMLID_99_" class="st9" d="M-127.4,416.6l1.3,5l-4.4,1.1l-1.3-5l0.2-0.1c1.4-0.2,2.8-0.5,4.1-1.1H-127.4z"/>
				<path id="XMLID_98_" class="st9" d="M-147.4,396.6l-1.1,4.1C-148.3,399.3-148,397.9-147.4,396.6z"/>
				<path id="XMLID_60_" class="st9" d="M-131.6,417.7l4.1-1.1C-128.8,417.2-130.2,417.5-131.6,417.7z"/>
				<path id="XMLID_59_" class="st9" d="M-148.6,400.9l-5-1.4l1.2-4.4l5,1.4v0.1c-0.6,1.3-1,2.7-1.1,4.1L-148.6,400.9z"/>
				<path id="XMLID_56_" class="st9" d="M-148.6,404.3l1.1,4.3C-148,407.2-148.4,405.7-148.6,404.3z"/>
				<path id="XMLID_55_" class="st9" d="M-139.5,416.6l4.3,1.1C-136.7,417.5-138.2,417.2-139.5,416.6z"/>
				<path id="XMLID_54_" class="st9" d="M-135.2,417.7l-1.3,5l-4.4-1.2l1.3-5l0,0c1.4,0.6,2.8,1,4.3,1.1L-135.2,417.7z"/>
				<path id="XMLID_53_" class="st9" d="M-139.8,408.9c3.5,3.5,9.2,3.6,12.7,0l4.2,4.3l-1.5,1.5c-1,0.7-2.1,1.3-3.1,1.8l-4.1,1.1
					c-1.2,0.2-2.5,0.2-3.7,0l-4.3-1.1l0,0c-1-0.5-2.1-1-3-1.8l-3.1-3.1c-0.7-1-1.3-2-1.8-3.1l-1.1-4.3c-0.1-1.2-0.1-2.4,0.1-3.6
					l1.1-4.1c0.5-1.1,1-2.1,1.8-3l1.6-1.6l4.3,4.3C-143.3,399.7-143.3,405.4-139.8,408.9z"/>
				<path id="XMLID_52_" class="st9" d="M-145.7,411.7l3.1,3.1c-0.6-0.4-1.1-0.9-1.7-1.4C-144.8,412.8-145.2,412.3-145.7,411.7z"/>
				<path id="XMLID_51_" class="st9" d="M-142.5,414.8l-3.7,3.7l-3.2-3.2l3.7-3.7l0.1,0.1c0.4,0.5,0.9,1.1,1.4,1.6
					C-143.7,413.8-143.1,414.3-142.5,414.8L-142.5,414.8z"/>
				<path id="XMLID_50_" class="st9" d="M-147.4,408.6l-5,1.3l-1.1-4.4l5-1.3v0.1C-148.4,405.7-148,407.2-147.4,408.6L-147.4,408.6z
					"/>
			</g>
			<g id="XMLID_459_">
			</g>
		</g>
		<g id="XMLID_475_">
			<g id="XMLID_551_">
				<path id="XMLID_49_" class="st10" d="M-140.8,457.8l-4.4,1.2l-1.4-5h0.1c1.4-0.2,2.8-0.5,4.2-1.1h0.1L-140.8,457.8z"/>
				<path id="XMLID_48_" class="st10" d="M-150,454l-1.3,5l-4.4-1.1l1.3-5l0.2,0.1c0.6,0.2,1.3,0.5,1.9,0.7c0.7,0.2,1.4,0.3,2.1,0.4
					L-150,454z"/>
				<path id="XMLID_47_" class="st10" d="M-154.2,452.9l4,1c-0.7-0.1-1.3-0.2-2.1-0.4C-152.9,453.4-153.6,453.2-154.2,452.9z"/>
				<path id="XMLID_46_" class="st10" d="M-161.1,454.8l-3.2-3.2l3.7-3.7l0.2,0.2c0.8,1.1,1.8,2.1,2.9,2.9l0.1,0.1L-161.1,454.8z"/>
				<path id="XMLID_45_" class="st10" d="M-146.5,453.9l4.2-1.1C-143.7,453.4-145.1,453.8-146.5,453.9z"/>
				<path id="XMLID_44_" class="st10" d="M-160.5,448.1l2.9,2.9C-158.6,450.2-159.6,449.2-160.5,448.1z"/>
				<path id="XMLID_43_" class="st10" d="M-135.6,454.7l-3.7-3.6l0.1-0.1c1.1-0.8,2.2-1.9,3-3.1l0.1-0.1l3.7,3.6L-135.6,454.7z"/>
				<path id="XMLID_42_" class="st10" d="M-167.3,446.4l-1.2-4.4l5-1.3l0.1,0.2c0.2,1.3,0.5,2.6,1,3.8l0.1,0.4L-167.3,446.4z"/>
				<path id="XMLID_41_" class="st10" d="M-139.1,451l3-3.1C-137,449-138,450.1-139.1,451z"/>
				<path id="XMLID_40_" class="st10" d="M-163.4,440.9l1,3.8C-162.9,443.5-163.2,442.2-163.4,440.9z"/>
				<path id="XMLID_39_" class="st3" d="M-152.2,437.9l7.6,2l0,0c-0.5,2.1-2.7,3.4-4.8,2.8C-151.5,442.1-152.7,440-152.2,437.9
					L-152.2,437.9z"/>
				<path id="XMLID_38_" class="st10" d="M-150.7,447.6c4.8,1.3,9.7-1.6,11-6.5l0,0l5.9,1.5l-0.6,2.2l0,0c-0.5,1.1-1,2.1-1.8,3
					l-3,3.1c-1,0.7-2.1,1.4-3.1,1.9l-4.2,1.1c-1.2,0.2-2.4,0.2-3.7,0l-4-1c-1.2-0.5-2.4-1.1-3.4-1.9l-2.9-2.9c-0.8-1-1.4-2.2-2-3.4
					l-1-3.8c-0.2-1.3-0.2-2.5,0-3.8l0.5-2.1l5.9,1.5l0,0C-158.3,441.4-155.5,446.3-150.7,447.6z"/>
				<path id="XMLID_37_" class="st10" d="M-163.5,437.3l-5.1-1.3l0.6-2.2l4.9,1.3c-0.2,0.7-0.3,1.4-0.4,2.1V437.3z"/>
				<path id="XMLID_36_" class="st10" d="M-129.4,446.2l-5-1.3l0,0c0.3-0.7,0.5-1.4,0.7-2.2l4.9,1.3L-129.4,446.2z"/>
				<path id="XMLID_35_" class="st10" d="M-134.4,444.9l0.6-2.2l0.2,0.1C-133.9,443.5-134.1,444.2-134.4,444.9z"/>
				<path id="XMLID_34_" class="st10" d="M-162.9,435l-0.5,2.1c0.1-0.7,0.2-1.4,0.4-2.1L-162.9,435z"/>
				<path id="XMLID_33_" class="st4" d="M-139.7,441.1c-1.3,4.8-6.2,7.7-11,6.5c-4.8-1.3-7.7-6.2-6.4-11l0,0l4.9,1.3l0,0
					c-0.5,2.1,0.7,4.3,2.8,4.8s4.3-0.7,4.8-2.8l0,0L-139.7,441.1L-139.7,441.1z"/>
				<path id="XMLID_32_" class="st11" d="M-133.6,442.7l-0.2-0.1l0.6-2.2C-133.3,441.2-133.5,442-133.6,442.7z"/>
				<path id="XMLID_31_" class="st11" d="M-128.8,444l-4.9-1.3c0.2-0.7,0.4-1.5,0.4-2.2l5,1.3L-128.8,444z"/>
				<path id="XMLID_30_" class="st11" d="M-162.4,433c-0.3,0.7-0.5,1.3-0.7,2l-4.9-1.3l0.6-2.2l5,1.3L-162.4,433z"/>
				<path id="XMLID_29_" class="st11" d="M-163.1,435c0.2-0.7,0.4-1.4,0.7-2l-0.5,2.1L-163.1,435z"/>
				<path id="XMLID_28_" class="st6" d="M-144.6,439.9l-7.6-2c0.5-2.1,2.7-3.4,4.8-2.8C-145.3,435.6-144,437.7-144.6,439.9z"/>
				<path id="XMLID_27_" class="st7" d="M-139.7,441.1l-4.9-1.3c0.5-2.1-0.7-4.3-2.8-4.8c-2.1-0.5-4.2,0.7-4.8,2.8l-4.9-1.3
					c1.3-4.8,6.2-7.7,11-6.5C-141.3,431.4-138.4,436.3-139.7,441.1z"/>
				<path id="XMLID_26_" class="st11" d="M-128.2,435.7l-5,1.3V437c-0.2-1.4-0.5-2.8-1.1-4.1l-0.1-0.2l5-1.3L-128.2,435.7z"/>
				<path id="XMLID_25_" class="st11" d="M-133.3,437l-1.1-4.1C-133.8,434.2-133.5,435.6-133.3,437z"/>
				<path id="XMLID_24_" class="st11" d="M-157.6,426.8c-1.1,0.8-2.1,1.9-3,3l-0.1,0.1l-3.7-3.7l3.2-3.3l3.7,3.6L-157.6,426.8z"/>
				<path id="XMLID_23_" class="st11" d="M-160.6,429.8c0.8-1.1,1.9-2.2,3-3L-160.6,429.8z"/>
				<path id="XMLID_22_" class="st11" d="M-150.2,423.7l-4.3,1.2C-153.1,424.3-151.7,423.9-150.2,423.7z"/>
				<path id="XMLID_21_" class="st11" d="M-132.5,426.1l-3.7,3.7l0,0c-0.9-1.2-1.9-2.3-3.2-3.1l0,0l3.7-3.7L-132.5,426.1z"/>
				<path id="XMLID_20_" class="st11" d="M-136.2,429.8l-3.2-3.1C-138.1,427.5-137.1,428.6-136.2,429.8z"/>
				<path id="XMLID_19_" class="st11" d="M-139.4,426.6l3.2,3.1c0.7,1,1.3,2,1.8,3.1l1.1,4.1c0.1,1.1,0.2,2.4,0,3.5l-0.6,2.2
					l-5.9-1.5c1.3-4.8-1.6-9.7-6.4-11c-4.8-1.3-9.7,1.6-11,6.5l-5.9-1.5l0.5-2.1c0.5-1.1,1.1-2.2,1.8-3.2l3-3c1-0.7,2-1.4,3.1-1.9
					l4.3-1.2l0,0c1.1-0.1,2.3-0.1,3.5,0l4.2,1.1C-141.3,425.3-140.3,425.9-139.4,426.6z"/>
				<path id="XMLID_18_" class="st11" d="M-146.7,423.7c0.7,0.1,1.4,0.2,2.2,0.4c0.7,0.2,1.4,0.4,2.1,0.7L-146.7,423.7z"/>
				<path id="XMLID_17_" class="st11" d="M-146.7,423.7l1.3-5l4.4,1.1l-1.3,5h-0.1c-0.7-0.3-1.3-0.5-2.1-0.7
					C-145.2,423.9-146,423.8-146.7,423.7L-146.7,423.7z"/>
				<path id="XMLID_16_" class="st11" d="M-155.9,419.9l4.4-1.2l1.4,5l0,0c-1.5,0.2-3,0.6-4.3,1.2h-0.1L-155.9,419.9z"/>
			</g>
			<g id="XMLID_550_">
			</g>
		</g>
	</g>
</g>
</svg>
