<?xml version="1.0" encoding="utf-8"?>
<!-- Generator: Adobe Illustrator 19.0.0, SVG Export Plug-In . SVG Version: 6.00 Build 0)  -->
<svg version="1.1" xmlns="http://www.w3.org/2000/svg" xmlns:xlink="http://www.w3.org/1999/xlink" x="0px" y="0px"
	 viewBox="-226 350.2 141.7 141.7" style="enable-background:new -226 350.2 141.7 141.7;" xml:space="preserve">
<style type="text/css">
	.st0{fill:#C2E3C8;}
	.st1{fill:#CEE8D2;}
	.st2{fill:#6D6E71;}
	.st3{fill:#E2E3E4;}
	.st4{fill:#E2C7AA;}
	.st5{fill:#888A8C;}
	.st6{fill:#EBEBEC;}
	.st7{fill:#EAD7C3;}
	.st8{fill:#DF9F8F;}
	.st9{fill:#E4B0A2;}
	.st10{fill:#7896B5;}
	.st11{fill:#9FB2C9;}
	.st12{fill:#CFDE5E;}
	.st13{fill:#D8E481;}
	.st14{fill:#5B585C;}
	.st15{fill:#312D33;}
	.st16{fill:#242926;}
	.st17{fill:#3E3B3E;}
	.st18{fill:#5A5557;}
	.st19{fill:#3D3C3E;}
	.st20{fill:#2A2A2C;}
	.st21{fill:#6C6769;}
	.st22{fill:#283329;}
	.st23{fill:#2D2E30;}
	.st24{fill:#515153;}
	.st25{fill:#3F3B3F;}
	.st26{fill:#6E6770;}
	.st27{fill:#666264;}
	.st28{fill:#F8A391;}
	.st29{fill:#FAB9A8;}
	.st30{fill:#8DC63F;}
	.st31{fill:#8CC6EC;}
	.st32{fill:#A3CF62;}
	.st33{fill:#B2D6F1;}
	.st34{fill:#DBDADB;}
	.st35{fill:#F9F9FA;}
	.st36{fill:#F8F8F8;}
	.st37{fill:#F1F2F2;}
	.st38{fill:#959594;}
	.st39{fill:#00B9F2;}
	.st40{fill:#F15B40;}
	.st41{fill:#CDC4E1;}
	.st42{fill:#DAD3E8;}
	.st43{fill:#070807;}
	.st44{fill:#D7EBF2;}
	.st45{fill:#312F2F;}
	.st46{fill:#CFE4F6;}
	.st47{fill:#DEECF9;}
	.st48{fill:#BFD7DC;}
	.st49{fill:#9CB6C6;}
	.st50{fill:#AEC2D0;}
	.st51{fill:#C1CFDA;}
	.st52{fill:#DEEEF4;}
	.st53{fill:#D6EBF2;}
</style>
<g id="front_x5F_bg">
	<g id="XMLID_88_">
		<g>
			<path class="st41" d="M-202,467.6l93.7-91.5h0c11.5,11.8,18.6,28,18.6,45.8c0,36.2-29.3,65.5-65.5,65.5
				C-173.5,487.4-190.1,479.8-202,467.6z"/>
			<path class="st42" d="M-108.3,376.1l-93.7,91.5h0c-11.5-11.8-18.6-28-18.6-45.8c0-36.2,29.3-65.5,65.5-65.5
				C-136.8,356.4-120.2,363.9-108.3,376.1z"/>
		</g>
		<g>
		</g>
	</g>
</g>
<g id="front">
	<g id="Calque_4_3_">
		<g id="XMLID_1_">
			<g id="XMLID_2_">
			</g>
		</g>
	</g>
	<g id="XMLID_90_">
		<g>
			<path class="st43" d="M-114,393v40.5l-0.1,0v0h0l-7.2-4h1.8v-0.1h0.1v-34.5h-0.1h-17l4.7-4.6v-0.4h14.5
				C-115.4,389.8-114,391.2-114,393z"/>
			<path class="st44" d="M-114.1,433.4v3.8c0,1.8-1.4,3.2-3.2,3.2h-26.6h-8v-1c1-0.1,1.8-0.9,1.8-1.8c0,0,0,0,0,0s0,0,0,0
				c0-1-0.8-1.8-1.8-1.8v-2.3H-114.1z"/>
			<polygon class="st44" points="-114.1,433.4 -114.1,433.4 -114.2,433.4 -114.1,433.4 			"/>
			<polygon class="st45" points="-114.1,433.4 -114.1,433.4 -114.1,433.4 			"/>
			<polygon class="st43" points="-114.1,433.4 -151.9,433.4 -151.9,433.4 -114.2,433.4 			"/>
			<polygon class="st45" points="-121.4,429.3 -119.5,429.3 -119.5,429.4 -121.3,429.4 			"/>
			<polygon class="st43" points="-121.3,429.4 -121.4,429.4 -121.5,429.3 -121.4,429.3 			"/>
			<polygon class="st31" points="-121.4,429.3 -121.4,429.3 -121.5,429.3 -124.9,427.4 -124.9,427.4 			"/>
			<polygon class="st31" points="-121.4,429.3 -121.3,429.4 -121.3,429.4 -121.4,429.3 			"/>
			<polygon class="st46" points="-124.7,416.1 -124.7,427.4 -124.9,427.4 -124.9,427.4 -140.9,418.5 -140.9,418.5 -140.9,418.5
				-140.9,416.1 			"/>
			<polygon class="st46" points="-124.7,397.2 -124.7,413.7 -149.5,413.7 -149.6,413.6 -149.7,413.6 -153.6,411.5 -138.9,397.2
				"/>
			<polygon class="st46" points="-124.9,427.4 -140.9,427.4 -140.9,418.5 			"/>
			<path class="st45" d="M-131.7,389.8v0.4l-4.7,4.6h-47.1l-2.9-1.6l-2.5-1.4c0.5-1.1,1.6-2,3-2H-131.7z"/>
			<polygon class="st47" points="-138.9,397.2 -153.6,411.5 -179.1,397.3 -179.1,397.2 			"/>
			<polygon class="st31" points="-140.9,418.5 -140.9,427.4 -140.9,427.4 -140.9,418.5 			"/>
			<polygon class="st31" points="-140.9,418.5 -140.9,418.5 -140.9,418.5 -140.9,418.5 			"/>
			<polygon class="st31" points="-140.9,418.5 -140.9,418.5 -143.8,416.9 -143.8,416.9 			"/>
			<path class="st48" d="M-142.7,451.8h5.9c1,0,1.8,0.5,1.8,1.1c0,0.3-0.2,0.6-0.6,0.8c-0.4,0.2-0.8,0.4-1.4,0.4h-15v-2.3H-142.7z"
				/>
			<polygon class="st49" points="-143.9,440.4 -143.4,445 -143.9,445 -151.9,445 -151.9,440.4 			"/>
			<polygon class="st50" points="-143.4,445 -142.7,451.8 -151.9,451.8 -151.9,445 -143.9,445 			"/>
			<polygon class="st46" points="-143.9,416.9 -143.9,427.4 -160,427.4 -160,417.8 -158.3,416.1 -145.3,416.1 			"/>
			<polygon class="st46" points="-143.9,416.1 -143.9,416.9 -145.3,416.1 			"/>
			<polygon class="st31" points="-136.4,394.8 -119.5,394.8 -119.5,429.3 -121.4,429.3 -124.9,427.4 -124.7,427.4 -124.7,416.1
				-140.9,416.1 -140.9,418.5 -143.8,416.9 -143.8,416.9 -143.9,416.9 -143.9,416.1 -145.3,416.1 -145.4,416 -145.3,416
				-149.5,413.7 -124.7,413.7 -124.7,397.2 -138.9,397.2 			"/>
			<polygon class="st31" points="-145.3,416 -145.4,416 -149.6,413.7 -149.5,413.7 			"/>
			<polygon class="st31" points="-145.4,416 -158.2,416 -155.8,413.7 -149.6,413.7 			"/>
			<polygon class="st47" points="-149.5,413.7 -149.6,413.7 -149.7,413.6 -149.6,413.6 			"/>
			<polygon class="st46" points="-149.6,413.7 -155.8,413.7 -155.8,413.6 -149.7,413.6 			"/>
			<polygon class="st46" points="-149.7,413.6 -155.8,413.6 -153.6,411.5 			"/>
			<path class="st50" d="M-150.2,437.6c0,1-0.8,1.8-1.8,1.8v-0.1C-150.9,439.3-150.2,438.5-150.2,437.6
				C-150.2,437.6-150.2,437.6-150.2,437.6z"/>
			<path class="st50" d="M-151.9,439.4v-3.6c1,0.1,1.7,0.8,1.8,1.8C-150.2,438.5-150.9,439.3-151.9,439.4z"/>
			<polygon class="st51" points="-151.9,445 -151.9,451.8 -160.8,451.8 -160.8,451.7 -160.1,445 -159.6,445 			"/>
			<polygon class="st43" points="-151.9,433.4 -152,433.4 -152,433.4 -176,433.4 -176,433.4 -171.8,429.3 -121.5,429.3
				-121.4,429.4 -121.3,429.4 -118,431.2 -114.2,433.4 -151.9,433.4 			"/>
			<polygon class="st50" points="-151.9,440.4 -151.9,445 -159.6,445 -160.1,445 -159.6,440.4 -152,440.4 			"/>
			<polygon class="st43" points="-152,433.4 -152,433.4 -189.2,433.4 -189.2,433.4 -176,433.4 			"/>
			<path class="st51" d="M-152,439.4c-1,0-1.8-0.8-1.8-1.8c0-1,0.8-1.8,1.8-1.8h0.1L-152,439.4L-152,439.4z"/>
			<path class="st52" d="M-152,439.4c-1,0-1.8-0.8-1.8-1.8c0,0,0,0,0,0C-153.8,438.6-153.1,439.4-152,439.4L-152,439.4L-152,439.4
				C-152,439.4-152,439.4-152,439.4z"/>
			<polygon class="st47" points="-153.6,411.5 -155.8,413.6 -179.1,413.6 -179.1,397.3 			"/>
			<path class="st52" d="M-152,440.4h-7.7H-186c-1.8,0-3.2-1.4-3.2-3.2v-3.9h0.1v0.1h37.2v2.3h-0.1c-1,0-1.8,0.8-1.8,1.8
				c0,0,0,0,0,0s0,0,0,0c0,1,0.8,1.8,1.8,1.8c0.1,0,0.1,0,0.1,0V440.4z"/>
			<polygon class="st46" points="-155.8,413.6 -155.8,413.7 -179.1,413.7 -179.1,413.6 			"/>
			<polygon class="st47" points="-158.3,416.1 -160,417.8 -160,416.1 			"/>
			<polygon class="st31" points="-160,427.4 -160,427.5 -143.8,427.5 -143.8,416.9 -140.9,418.5 -140.9,427.4 -140.9,427.4
				-124.9,427.4 -121.5,429.3 -171.8,429.3 -169.9,427.5 -162.9,427.5 -162.9,420.6 -160,417.8 			"/>
			<polygon class="st46" points="-162.9,420.6 -162.9,427.5 -169.9,427.5 			"/>
			<polygon class="st47" points="-162.9,416.1 -162.9,420.6 -169.9,427.5 -179.1,427.5 -179.1,416.1 			"/>
			<path class="st53" d="M-151.9,451.8v2.3h-14.8c-0.9,0-1.7-0.5-1.7-1.2c0-0.3,0.2-0.6,0.5-0.8c0.3-0.2,0.8-0.4,1.3-0.4h5.8H-151.9
				z"/>
			<polygon class="st31" points="-162.9,416.1 -179.1,416.1 -179.1,427.5 -169.9,427.5 -171.8,429.3 -184.4,429.3 -184.4,394.8
				-183.6,394.8 -179.1,397.3 -179.1,413.6 -179.1,413.7 -155.8,413.7 -158.2,416 -160,416 -160,416.1 -160,417.8 -162.9,420.6
				"/>
			<polygon class="st31" points="-179.1,397.2 -179.1,397.3 -183.6,394.8 -136.4,394.8 -138.9,397.2 			"/>
			<path class="st45" d="M-184.4,394.8v34.5h12.6l-4.1,4v0h-13.2V393c0-0.4,0.1-0.8,0.2-1.2l2.5,1.4l2.9,1.6H-184.4z"/>
		</g>
		<g>
		</g>
	</g>
</g>
</svg>
