<?xml version="1.0" encoding="utf-8"?>
<!-- Generator: Adobe Illustrator 19.0.0, SVG Export Plug-In . SVG Version: 6.00 Build 0)  -->
<svg version="1.1" xmlns="http://www.w3.org/2000/svg" xmlns:xlink="http://www.w3.org/1999/xlink" x="0px" y="0px"
	 viewBox="-226 350.2 141.7 141.7" style="enable-background:new -226 350.2 141.7 141.7;" xml:space="preserve">
<style type="text/css">
	.st0{fill:#C2E3C8;}
	.st1{fill:#CEE8D2;}
	.st2{fill:#6D6E71;}
	.st3{fill:#E2E3E4;}
	.st4{fill:#E2C7AA;}
	.st5{fill:#888A8C;}
	.st6{fill:#EBEBEC;}
	.st7{fill:#EAD7C3;}
	.st8{fill:#DF9F8F;}
	.st9{fill:#E4B0A2;}
	.st10{fill:#7896B5;}
	.st11{fill:#9FB2C9;}
	.st12{fill:#CFDE5E;}
	.st13{fill:#D8E481;}
	.st14{fill:#5B585C;}
	.st15{fill:#312D33;}
	.st16{fill:#242926;}
	.st17{fill:#3E3B3E;}
	.st18{fill:#5A5557;}
	.st19{fill:#3D3C3E;}
	.st20{fill:#2A2A2C;}
	.st21{fill:#6C6769;}
	.st22{fill:#283329;}
	.st23{fill:#2D2E30;}
	.st24{fill:#515153;}
	.st25{fill:#3F3B3F;}
	.st26{fill:#6E6770;}
	.st27{fill:#666264;}
	.st28{fill:#F8A391;}
	.st29{fill:#FAB9A8;}
	.st30{fill:#8DC63F;}
	.st31{fill:#8CC6EC;}
	.st32{fill:#A3CF62;}
	.st33{fill:#B2D6F1;}
	.st34{fill:#DBDADB;}
	.st35{fill:#F9F9FA;}
	.st36{fill:#F8F8F8;}
	.st37{fill:#F1F2F2;}
	.st38{fill:#959594;}
	.st39{fill:#00B9F2;}
	.st40{fill:#F15B40;}
	.st41{fill:#CDC4E1;}
	.st42{fill:#DAD3E8;}
	.st43{fill:#070807;}
	.st44{fill:#D7EBF2;}
	.st45{fill:#312F2F;}
	.st46{fill:#CFE4F6;}
	.st47{fill:#DEECF9;}
	.st48{fill:#BFD7DC;}
	.st49{fill:#9CB6C6;}
	.st50{fill:#AEC2D0;}
	.st51{fill:#C1CFDA;}
	.st52{fill:#DEEEF4;}
	.st53{fill:#D6EBF2;}
</style>
<g id="graphic_x5F_bg">
	<g id="XMLID_89_">
		<g>
			<path class="st12" d="M-202,467.8l93.7-91.5h0c11.5,11.8,18.6,28,18.6,45.8c0,36.2-29.3,65.5-65.5,65.5
				C-173.5,487.5-190.1,480-202,467.8z"/>
			<path class="st13" d="M-220.6,422c0-36.2,29.3-65.5,65.5-65.5c18.4,0,35,7.6,46.8,19.7l-93.7,91.5h0
				C-213.5,456-220.6,439.8-220.6,422z"/>
		</g>
		<g>
		</g>
	</g>
</g>
<g id="graphic">
	<g id="Calque_3_3_">
		<g id="XMLID_193_">
			<g id="XMLID_195_">
				<rect id="XMLID_228_" x="-113.2" y="451.8" class="st14" width="1.4" height="2.3"/>
				<polygon id="XMLID_227_" class="st15" points="-115.8,455 -115.8,450.9 -113.2,450.9 -113.2,451.8 -113.2,454.1 -113.2,455
					"/>
				<polygon id="XMLID_226_" class="st16" points="-115.8,455 -115.8,456.1 -120.8,456.1 -120.8,449.8 -115.8,449.8 -115.8,450.9
									"/>
				<polygon id="XMLID_207_" class="st17" points="-120.8,449.8 -120.8,456.1 -174.8,456.1 -174.8,455.4 -174.8,450.5 -174.8,449.8
									"/>
				<polygon id="XMLID_206_" class="st18" points="-173,433.2 -137,397 -122.2,397 -122.2,433.2 				"/>
				<polygon id="XMLID_205_" class="st19" points="-133.8,393.7 -117.8,393.7 -117.8,436.7 -176.1,436.7 -176.1,436.4 -173,433.2
					-122.2,433.2 -122.2,397 -137,397 				"/>
				<path id="XMLID_204_" class="st20" d="M-133.8,393.7h-50.3h-8.9v-6.5h74.6c3.9,0,6.9,3.1,6.9,6.9V436c0,3.9-3.1,6.9-6.9,6.9
					H-193v-6.3h8.9h8h58.3v-43H-133.8z"/>
				<polygon id="XMLID_203_" class="st21" points="-177.4,433.2 -177.4,397 -137,397 -173,433.2 				"/>
				<polygon id="XMLID_202_" class="st22" points="-176.7,454.7 -176.7,451.2 -176.7,450.5 -174.8,450.5 -174.8,455.4 -176.7,455.4
									"/>
				<polygon id="XMLID_201_" class="st23" points="-178.1,453.8 -178.1,451.8 -178.1,451.2 -176.7,451.2 -176.7,454.7 -178.1,454.7
									"/>
				<polygon id="XMLID_200_" class="st24" points="-176.1,436.7 -184.1,436.7 -184.1,414.9 -184.1,393.7 -133.8,393.7 -137,397
					-177.4,397 -177.4,433.2 -173,433.2 -176.1,436.4 				"/>
				<polygon id="XMLID_199_" class="st25" points="-181.3,453.5 -181.3,452.1 -181.3,451.8 -178.1,451.8 -178.1,453.8 -181.3,453.8
									"/>
				<polygon id="XMLID_198_" class="st26" points="-185.3,452.1 -181.3,452.1 -181.3,453.5 -183.3,453.5 				"/>
				<rect id="XMLID_197_" x="-193" y="414.9" class="st27" width="8.9" height="21.8"/>
				<rect id="XMLID_196_" x="-193" y="393.7" class="st21" width="8.9" height="21.2"/>
			</g>
			<g id="XMLID_194_">
			</g>
		</g>
	</g>
</g>
</svg>
