<?xml version="1.0" encoding="utf-8"?>
<!-- Generator: Adobe Illustrator 19.0.0, SVG Export Plug-In . SVG Version: 6.00 Build 0)  -->
<svg version="1.1" xmlns="http://www.w3.org/2000/svg" xmlns:xlink="http://www.w3.org/1999/xlink" x="0px" y="0px"
	 viewBox="-226 350.2 141.7 141.7" style="enable-background:new -226 350.2 141.7 141.7;" xml:space="preserve">
<style type="text/css">
	.st0{fill:#C2E3C8;}
	.st1{fill:#CEE8D2;}
	.st2{fill:#6D6E71;}
	.st3{fill:#E2E3E4;}
	.st4{fill:#E2C7AA;}
	.st5{fill:#888A8C;}
	.st6{fill:#EBEBEC;}
	.st7{fill:#EAD7C3;}
	.st8{fill:#DF9F8F;}
	.st9{fill:#E4B0A2;}
	.st10{fill:#7896B5;}
	.st11{fill:#9FB2C9;}
	.st12{fill:#CFDE5E;}
	.st13{fill:#D8E481;}
	.st14{fill:#5B585C;}
	.st15{fill:#312D33;}
	.st16{fill:#242926;}
	.st17{fill:#3E3B3E;}
	.st18{fill:#5A5557;}
	.st19{fill:#3D3C3E;}
	.st20{fill:#2A2A2C;}
	.st21{fill:#6C6769;}
	.st22{fill:#283329;}
	.st23{fill:#2D2E30;}
	.st24{fill:#515153;}
	.st25{fill:#3F3B3F;}
	.st26{fill:#6E6770;}
	.st27{fill:#666264;}
	.st28{fill:#F8A391;}
	.st29{fill:#FAB9A8;}
	.st30{fill:#8DC63F;}
	.st31{fill:#8CC6EC;}
	.st32{fill:#A3CF62;}
	.st33{fill:#B2D6F1;}
	.st34{fill:#DBDADB;}
	.st35{fill:#F9F9FA;}
	.st36{fill:#F8F8F8;}
	.st37{fill:#F1F2F2;}
	.st38{fill:#959594;}
	.st39{fill:#00B9F2;}
	.st40{fill:#F15B40;}
	.st41{fill:#CDC4E1;}
	.st42{fill:#DAD3E8;}
	.st43{fill:#070807;}
	.st44{fill:#D7EBF2;}
	.st45{fill:#312F2F;}
	.st46{fill:#CFE4F6;}
	.st47{fill:#DEECF9;}
	.st48{fill:#BFD7DC;}
	.st49{fill:#9CB6C6;}
	.st50{fill:#AEC2D0;}
	.st51{fill:#C1CFDA;}
	.st52{fill:#DEEEF4;}
	.st53{fill:#D6EBF2;}
</style>
<g id="operate_x5F_bg">
	<g id="XMLID_86_">
		<g>
			<path class="st28" d="M-155.1,487.4c-18.4,0-35-7.6-46.9-19.7l93.7-91.5h0c11.5,11.8,18.6,28,18.6,45.8
				C-89.7,458.1-119,487.4-155.1,487.4z"/>
			<path class="st29" d="M-155.1,356.4c18.4,0,35,7.6,46.8,19.7l-93.7,91.5h0c-11.5-11.8-18.6-27.9-18.6-45.8
				C-220.6,385.7-191.3,356.4-155.1,356.4z"/>
		</g>
		<g>
		</g>
	</g>
</g>
<g id="operate">
	<g id="Calque_1_2_">
		<g id="XMLID_82_">
			<g id="XMLID_84_">
				<path id="XMLID_163_" class="st30" d="M-153,431.2l-4.7-2.8v-5.6l-2.9-2.8l31.1-31.1c3.7,3.6,6.5,8.1,8,13.2l-5.6,4.8l-8.3,1.3
					l-4.3,2.9l-4.9,2.2v9.7l-2.4,8.3H-153z"/>
				<path id="XMLID_162_" class="st31" d="M-127,406.8l5.6-4.8c0.8,2.8,1.3,5.9,1.3,9c0,17.1-13.8,30.9-30.9,30.9
					c-8.7,0-16.5-3.6-22.2-9.4l12.6-12.6l2.9,2.8v5.6l4.7,2.8h5.9l2.4-8.3v-9.7l4.9-2.2l4.3-2.9L-127,406.8z"/>
				<path id="XMLID_161_" class="st32" d="M-156.6,393.5h-8.4l-10.1-1.8c5.7-7.1,14.4-11.7,24.2-11.7c8.4,0,16,3.3,21.6,8.8
					l-31.1,31.2l-0.6-0.6l-6.8-5.7v-5.5l4.1-7.9h7.7L-156.6,393.5z"/>
				<path id="XMLID_85_" class="st33" d="M-165,393.5h8.4l0.5,6.8h-7.8l-4.1,7.9v5.5l6.8,5.7l0.6,0.6l-12.6,12.6
					c-5.4-5.6-8.8-13.2-8.8-21.6c0-7.3,2.5-13.9,6.8-19.3L-165,393.5z"/>
			</g>
			<g id="XMLID_83_">
			</g>
		</g>
		<g id="XMLID_57_">
			<g id="XMLID_61_">
				<rect id="XMLID_73_" x="-181.9" y="460.5" class="st34" width="61.8" height="2.1"/>
				<polygon id="XMLID_72_" class="st35" points="-177.8,442 -124.1,442 -120.1,442 -120.1,444 -181.9,444 -181.9,442 				"/>
				<rect id="XMLID_70_" x="-181.9" y="417.1" class="st36" width="61.8" height="2.2"/>
				<path id="XMLID_69_" class="st37" d="M-181.9,419.3h61.8v16.4h-61.8V419.3z M-169.5,427.5c0-1.1-0.9-2.1-2.1-2.1
					c-1.1,0-2.1,0.9-2.1,2.1c0,1.1,0.9,2.1,2.1,2.1C-170.4,429.5-169.5,428.6-169.5,427.5z M-161.3,427.5c0-1.1-0.9-2.1-2.1-2.1
					c-1.1,0-2.1,0.9-2.1,2.1c0,1.1,0.9,2.1,2.1,2.1C-162.2,429.5-161.3,428.6-161.3,427.5z"/>
				<rect id="XMLID_68_" x="-177.8" y="437.7" class="st38" width="53.7" height="4.3"/>
				<path id="XMLID_67_" class="st39" d="M-163.3,425.4c1.1,0,2.1,0.9,2.1,2.1c0,1.1-0.9,2.1-2.1,2.1c-1.1,0-2.1-0.9-2.1-2.1
					C-165.4,426.3-164.5,425.4-163.3,425.4z"/>
				<path id="XMLID_66_" class="st39" d="M-163.3,450.2c1.1,0,2.1,0.9,2.1,2.1s-0.9,2.1-2.1,2.1c-1.1,0-2.1-0.9-2.1-2.1
					S-164.5,450.2-163.3,450.2z"/>
				<path id="XMLID_65_" class="st37" d="M-169.5,452.3c0-1.1-0.9-2.1-2.1-2.1c-1.1,0-2.1,0.9-2.1,2.1s0.9,2.1,2.1,2.1
					C-170.4,454.4-169.5,453.4-169.5,452.3z M-181.9,460.5V444h61.8v16.5H-181.9z M-161.3,452.3c0-1.1-0.9-2.1-2.1-2.1
					c-1.1,0-2.1,0.9-2.1,2.1s0.9,2.1,2.1,2.1C-162.2,454.4-161.3,453.4-161.3,452.3z"/>
				<path id="XMLID_64_" class="st40" d="M-171.5,425.4c1.1,0,2.1,0.9,2.1,2.1c0,1.1-0.9,2.1-2.1,2.1c-1.1,0-2.1-0.9-2.1-2.1
					C-173.6,426.3-172.7,425.4-171.5,425.4z"/>
				<path id="XMLID_63_" class="st40" d="M-171.5,450.2c1.1,0,2.1,0.9,2.1,2.1s-0.9,2.1-2.1,2.1c-1.1,0-2.1-0.9-2.1-2.1
					S-172.7,450.2-171.5,450.2z"/>
				<polygon id="XMLID_62_" class="st34" points="-177.8,437.7 -181.9,437.7 -181.9,435.8 -120.1,435.8 -120.1,437.7 -124.1,437.7
									"/>
			</g>
			<g id="XMLID_58_">
			</g>
		</g>
	</g>
</g>
</svg>
