<svg xmlns="http://www.w3.org/2000/svg" viewBox="0 0 481.9 368.5"><style>.st0{fill:#f3bab5}.st1{fill:#f1aaa6}.st2{fill:#d3d0e8}.st3{fill:#e2c0a5}.st4{fill:#cbe9e6}.st5{fill:#dcb493}.st6{fill:#bee4e1}.st7{fill:#ffe2bd}.st8{fill:#ffdcae}.st9{fill:#cfe8d4}.st10{fill:#c4e4ca}.st11{fill:#e9f0bd}.st12{fill:#e4ecae}.st13{fill:none}.st14{fill:#594a42}.st15{display:none}.st16{display:inline}.st17{fill:#b9a2af}.st18{fill:none;stroke:#000;stroke-miterlimit:10}.st19{fill:#FFF}.st20{fill:#d1d3d4}.st21{fill:#bcbec0}.st22{fill:#a7a9ac}.st23{fill:#303441}.st24{fill:#444755}.st25{fill:#3c3f4d}.st26{fill:#2d303d}.st27{fill:#333646}.st28{fill:#2d313e}.st29{fill:#8b5e3c}.st30{fill:#feebc7}.st31{fill:#efceac}.st32{fill:#333746}.st33{fill:#e6eaed}.st34{fill:#d4d8dd}.st35{fill:#d4dbe1}.st36{fill:#c3c7cf}.st37{fill:#463f3b}.st38{fill:#a28266}.st39{fill:#f1f2f2}.st40{fill:#414042}.st41{fill:#e6e7e8}.st42{fill:url(#XMLID_300_)}.st43{fill:#d5d8db}.st44{fill:#c2b59b}.st45{fill:#a49c8d}.st46{fill:#cdc1ac}.st47{opacity:.5;fill:#f1f2f2}.st48{fill:#c3c0c6}.st49{fill:#858791}.st50{fill:#333747}.st51{fill:#aeafb6}.st52{opacity:.6}.st53{opacity:.4;fill:#FFF}.st54{opacity:.32}.st55{fill:#c7c8ca}</style><g id="kodama_x5F_body"><g id="XMLID_577_"><g id="XMLID_101_"><path id="XMLID_14_" class="st19" d="M105 340.2c-.1.4-.1.7-.1.7-.3-.9-1-1.1-1-1.1-1.1-.7-2.4 0-2.4 0-.3.1-.5.3-.6.5l-.8.1s-1.3.2-2.5-1.2-1.9-4-1.9-4c-.1.5-.2 1.1-.2 1.9v.2c-.1.6-.6 1.3-.6 1.3s-.7.5-1.6-.3c-.8-.7 0-4.4.1-4.7 1.1-2.1 2.9-3.4 2.9-3.4s3.4 1.2 7.7-.7c1.2.7 1.6 1.2 1.6 1.2.5.4 1.5 2.2 2 3.2s.6 1.5.8 2 .3 1.8.3 1.8l.1 1.5v1.2l-.1 1.5-.1 1-.1 1.2c0 .3-.1.7-.3 1.2-.1.4.2.9.2.9.5.9-.1 1-.1 1-.4-.4-.7 0-.7 0s-.1 0-.2.1l-1.1-3.6c-.6-2.7-1.3-3.5-1.3-3.5z"/><path id="XMLID_11_" class="st55" d="M106.1 343.5l1.1 3.6h-.4c-.4-.3-.7 0-.7 0-.4.3-.5.2-.5.2-.2-.3-.9-.5-1-.5.3-.8.4-2.3.4-2.3.3-1-.2-2.7-.2-2.7 0-.4-.1-.7-.2-.9 0 0 .1-.3.1-.7.3 0 1 .8 1.4 3.3z"/><path id="XMLID_10_" class="st19" d="M104.7 346.8c0 .1-.1.2-.1.2l-.3.7s.6.9-.5.9c0 0-1-.1-1.2.2 0 0 0 .3-1.2-.1 0 0-.3-.1-.7.1 0 0-.6.4-.9-.4v-.4c.7-.6 1-1.6 1-1.6l.4-2.2c.2-.4-.1-2.7-.1-2.7 1.5-1.6-.1-1.3-.2-1.3.2-.2.4-.4.6-.5 0 0 1.2-.7 2.4 0 0 0 .7.3 1 1.1.1.3.2.5.2.9 0 0 .4 1.7.2 2.7-.1.1-.3 1.6-.6 2.4z"/><path id="XMLID_8_" class="st55" d="M100.9 340.2c.1 0 1.8-.2.2 1.3 0 0 .3 2.3.1 2.7l-.4 2.2s-.3 1-1 1.6c0-.2.1-.5.1-.5s.4-1.3.3-1.7c-.1-.4 0-3.7 0-3.7s.1-1.2.7-1.9z"/><path id="XMLID_7_" class="st55" d="M100.9 340.2c-.6.7-.6 1.9-.6 1.9s-.1 3.3 0 3.7c.1.4-.3 1.7-.3 1.7-.2.2-.5.1-.5.1v-.4l-.3-4.3c.1-1.6-1.3-2.5-1.3-2.5-2.2-.6-2.4 1-2.4 1s-.4-.4-.3-2.8c0-.5.1-1 .1-1.4v-.2c.1-.8.2-1.5.2-1.9 0 0 .7 2.7 1.9 4s2.5 1.2 2.5 1.2l1-.1z"/><path id="XMLID_6_" class="st19" d="M99.2 342.9l.3 4.3v.4c0 .4-.1.9-.3.9-.3 0-1.2-.4-2 .3 0 0-.5-.4-1.1-.2.4-.2.3-1 .3-1s-.6-2.7-.8-3c-.2-.3-.2-3.1-.2-3.1s.1-1.6 2.4-1c.1-.1 1.5.8 1.4 2.4z"/><path id="XMLID_5_" class="st55" d="M96.5 347.6s0 .8-.3 1c-.1 0-.3.1-.4.2 0 0-1.2-.1-.3-.7.5-.4 0-1.1 0-1.1s-.6-1.6-.7-1.9c0-.3.1-1.3.1-1.3s-.3-1.1.6-2.4c0 0 0 2.9.2 3.1.2.4.8 3.1.8 3.1z"/><path id="XMLID_3_" class="st55" d="M95.4 347l-1.1.9c-.6-.4-.6-.2-.6-.2l-1.5 1.1c-.4-.7.2-1.5.2-1.5s.7-.9.4-2c-.3-1-.7-5.1-.7-5.1s-.3-2.2.5-5.2c.1-.6.4-1.1.6-1.6-.1.3-.9 3.9-.1 4.7.9.8 1.6.3 1.6.3s.5-.8.6-1.3c0 .4-.1.9-.1 1.4-.1 2.4.3 2.8.3 2.8-1 1.3-.6 2.4-.6 2.4s-.1 1.1-.1 1.3c0 .5.6 2 .6 2z"/></g></g></g></svg>