<svg xmlns="http://www.w3.org/2000/svg" viewBox="0 0 481.9 368.5"><style>.st0{fill:#f3bab5}.st1{fill:#f1aaa6}.st2{fill:#d3d0e8}.st3{fill:#e2c0a5}.st4{fill:#cbe9e6}.st5{fill:#dcb493}.st6{fill:#bee4e1}.st7{fill:#ffe2bd}.st8{fill:#ffdcae}.st9{fill:#cfe8d4}.st10{fill:#c4e4ca}.st11{fill:#e9f0bd}.st12{fill:#e4ecae}.st13{fill:none}.st14{fill:#594a42}.st15{display:none}.st16{display:inline}.st17{fill:#b9a2af}.st18{fill:none;stroke:#000;stroke-miterlimit:10}.st19{fill:#FFF}.st20{fill:#d1d3d4}.st21{fill:#bcbec0}.st22{fill:#a7a9ac}.st23{fill:#303441}.st24{fill:#444755}.st25{fill:#3c3f4d}.st26{fill:#2d303d}.st27{fill:#333646}.st28{fill:#2d313e}.st29{fill:#8b5e3c}.st30{fill:#feebc7}.st31{fill:#efceac}.st32{fill:#333746}.st33{fill:#e6eaed}.st34{fill:#d4d8dd}.st35{fill:#d4dbe1}.st36{fill:#c3c7cf}.st37{fill:#463f3b}.st38{fill:#a28266}.st39{fill:#f1f2f2}.st40{fill:#414042}.st41{fill:#e6e7e8}.st42{fill:url(#XMLID_300_)}.st43{fill:#d5d8db}.st44{fill:#c2b59b}.st45{fill:#a49c8d}.st46{fill:#cdc1ac}.st47{opacity:.5;fill:#f1f2f2}.st48{fill:#c3c0c6}.st49{fill:#858791}.st50{fill:#333747}.st51{fill:#aeafb6}.st52{opacity:.6}.st53{opacity:.4;fill:#FFF}.st54{opacity:.32}.st55{fill:#c7c8ca}</style><g id="kodama_x5F_head"><g id="XMLID_382_"><g id="XMLID_487_"><path id="XMLID_54_" class="st19" d="M109.6 319.6c.9 2.9-1 5.9-1 5.9-1.1 2-4.6 3.7-4.6 3.7-1.6.1-5.7-1.3-5.7-1.3-1.3-.4-4.7-2.9-4.7-2.9-.5-.3-.9-.7-1.3-1.2 1.1-.2 2-1.2 2-2.4 0-1.3-1-2.4-2.3-2.4-.6 0-1.2.3-1.6.7-.1-.2-.1-.4-.2-.5-.4-1.1-.5-5.8-.5-5.8 2.5-3.2 5.1-4.6 5.1-4.6 1.5-1 4.5-.8 6.5-.6 2.1.3 4.8 3.6 4.8 3.6s2.6 4.9 3.5 7.8zm-4.5 4.7c0-.7-.6-1.3-1.3-1.3-.7 0-1.3.6-1.3 1.3s.6 1.3 1.3 1.3c.7.1 1.3-.5 1.3-1.3zm-.4-11.5c0-1.1-.8-1.9-1.9-1.9-1 0-1.9.9-1.9 1.9 0 1.1.8 1.9 1.9 1.9 1 .1 1.9-.8 1.9-1.9zm-7.7 3.3s1.5-.2 1.3-1.1c-.2-.9-.6-.4-.6-.4.3 1.2-.2 1.2-.2 1.2-.7-.2-1-.1-1-.1 0 .4.5.4.5.4z"/><path id="XMLID_42_" d="M103.8 323c.7 0 1.3.6 1.3 1.3s-.6 1.3-1.3 1.3c-.7 0-1.3-.6-1.3-1.3s.6-1.3 1.3-1.3z"/><path id="XMLID_41_" d="M102.8 310.9c1 0 1.9.9 1.9 1.9 0 1.1-.8 1.9-1.9 1.9-1 0-1.9-.9-1.9-1.9 0-1 .9-1.9 1.9-1.9z"/><path id="XMLID_40_" class="st55" d="M98.3 327.9s4 1.5 5.7 1.3c-4.6 2-7.9.8-7.9.8-2.9 0-6.9-4.1-6.9-4.1-2.8-5.4-.7-10.8-.7-10.8.4-.6.8-1.2 1.3-1.8 0 0 .1 4.6.5 5.8.1.1.1.3.2.5-.4.4-.7 1-.7 1.7 0 1.3 1 2.4 2.3 2.4h.3c.4.4.8.8 1.3 1.2-.1.1 3.2 2.6 4.6 3z"/><path id="XMLID_39_" d="M98.3 315c.2.9-1.3 1.1-1.3 1.1s-.5.1-.5-.4c0 0 .3-.1 1 .1 0 0 .6.1.2-1.2.1-.1.4-.5.6.4z"/><path id="XMLID_38_" d="M92 319.1c1.3 0 2.3 1.1 2.3 2.4 0 1.2-.9 2.2-2 2.4-1.1-1.3-1.6-3-1.9-4.1.4-.5 1-.7 1.6-.7z"/><path id="XMLID_37_" d="M92.3 323.8H92c-1.3 0-2.3-1.1-2.3-2.4 0-.7.3-1.3.7-1.7.3 1.1.8 2.8 1.9 4.1z"/></g></g></g></svg>