<svg xmlns="http://www.w3.org/2000/svg" viewBox="0 0 481.9 368.5"><style>.st0{fill:#f3bab5}.st1{fill:#f1aaa6}.st2{fill:#d3d0e8}.st3{fill:#e2c0a5}.st4{fill:#cbe9e6}.st5{fill:#dcb493}.st6{fill:#bee4e1}.st7{fill:#ffe2bd}.st8{fill:#ffdcae}.st9{fill:#cfe8d4}.st10{fill:#c4e4ca}.st11{fill:#e9f0bd}.st12{fill:#e4ecae}.st13{fill:none}.st14{fill:#594a42}.st15{display:none}.st16{display:inline}.st17{fill:#b9a2af}.st18{fill:none;stroke:#000;stroke-miterlimit:10}.st19{fill:#FFF}.st20{fill:#d1d3d4}.st21{fill:#bcbec0}.st22{fill:#a7a9ac}.st23{fill:#303441}.st24{fill:#444755}.st25{fill:#3c3f4d}.st26{fill:#2d303d}.st27{fill:#333646}.st28{fill:#2d313e}.st29{fill:#8b5e3c}.st30{fill:#feebc7}.st31{fill:#efceac}.st32{fill:#333746}.st33{fill:#e6eaed}.st34{fill:#d4d8dd}.st35{fill:#d4dbe1}.st36{fill:#c3c7cf}.st37{fill:#463f3b}.st38{fill:#a28266}.st39{fill:#f1f2f2}.st40{fill:#414042}.st41{fill:#e6e7e8}.st42{fill:url(#XMLID_300_)}.st43{fill:#d5d8db}.st44{fill:#c2b59b}.st45{fill:#a49c8d}.st46{fill:#cdc1ac}.st47{opacity:.5;fill:#f1f2f2}.st48{fill:#c3c0c6}.st49{fill:#858791}.st50{fill:#333747}.st51{fill:#aeafb6}.st52{opacity:.6}.st53{opacity:.4;fill:#FFF}.st54{opacity:.32}.st55{fill:#c7c8ca}</style><g id="leeves"><g id="XMLID_634_"><g id="XMLID_658_"><path id="XMLID_297_" class="st0" d="M457.5 191.7l-8.1 10.3-.1-.1-38.3-13-48.6 6.2-33.3-5-34.4-41.9 3.1-5.5 20.8-36.7h78.9c5.2 7.6 10.6 15 18.5 20.3.9.6 1.8.9 2.7.8 2.1 2.9 4.3 5.7 6.5 8.5 3.9 5 8.3 10.5 13.4 15 1.4 3.1 2.8 6.1 4.3 9.2 1.2 2.4 2.4 4.7 3.7 7 3.3 8.4 6.9 16.7 10.9 24.9z"/><path id="XMLID_296_" class="st1" d="M449.4 201.9l-12.5 15.9-38.2-12.9-48.7 6.2-31.5-4.8-1.7-.3-32.4-39.7 3.5-6 2.4-4.4 4.4-7.7 34.4 41.9 33.3 5 48.6-6.2 38.3 12.9z"/><path id="XMLID_295_" class="st3" d="M410.4 299.4L383.9 333l-35.3-11.9-44.9 5.7-30.7-4.6-32.3-39.5 4.9-8.5 15.1-26.8H337.4l22.8 24.5 28.8 8z"/><path id="XMLID_294_" class="st2" d="M355 92.8l9.7-12.4c3 1.9 6 3.8 9.1 5.6 5.5 3.4 11.1 6.8 16.7 10.1 2.5 3.2 4.7 6.5 7 9.8h-78.9l-20.8 36.7-26.5 3.4-8-1.2-15.7-16.9h-21.9l-11-13.4L227 98.9l-21.3-19.4 5.3-9.4c2.9-.8 5.9-1.6 8.8-2.5.9-.3 1.9-.6 2.8-.9l17 20.9 30.7 4.7 44.9-5.7 35.3 11.9 4.5-5.7z"/><path id="XMLID_293_" class="st5" d="M383.9 333l-14 17.7-35.3-11.9-44.9 5.7-30.7-4.7-23.1-28.3-6.8-8.3 11.6-20.5 32.3 39.5 30.7 4.6 44.9-5.7z"/><path id="XMLID_292_" class="st4" d="M364.8 80.5L355 92.8l-35.2-11.9-44.9 5.7-30.7-4.6-14.4-17.8c3.4-1.4 6.7-3.2 9.4-5.7.1-.1.2-.2.2-.3 30 12.3 64.7.5 94.9 12.5.8.3 1.6.4 2.3.3 7.4 2.4 14.7 5 22.1 7.5l3.6 1.2c.6.2 1.2.2 1.7.2.3.3.5.4.8.6z"/><path id="XMLID_291_" class="st6" d="M319.8 80.9L355 92.8l-4.5 5.7-35.3-11.9-44.9 5.7-30.7-4.7-17-20.9c2.4-.8 4.9-1.6 7.3-2.6L244.2 82l30.7 4.7 44.9-5.8z"/><path id="XMLID_290_" class="st7" d="M188.1 148.2l16-20.3h43.4l15.7 16.9h.1l10.8 11.7 3.7 1h.1l10 2.8-3.5 6 32.4 39.7 1.7.3-23.5 29-.1-.1-40.5-13.7-51.6 6.6-28.6-4.4-15.3-16.3H155l-24.4-30-.4-.2 14.9-26.2 32.2 10.9z"/><path id="XMLID_289_" class="st2" d="M297.8 142.7l-3.1 5.5-4.4 7.7-12.4 1.6h-.1l-3.7-1-10.8-11.7 8 1.2z"/><path id="XMLID_288_" class="st8" d="M295 235.3l-9.9 12.1-40.8-13-46.6 5.9-10.9-3-12.6-13.6 28.6 4.4 51.6-6.6 40.5 13.7z"/><path id="XMLID_287_" class="st9" d="M240.7 282.7l-11.6 20.5 6.8 8.3-8.3 4.9-43.3-14.7-54.8 7-37.6-5.7L64 268.8c-.1-3.9-.3-7.9-.4-11.8-.1-1.6-.9-2.9-2-3.7v-1.1c.6-2.5 1.1-5 1.6-7.5l21.1-37.3h74.6l15.2 16.4 12.6 13.5 10.9 3L222 247l23.6 27.2-4.9 8.5z"/><path id="XMLID_286_" class="st10" d="M227.6 316.4l-29 17-43.1-14.5-54.8 7-37.5-5.7-.2-.2c1.7-17 1.6-34.1 1.1-51.2L91.9 303l37.5 5.7 54.8-7 43.4 14.7z"/><path id="XMLID_285_" class="st11" d="M226.9 98.9l-12.3 15.6-10.6 13.4-16 20.3-43.3-14.6-43.4 5.5c11.8-14.2 25.9-27.7 41.5-39 1.1 1.3 2.9 2.1 5 1.7 9.6-1.8 24.8-5.8 31-15.1 2.4-1.1 4.8-2.2 7.2-3.4 2.8-1.4 2.9-4.5 1.7-6.8 2.4-.8 4.9-1.6 7.3-2.3.5-.1.9-.3 1.4-.4l4.2 1.2 4.9 4.4 21.4 19.5z"/><path id="XMLID_284_" class="st2" d="M214.6 114.5l11 13.4h-21.5z"/><path id="XMLID_283_" class="st12" d="M188.1 148.2l-10.8 13.7-32.2-10.9-11.1-3.7-42.7 5.4c3.1-4.5 6.3-8.9 9.8-13.1.1-.2.3-.3.4-.5l43.4-5.5 43.2 14.6z"/><path id="XMLID_282_" class="st8" d="M130.6 177.4l24.4 30h-21.9l-11.8-14.5 8.9-15.7z"/><path id="XMLID_281_" class="st10" d="M84.3 207.4l-21.1 37.3c1.7-8.9 2.7-17.9 1.9-26.8.9-3.6 2.1-7 3.4-10.5h15.8z"/></g></g></g></svg>