<svg xmlns="http://www.w3.org/2000/svg" viewBox="0 0 481.9 368.5"><style>.st0{fill:#f3bab5}.st1{fill:#f1aaa6}.st2{fill:#d3d0e8}.st3{fill:#e2c0a5}.st4{fill:#cbe9e6}.st5{fill:#dcb493}.st6{fill:#bee4e1}.st7{fill:#ffe2bd}.st8{fill:#ffdcae}.st9{fill:#cfe8d4}.st10{fill:#c4e4ca}.st11{fill:#e9f0bd}.st12{fill:#e4ecae}.st13{fill:none}.st14{fill:#594a42}.st15{display:none}.st16{display:inline}.st17{fill:#b9a2af}.st18{fill:none;stroke:#000;stroke-miterlimit:10}.st19{fill:#FFF}.st20{fill:#d1d3d4}.st21{fill:#bcbec0}.st22{fill:#a7a9ac}.st23{fill:#303441}.st24{fill:#444755}.st25{fill:#3c3f4d}.st26{fill:#2d303d}.st27{fill:#333646}.st28{fill:#2d313e}.st29{fill:#8b5e3c}.st30{fill:#feebc7}.st31{fill:#efceac}.st32{fill:#333746}.st33{fill:#e6eaed}.st34{fill:#d4d8dd}.st35{fill:#d4dbe1}.st36{fill:#c3c7cf}.st37{fill:#463f3b}.st38{fill:#a28266}.st39{fill:#f1f2f2}.st40{fill:#414042}.st41{fill:#e6e7e8}.st42{fill:url(#XMLID_300_)}.st43{fill:#d5d8db}.st44{fill:#c2b59b}.st45{fill:#a49c8d}.st46{fill:#cdc1ac}.st47{opacity:.5;fill:#f1f2f2}.st48{fill:#c3c0c6}.st49{fill:#858791}.st50{fill:#333747}.st51{fill:#aeafb6}.st52{opacity:.6}.st53{opacity:.4;fill:#FFF}.st54{opacity:.32}.st55{fill:#c7c8ca}</style><g id="window"><g id="XMLID_180_"><g id="XMLID_239_"><path id="XMLID_276_" class="st19" d="M448.4 157.5s33 48 32.5 118 0 93 0 93H374.7V84.3c27.1 14.9 53.9 37.9 73.7 73.2zm-58.7 96.2h72.5s-6.3-55.3-29-87.8h-43.5v87.8zM462 347v-85.7h-72.2V347H462zm-72.3-186.5h39.7s-7.8-18.2-39.7-44.3v44.3z"/><path id="XMLID_275_" class="st20" d="M374.7 348v20.5H367v-28h1.7v7.5c.5.3.9.5 1.3.6 1.6.4 2.8-.6 2.8-.6h1.9z"/><path id="XMLID_274_" class="st20" d="M374.7 210.5V348h-1.9v-17.4c-2.2-1.7-4.1 0-4.1 0v7.3H367V220.4h1v7.5c.5.3.9.5 1.3.6 1.6.4 2.8-.6 2.8-.6v-17.4h2.6z"/><path id="XMLID_267_" class="st20" d="M370 109.4c1.6.4 2.8-.6 2.8-.6h1.9v101.7h-2.6c-2.2-1.7-4.1 0-4.1 0v7.3h-1V101.4h1.7v7.5c.4.2.9.4 1.3.5z"/><path id="XMLID_264_" class="st20" d="M374.7 84.3v24.6h-1.9V91.4c-2.2-1.7-4.1 0-4.1 0v7.3H367V80.2c2.6 1.3 5.1 2.6 7.7 4.1z"/><path id="XMLID_263_" class="st21" d="M372.8 340.5v7.5s-1.2 1-2.8.6v-7.4c1.4.2 2.8-.7 2.8-.7z"/><path id="XMLID_262_" class="st21" d="M372.8 337.8v2.7s-1.4.9-2.8.6h-.1c-.4-.1-.8-.3-1.2-.6v-2.7s.5.4 1.3.6c.8.3 1.8.3 2.8-.6z"/><path id="XMLID_261_" class="st21" d="M372.8 331.6v6.2c-1 .9-2 .9-2.8.6v-6.9h2.8z"/><path id="XMLID_260_" class="st22" d="M372.8 330.6v1H370v6.9c-.8-.2-1.3-.6-1.3-.6v-7.3s1.9-1.7 4.1 0z"/><path id="XMLID_259_" class="st21" d="M372.8 101.4v7.5s-1.2 1-2.8.6V102c1.4.2 2.8-.6 2.8-.6z"/><path id="XMLID_258_" class="st21" d="M372.8 98.7v2.7s-1.4.9-2.8.6h-.1c-.4-.1-.8-.3-1.2-.6v-2.7s.5.4 1.3.7c.8.2 1.8.2 2.8-.7z"/><path id="XMLID_257_" class="st21" d="M372.8 92.5v6.2c-1 .9-2 .9-2.8.7v-6.8h2.8z"/><path id="XMLID_256_" class="st22" d="M372.8 91.4v1.1H370v6.8c-.8-.2-1.3-.7-1.3-.7v-7.3c0 .1 1.9-1.5 4.1.1z"/><path id="XMLID_248_" class="st21" d="M372.1 220.4v7.5s-1.2 1-2.8.6v-7.4c1.4.2 2.8-.7 2.8-.7z"/><path id="XMLID_247_" class="st21" d="M372.1 217.7v2.7s-1.4.9-2.8.6h-.1c-.4-.1-.8-.3-1.2-.6v-2.7s.5.4 1.3.7c.8.2 1.8.2 2.8-.7z"/><path id="XMLID_246_" class="st21" d="M372.1 211.5v6.2c-1 .9-2 .9-2.8.7v-6.9h2.8z"/><path id="XMLID_245_" class="st22" d="M372.1 210.5v1h-2.8v6.9c-.8-.2-1.3-.7-1.3-.7v-7.3c0 .1 1.9-1.6 4.1.1z"/><path id="XMLID_243_" class="st22" d="M370 341.1v7.4c-.4-.1-.9-.3-1.3-.6v-7.5c.4.3.8.5 1.2.6 0 .1.1.1.1.1z"/><path id="XMLID_242_" class="st22" d="M370 102v7.4c-.4-.1-.9-.3-1.3-.6v-7.5c.4.3.8.5 1.2.6 0 .1.1.1.1.1z"/><path id="XMLID_216_" class="st22" d="M369.3 221.1v7.4c-.4-.1-.9-.3-1.3-.6v-7.5c.4.3.8.5 1.2.6.1 0 .1 0 .1.1z"/><path id="XMLID_215_" class="st21" d="M367 337.8h1.7v2.7H367z"/><path id="XMLID_186_" class="st21" d="M367 98.7h1.7v2.7H367z"/><path id="XMLID_185_" class="st21" d="M368 217.7v2.7h-1v-2.7z"/><path id="XMLID_159_" class="st19" d="M367 340.5v28H263.6v-312s51-2.5 103.4 23.7v260.3zm-16.3 6.5v-85.7h-72.2V347h72.2zm0-93.3V168h-72.2v85.7h72.2zm-.8-93.2V92.3s-32.2-15.8-71.3-18.8v87h71.3zm-77 75.2v-14.2h-1.8v-4.1h-3.4v4.1h-1.8v14.2h1.8v2.8h3.4v-2.8h1.8z"/><path id="XMLID_158_" class="st22" d="M271.1 221.5h1.8v14.2h-1.8z"/><path id="XMLID_157_" class="st21" d="M267.7 235.7h3.4v2.8h-3.4z"/><path id="XMLID_156_" class="st21" d="M267.7 221.5h3.4v14.2h-3.4z"/><path id="XMLID_155_" class="st21" d="M267.7 217.4h3.4v4.1h-3.4z"/><path id="XMLID_154_" class="st22" d="M265.9 221.5h1.8v14.2h-1.8z"/><path id="XMLID_149_" class="st19" d="M263.6 56.5v312H160.2V80.2c52.5-26.1 103.4-23.7 103.4-23.7zM248.7 347v-85.7h-72.2V347h72.2zm0-93.3V168h-72.2v85.7h72.2zm0-93.2v-87c-39.2 3-71.3 18.8-71.3 18.8v68.2h71.3z"/><path id="XMLID_148_" class="st20" d="M160.2 340.5v28h-7.7V348h1.9s1.2 1 2.8.6c.4-.1.9-.3 1.3-.6v-7.5h1.7z"/><path id="XMLID_147_" class="st21" d="M158.5 337.8h1.7v2.7h-1.7z"/><path id="XMLID_146_" class="st20" d="M160.2 220.4v117.4h-1.7v-7.3s-1.9-1.7-4.1 0v17.4h-1.9V210.5h2.6v17.4s1.2 1 2.8.6c.4-.1.9-.3 1.3-.6v-7.5h1z"/><path id="XMLID_145_" class="st21" d="M160.2 217.7v2.7h-1v-2.7z"/><path id="XMLID_144_" class="st20" d="M157.2 109.4c.4-.1.9-.3 1.3-.6v-7.5h1.7v116.4h-1v-7.3s-1.9-1.7-4.1 0h-2.6V108.8h1.9s1.2 1 2.8.6z"/><path id="XMLID_143_" class="st21" d="M158.5 98.7h1.7v2.7h-1.7z"/><path id="XMLID_141_" class="st20" d="M160.2 80.2v18.5h-1.7v-7.3s-1.9-1.7-4.1 0v17.4h-1.9V84.3c2.6-1.5 5.2-2.8 7.7-4.1z"/><path id="XMLID_140_" class="st22" d="M159.2 220.4v7.5c-.5.3-.9.5-1.3.6v-7.4h.1c.4-.2.8-.4 1.2-.7z"/><path id="XMLID_139_" class="st21" d="M159.2 217.7v2.7c-.4.3-.8.5-1.2.6h-.1c-1.4.2-2.8-.6-2.8-.6v-2.7c1 .9 2 .9 2.8.7.8-.2 1.3-.7 1.3-.7z"/><path id="XMLID_138_" class="st22" d="M159.2 210.5v7.3s-.5.4-1.3.7v-6.9h-2.8v-1c2.2-1.8 4.1-.1 4.1-.1z"/><path id="XMLID_137_" class="st22" d="M158.5 340.5v7.5c-.4.3-.9.5-1.3.6v-7.4h.1c.4-.2.9-.4 1.2-.7z"/><path id="XMLID_136_" class="st21" d="M158.5 337.8v2.7c-.4.3-.8.5-1.2.6h-.1c-1.4.3-2.8-.6-2.8-.6v-2.7c1 .9 2 .9 2.8.6.8-.1 1.3-.6 1.3-.6z"/><path id="XMLID_134_" class="st22" d="M158.5 330.6v7.3s-.5.4-1.3.6v-6.9h-2.8v-1c2.3-1.7 4.1 0 4.1 0z"/><path id="XMLID_133_" class="st22" d="M158.5 101.4v7.5c-.4.3-.9.5-1.3.6V102h.1c.4-.1.9-.3 1.2-.6z"/><path id="XMLID_132_" class="st21" d="M158.5 98.7v2.7c-.4.3-.8.5-1.2.6h-.1c-1.4.2-2.8-.6-2.8-.6v-2.7c1 .9 2 .9 2.8.7.8-.3 1.3-.7 1.3-.7z"/><path id="XMLID_131_" class="st22" d="M158.5 91.4v7.3s-.5.4-1.3.7v-6.8h-2.8v-1.1c2.3-1.7 4.1-.1 4.1-.1z"/><path id="XMLID_130_" class="st21" d="M157.9 221.1v7.4c-1.6.4-2.8-.6-2.8-.6v-7.5s1.4.9 2.8.7z"/><path id="XMLID_129_" class="st21" d="M157.9 218.4c-.8.2-1.8.2-2.8-.6v-6.2h2.8v6.8z"/><path id="XMLID_128_" class="st21" d="M157.2 341.1v7.4c-1.6.4-2.8-.6-2.8-.6v-7.5c0 .1 1.4 1 2.8.7z"/><path id="XMLID_127_" class="st21" d="M157.2 331.6v6.9c-.8.2-1.8.2-2.8-.6v-6.2l2.8-.1z"/><path id="XMLID_124_" class="st21" d="M157.2 102v7.4c-1.6.4-2.8-.6-2.8-.6v-7.4s1.4.8 2.8.6z"/><path id="XMLID_123_" class="st21" d="M157.2 92.5v6.8c-.8.2-1.8.2-2.8-.7v-6.2h2.8z"/><path id="XMLID_72_" class="st19" d="M152.5 348v20.5H46.4s.5-23 0-93 32.5-118 32.5-118c19.8-35.3 46.6-58.3 73.7-73.2V348zm-15-94.3v-87.8H94c-22.7 32.5-29 87.8-29 87.8h72.5zm0-93.2v-44.3c-31.8 26.2-39.7 44.3-39.7 44.3h39.7zm-.1 186.5v-85.7H65.2V347h72.2z"/></g></g></g></svg>