<?xml version="1.0" encoding="utf-8"?>
<!-- Generator: Adobe Illustrator 19.0.0, SVG Export Plug-In . SVG Version: 6.00 Build 0)  -->
<svg version="1.1" xmlns="http://www.w3.org/2000/svg" xmlns:xlink="http://www.w3.org/1999/xlink" x="0px" y="0px"
	 viewBox="0 0 841.9 538.6" style="enable-background:new 0 0 841.9 538.6;" xml:space="preserve">
<style type="text/css">
	.st0{display:none;}
	.st1{display:inline;fill:#C49A6C;}
	.st2{display:inline;fill:#C2B59B;}
	.st3{display:inline;fill:none;stroke:#000000;stroke-miterlimit:10;}
	.st4{display:inline;}
	.st5{fill:#E9F0BD;}
	.st6{fill:#FFDCAE;}
	.st7{fill:#D3D0E8;}
	.st8{fill:#FFE2BD;}
	.st9{fill:#CFE8D4;}
	.st10{fill:#C4E4CA;}
	.st11{fill:#E2C0A5;}
	.st12{fill:#E4ECAE;}
	.st13{fill:#F3BAB5;}
	.st14{fill:#DCB493;}
	.st15{fill:#CBE9E6;}
	.st16{fill:#BEE4E1;}
	.st17{fill:#F1AAA6;}
	.st18{display:inline;fill:none;}
	.st19{fill:none;}
	.st20{fill:#594A42;}
	.st21{fill:none;stroke:#000000;stroke-miterlimit:10;}
	.st22{fill:#FFFFFF;}
	.st23{fill:#D1D3D4;}
	.st24{fill:#BCBEC0;}
	.st25{fill:#A7A9AC;}
	.st26{fill:#303441;}
	.st27{fill:#444755;}
	.st28{fill:#3C3F4D;}
	.st29{fill:#2D303D;}
	.st30{fill:#333646;}
	.st31{fill:#2D313E;}
	.st32{fill:#8B5E3C;}
	.st33{fill:#FEEBC7;}
	.st34{fill:#EFCEAC;}
	.st35{fill:#333746;}
	.st36{fill:#E6EAED;}
	.st37{fill:#D4D8DD;}
	.st38{fill:#D4DBE1;}
	.st39{fill:#C3C7CF;}
	.st40{fill:#F1F2F2;}
	.st41{fill:#414042;}
	.st42{fill:#E6E7E8;}
	.st43{fill:url(#XMLID_3975_);}
	.st44{fill:#D5D8DB;}
	.st45{fill:#C2B59B;}
	.st46{fill:#A49C8D;}
	.st47{fill:#CDC1AC;}
	.st48{opacity:0.5;fill:#F1F2F2;}
	.st49{fill:#C3C0C6;}
	.st50{fill:#858791;}
	.st51{fill:#333747;}
	.st52{fill:#AEAFB6;}
	.st53{opacity:0.6;}
	.st54{opacity:0.4;fill:#FFFFFF;}
	.st55{opacity:0.32;}
	.st56{fill:#C7C8CA;}
	.st57{fill:#6FBA86;}
	.st58{fill:#8CC49A;}
	.st59{fill:#F3ECE6;}
	.st60{fill:#F9AA8F;}
	.st61{fill:#E4C2A6;}
	.st62{fill:#FABAA2;}
	.st63{fill:#EACFB9;}
	.st64{fill:#739F7F;}
	.st65{fill:none;stroke:#009444;stroke-width:0.25;stroke-miterlimit:10;}
	.st66{fill:#46B758;}
	.st67{fill:#128C45;}
	.st68{fill:#1DA74A;}
	.st69{fill:#48B756;}
	.st70{fill:#58B96E;}
	.st71{fill:#40B64D;}
	.st72{fill:#1FAD4B;}
	.st73{fill:#1FAC4B;}
</style>
<g id="body">
	<g id="XMLID_19_">
		<g id="XMLID_215_">
			<path id="XMLID_238_" class="st26" d="M511,273c1.5,3.2,2.6,8.8-3.8,13.7h-36.1c0,0,4.7-2.5,5.3-4.4v-0.1l3.8-4.5h23
				C503.2,277.7,508.7,278,511,273z"/>
			<path id="XMLID_237_" class="st27" d="M509.5,270.5c0,0,0.8,1,1.5,2.5c-2.3,5-7.7,4.7-7.7,4.7h-23l8.6-10l7.4-8.7L509.5,270.5z"
				/>
			<polygon id="XMLID_236_" class="st28" points="496.2,259 488.8,267.7 488.4,267.4 487.6,266.5 476.7,266.5 476.7,252.7
				482.6,247.3 			"/>
			<path id="XMLID_235_" class="st28" d="M488.8,267.7l-8.6,10h-3.5c0-0.1,0-0.1,0-0.1v-10.3h11.8L488.8,267.7z"/>
			<polygon id="XMLID_233_" class="st29" points="487.6,266.5 488.4,267.4 476.7,267.4 476.7,266.5 			"/>
			<polygon id="XMLID_232_" class="st30" points="482.6,247.3 476.7,252.7 476.7,242.2 			"/>
			<path id="XMLID_231_" class="st31" d="M480.2,277.7l-3.8,4.5c0.4-0.9,0.3-4,0.3-4.5H480.2z"/>
			<path id="XMLID_230_" class="st32" d="M407,199.7c-0.5,0.5-0.7,0.8-0.7,0.8c-0.1-2.4,2.7-5,2.7-5c-7.7,1.8-7.2,14.3-6.8,18.6
				c0,0-3.5-9.3-4.7-9.9c0,0,0.1-3-0.5-3.6c-0.6-0.6-0.8-1-0.8-1c-3.4-6.5,3.1-13,3.1-13c-1.3-0.4-3.5,3.3-3.5,3.3
				c-0.7-3.7,5-7.4,5-7.4c-2.3-0.4-5.7,0.8-5.7,0.8c1.8-3.5,8.2-4,8.2-4c-3.7-1.8-4.2-4.2-4.2-4.2c3.1,1,8.9,0.8,8.9,0.8
				c-5.7-2.4-3.5-4.2-3.5-4.2c2.3,1.6,8.2,1.6,8.2,1.6c-5.1-3.7-1.6-4.5-1.6-4.5c1.6,2.3,7.7,3.3,7.7,3.3l4,0.4l-3.4-4.4l13.3,3.8
				l-2.1-3.8c4.4,0.7,11.6,6.5,11.6,6.5l-0.1,3l5.4,0.9l-2.3,0.9c9.5,6.8,7.1,18.4,7.1,18.4l-1.3-2.4v7.4l-0.9-1.1l0.9,7.2l-1-1.4
				l-1.6,8.9c0.1-0.8-0.6-2.2-0.9-4.1c-0.7-5.4-1.2-12.1-1.4-14.7c0-0.7-0.1-1.1-0.1-1.1l-15.6,1.8l2.3-3c-0.4,0-0.8,0.1-1.2,0.1
				l0.9-1.2c-4.8,0.2-8.2,2.6-9.9,4.2c0.6-1.1,1.1-2.1,1.1-2.1l-1.2,0.5c0.5-0.9,0.9-1.7,0.9-1.7l-4.2,1.9l1.3-1.6
				c-0.4-0.1-0.8-0.1-1.2,0l0.9-1.1c-3-0.7-6.4,4.5-6.4,4.5c-0.1-0.1-0.2-0.3-0.3-0.4c0.1-1.3,1.6-2.3,1.6-2.3c-0.5,0-1,0.1-1.6,0.2
				c0.5-0.8,1.3-1.4,1.3-1.4C412.1,194.5,408.5,198.1,407,199.7z"/>
			<path id="XMLID_229_" class="st33" d="M447.6,212.2c0.3,1.9,1,3.3,0.9,4.1l-46.3-2c-0.4-4.3-0.9-16.9,6.8-18.6c0,0-2.8,2.6-2.7,5
				c0,0,0.3-0.3,0.7-0.8c-0.3,0.6-0.5,1.3-0.4,2c0,0,3.6-4.5,6.9-5.6c-0.4,0.6-0.5,1.3,0,2.1c-0.1,0.5,0.1,1,0.6,1.5
				c0,0,2.5-3.9,5.2-4.5l-1.9,2.4l1.8-0.8l-1.6,1.9l4.9-2.1c-0.5,1-1.1,2.3-1.2,2.9c0,0,0.4-0.5,1.3-1.3c-0.5,0.9-0.9,1.9-1,2.4
				c0,0,3.6-4.5,9.9-5.3l-2.3,3.1l1.3-0.1l-1,1.3l16.6-1.9C446.3,200,446.8,206.8,447.6,212.2z"/>
			<path id="XMLID_228_" class="st34" d="M446.2,197.5l-16.6,1.9l1-1.3l15.6-1.8C446.1,196.4,446.1,196.8,446.2,197.5z"/>
			<path id="XMLID_227_" class="st32" d="M432.8,195.1l-2.3,3l-1.3,0.1l2.3-3.1C431.9,195.2,432.3,195.1,432.8,195.1z"/>
			<path id="XMLID_226_" class="st34" d="M432.5,194l-0.9,1.2c-6.3,0.8-9.9,5.3-9.9,5.3c0.1-0.5,0.5-1.5,1-2.4
				C424.3,196.6,427.7,194.2,432.5,194z"/>
			<path id="XMLID_225_" class="st32" d="M422.5,196.6l1.2-0.5c0,0-0.6,1-1.1,2.1c-0.8,0.7-1.3,1.3-1.3,1.3
				C421.4,198.8,422,197.6,422.5,196.6z"/>
			<path id="XMLID_224_" class="st34" d="M419.2,196.8l4.2-1.9c0,0-0.4,0.8-0.9,1.7l-4.9,2.1L419.2,196.8z"/>
			<path id="XMLID_223_" class="st32" d="M420.4,195.2l-1.3,1.6l-1.8,0.8l1.9-2.4C419.6,195.1,420,195.1,420.4,195.2z"/>
			<path id="XMLID_222_" class="st34" d="M420.2,194.1l-0.9,1.1c-2.6,0.6-5.2,4.5-5.2,4.5c-0.5-0.5-0.7-1-0.6-1.5
				c0.1,0.1,0.2,0.3,0.3,0.4C413.8,198.6,417.2,193.3,420.2,194.1z"/>
			<path id="XMLID_221_" class="st32" d="M413.5,196.1c0.5-0.2,1.1-0.3,1.6-0.2c0,0-1.5,1-1.6,2.3
				C413,197.5,413.1,196.7,413.5,196.1z"/>
			<path id="XMLID_220_" class="st34" d="M407,199.7c1.5-1.7,5.1-5.2,7.8-5c0,0-0.8,0.6-1.3,1.4c-3.3,1.1-6.9,5.6-6.9,5.6
				C406.5,201,406.7,200.4,407,199.7z"/>
			<path id="XMLID_219_" class="st31" d="M378.4,286.7h-37.9c-6.4-4.9-5.2-10.5-3.7-13.7c2.3,5,7.7,4.7,7.7,4.7h26.6
				c0,0,0,3.8,0.1,4.3c0.2,0.5,1,2.4,1.5,2.7L378.4,286.7z"/>
			<path id="XMLID_218_" class="st35" d="M371.1,267.4v10.3h-26.6c0,0-5.5,0.3-7.7-4.7c0.7-1.6,1.5-2.5,1.5-2.5l32.8-28.3v24.4H371
				H360l-0.8,0.9H371.1L371.1,267.4z"/>
			<polygon id="XMLID_217_" class="st31" points="371.1,266.5 371.1,267.4 371,267.4 359.2,267.4 360,266.5 371,266.5 			"/>
		</g>
		<g id="XMLID_216_">
		</g>
	</g>
</g>
<g id="desk">
	<g id="XMLID_9_">
		<g id="XMLID_194_">
			<polygon id="XMLID_213_" class="st22" points="278.7,292.7 223.7,292.7 200,292.7 200,286.7 255,286.7 278.7,286.7 313.7,286.7
				377.3,286.7 470.3,286.7 647.7,286.7 647.7,292.7 623.3,292.7 529.7,292.7 335.6,292.7 			"/>
			<polygon id="XMLID_212_" class="st36" points="623.3,301.4 623.3,456.3 529.7,456.3 529.7,445.7 529.7,301.4 			"/>
			<rect id="XMLID_211_" x="529.7" y="292.7" class="st37" width="93.7" height="8.8"/>
			<polygon id="XMLID_210_" class="st38" points="529.7,301.4 529.7,445.7 478.6,445.7 454.7,445.7 397.2,445.7 373.3,445.7
				335.6,445.7 335.6,301.4 			"/>
			<rect id="XMLID_209_" x="335.6" y="292.7" class="st39" width="194.1" height="8.8"/>
			<path id="XMLID_208_" d="M478.6,445.7c1.2,0,2.2,1,2.2,2.2c0,0.6-0.2,1.1-0.6,1.5c-0.4,0.4-0.9,0.6-1.5,0.6h-23.9
				c-1.2,0-2.2-1-2.2-2.2c0-0.6,0.2-1.1,0.6-1.5c0.4-0.4,0.9-0.6,1.5-0.6H478.6z"/>
			<path id="XMLID_207_" class="st40" d="M476.7,217.3v63c0,3.5-2.8,6.3-6.3,6.3h-93c-3.5,0-6.3-2.8-6.3-6.3v-63
				c0-3.5,2.8-6.3,6.3-6.3h93C473.8,211,476.7,213.8,476.7,217.3z"/>
			<path id="XMLID_206_" d="M397.2,445.7c1.2,0,2.2,1,2.2,2.2c0,0.6-0.2,1.1-0.6,1.5c-0.4,0.4-0.9,0.6-1.5,0.6h-23.9
				c-1.2,0-2.2-1-2.2-2.2c0-0.6,0.3-1.1,0.6-1.5c0.4-0.4,0.9-0.6,1.5-0.6H397.2z"/>
			<path id="XMLID_205_" class="st41" d="M363.5,194v76.5c0,5.7-4.6,10.3-10.3,10.3l-39.9-1.3l-2.8-45.5h0c0-12.7-10.3-23.6-23-23
				c-0.3,0-0.6,0-0.9,0.1V211v-25.3l66.6-2C358.9,183.7,363.5,188.3,363.5,194z"/>
			<polygon id="XMLID_204_" class="st36" points="335.6,445.7 335.6,456.3 278.7,456.3 278.7,301.4 335.6,301.4 			"/>
			<rect id="XMLID_203_" x="278.7" y="292.7" class="st37" width="56.9" height="8.8"/>
			<path id="XMLID_202_" class="st22" d="M313.3,279.5l0.4,7.1h-35l7.9-52.7V211c0.3,0,0.6-0.1,0.9-0.1c12.7-0.6,23,10.3,23,23h0
				L313.3,279.5z"/>
			<path id="XMLID_201_" class="st42" d="M286.6,211V234l-7.9,52.7H255l1.3-9.2l6.4-45.2C262.7,219.8,272.5,212,286.6,211z"/>
			<linearGradient id="XMLID_3975_" gradientUnits="userSpaceOnUse" x1="223.6699" y1="231.5913" x2="363.5499" y2="231.5913">
				<stop  offset="0" style="stop-color:#3D3D3E"/>
				<stop  offset="0.4147" style="stop-color:#414142"/>
				<stop  offset="0.7298" style="stop-color:#4A4A4C"/>
				<stop  offset="1" style="stop-color:#58595B"/>
			</linearGradient>
			<path id="XMLID_200_" class="st43" d="M286.6,211L286.6,211c-14.2,1-23.9,8.8-23.9,21.3l-6.4,45.2l-0.1,0l-22.3-0.8
				c-5.7-0.2-10.3-4.6-10.3-10.3v-68.6c0-5.7,4.6-10.3,10.3-10.3l52.6-1.6V211z"/>
			<rect id="XMLID_199_" x="223.7" y="301.4" class="st44" width="55.1" height="154.9"/>
			<rect id="XMLID_197_" x="223.7" y="292.7" class="st37" width="55.1" height="8.8"/>
		</g>
		<g id="XMLID_195_">
		</g>
	</g>
</g>
<g id="bucket">
	<g id="XMLID_79_">
		<g id="XMLID_185_">
			<path id="XMLID_191_" class="st45" d="M575.1,273.2c0.4,2-1.5,4.1-1.5,4.3s-2.8,2.8-2.8,2.8l-3.6,3.5c-0.5,0.4-0.9,0.6-0.9,0.6
				c-0.2,0-0.4,0.1-0.5,0.2c-0.2,0.2-0.3,0.4-0.3,0.4c0,0,0,0.1-0.1,0.1c-0.6,0.8-2,1.5-3.1,1.9c-1.4,0-2.7,0-3.8,0v-20.9
				c6.6,0,9.5,0,9.5,0s-0.1,2.4,0,3.5c0,0.1,0,0.2,0,0.3v0l-0.1,3.5c0,0,1.6-2.4,3.5-2.5c1.8-0.1,0.7-0.7,0.6-0.8
				c0.9,0.1,1.4,0.4,1.4,0.4C575.1,271.5,575.1,273.2,575.1,273.2z M573.1,277.5c1-1.2,1.4-3.2,1.4-3.2c-0.3-2-0.7-2.6-1.4-2.8
				c-0.7-0.2-1.5,0.1-1.5,0.1v0c-0.2,0-0.5,0-0.9,0.2c-0.9,0.3-1.7,1.5-1.7,1.5c-0.9,2-1.2,1.8-1.2,1.8s-0.6,3.1-0.8,4.5
				c0,0.2,0,0.3,0,0.4l-1.1,3.7C566,283.8,572.1,278.7,573.1,277.5z"/>
			<path id="XMLID_190_" class="st46" d="M574.5,274.3c0,0-0.4,2-1.4,3.2c-1,1.2-7.1,6.3-7.1,6.3l1.1-3.7c0,0.9,0.8,0.5,0.8,0.5
				c1.5-0.6,3.7-3.2,4.4-4c0.7-0.7,1.3-2.4,1.3-2.4s0.1-0.9-0.3-1.6c-0.4-0.7-1.3-0.9-1.3-0.9s-0.1,0-0.3,0v0c0,0,0.8-0.3,1.5-0.1
				C573.8,271.7,574.2,272.3,574.5,274.3z"/>
			<path id="XMLID_189_" class="st46" d="M572,270.3c0.2,0.1,1.2,0.7-0.6,0.8c-1.9,0.1-3.5,2.5-3.5,2.5l0.1-3.5
				c0.2,0.8,0.9,0.5,0.9,0.5l1.4-0.3C570.9,270.2,571.5,270.2,572,270.3C571.9,270.3,572,270.3,572,270.3z"/>
			<path id="XMLID_188_" class="st46" d="M565.5,285.2c-0.8,1.8-1.4,1.9-1.4,1.9c-0.6,0-1.2,0-1.7,0
				C563.5,286.7,564.8,286,565.5,285.2z"/>
			<path id="XMLID_187_" class="st47" d="M558.6,266.2v20.9c-3.4,0-5.7,0-5.7,0c-2.1-2.6-3-8-3-8c-0.8-3.1-0.7-12.9-0.7-12.9
				C552.9,266.2,556,266.2,558.6,266.2z"/>
		</g>
		<g id="XMLID_186_">
		</g>
	</g>
	<path id="XMLID_38_" class="st48" d="M557.6,263.4c0,0-6.6-4.7-7.3-10.1c0,0-0.4-2.4,4-5.8c0,0,7.2-5.4,7.4-6.7
		c0,0,2.2-1.9,1.4-7.5c0,0,3.5,3.5,0.2,8.7c0,0-2.4,3.6-4.9,5.5c0,0-3.3,2.3-4.3,4.4c0,0-1.6,2.6,0,5.5
		C555.7,260.2,557.6,263.4,557.6,263.4z"/>
	<path id="XMLID_77_" class="st48" d="M559.4,265.5c0,0,3.7-3.1,0.3-6.4c0,0-2-1.6-2-5.8c0,0,0.9-3.1,3.2-4.5
		c2.2-1.3,4.4-3.3,8.9-4.1c0,0-4.8,3-6,4s-2.6,3.1-2.6,3.1s-1,1.4,0.9,4.2c2,2.8,2,2.9,2,3.4c0,0.5,0.5,1.5-1.6,4L559.4,265.5z"/>
</g>
<g id="light">
	<g id="XMLID_65_">
		<g id="XMLID_152_">
			<path id="XMLID_182_" class="st49" d="M625.4,224.4c2.4,0,4.4,2,4.4,4.4c0,2.4-2,4.4-4.4,4.4c-1.2,0-2.3-0.5-3.1-1.3
				c-0.8-0.8-1.3-1.9-1.3-3.1c0-0.6,0.1-1.2,0.3-1.7c0.5-1.1,1.3-2,2.5-2.4C624.3,224.5,624.9,224.4,625.4,224.4z M628.2,228.8
				c0-1.6-1.3-2.8-2.8-2.8s-2.8,1.3-2.8,2.8s1.3,2.8,2.8,2.8S628.2,230.3,628.2,228.8z"/>
			<path id="XMLID_177_" class="st50" d="M625.4,226c1.5,0,2.8,1.3,2.8,2.8s-1.3,2.8-2.8,2.8s-2.8-1.3-2.8-2.8S623.9,226,625.4,226z
				"/>
			<path id="XMLID_176_" class="st51" d="M625.4,233.2l-22.7,39.4c-0.6-0.8-1.5-1.4-2.5-1.6l0-0.1l22-38.9
				C623.2,232.7,624.2,233.2,625.4,233.2z"/>
			<path id="XMLID_175_" class="st51" d="M563.4,200.8l60.5,23.9c-1.1,0.4-2,1.3-2.5,2.4L562,204.2c0.5-0.5,0.9-1,1.2-1.8
				C563.3,201.9,563.4,201.3,563.4,200.8z"/>
			<path id="XMLID_166_" class="st51" d="M618.8,286.7h-38.7c0-1.8,6.6-9.5,15.4-11.4c1.3-0.3,2.6-0.4,4-0.4s2.7,0.2,4,0.4
				C612.2,277.2,618.8,284.9,618.8,286.7z"/>
			<path id="XMLID_164_" class="st49" d="M603.5,274.9l-0.1,0.4c-1.3-0.3-2.6-0.4-4-0.4s-2.7,0.2-4,0.4l-0.1-0.4
				c0-2.3,1.8-4.1,4.1-4.1c0.3,0,0.6,0,0.9,0.1c1,0.2,1.9,0.8,2.5,1.6C603.2,273.2,603.5,274.1,603.5,274.9z"/>
			<path id="XMLID_163_" class="st49" d="M563.4,200.8c0,0.5,0,1.1-0.2,1.6c-0.3,0.7-0.7,1.3-1.2,1.8c-1.1,1-2.6,1.3-4.1,0.8
				l2.9-7.9c1,0.4,1.6,1,2.1,1.8C563.2,199.5,563.3,200.1,563.4,200.8z"/>
			<path id="XMLID_162_" class="st42" d="M561.8,194.1l-1.1,3l-2.9,7.9l-2.1,5.7c3,4.9-2,12.7-2,12.7l-3.6-2.4c0,0,5-7.9,2-12.8
				l6.1-16.6l1.2,0.9l-2.1,3l1.6,1.1l2.1-3L561.8,194.1z"/>
			<polygon id="XMLID_161_" class="st52" points="561,193.5 561,193.5 561,193.5 			"/>
			<polygon id="XMLID_159_" class="st52" points="561,193.5 558.8,196.5 557.3,195.4 559.4,192.4 561,193.5 			"/>
			<path id="XMLID_158_" class="st22" d="M557.8,191.3l0.3,0.3l-6.1,16.6c3,4.9-2,12.8-2,12.8l-21.6-14.6c0,0,5.4-7.6,11.1-6.6
				l12.9-12.3l0.8,0.6l-2.1,3l1.5,1.1l2.1-3l1.5,1.1l-2.1,3l1.5,1.1L557.8,191.3z"/>

				<rect id="XMLID_157_" x="557.1" y="189.8" transform="matrix(0.7071 -0.7071 0.7071 0.7071 28.3016 449.7689)" class="st52" width="0" height="1.9"/>

				<rect id="XMLID_156_" x="555" y="190.4" transform="matrix(-0.813 -0.5822 0.5822 -0.813 896.1179 672.2098)" class="st52" width="1.9" height="3.7"/>
			<polygon id="XMLID_155_" class="st52" points="554.8,189.1 552.6,192.1 551.1,191 553.2,188 			"/>
			<polygon id="XMLID_154_" class="st52" points="554.8,189.1 553.2,188 553.3,188 			"/>
		</g>
		<g id="XMLID_153_">
		</g>
	</g>
	<g id="XMLID_102_" class="st53">
		<g id="XMLID_149_">
			<path id="XMLID_151_" class="st22" d="M546.6,218.6l-35.8,68l-3.7,0.1c0,0,9.5-5.9,2.3-16.1L496,258.8l39.1-48L546.6,218.6z"/>
		</g>
		<g id="XMLID_150_">
		</g>
	</g>
	<polygon id="XMLID_113_" class="st54" points="553.6,223.3 532.3,286.6 510.8,286.6 546.6,218.7 	"/>
	<g id="XMLID_126_" class="st55">
		<g id="XMLID_145_">
			<polygon id="XMLID_147_" class="st22" points="535.1,210.8 496,258.8 482.5,247.1 528.3,206.2 			"/>
		</g>
		<g id="XMLID_146_">
		</g>
	</g>
</g>
</svg>
