<!-- Generator: Adobe Illustrator 19.0.0, SVG Export Plug-In  -->
<svg version="1.1"
	 xmlns="http://www.w3.org/2000/svg" xmlns:xlink="http://www.w3.org/1999/xlink" xmlns:a="http://ns.adobe.com/AdobeSVGViewerExtensions/3.0/"
	 x="0px" y="0px" width="69.7px" height="135.1px" viewBox="0 0 69.7 135.1" style="enable-background:new 0 0 69.7 135.1;"
	 xml:space="preserve">
<style type="text/css">
	.st0{fill:#45475B;}
	.st1{fill:#C6C2A6;}
	.st2{fill:#FFFFFF;}
	.st3{fill:#FEE2B5;}
	.st4{fill:#9E918A;}
	.st5{fill:#C7BFBB;}
	.st6{fill:#FFF685;}
</style>
<defs>
</defs>
<g id="XMLID_16_">
	<g id="XMLID_30_">
		<path id="XMLID_38_" class="st0" d="M69.5,117.9v16.9H5.9v-16.9c0-0.9,0.8-1.7,1.7-1.7h2.1h56h2C68.7,116.2,69.5,117,69.5,117.9z"
			/>
		<path id="XMLID_37_" class="st1" d="M66.2,50.4c0,4.4,0,20.9,0,20.9s-1.2,13.9-3,17c0,0-0.6,2.1-4.5,11c0,0-1,3-1,5.8
			c0,2.9,0,2.9,0,2.9H29.5c44.5,0,35.4-51,35.1-61.4C65.5,47.5,66.2,48.7,66.2,50.4z"/>
		<path id="XMLID_36_" class="st2" d="M65.7,109.9v6.3h-56v-6.3c0-0.9,0.7-1.7,1.7-1.7h52.7C65,108.2,65.7,109,65.7,109.9z"/>
		<path id="XMLID_35_" class="st3" d="M64.7,46.7c0.2,10.3,9.4,61.3-35.1,61.4h-0.3h-11v-3.9c0,0-0.3-5.4-4.4-9.1
			c-4-3.7-10-10-10-10s-3.3-3.5-3.3-9.4s0-21.6,0-21.6s0.7-3,3.7-3.1s7,6.2,7,6.2s1.5,2.4,1.5,6.4c0,4,0,6.6,0,6.6s1.8-0.3,2.4-1.6
			V15.1c0-3.2,2.6-5.9,5.9-5.9c3.2,0,5.9,2.6,5.9,5.9v38.3c0,0,1.9-0.1,1.9-2.1c0-2,0-13.8,0-13.8s0.4-3.1,2.7-3.1
			c2.3,0,4.7,0,4.7,0s4.3,0.8,4.3,4.5s0,16.4,0,16.4s2.1-0.3,2.1-1.8s0-10.3,0-10.3s0.7-2.6,2.4-2.6s4.4,0,4.4,0s4.3,0.5,4.3,5.2
			s0,11.3,0,11.3s1.9-0.3,1.9-1.5c0-1.1,0-7.5,0-7.5s0.7-2.7,2.8-2.7c2.1,0,3.5,0,3.5,0S63.4,45.5,64.7,46.7L64.7,46.7z"/>
		<path id="XMLID_34_" class="st4" d="M36.7,0.4C50,13.7,36.8,27,36.8,27s-1.5,0.4-2.5-0.5c-1-0.8-0.5-2.4-0.5-2.4
			c10.3-11.3,0-20.9,0-20.9s-0.5-1.6,0.4-2.4C35.2-0.1,36.7,0.4,36.7,0.4z"/>
		<path id="XMLID_33_" class="st5" d="M31.9,5.3C40,13.4,32,21.4,32,21.4s-0.9,0.2-1.5-0.3c-0.6-0.5-0.3-1.5-0.3-1.5
			c6.2-6.9,0-12.7,0-12.7S29.8,6,30.4,5.5C30.9,5,31.9,5.3,31.9,5.3z"/>
		<path id="XMLID_32_" class="st5" d="M12.5,5.5C13.1,6,12.7,7,12.7,7s-6.2,5.8,0,12.7c0,0,0.3,1-0.3,1.5c-0.6,0.5-1.5,0.3-1.5,0.3
			s-8-8,0.1-16.1C11,5.3,12,5,12.5,5.5z"/>
		<path id="XMLID_31_" class="st4" d="M8.6,0.8C9.5,1.6,9,3.2,9,3.2s-10.3,9.6,0,20.9c0,0,0.5,1.6-0.5,2.4c-1,0.8-2.5,0.5-2.5,0.5
			S-7.1,13.7,6.2,0.4C6.2,0.4,7.7-0.1,8.6,0.8z"/>
	</g>
	<g id="XMLID_29_">
	</g>
</g>
<path id="XMLID_15_" class="st6" d="M15.9,124.9l-2.7-2.7c-0.4-0.4-0.9-0.4-1.3,0l-2.7,2.7c-0.4,0.4-0.4,0.9,0,1.3l2.7,2.7
	c0.4,0.4,0.9,0.4,1.3,0l2.7-2.7C16.3,125.9,16.3,125.3,15.9,124.9z"/>
</svg>
