<!-- Generator: Adobe Illustrator 19.0.0, SVG Export Plug-In  -->
<svg version="1.1"
	 xmlns="http://www.w3.org/2000/svg" xmlns:xlink="http://www.w3.org/1999/xlink" xmlns:a="http://ns.adobe.com/AdobeSVGViewerExtensions/3.0/"
	 x="0px" y="0px" width="502.5px" height="550.2px" viewBox="0 0 502.5 550.2" style="enable-background:new 0 0 502.5 550.2;"
	 xml:space="preserve">
<style type="text/css">
	.st0{fill:#D5C2AB;}
	.st1{fill:#E1D4C3;}
	.st2{fill:#E4C9BF;}
	.st3{fill:#FBDFC6;}
	.st4{fill:#ECDBD5;}
	.st5{fill:#FCE9D7;}
	.st6{fill:#B2D6F1;}
	.st7{fill:#D7E8F7;}
</style>
<defs>
</defs>
<g id="XMLID_15_">
	<g id="XMLID_30_">
		<path id="XMLID_123_" class="st0" d="M432.7,318.2c49.5-8.7,110.4,21.9,32.1,90.9c-91.9,81-233.5,133.2-248,138.4
			c0.4-0.6,1-1.3,1.6-2c9.6-8.5,42.6-38.3,81.9-77.2c189.8-66.2,225.2-134.1,155.4-129.2c-9.1-3.6-23.3-3.6-38.8,0.4
			C422.3,332.4,427.7,325.2,432.7,318.2z"/>
		<path id="XMLID_122_" class="st1" d="M455.5,339.1c69.8-5,34.4,62.9-155.4,129.2c3.5-3.5,7.1-7.1,10.7-10.7
			C465.4,391.9,482.4,349.7,455.5,339.1z"/>
		<path id="XMLID_121_" class="st2" d="M405.8,165.3c54.9,3.8,78.1,75.9,36.2,139.4c-3,4.5-6.1,9-9.3,13.6
			c-9.6,1.7-18.7,4.8-26.3,9.4c-46.3,28-34.9,19.9-77.9,48.9c2.5-4.5,5-9.1,7.4-13.7c76.7-96.1,88.3-148.9,64.8-165.4
			C403,186.5,404.7,175.8,405.8,165.3z"/>
		<path id="XMLID_120_" class="st0" d="M416.8,339.6c15.5-4,29.7-4,38.8-0.4c-12.2,0.9-27.6,3.9-46,9.7
			C412,345.7,414.4,342.6,416.8,339.6z"/>
		<path id="XMLID_119_" class="st2" d="M432.7,318.2c-5,7-10.3,14.2-15.9,21.4c-7.2,1.8-14.6,4.5-22,8.1
			c-25.5,12.3-52.5,25.4-68.8,33.5c0.8-1.5,1.7-3,2.5-4.6c43-29,31.7-20.9,77.9-48.9C414,323,423.1,319.9,432.7,318.2z"/>
		<path id="XMLID_118_" class="st2" d="M416.8,339.6c-2.4,3.1-4.8,6.2-7.3,9.2c-1.9,0.6-3.8,1.2-5.7,1.8
			c-30.5,10.1-60.7,23.1-78.1,31c0.1-0.2,0.2-0.3,0.3-0.5c16.4-8,43.3-21.2,68.8-33.5C402.2,344.1,409.6,341.4,416.8,339.6z"/>
		<path id="XMLID_117_" class="st2" d="M403.8,350.6c1.9-0.6,3.9-1.3,5.7-1.8c-29.8,37.4-65.8,75.8-98.6,108.8
			c-13.1,5.6-27.2,11.3-42.4,17.2c17.7-26.5,37.8-58.5,57.1-93.2C343.1,373.7,373.2,360.7,403.8,350.6z"/>
		<path id="XMLID_116_" class="st3" d="M280,0.3c104.8,19.8,134,85.5,125.8,165c-6.1-0.4-12.7,0-19.6,1.4
			C397.7,31.3,283.4,1.1,280,0.3z"/>
		<path id="XMLID_115_" class="st3" d="M386.2,166.7c6.9-1.4,13.4-1.8,19.6-1.4c-1.1,10.5-2.8,21.2-5.1,32.1
			c-4.7-3.3-10.7-5.1-17.9-5.6C384.4,183.1,385.5,174.7,386.2,166.7z"/>
		<path id="XMLID_114_" class="st4" d="M400.7,197.4c23.5,16.5,11.9,69.3-64.8,165.4c1.5-2.8,2.9-5.5,4.4-8.3
			c59.5-76.1,67.3-111.3,52.2-124.8C395.7,218.8,398.5,208,400.7,197.4z"/>
		<path id="XMLID_113_" class="st3" d="M400.7,197.4c-2.2,10.6-5,21.4-8.2,32.3c-4.2-3.7-10.1-5.8-17.1-6.7
			c3.1-10.9,5.6-21.3,7.4-31.3C390,192.3,396,194.1,400.7,197.4z"/>
		<path id="XMLID_112_" class="st5" d="M280,0.3c3.4,0.9,117.8,31,106.2,166.4c-9.2,1.9-19.1,5.5-29.4,11.1
			C376,32.6,283,1.3,280,0.3z"/>
		<path id="XMLID_111_" class="st5" d="M386.2,166.7c-0.7,8-1.8,16.4-3.4,25.1c-8.2-0.5-18,0.7-28.9,3.7c1.1-6.1,2.1-12,2.8-17.8
			C367.1,172.2,377,168.6,386.2,166.7z"/>
		<path id="XMLID_110_" class="st5" d="M353.9,195.6c10.9-3,20.6-4.3,28.9-3.7c-1.8,9.9-4.3,20.3-7.4,31.3c-8.1-1-17.7-0.3-27.9,1.4
			C350.1,214.4,352.2,204.8,353.9,195.6z"/>
		<path id="XMLID_109_" class="st3" d="M310.5,388.7c0,0,0.1-0.1,0.3-0.1c0,0,0,0,0,0c0.1,0,0.3-0.1,0.4-0.2c0,0,0.1,0,0.1,0
			c0.5-0.3,1.3-0.6,2.3-1.1c-24.4,28.9-54.9,62.5-92.5,101.6c89-111.7,134.9-198.5,154.2-265.7c7,0.8,13,2.9,17.1,6.7
			c-12.3,41.6-31.2,84.4-52.2,124.8c-7.6,9.7-16.1,20.1-25.5,31.3C313.4,386.7,312,387.7,310.5,388.7z"/>
		<path id="XMLID_108_" class="st5" d="M347.5,224.5c10.2-1.7,19.8-2.4,27.9-1.4c-19.4,67.3-65.3,154.1-154.2,265.7
			c-1.2,1.2-2.4,2.5-3.6,3.7C291,379.8,330,292.3,347.5,224.5z"/>
		<path id="XMLID_107_" class="st2" d="M356.8,177.8c-0.8,5.8-1.7,11.7-2.8,17.8c-4.1,1.1-8.4,2.5-12.8,4.1
			c-24.7,9-47.7,24.2-63.9,36.5c28.2-23.8,23-20,63.9-48.7C346.5,183.7,351.7,180.5,356.8,177.8z"/>
		<path id="XMLID_106_" class="st4" d="M353.9,195.6c-1.7,9.2-3.8,18.9-6.4,28.9c-41.3,6.9-92.4,30.6-93.5,31.1c0,0,0.1-0.1,0.1-0.1
			c9.7-8.1,17.2-14.4,23.2-19.4c0,0,0,0,0,0c0,0,0,0,0,0c16.2-12.3,39.2-27.4,63.9-36.5C345.5,198,349.8,196.7,353.9,195.6z"/>
		<path id="XMLID_105_" class="st4" d="M340.3,354.5c-1.4,2.8-2.9,5.6-4.4,8.3c-5,6.3-10.3,12.8-15.9,19.5c-1.6,1.1-3.4,2.3-5.1,3.5
			C324.2,374.6,332.7,364.2,340.3,354.5z"/>
		<path id="XMLID_104_" class="st2" d="M335.9,362.8c-2.5,4.6-4.9,9.2-7.4,13.7c-2.6,1.8-5.4,3.7-8.5,5.7
			C325.6,375.6,330.9,369.1,335.9,362.8z"/>
		<path id="XMLID_103_" class="st2" d="M328.5,376.5c-0.8,1.5-1.7,3.1-2.5,4.6c-3.3,1.6-6.2,3-8.5,4.2c0.9-1,1.7-2,2.5-3
			C323,380.2,325.8,378.3,328.5,376.5z"/>
		<path id="XMLID_102_" class="st2" d="M325.9,381.1c-0.1,0.2-0.2,0.3-0.3,0.5c-3.3,1.5-6.1,2.8-8.4,3.9c0.1-0.1,0.1-0.1,0.2-0.2
			C319.8,384.1,322.6,382.7,325.9,381.1z"/>
		<path id="XMLID_101_" class="st4" d="M320,382.3c-0.8,1-1.7,2-2.5,3c-1.5,0.7-2.8,1.4-3.8,1.9c0.4-0.5,0.8-0.9,1.2-1.4
			C316.6,384.6,318.3,383.4,320,382.3z"/>
		<path id="XMLID_100_" class="st2" d="M317.2,385.5c2.3-1.1,5.1-2.4,8.4-3.9c-19.3,34.7-39.4,66.6-57.1,93.2c0,0,0,0,0,0
			c-16,6.3-33.2,12.7-51.7,19.3c1.1-1.4,2.2-2.8,3.4-4.2C259.1,451.1,291.2,416.3,317.2,385.5z"/>
		<path id="XMLID_99_" class="st6" d="M317.4,385.3c0,0.1-0.1,0.1-0.2,0.2c-1.4,0.7-2.7,1.3-3.7,1.7c0,0,0,0,0.1-0.1
			C314.7,386.6,315.9,386,317.4,385.3z"/>
		<path id="XMLID_98_" class="st3" d="M314.8,385.8c-0.4,0.5-0.8,0.9-1.2,1.4c-1,0.5-1.8,0.9-2.4,1.2c0,0-0.1,0-0.1,0
			c-0.2,0.1-0.3,0.2-0.4,0.2c0,0,0,0,0,0c-0.1,0.1-0.2,0.1-0.3,0.1C312,387.7,313.4,386.7,314.8,385.8z"/>
		<path id="XMLID_97_" class="st4" d="M313.6,387.2c1-0.5,2.2-1,3.7-1.7c-26,30.8-58.1,65.6-97.1,104.5c0.3-0.4,0.6-0.8,0.9-1.2
			C258.7,449.7,289.2,416.1,313.6,387.2C313.6,387.2,313.6,387.2,313.6,387.2z"/>
		<path id="XMLID_96_" class="st6" d="M313.6,387.2C313.6,387.2,313.6,387.2,313.6,387.2C313.6,387.2,313.6,387.2,313.6,387.2
			c-1.1,0.5-1.9,0.9-2.4,1.2C311.8,388.1,312.6,387.7,313.6,387.2z"/>
		<path id="XMLID_95_" class="st6" d="M310.5,388.7c0,0,0.1-0.1,0.3-0.1C310.6,388.6,310.5,388.7,310.5,388.7z"/>
		<path id="XMLID_94_" class="st1" d="M310.9,457.6c-3.6,3.6-7.2,7.2-10.7,10.7c-11.2,3.9-22.8,7.8-35.1,11.7
			c1.1-1.7,2.3-3.4,3.4-5.1c0,0,0,0,0,0C283.7,468.9,297.8,463.2,310.9,457.6z"/>
		<path id="XMLID_93_" class="st0" d="M265.1,480c12.2-3.9,23.9-7.8,35.1-11.7c-39.3,39-72.3,68.7-81.9,77.2
			C225.5,536.1,243.2,512.5,265.1,480z"/>
		<path id="XMLID_92_" class="st1" d="M268.5,474.8c-1.1,1.7-2.3,3.4-3.4,5.1c-15.3,4.8-31.4,9.6-48.4,14.3c0-0.1,0.1-0.1,0.1-0.1
			C235.3,487.5,252.5,481.1,268.5,474.8z"/>
		<path id="XMLID_91_" class="st0" d="M265.1,480c-21.9,32.5-39.6,56.2-46.8,65.6c-1.8,1.6-2.8,2.5-2.8,2.5v-52.2
			c0.4-0.5,0.8-1,1.2-1.5C233.7,489.6,249.8,484.8,265.1,480z"/>
		<path id="XMLID_90_" class="st5" d="M221.1,488.8c-0.3,0.4-0.6,0.8-0.9,1.2c-0.9,0.9-1.9,1.9-2.8,2.8c0.1-0.1,0.1-0.2,0.2-0.3
			C218.7,491.3,219.9,490,221.1,488.8z"/>
		<path id="XMLID_89_" class="st2" d="M217.4,492.8c0.9-0.9,1.9-1.9,2.8-2.8c-1.1,1.4-2.2,2.8-3.4,4.2c-0.2,0-0.3,0.1-0.5,0.2
			C216.7,493.8,217,493.3,217.4,492.8z"/>
		<path id="XMLID_88_" class="st5" d="M215.5,494.6c0.7-0.7,1.3-1.4,2-2.1c-0.1,0.1-0.1,0.2-0.2,0.3
			C216.7,493.4,216.1,494,215.5,494.6z"/>
		<path id="XMLID_87_" class="st2" d="M217.4,492.8c-0.3,0.5-0.7,1-1,1.5c-0.3,0.1-0.6,0.2-0.8,0.3
			C216.1,494,216.7,493.4,217.4,492.8z"/>
		<path id="XMLID_86_" class="st1" d="M216.8,494.2c0,0-0.1,0.1-0.1,0.1c-0.1,0-0.3,0.1-0.4,0.1c0,0,0-0.1,0.1-0.1
			C216.5,494.3,216.7,494.2,216.8,494.2z"/>
		<path id="XMLID_85_" class="st0" d="M218.3,545.5c-0.6,0.8-1.1,1.4-1.6,2c-0.8,0.3-1.2,0.4-1.2,0.4S216.5,547.1,218.3,545.5z"/>
		<path id="XMLID_84_" class="st0" d="M216.7,494.3c-0.4,0.5-0.8,1-1.2,1.5v-0.2c0.3-0.4,0.5-0.8,0.8-1.2
			C216.5,494.4,216.6,494.3,216.7,494.3z"/>
		<path id="XMLID_83_" class="st1" d="M216.4,494.3C216.3,494.4,216.3,494.4,216.4,494.3c-0.3,0.2-0.6,0.2-0.8,0.3
			C215.8,494.5,216.1,494.4,216.4,494.3z"/>
		<path id="XMLID_82_" class="st0" d="M216.3,494.4c-0.3,0.4-0.5,0.8-0.8,1.2v-1C215.8,494.6,216,494.5,216.3,494.4z"/>
		<path id="XMLID_81_" class="st0" d="M215.5,548c0,0,0.4-0.1,1.2-0.4c-1.2,1.6-1.9,2.4-1.9,2.4v0v-2.1
			C215.3,548,215.5,548,215.5,548z"/>
		<path id="XMLID_80_" class="st0" d="M215.5,495.8V548c0,0-0.2-0.2-0.7-0.6v-50.7C215.1,496.4,215.3,496.1,215.5,495.8z"/>
		<path id="XMLID_79_" class="st0" d="M215.5,495.6v0.2c-0.2,0.3-0.4,0.6-0.7,0.8C215.1,496.3,215.3,496,215.5,495.6z"/>
		<path id="XMLID_78_" class="st0" d="M215.5,494.6v1c-0.2,0.3-0.4,0.7-0.7,1c-0.6-0.9-1.2-1.9-1.8-2.8
			C213.8,494.1,214.7,494.4,215.5,494.6C215.5,494.6,215.5,494.6,215.5,494.6z"/>
		<path id="XMLID_77_" class="st3" d="M215.5,494.6C215.5,494.6,215.5,494.6,215.5,494.6c-0.9-0.3-1.7-0.6-2.6-0.9
			c-0.3-0.4-0.5-0.8-0.8-1.2C213.3,493.2,214.4,493.9,215.5,494.6z"/>
		<path id="XMLID_76_" class="st1" d="M215.5,494.6c-0.8-0.3-1.7-0.5-2.5-0.8c0,0-0.1-0.1-0.1-0.1
			C213.8,494,214.6,494.3,215.5,494.6z"/>
		<path id="XMLID_75_" class="st6" d="M215.5,548c0,0-0.2,0-0.7-0.1v-0.5C215.3,547.8,215.5,548,215.5,548z"/>
		<path id="XMLID_74_" class="st0" d="M214.8,547.9v2.1c-0.1-0.1-0.7-0.9-1.8-2.4C213.8,547.7,214.4,547.8,214.8,547.9z"/>
		<path id="XMLID_73_" class="st0" d="M214.8,547.4v0.5c-0.4-0.1-1-0.2-1.8-0.3c-1.1-1.5-2.7-3.7-4.8-6.5
			C211.5,544.2,213.8,546.3,214.8,547.4z"/>
		<path id="XMLID_72_" class="st0" d="M214.8,496.6v50.7c-1.1-1-3.3-3.2-6.6-6.3c-8.5-11.8-24.2-34.5-41.3-62.8
			c14,5,29.1,10.2,45.4,15.4C213.2,494.6,214,495.6,214.8,496.6z"/>
		<path id="XMLID_71_" class="st0" d="M213,493.8c0.6,0.9,1.2,1.9,1.8,2.8c-0.8-1-1.6-2-2.4-3C212.6,493.7,212.8,493.8,213,493.8z"
			/>
		<path id="XMLID_70_" class="st1" d="M212.9,493.7c0,0,0.1,0.1,0.1,0.1c-0.2-0.1-0.4-0.1-0.6-0.2c0-0.1-0.1-0.1-0.1-0.2
			C212.5,493.6,212.7,493.6,212.9,493.7z"/>
		<path id="XMLID_69_" class="st3" d="M212.1,492.5c0.3,0.4,0.5,0.8,0.8,1.2c-0.2-0.1-0.4-0.1-0.6-0.2c-0.5-0.6-1-1.2-1.5-1.8
			C211.3,491.9,211.7,492.2,212.1,492.5L212.1,492.5z"/>
		<path id="XMLID_68_" class="st1" d="M212.3,493.5c0,0.1,0.1,0.1,0.1,0.2c-16.4-5.2-31.5-10.4-45.4-15.4c-0.5-0.8-1-1.7-1.5-2.5
			C179.6,481.4,195.2,487.3,212.3,493.5z"/>
		<path id="XMLID_67_" class="st7" d="M212.1,492.4c0,0,0.1,0.1,0.1,0.1c-0.4-0.3-0.8-0.5-1.3-0.8c0,0,0,0,0,0
			c-0.1-0.1-0.1-0.1-0.1-0.2C211.2,491.8,211.6,492.1,212.1,492.4z"/>
		<path id="XMLID_66_" class="st5" d="M212.1,492.4c-0.4-0.3-0.9-0.6-1.3-0.9c0,0,0,0,0,0c-21.8-27.3-39.4-52.1-53.5-74.6
			c5.5,2.7,10.4,5.1,14.2,6.9C182.4,444.6,195.9,467.5,212.1,492.4z"/>
		<path id="XMLID_65_" class="st2" d="M210.9,491.7c0.5,0.6,1,1.2,1.5,1.8c-17.2-6.2-32.7-12.1-46.8-17.8c-6.5-11-13.2-22.7-19.7-35
			c2.7,2.5,5.5,5.2,8.4,7.8c0.1,0,0.1,0.1,0.1,0.1c0,0,0.1,0.1,0.1,0.1c0.1,0.1,0.2,0.2,0.3,0.2
			C170.1,463.1,188.6,477.4,210.9,491.7C210.9,491.7,210.9,491.7,210.9,491.7z"/>
		<path id="XMLID_64_" class="st3" d="M210.7,491.5c0.1,0.1,0.1,0.1,0.1,0.2c-22.2-14.3-40.8-28.6-56.1-42.6
			C169.2,461.9,187.4,476,210.7,491.5C210.7,491.5,210.7,491.5,210.7,491.5z"/>
		<path id="XMLID_63_" class="st0" d="M208.3,541c2,2.8,3.6,5,4.8,6.5c-19.6-3.5-150.1-29-195.3-104.4c-46.2-77.2,8.5-85,52.6-75.9
			c0.9,1.9,1.8,3.8,2.8,5.8c-64.8-16.5-100.8,28.9,66.7,95C167.9,501,195.6,528.6,208.3,541z"/>
		<path id="XMLID_62_" class="st4" d="M188.9,351.9C188.9,351.9,188.9,351.9,188.9,351.9c-0.8-0.9-26.1-31.6-45.9-34.2
			c-4-0.5-8.6-0.7-13.4-0.4c-2.1-9.7-3.3-18.6-3.9-26.8c6.6,0.5,13.6,3.3,20.5,8.7c13.5,10.7,24.7,24.8,32.2,35.8c0,0,0,0,0,0
			C181,339.3,184.4,344.8,188.9,351.9z"/>
		<path id="XMLID_61_" class="st0" d="M180.1,428.1C180.1,428,180.1,428,180.1,428.1C180.1,428,180.1,428,180.1,428.1L180.1,428.1
			c-0.7-0.4-4.1-2.4-9.3-5.4l0,0c-0.3-0.5-0.6-1.1-0.8-1.6C173,423.2,176.4,425.5,180.1,428.1z"/>
		<path id="XMLID_60_" class="st5" d="M177.3,198.5c0.4-0.1,0.7-0.1,1.1-0.2c-4.3,1-48.5,12.3-52.8,71.4c-5.4-3.2-10.8-5.2-16-6
			c9.9-49.4,55.5-62.5,66.7-65c0.1,0,0.2,0,0.3-0.1c0,0,0,0,0.1,0c0.1,0,0.3-0.1,0.4-0.1C177.1,198.6,177.2,198.5,177.3,198.5z"/>
		<path id="XMLID_59_" class="st2" d="M178.3,334.9c-7.5-11-18.7-25.1-32.2-35.8c-6.8-5.4-13.8-8.2-20.5-8.7
			c-0.6-7.5-0.5-14.4-0.1-20.7c7.8,4.6,15.6,11.7,23.1,21.8C168.1,317.8,165.7,314.4,178.3,334.9z"/>
		<path id="XMLID_58_" class="st7" d="M177.3,198.5c-0.1,0-0.2,0-0.3,0.1C177.1,198.6,177.2,198.5,177.3,198.5z"/>
		<path id="XMLID_57_" class="st1" d="M180,428c-0.6-0.3-3.8-1.9-8.7-4.3c-0.2-0.4-0.4-0.7-0.6-1.1C176,425.7,179.4,427.6,180,428z"
			/>
		<path id="XMLID_56_" class="st5" d="M170.8,422.7c0.2,0.4,0.4,0.7,0.6,1.1c-3.8-1.9-8.6-4.2-14.2-6.9c-0.6-1-1.2-2-1.8-3
			C161.4,417.3,166.6,420.3,170.8,422.7L170.8,422.7z"/>
		<path id="XMLID_55_" class="st5" d="M169.9,421.1c0.3,0.5,0.6,1.1,0.8,1.6c-4.1-2.4-9.4-5.4-15.4-8.8c0,0,0,0,0,0
			c-1.1-1.8-2.3-3.7-3.3-5.5C156.6,411.8,162.4,415.9,169.9,421.1z"/>
		<path id="XMLID_54_" class="st0" d="M167,478.2c17,28.3,32.8,51,41.3,62.8c-12.7-12.4-40.3-40.1-68.4-73
			C148.4,471.3,157.4,474.8,167,478.2z"/>
		<path id="XMLID_53_" class="st1" d="M165.5,475.7c0.5,0.8,1,1.7,1.5,2.5c-9.6-3.5-18.7-6.9-27.2-10.3c-1.3-1.6-2.7-3.1-4-4.7
			C144.9,467.3,154.8,471.4,165.5,475.7z"/>
		<path id="XMLID_52_" class="st2" d="M145.8,440.8c6.5,12.3,13.2,24,19.7,35c-10.7-4.3-20.6-8.5-29.7-12.5
			c-20.2-24-40.2-50.5-54.8-75.7c8.7,0.7,18,2.7,26.9,6C115.1,406.4,126.4,422.1,145.8,440.8z"/>
		<path id="XMLID_51_" class="st3" d="M157.2,416.8c14.1,22.5,31.7,47.3,53.5,74.6c-23.3-15.4-41.5-29.6-55.9-42.4
			c-0.1-0.1-0.2-0.1-0.3-0.2c0,0-0.1-0.1-0.1-0.1c0,0-0.1-0.1-0.1-0.1c-3-2.8-5.9-5.5-8.7-8.3c-6.5-12.3-12.9-25.2-18.7-38.2
			C137.6,407.3,148.3,412.5,157.2,416.8z"/>
		<path id="XMLID_50_" class="st3" d="M155.4,413.9c0.6,1,1.2,2,1.8,3c-8.9-4.4-19.6-9.5-30.4-14.8c-0.9-2-1.7-3.9-2.6-5.9
			C135.2,402.4,146.1,408.6,155.4,413.9C155.3,413.8,155.3,413.8,155.4,413.9z"/>
		<path id="XMLID_49_" class="st3" d="M152,408.4c1.1,1.8,2.2,3.6,3.3,5.5c-9.2-5.3-20.1-11.5-31.1-17.7v0c-1.3-3-2.6-6-3.8-9
			C134.2,394.8,138.4,398.5,152,408.4C152,408.4,152,408.4,152,408.4z"/>
		<path id="XMLID_48_" class="st5" d="M169.9,421.1c-7.6-5.2-13.3-9.3-17.9-12.7c0,0,0,0,0,0c-20.8-34.5-33.1-63.5-39.3-87.7
			c5.4-2,11.2-3,16.8-3.4C135.5,345,147.9,379.2,169.9,421.1z"/>
		<path id="XMLID_47_" class="st6" d="M154.2,448.6c-3-2.7-5.8-5.3-8.4-7.8c-0.1-0.2-0.2-0.3-0.3-0.5
			C148.3,443,151.2,445.8,154.2,448.6z"/>
		<path id="XMLID_46_" class="st3" d="M176.2,198.7c-11.2,2.5-56.8,15.5-66.7,65c-3.2-0.5-6.3-0.7-9.3-0.5
			C107.8,232,130.3,208.1,176.2,198.7z"/>
		<path id="XMLID_45_" class="st3" d="M152,408.4c-13.6-9.9-17.8-13.6-31.6-21.2c-8.2-20.1-14.9-40.4-19-60
			c3.2-2.8,7.1-4.9,11.3-6.5C118.9,344.9,131.2,373.8,152,408.4z"/>
		<path id="XMLID_44_" class="st1" d="M135.8,463.3c1.3,1.6,2.7,3.2,4,4.7C-27.6,401.8,8.4,356.5,73.2,373c2.4,4.8,5,9.7,7.8,14.6
			C39.2,384,13.8,409.4,135.8,463.3z"/>
		<path id="XMLID_43_" class="st5" d="M125.6,290.5c0.6,8.2,1.9,17.1,3.9,26.8c-5.6,0.4-11.4,1.4-16.8,3.4
			c-2.4-9.3-3.8-17.8-4.5-25.7C113.4,291.6,119.3,290,125.6,290.5z"/>
		<path id="XMLID_42_" class="st5" d="M125.5,269.7c-0.5,6.3-0.5,13.2,0.1,20.7c-6.3-0.5-12.3,1.1-17.4,4.5
			c-1.1-11.8-0.5-22.1,1.4-31.3C114.8,264.6,120.1,266.5,125.5,269.7z"/>
		<path id="XMLID_41_" class="st1" d="M124.2,396.2c0.8,2,1.7,3.9,2.6,5.9c-3.4-1.6-6.8-3.3-10.2-4.9c-2.7-1.3-5.4-2.4-8.2-3.5h0
			c-1.8-3.1-3.4-6.1-4.9-9.1c1.6,0.8,3.2,1.6,4.7,2.5C113.5,390.1,118.9,393.1,124.2,396.2L124.2,396.2z"/>
		<path id="XMLID_40_" class="st0" d="M120.4,387.2c1.2,3,2.5,6,3.8,9c-5.4-3-10.8-6.1-16-9c-1.6-0.9-3.2-1.7-4.7-2.5v0
			c-0.9-1.8-1.8-3.6-2.6-5.4c0-0.1-0.1-0.3-0.2-0.4c-0.3-0.8-0.7-1.6-1-2.4c1.3,0.6,2.5,1.1,3.6,1.7
			C110.4,381.8,115.9,384.7,120.4,387.2z"/>
		<path id="XMLID_39_" class="st1" d="M108.4,393.7c-0.2-0.1-0.3-0.1-0.5-0.2c-1.8-3.2-3.3-6.2-4.7-9c0.1,0,0.1,0.1,0.2,0.1v0
			C105,387.6,106.6,390.6,108.4,393.7z"/>
		<path id="XMLID_38_" class="st3" d="M108.2,295c0.7,7.9,2.2,16.5,4.5,25.7c-4.2,1.5-8,3.7-11.3,6.5c-1.5-7.4-2.7-14.7-3.4-21.8v0
			C100.9,301,104.3,297.5,108.2,295z"/>
		<path id="XMLID_37_" class="st3" d="M109.6,263.7c-1.8,9.1-2.4,19.5-1.4,31.3c-3.9,2.5-7.3,6-10.1,10.4c-1.5-15-0.9-29.2,2.2-42.1
			C103.3,263,106.4,263.1,109.6,263.7z"/>
		<path id="XMLID_36_" class="st0" d="M103.5,384.6c-0.1,0-0.1-0.1-0.2-0.1c-0.9-1.9-1.7-3.6-2.4-5.3
			C101.7,381,102.5,382.8,103.5,384.6z"/>
		<path id="XMLID_35_" class="st2" d="M103.3,384.5c1.4,2.8,2.9,5.8,4.7,9c-8.9-3.2-18.3-5.2-26.9-6c-2.8-4.9-5.5-9.8-7.8-14.6
			C82.8,375.4,93,379.2,103.3,384.5z"/>
		<path id="XMLID_34_" class="st2" d="M100.9,379.2c0.7,1.7,1.5,3.5,2.4,5.3c-10.3-5.3-20.5-9.1-30.1-11.5c-1-1.9-1.9-3.8-2.8-5.8
			c11,2.3,21.3,5.6,29.3,9.2c0.3,0.8,0.7,1.6,1.1,2.4C100.7,378.9,100.8,379,100.9,379.2z"/>
		<path id="XMLID_33_" class="st0" d="M100.7,378.8c-0.4-0.8-0.7-1.6-1.1-2.4c0,0,0,0,0.1,0C100,377.2,100.3,378,100.7,378.8z"/>
		<path id="XMLID_32_" class="st4" d="M98.1,305.4c0.7,7.1,1.8,14.4,3.4,21.8c-7.3,6.3-11.3,16.1-8.2,30.8
			C87.6,335.6,90.5,317.3,98.1,305.4z"/>
		<path id="XMLID_31_" class="st2" d="M98.1,305.4L98.1,305.4c-7.6,11.9-10.5,30.3-4.8,52.6c0,0,0,0,0,0.1c0.8,3.6,2,7.5,3.7,11.8
			c0,0.1,0.1,0.2,0.1,0.3c0.8,2.1,1.6,4.2,2.5,6.4c-7.9-3.6-18.3-6.9-29.3-9.2c-3.8-8.1-6.7-15.9-8.7-23.4
			c-11.5-42.3,9.7-78.4,38.7-80.6C97.2,276.2,96.6,290.4,98.1,305.4z"/>
	</g>
	<g id="XMLID_29_">
	</g>
</g>
</svg>