<svg xmlns="http://www.w3.org/2000/svg" viewBox="0 0 481.9 368.5"><style>.st0{fill:#f3bab5}.st1{fill:#f1aaa6}.st2{fill:#d3d0e8}.st3{fill:#e2c0a5}.st4{fill:#cbe9e6}.st5{fill:#dcb493}.st6{fill:#bee4e1}.st7{fill:#ffe2bd}.st8{fill:#ffdcae}.st9{fill:#cfe8d4}.st10{fill:#c4e4ca}.st11{fill:#e9f0bd}.st12{fill:#e4ecae}.st13{fill:none}.st14{fill:#594a42}.st15{display:none}.st16{display:inline}.st17{fill:#b9a2af}.st18{fill:none;stroke:#000;stroke-miterlimit:10}.st19{fill:#FFF}.st20{fill:#d1d3d4}.st21{fill:#bcbec0}.st22{fill:#a7a9ac}.st23{fill:#303441}.st24{fill:#444755}.st25{fill:#3c3f4d}.st26{fill:#2d303d}.st27{fill:#333646}.st28{fill:#2d313e}.st29{fill:#8b5e3c}.st30{fill:#feebc7}.st31{fill:#efceac}.st32{fill:#333746}.st33{fill:#e6eaed}.st34{fill:#d4d8dd}.st35{fill:#d4dbe1}.st36{fill:#c3c7cf}.st37{fill:#463f3b}.st38{fill:#a28266}.st39{fill:#f1f2f2}.st40{fill:#414042}.st41{fill:#e6e7e8}.st42{fill:url(#XMLID_300_)}.st43{fill:#d5d8db}.st44{fill:#c2b59b}.st45{fill:#a49c8d}.st46{fill:#cdc1ac}.st47{opacity:.5;fill:#f1f2f2}.st48{fill:#c3c0c6}.st49{fill:#858791}.st50{fill:#333747}.st51{fill:#aeafb6}.st52{opacity:.6}.st53{opacity:.4;fill:#FFF}.st54{opacity:.32}.st55{fill:#c7c8ca}</style><g id="body"><g id="XMLID_712_"><g id="XMLID_732_"><path id="XMLID_68_" class="st23" d="M337.8 152.3c1.5 3.2 2.6 8.8-3.8 13.7h-36s4.7-2.5 5.3-4.4v-.1l3.8-4.5h23s5.5.2 7.7-4.7z"/><path id="XMLID_67_" class="st24" d="M336.4 149.7s.8 1 1.5 2.5c-2.3 5-7.7 4.7-7.7 4.7h-23l8.6-10 7.4-8.7 13.2 11.5z"/><path id="XMLID_64_" class="st25" d="M323 138.3l-7.4 8.7-.3-.3-.8-.9h-11v-13.9l6-5.3z"/><path id="XMLID_63_" class="st25" d="M315.6 147l-8.6 10h-3.5v-10.4h11.8l.3.4z"/><path id="XMLID_62_" class="st26" d="M314.5 145.8l.8.9h-11.8v-.9z"/><path id="XMLID_61_" class="st27" d="M309.5 126.6l-6 5.3v-10.4z"/><path id="XMLID_60_" class="st28" d="M307.1 157l-3.8 4.5c.4-.9.3-4 .3-4.5h3.5z"/><path id="XMLID_59_" class="st29" d="M233.9 79c-.5.5-.7.8-.7.8-.1-2.4 2.7-5 2.7-5-7.7 1.8-7.2 14.3-6.8 18.6 0 0-3.4-9.3-4.7-9.9 0 0 .1-3-.5-3.6-.5-.6-.8-1-.8-1-3.4-6.5 3.1-13 3.1-13-1.3-.4-3.5 3.3-3.5 3.3-.7-3.7 5-7.4 5-7.4-2.3-.4-5.7.9-5.7.9 1.8-3.5 8.2-4 8.2-4-3.7-1.8-4.2-4.2-4.2-4.2 3.1 1 8.9.8 8.9.8-5.7-2.4-3.5-4.2-3.5-4.2 2.3 1.6 8.2 1.6 8.2 1.6-5.1-3.7-1.6-4.5-1.6-4.5 1.6 2.3 7.7 3.3 7.7 3.3l4 .4-3.4-4.4 13.3 3.8-2.1-3.8c4.4.7 11.6 6.5 11.6 6.5l-.1 3 5.4.8-2.3.8c9.5 6.8 7.1 18.4 7.1 18.4l-1.3-2.4V82l-.9-1.1.9 7.2-1-1.4-1.6 8.9c.1-.8-.6-2.2-.9-4.1-.7-5.4-1.2-12.1-1.4-14.7 0-.7-.1-1.1-.1-1.1l-15.6 1.8 2.3-3c-.4 0-.8.1-1.2.1l.9-1.2c-4.8.2-8.2 2.6-9.9 4.2.6-1.1 1.2-2.1 1.2-2.1l-1.2.5c.5-.9.9-1.7.9-1.7L246 76l1.3-1.6c-.4-.1-.8-.1-1.2 0l.9-1.1c-3-.7-6.4 4.5-6.4 4.5-.1-.1-.2-.3-.3-.4.1-1.3 1.6-2.3 1.6-2.3-.5 0-1 .1-1.6.2.5-.8 1.3-1.4 1.3-1.4-2.7-.1-6.2 3.4-7.7 5.1z"/><path id="XMLID_58_" class="st30" d="M274.4 91.4c.3 1.9 1 3.3.9 4.1l-46.3-2c-.4-4.3-.9-16.9 6.8-18.6 0 0-2.8 2.6-2.7 5 0 0 .3-.3.7-.8-.3.6-.5 1.3-.4 2 0 0 3.7-4.5 6.9-5.6-.4.6-.5 1.3 0 2.1 0 .5.1 1 .6 1.5 0 0 2.5-3.9 5.2-4.5l-1.9 2.4 1.8-1-1.6 1.9 4.9-2.2c-.5 1-1.1 2.3-1.2 2.9 0 0 .4-.5 1.3-1.3-.5.9-.9 1.9-1 2.4 0 0 3.6-4.5 9.9-5.3l-2.3 3.1 1.3-.1-1 1.3 16.6-1.9c.3 2.5.8 9.3 1.5 14.6z"/><path id="XMLID_51_" class="st31" d="M273 76.7l-16.6 1.9 1-1.3 15.6-1.8c-.1.2 0 .6 0 1.2z"/><path id="XMLID_50_" class="st29" d="M259.6 74.4l-2.3 3-1.3.1 2.3-3.1h1.3z"/><path id="XMLID_49_" class="st31" d="M259.3 73.3l-.9 1.2c-6.3.8-9.9 5.3-9.9 5.3.1-.5.5-1.5 1-2.4 1.6-1.5 5.1-3.9 9.8-4.1z"/><path id="XMLID_48_" class="st29" d="M249.4 75.8l1.2-.5s-.6 1-1.2 2.1c-.8.7-1.3 1.3-1.3 1.3.1-.6.7-1.8 1.3-2.9z"/><path id="XMLID_47_" class="st31" d="M246 76l4.2-1.9s-.4.8-.9 1.7l-4.9 2.2 1.6-2z"/><path id="XMLID_46_" class="st29" d="M247.3 74.5L246 76l-1.9.8 1.9-2.4c.5 0 .9 0 1.3.1z"/><path id="XMLID_45_" class="st31" d="M247 73.3l-.9 1.1c-2.6.6-5.2 4.5-5.2 4.5-.5-.5-.7-1-.6-1.5.1.1.2.3.3.4 0 0 3.4-5.2 6.4-4.5z"/><path id="XMLID_44_" class="st29" d="M240.4 75.4c.5-.2 1.1-.3 1.6-.2 0 0-1.5 1-1.6 2.3-.6-.8-.4-1.5 0-2.1z"/><path id="XMLID_43_" class="st31" d="M233.9 79c1.5-1.7 5.1-5.2 7.8-5 0 0-.8.6-1.3 1.4-3.3 1.1-6.9 5.6-6.9 5.6-.1-.7.1-1.4.4-2z"/><path id="XMLID_34_" class="st28" d="M205.2 165.9h-37.9c-6.4-4.9-5.2-10.5-3.7-13.7 2.3 5 7.7 4.7 7.7 4.7h26.6s0 3.8.1 4.3c.2.5 1 2.4 1.5 2.7l5.7 2z"/><path id="XMLID_33_" class="st32" d="M197.9 146.7V157h-26.6s-5.5.3-7.7-4.7c.7-1.6 1.5-2.5 1.5-2.5l32.8-28.3v24.4h-11l-.8.9h11.8v-.1z"/><path id="XMLID_32_" class="st28" d="M197.9 145.8v.9h-11.8l.8-.9h11z"/></g></g></g></svg>