<svg xmlns="http://www.w3.org/2000/svg" viewBox="0 0 481.9 368.5"><style>.st0{fill:#f3bab5}.st1{fill:#f1aaa6}.st2{fill:#d3d0e8}.st3{fill:#e2c0a5}.st4{fill:#cbe9e6}.st5{fill:#dcb493}.st6{fill:#bee4e1}.st7{fill:#ffe2bd}.st8{fill:#ffdcae}.st9{fill:#cfe8d4}.st10{fill:#c4e4ca}.st11{fill:#e9f0bd}.st12{fill:#e4ecae}.st13{fill:none}.st14{fill:#594a42}.st15{display:none}.st16{display:inline}.st17{fill:#b9a2af}.st18{fill:none;stroke:#000;stroke-miterlimit:10}.st19{fill:#FFF}.st20{fill:#d1d3d4}.st21{fill:#bcbec0}.st22{fill:#a7a9ac}.st23{fill:#303441}.st24{fill:#444755}.st25{fill:#3c3f4d}.st26{fill:#2d303d}.st27{fill:#333646}.st28{fill:#2d313e}.st29{fill:#8b5e3c}.st30{fill:#feebc7}.st31{fill:#efceac}.st32{fill:#333746}.st33{fill:#e6eaed}.st34{fill:#d4d8dd}.st35{fill:#d4dbe1}.st36{fill:#c3c7cf}.st37{fill:#463f3b}.st38{fill:#a28266}.st39{fill:#f1f2f2}.st40{fill:#414042}.st41{fill:#e6e7e8}.st42{fill:url(#XMLID_300_)}.st43{fill:#d5d8db}.st44{fill:#c2b59b}.st45{fill:#a49c8d}.st46{fill:#cdc1ac}.st47{opacity:.5;fill:#f1f2f2}.st48{fill:#c3c0c6}.st49{fill:#858791}.st50{fill:#333747}.st51{fill:#aeafb6}.st52{opacity:.6}.st53{opacity:.4;fill:#FFF}.st54{opacity:.32}.st55{fill:#c7c8ca}</style><g id="bucket"><g id="XMLID_595_"><g id="XMLID_623_"><path id="XMLID_87_" class="st44" d="M402 152.5c.4 2-1.5 4.1-1.5 4.3s-2.9 2.8-2.9 2.8L394 163c-.5.4-.9.6-.9.6-.2 0-.4.1-.5.2-.2.2-.3.4-.3.4s0 .1-.1.1c-.7.8-2 1.5-3.1 1.9h-3.8v-20.9h9.5s-.1 2.4 0 3.5v.3l-.1 3.5s1.6-2.4 3.5-2.5c1.8-.1.7-.7.6-.8.9.1 1.4.4 1.4.4 1.8 1.1 1.8 2.8 1.8 2.8zm-2.1 4.3c1-1.2 1.4-3.2 1.4-3.2-.3-2-.7-2.6-1.4-2.8-.7-.2-1.5.1-1.5.1-.2 0-.5 0-.9.2-.9.3-1.7 1.5-1.7 1.5-.9 2-1.2 1.8-1.2 1.8s-.6 3.1-.8 4.5v.4l-1.1 3.7c.2 0 6.2-5 7.2-6.2z"/><path id="XMLID_85_" class="st45" d="M401.4 153.6s-.4 2-1.4 3.2c-1 1.2-7 6.3-7 6.3l1.1-3.7c0 .9.8.5.8.5 1.5-.6 3.7-3.2 4.4-4 .7-.7 1.3-2.4 1.3-2.4s.1-.9-.3-1.6-1.4-.9-1.4-.9h-.3s.8-.3 1.5-.1c.6.1 1 .7 1.3 2.7z"/><path id="XMLID_84_" class="st45" d="M398.8 149.5c.2.1 1.2.7-.6.8-1.9.1-3.5 2.5-3.5 2.5l.1-3.5c.2.8.9.5.9.5l1.4-.3c.7-.1 1.2 0 1.7 0z"/><path id="XMLID_81_" class="st45" d="M392.3 164.5c-.8 1.8-1.4 1.9-1.4 1.9h-1.7c1.2-.5 2.5-1.1 3.1-1.9z"/><path id="XMLID_80_" class="st46" d="M385.4 145.5v20.9h-5.7c-2.1-2.6-3-8-3-8-.8-3.1-.7-12.9-.7-12.9h9.4z"/></g></g><path id="XMLID_594_" class="st47" d="M384.5 142.7s-6.6-4.7-7.3-10.1c0 0-.4-2.4 4-5.8 0 0 7.2-5.4 7.4-6.7 0 0 2.2-1.9 1.4-7.5 0 0 3.5 3.5.2 8.7 0 0-2.4 3.6-4.9 5.5 0 0-3.3 2.3-4.3 4.4 0 0-1.6 2.6 0 5.5 1.6 2.8 3.5 6 3.5 6z"/><path id="XMLID_593_" class="st47" d="M386.3 144.8s3.7-3.1.3-6.4c0 0-2-1.6-2-5.8 0 0 .9-3.1 3.2-4.5 2.2-1.3 4.4-3.3 8.9-4.1 0 0-4.8 3-6 4-1.2 1-2.6 3.1-2.6 3.1s-1 1.4.9 4.2c2 2.8 2 2.9 2 3.4s.5 1.5-1.6 4l-3.1 2.1z"/></g></svg>