<svg xmlns="http://www.w3.org/2000/svg" viewBox="0 0 481.9 368.5"><style>.st0{fill:#f3bab5}.st1{fill:#f1aaa6}.st2{fill:#d3d0e8}.st3{fill:#e2c0a5}.st4{fill:#cbe9e6}.st5{fill:#dcb493}.st6{fill:#bee4e1}.st7{fill:#ffe2bd}.st8{fill:#ffdcae}.st9{fill:#cfe8d4}.st10{fill:#c4e4ca}.st11{fill:#e9f0bd}.st12{fill:#e4ecae}.st13{fill:none}.st14{fill:#594a42}.st15{display:none}.st16{display:inline}.st17{fill:#b9a2af}.st18{fill:none;stroke:#000;stroke-miterlimit:10}.st19{fill:#FFF}.st20{fill:#d1d3d4}.st21{fill:#bcbec0}.st22{fill:#a7a9ac}.st23{fill:#303441}.st24{fill:#444755}.st25{fill:#3c3f4d}.st26{fill:#2d303d}.st27{fill:#333646}.st28{fill:#2d313e}.st29{fill:#8b5e3c}.st30{fill:#feebc7}.st31{fill:#efceac}.st32{fill:#333746}.st33{fill:#e6eaed}.st34{fill:#d4d8dd}.st35{fill:#d4dbe1}.st36{fill:#c3c7cf}.st37{fill:#463f3b}.st38{fill:#a28266}.st39{fill:#f1f2f2}.st40{fill:#414042}.st41{fill:#e6e7e8}.st42{fill:url(#XMLID_300_)}.st43{fill:#d5d8db}.st44{fill:#c2b59b}.st45{fill:#a49c8d}.st46{fill:#cdc1ac}.st47{opacity:.5;fill:#f1f2f2}.st48{fill:#c3c0c6}.st49{fill:#858791}.st50{fill:#333747}.st51{fill:#aeafb6}.st52{opacity:.6}.st53{opacity:.4;fill:#FFF}.st54{opacity:.32}.st55{fill:#c7c8ca}</style><g id="desk"><g id="XMLID_610_"><g id="XMLID_666_"><path id="XMLID_118_" class="st19" d="M105.6 171.9H26.9v-6h447.6v6h-312z"/><path id="XMLID_117_" class="st33" d="M450.2 180.7v154.9h-93.7V180.7z"/><path id="XMLID_116_" class="st34" d="M356.5 171.9h93.7v8.8h-93.7z"/><path id="XMLID_115_" class="st35" d="M356.5 180.7v144.2h-194V180.7z"/><path id="XMLID_114_" class="st36" d="M162.5 171.9h194.1v8.8H162.5z"/><path id="XMLID_113_" class="st37" d="M307.6 332.2v1.3c0 1.2-1 2.2-2.2 2.2h-23.9c-1.2 0-2.2-1-2.2-2.2v-1.3h28.3z"/><path id="XMLID_112_" class="st38" d="M307.6 327.1v5.1h-28.2v-5.1c0-1.2 1-2.2 2.2-2.2h23.9c1.2 0 2.1 1 2.1 2.2z"/><path id="XMLID_111_" class="st39" d="M303.5 96.6v63c0 3.5-2.8 6.3-6.3 6.3h-93c-3.5 0-6.3-2.8-6.3-6.3v-63c0-3.5 2.8-6.3 6.3-6.3h93c3.5 0 6.3 2.8 6.3 6.3z"/><path id="XMLID_110_" class="st37" d="M226.2 332.2v1.3c0 1.2-1 2.2-2.2 2.2h-23.9c-1.2 0-2.2-1-2.2-2.2v-1.3h28.3z"/><path id="XMLID_108_" class="st38" d="M226.2 327.1v5.1H198v-5.1c0-1.2 1-2.2 2.2-2.2H224c1.2 0 2.2 1 2.2 2.2z"/><path id="XMLID_107_" class="st40" d="M190.4 73.3v76.5c0 5.7-4.6 10.3-10.3 10.3l-39.9-1.3-2.8-45.5h.1c0-12.7-10.3-23.6-23-23-.3 0-.6 0-.9.1V65l66.6-2c5.6 0 10.2 4.6 10.2 10.3z"/><path id="XMLID_105_" class="st33" d="M162.5 324.9v10.7h-56.9V180.7h56.9z"/><path id="XMLID_104_" class="st34" d="M105.6 171.9h56.9v8.8h-56.9z"/><path id="XMLID_103_" class="st19" d="M140.2 158.8l.4 7.2h-35l7.9-52.7v-23c.3 0 .6-.1.9-.1 12.7-.6 23 10.3 23 23h-.1l2.9 45.6z"/><path id="XMLID_100_" class="st41" d="M113.5 90.3v22.9l-7.9 52.7H81.9l1.3-9.2 6.4-45.2c-.1-12.4 9.7-20.2 23.9-21.2z"/><linearGradient id="XMLID_300_" gradientUnits="userSpaceOnUse" x1="50.528" y1="110.868" x2="190.408" y2="110.868"><stop offset="0" stop-color="#3d3d3e"/><stop offset=".415" stop-color="#414142"/><stop offset=".73" stop-color="#4a4a4c"/><stop offset="1" stop-color="#58595b"/></linearGradient><path id="XMLID_99_" class="st42" d="M113.5 90.3c-14.2 1-24 8.8-24 21.3l-6.4 45.2H83l-22.3-.9c-5.7-.2-10.3-4.6-10.3-10.3V76.9c0-5.7 4.6-10.3 10.3-10.3l52.6-1.6v25.3z"/><path id="XMLID_98_" class="st43" d="M50.5 180.7h55.1v154.9H50.5z"/><path id="XMLID_97_" class="st34" d="M50.5 171.9h55.1v8.8H50.5z"/></g></g></g></svg>