<svg xmlns="http://www.w3.org/2000/svg" viewBox="0 0 481.9 368.5"><style>.st0{fill:#f3bab5}.st1{fill:#f1aaa6}.st2{fill:#d3d0e8}.st3{fill:#e2c0a5}.st4{fill:#cbe9e6}.st5{fill:#dcb493}.st6{fill:#bee4e1}.st7{fill:#ffe2bd}.st8{fill:#ffdcae}.st9{fill:#cfe8d4}.st10{fill:#c4e4ca}.st11{fill:#e9f0bd}.st12{fill:#e4ecae}.st13{fill:none}.st14{fill:#594a42}.st15{display:none}.st16{display:inline}.st17{fill:#b9a2af}.st18{fill:none;stroke:#000;stroke-miterlimit:10}.st19{fill:#FFF}.st20{fill:#d1d3d4}.st21{fill:#bcbec0}.st22{fill:#a7a9ac}.st23{fill:#303441}.st24{fill:#444755}.st25{fill:#3c3f4d}.st26{fill:#2d303d}.st27{fill:#333646}.st28{fill:#2d313e}.st29{fill:#8b5e3c}.st30{fill:#feebc7}.st31{fill:#efceac}.st32{fill:#333746}.st33{fill:#e6eaed}.st34{fill:#d4d8dd}.st35{fill:#d4dbe1}.st36{fill:#c3c7cf}.st37{fill:#463f3b}.st38{fill:#a28266}.st39{fill:#f1f2f2}.st40{fill:#414042}.st41{fill:#e6e7e8}.st42{fill:url(#XMLID_300_)}.st43{fill:#d5d8db}.st44{fill:#c2b59b}.st45{fill:#a49c8d}.st46{fill:#cdc1ac}.st47{opacity:.5;fill:#f1f2f2}.st48{fill:#c3c0c6}.st49{fill:#858791}.st50{fill:#333747}.st51{fill:#aeafb6}.st52{opacity:.6}.st53{opacity:.4;fill:#FFF}.st54{opacity:.32}.st55{fill:#c7c8ca}</style><g id="light"><g id="XMLID_321_"><g id="XMLID_508_"><path id="XMLID_92_" class="st48" d="M452.3 103.7c2.4 0 4.4 2 4.4 4.4 0 2.4-2 4.4-4.4 4.4-1.2 0-2.3-.5-3.1-1.3-.8-.8-1.3-1.9-1.3-3.2 0-.6.1-1.2.3-1.7.5-1.1 1.4-2 2.5-2.4.5-.1 1-.2 1.6-.2zm2.8 4.4c0-1.6-1.3-2.8-2.8-2.8s-2.8 1.3-2.8 2.8 1.3 2.8 2.8 2.8 2.8-1.3 2.8-2.8z"/><path id="XMLID_91_" class="st49" d="M452.3 105.3c1.5 0 2.8 1.3 2.8 2.8s-1.3 2.8-2.8 2.8-2.8-1.3-2.8-2.8 1.2-2.8 2.8-2.8z"/><path id="XMLID_90_" class="st50" d="M452.3 112.5l-22.7 39.4c-.6-.8-1.4-1.4-2.5-1.6v-.1l22.1-38.9c.8.7 1.9 1.2 3.1 1.2z"/><path id="XMLID_89_" class="st50" d="M390.2 80.1l60.5 23.9c-1.1.4-2 1.3-2.5 2.4l-59.4-22.9c.5-.5.9-1 1.2-1.8.2-.5.3-1.1.2-1.6z"/><path id="XMLID_88_" class="st50" d="M445.6 166H407c0-1.8 6.6-9.5 15.3-11.4 1.3-.3 2.6-.4 4-.4s2.7.2 4 .4c8.8 1.9 15.3 9.5 15.3 11.4z"/><path id="XMLID_86_" class="st48" d="M430.4 154.2l-.1.4c-1.3-.3-2.6-.4-4-.4s-2.7.2-4 .4l-.1-.4c0-2.3 1.8-4.1 4.1-4.1.3 0 .6 0 .9.1 1 .2 1.9.8 2.5 1.6.4.7.7 1.5.7 2.4z"/><path id="XMLID_83_" class="st48" d="M388.8 83.4c-1.1 1-2.7 1.3-4.1.8l2.9-7.9c1 .4 1.6 1 2.1 1.8.3.6.5 1.2.6 1.9 0 .5 0 1.1-.2 1.6-.3.8-.8 1.4-1.3 1.8z"/><path id="XMLID_82_" class="st41" d="M388.7 73.4l-1.1 3-2.9 7.9-2.1 5.7c3 4.9-2 12.7-2 12.7l-3.6-2.5s5-7.9 2-12.8l6.1-16.6 1.2.9-2.1 3 1.6 1.1 2.1-3 .8.6z"/><path id="XMLID_79_" class="st51" d="M387.8 72.8z"/><path id="XMLID_78_" class="st51" d="M387.8 72.8l-2.1 3-1.6-1.1 2.2-3 1.5 1.1z"/><path id="XMLID_77_" class="st19" d="M384.7 70.6l.4.3-6.1 16.5c3 4.9-2 12.8-2 12.8l-21.6-14.5s5.4-7.6 11.1-6.6l12.9-12.3.8.6-2.1 3 1.5 1.1 2.1-3 1.5 1.1-2.1 3 1.6 1.1 2-3.1z"/><path id="XMLID_75_" class="st51" d="M382.59 73.52l-1.543-1.107 2.154-3.008 1.545 1.107z"/><path id="XMLID_74_" class="st51" d="M381.7 68.4l-2.2 3-1.5-1.1 2.1-3z"/><path id="XMLID_73_" class="st51" d="M381.7 68.4l-1.6-1.1z"/></g></g><g id="XMLID_313_" class="st52"><g id="XMLID_319_"><path id="XMLID_70_" class="st19" d="M373.5 97.8l-35.8 68-3.7.1s9.5-5.9 2.3-16.1l-13.4-11.7 39.1-48 11.5 7.7z"/></g></g><path id="XMLID_312_" class="st53" d="M380.4 102.6l-21.2 63.3h-21.5l35.8-68z"/><g id="XMLID_125_" class="st54"><g id="XMLID_310_"><path id="XMLID_1_" class="st19" d="M362 90.1l-39.1 48-13.6-11.7 45.9-40.9z"/></g></g></g></svg>