<?xml version="1.0" encoding="utf-8"?>
<!-- Generator: Adobe Illustrator 19.0.0, SVG Export Plug-In . SVG Version: 6.00 Build 0)  -->
<svg version="1.1" xmlns="http://www.w3.org/2000/svg" xmlns:xlink="http://www.w3.org/1999/xlink" x="0px" y="0px"
	 viewBox="0 0 481.9 368.5" style="enable-background:new 0 0 481.9 368.5;" xml:space="preserve">
<style type="text/css">
	.st0{fill:#F3BAB5;}
	.st1{fill:#F1AAA6;}
	.st2{fill:#D3D0E8;}
	.st3{fill:#E2C0A5;}
	.st4{fill:#CBE9E6;}
	.st5{fill:#DCB493;}
	.st6{fill:#BEE4E1;}
	.st7{fill:#FFE2BD;}
	.st8{fill:#FFDCAE;}
	.st9{fill:#CFE8D4;}
	.st10{fill:#C4E4CA;}
	.st11{fill:#E9F0BD;}
	.st12{fill:#E4ECAE;}
	.st13{fill:none;}
	.st14{fill:#594A42;}
	.st15{display:none;}
	.st16{display:inline;}
	.st17{fill:#B9A2AF;}
	.st18{fill:none;stroke:#000000;stroke-miterlimit:10;}
	.st19{fill:#FFFFFF;}
	.st20{fill:#D1D3D4;}
	.st21{fill:#BCBEC0;}
	.st22{fill:#A7A9AC;}
	.st23{fill:#303441;}
	.st24{fill:#444755;}
	.st25{fill:#3C3F4D;}
	.st26{fill:#2D303D;}
	.st27{fill:#333646;}
	.st28{fill:#2D313E;}
	.st29{fill:#8B5E3C;}
	.st30{fill:#FEEBC7;}
	.st31{fill:#EFCEAC;}
	.st32{fill:#333746;}
	.st33{fill:#E6EAED;}
	.st34{fill:#D4D8DD;}
	.st35{fill:#D4DBE1;}
	.st36{fill:#C3C7CF;}
	.st37{fill:#463F3B;}
	.st38{fill:#A28266;}
	.st39{fill:#F1F2F2;}
	.st40{fill:#414042;}
	.st41{fill:#E6E7E8;}
	.st42{fill:url(#XMLID_300_);}
	.st43{fill:#D5D8DB;}
	.st44{fill:#C2B59B;}
	.st45{fill:#A49C8D;}
	.st46{fill:#CDC1AC;}
	.st47{opacity:0.5;fill:#F1F2F2;}
	.st48{fill:#C3C0C6;}
	.st49{fill:#858791;}
	.st50{fill:#333747;}
	.st51{fill:#AEAFB6;}
	.st52{opacity:0.6;}
	.st53{opacity:0.4;fill:#FFFFFF;}
	.st54{opacity:0.32;}
	.st55{fill:#C7C8CA;}
</style>
<g id="kodama_x5F_body">
	<g id="XMLID_577_">
		<g id="XMLID_101_">
			<path id="XMLID_14_" class="st19" d="M105,340.2c-0.1,0.4-0.1,0.7-0.1,0.7h0c-0.3-0.9-1-1.1-1-1.1c-1.1-0.7-2.4,0-2.4,0
				c-0.3,0.1-0.5,0.3-0.6,0.5c0,0,0,0,0,0l-0.8,0.1c0,0-1.3,0.2-2.5-1.2s-1.9-4-1.9-4c-0.1,0.5-0.2,1.1-0.2,1.9c0,0,0,0,0,0
				c0,0.1,0,0.1,0,0.2c-0.1,0.6-0.6,1.3-0.6,1.3s-0.7,0.5-1.6-0.3c-0.8-0.7,0-4.4,0.1-4.7c0,0,0,0,0,0c1.1-2.1,2.9-3.4,2.9-3.4
				s3.4,1.2,7.7-0.7c1.2,0.7,1.6,1.2,1.6,1.2c0.5,0.4,1.5,2.2,2,3.2c0.5,1,0.6,1.5,0.8,2s0.3,1.8,0.3,1.8l0.1,1.5l0,1.2l-0.1,1.5
				l-0.1,1l-0.1,1.2c0,0.3-0.1,0.7-0.3,1.2c-0.1,0.4,0.2,0.9,0.2,0.9c0.5,0.9-0.1,1-0.1,1c-0.4-0.4-0.7,0-0.7,0c0,0-0.1,0-0.2,0.1
				l-1.1-3.6C105.7,341,105,340.2,105,340.2L105,340.2z"/>
			<path id="XMLID_11_" class="st55" d="M106.1,343.5l1.1,3.6c-0.2,0-0.4,0-0.4,0c-0.4-0.3-0.7,0-0.7,0c-0.4,0.3-0.5,0.2-0.5,0.2
				c-0.2-0.3-0.9-0.5-1-0.5c0.3-0.8,0.4-2.3,0.4-2.3c0.3-1-0.2-2.7-0.2-2.7c0-0.4-0.1-0.7-0.2-0.9h0c0,0,0.1-0.3,0.1-0.7h0
				C105,340.2,105.7,341,106.1,343.5z"/>
			<path id="XMLID_10_" class="st19" d="M104.7,346.8c0,0.1-0.1,0.2-0.1,0.2l-0.3,0.7c0,0,0.6,0.9-0.5,0.9c0,0-1-0.1-1.2,0.2
				c0,0,0,0.3-1.2-0.1c0,0-0.3-0.1-0.7,0.1c0,0-0.6,0.4-0.9-0.4c0-0.1,0-0.2,0-0.4c0.7-0.6,1-1.6,1-1.6l0.4-2.2
				c0.2-0.4-0.1-2.7-0.1-2.7c1.5-1.6-0.1-1.3-0.2-1.3c0.2-0.2,0.4-0.4,0.6-0.5c0,0,1.2-0.7,2.4,0c0,0,0.7,0.3,1,1.1
				c0.1,0.3,0.2,0.5,0.2,0.9c0,0,0.4,1.7,0.2,2.7C105.2,344.5,105,346,104.7,346.8z"/>
			<path id="XMLID_8_" class="st55" d="M100.9,340.2c0.1,0,1.8-0.2,0.2,1.3c0,0,0.3,2.3,0.1,2.7l-0.4,2.2c0,0-0.3,1-1,1.6
				c0-0.2,0.1-0.5,0.1-0.5s0.4-1.3,0.3-1.7c-0.1-0.4,0-3.7,0-3.7S100.3,340.9,100.9,340.2z"/>
			<path id="XMLID_7_" class="st55" d="M100.9,340.2C100.9,340.2,100.9,340.2,100.9,340.2c-0.6,0.7-0.6,1.9-0.6,1.9s-0.1,3.3,0,3.7
				c0.1,0.4-0.3,1.7-0.3,1.7c-0.2,0.2-0.5,0.1-0.5,0.1c0-0.2,0-0.4,0-0.4l-0.3-4.3c0.1-1.6-1.3-2.5-1.3-2.5c-2.2-0.6-2.4,1-2.4,1
				s-0.4-0.4-0.3-2.8c0-0.5,0.1-1,0.1-1.4c0-0.1,0-0.1,0-0.2c0,0,0,0,0,0c0.1-0.8,0.2-1.5,0.2-1.9c0,0,0.7,2.7,1.9,4
				s2.5,1.2,2.5,1.2L100.9,340.2z"/>
			<path id="XMLID_6_" class="st19" d="M99.2,342.9l0.3,4.3c0,0,0,0.2,0,0.4c0,0.4-0.1,0.9-0.3,0.9c-0.3,0-1.2-0.4-2,0.3
				c0,0-0.5-0.4-1.1-0.2v0c0.4-0.2,0.3-1,0.3-1s-0.6-2.7-0.8-3c-0.2-0.3-0.2-3.1-0.2-3.1s0.1-1.6,2.4-1
				C97.9,340.4,99.3,341.3,99.2,342.9z"/>
			<path id="XMLID_5_" class="st55" d="M96.5,347.6c0,0,0,0.8-0.3,1v0c-0.1,0-0.3,0.1-0.4,0.2c0,0-1.2-0.1-0.3-0.7
				c0.5-0.4,0-1.1,0-1.1s-0.6-1.6-0.7-1.9c0-0.3,0.1-1.3,0.1-1.3s-0.3-1.1,0.6-2.4c0,0,0,2.9,0.2,3.1
				C95.9,344.9,96.5,347.6,96.5,347.6z"/>
			<path id="XMLID_3_" class="st55" d="M95.4,347l-1.1,0.9c-0.6-0.4-0.6-0.2-0.6-0.2l-1.5,1.1c-0.4-0.7,0.2-1.5,0.2-1.5
				s0.7-0.9,0.4-2c-0.3-1-0.7-5.1-0.7-5.1s-0.3-2.2,0.5-5.2c0.1-0.6,0.4-1.1,0.6-1.6c-0.1,0.3-0.9,3.9-0.1,4.7
				c0.9,0.8,1.6,0.3,1.6,0.3s0.5-0.8,0.6-1.3c0,0.4-0.1,0.9-0.1,1.4c-0.1,2.4,0.3,2.8,0.3,2.8c-1,1.3-0.6,2.4-0.6,2.4
				s-0.1,1.1-0.1,1.3C94.8,345.5,95.4,347,95.4,347z"/>
		</g>
		<g id="XMLID_106_">
		</g>
	</g>
</g>
</svg>
