<?xml version="1.0" encoding="utf-8"?>
<!-- Generator: Adobe Illustrator 19.0.0, SVG Export Plug-In . SVG Version: 6.00 Build 0)  -->
<svg version="1.1" xmlns="http://www.w3.org/2000/svg" xmlns:xlink="http://www.w3.org/1999/xlink" x="0px" y="0px"
	 viewBox="0 0 481.9 368.5" style="enable-background:new 0 0 481.9 368.5;" xml:space="preserve">
<style type="text/css">
	.st0{fill:#F3BAB5;}
	.st1{fill:#F1AAA6;}
	.st2{fill:#D3D0E8;}
	.st3{fill:#E2C0A5;}
	.st4{fill:#CBE9E6;}
	.st5{fill:#DCB493;}
	.st6{fill:#BEE4E1;}
	.st7{fill:#FFE2BD;}
	.st8{fill:#FFDCAE;}
	.st9{fill:#CFE8D4;}
	.st10{fill:#C4E4CA;}
	.st11{fill:#E9F0BD;}
	.st12{fill:#E4ECAE;}
	.st13{fill:none;}
	.st14{fill:#594A42;}
	.st15{display:none;}
	.st16{display:inline;}
	.st17{fill:#B9A2AF;}
	.st18{fill:none;stroke:#000000;stroke-miterlimit:10;}
	.st19{fill:#FFFFFF;}
	.st20{fill:#D1D3D4;}
	.st21{fill:#BCBEC0;}
	.st22{fill:#A7A9AC;}
	.st23{fill:#303441;}
	.st24{fill:#444755;}
	.st25{fill:#3C3F4D;}
	.st26{fill:#2D303D;}
	.st27{fill:#333646;}
	.st28{fill:#2D313E;}
	.st29{fill:#8B5E3C;}
	.st30{fill:#FEEBC7;}
	.st31{fill:#EFCEAC;}
	.st32{fill:#333746;}
	.st33{fill:#E6EAED;}
	.st34{fill:#D4D8DD;}
	.st35{fill:#D4DBE1;}
	.st36{fill:#C3C7CF;}
	.st37{fill:#463F3B;}
	.st38{fill:#A28266;}
	.st39{fill:#F1F2F2;}
	.st40{fill:#414042;}
	.st41{fill:#E6E7E8;}
	.st42{fill:url(#XMLID_300_);}
	.st43{fill:#D5D8DB;}
	.st44{fill:#C2B59B;}
	.st45{fill:#A49C8D;}
	.st46{fill:#CDC1AC;}
	.st47{opacity:0.5;fill:#F1F2F2;}
	.st48{fill:#C3C0C6;}
	.st49{fill:#858791;}
	.st50{fill:#333747;}
	.st51{fill:#AEAFB6;}
	.st52{opacity:0.6;}
	.st53{opacity:0.4;fill:#FFFFFF;}
	.st54{opacity:0.32;}
	.st55{fill:#C7C8CA;}
</style>
<g id="kodama_x5F_head">
	<g id="XMLID_382_">
		<g id="XMLID_487_">
			<path id="XMLID_54_" class="st19" d="M109.6,319.6c0.9,2.9-1,5.9-1,5.9c-1.1,2-4.6,3.7-4.6,3.7c-1.6,0.1-5.7-1.3-5.7-1.3
				c-1.3-0.4-4.7-2.9-4.7-2.9c-0.5-0.3-0.9-0.7-1.3-1.2c1.1-0.2,2-1.2,2-2.4c0-1.3-1-2.4-2.3-2.4c-0.6,0-1.2,0.3-1.6,0.7
				c-0.1-0.2-0.1-0.4-0.2-0.5c-0.4-1.1-0.5-5.8-0.5-5.8c2.5-3.2,5.1-4.6,5.1-4.6c1.5-1,4.5-0.8,6.5-0.6c2.1,0.3,4.8,3.6,4.8,3.6
				S108.7,316.7,109.6,319.6z M105.1,324.3c0-0.7-0.6-1.3-1.3-1.3c-0.7,0-1.3,0.6-1.3,1.3s0.6,1.3,1.3,1.3
				C104.5,325.7,105.1,325.1,105.1,324.3z M104.7,312.8c0-1.1-0.8-1.9-1.9-1.9c-1,0-1.9,0.9-1.9,1.9c0,1.1,0.8,1.9,1.9,1.9
				C103.8,314.8,104.7,313.9,104.7,312.8z M97,316.1c0,0,1.5-0.2,1.3-1.1c-0.2-0.9-0.6-0.4-0.6-0.4c0.3,1.2-0.2,1.2-0.2,1.2
				c-0.7-0.2-1-0.1-1-0.1C96.5,316.1,97,316.1,97,316.1z"/>
			<path id="XMLID_42_" d="M103.8,323c0.7,0,1.3,0.6,1.3,1.3s-0.6,1.3-1.3,1.3c-0.7,0-1.3-0.6-1.3-1.3S103.1,323,103.8,323z"/>
			<path id="XMLID_41_" d="M102.8,310.9c1,0,1.9,0.9,1.9,1.9c0,1.1-0.8,1.9-1.9,1.9c-1,0-1.9-0.9-1.9-1.9
				C100.9,311.8,101.8,310.9,102.8,310.9z"/>
			<path id="XMLID_40_" class="st55" d="M98.3,327.9c0,0,4,1.5,5.7,1.3c-4.6,2-7.9,0.8-7.9,0.8c-2.9,0-6.9-4.1-6.9-4.1
				c-2.8-5.4-0.7-10.8-0.7-10.8c0.4-0.6,0.8-1.2,1.3-1.8c0,0,0.1,4.6,0.5,5.8c0.1,0.1,0.1,0.3,0.2,0.5c-0.4,0.4-0.7,1-0.7,1.7
				c0,1.3,1,2.4,2.3,2.4c0.1,0,0.2,0,0.3,0c0.4,0.4,0.8,0.8,1.3,1.2C93.6,325,96.9,327.5,98.3,327.9z"/>
			<path id="XMLID_39_" d="M98.3,315c0.2,0.9-1.3,1.1-1.3,1.1s-0.5,0.1-0.5-0.4c0,0,0.3-0.1,1,0.1c0,0,0.6,0.1,0.2-1.2
				C97.8,314.5,98.1,314.1,98.3,315z"/>
			<path id="XMLID_38_" d="M92,319.1c1.3,0,2.3,1.1,2.3,2.4c0,1.2-0.9,2.2-2,2.4c-1.1-1.3-1.6-3-1.9-4.1
				C90.8,319.3,91.4,319.1,92,319.1z"/>
			<path id="XMLID_37_" d="M92.3,323.8c-0.1,0-0.2,0-0.3,0c-1.3,0-2.3-1.1-2.3-2.4c0-0.7,0.3-1.3,0.7-1.7
				C90.7,320.8,91.2,322.5,92.3,323.8z"/>
		</g>
		<g id="XMLID_486_">
		</g>
	</g>
</g>
</svg>
