<?xml version="1.0" encoding="utf-8"?>
<!-- Generator: Adobe Illustrator 19.0.0, SVG Export Plug-In . SVG Version: 6.00 Build 0)  -->
<svg version="1.1" xmlns="http://www.w3.org/2000/svg" xmlns:xlink="http://www.w3.org/1999/xlink" x="0px" y="0px"
	 viewBox="0 0 481.9 368.5" style="enable-background:new 0 0 481.9 368.5;" xml:space="preserve">
<style type="text/css">
	.st0{fill:#F3BAB5;}
	.st1{fill:#F1AAA6;}
	.st2{fill:#D3D0E8;}
	.st3{fill:#E2C0A5;}
	.st4{fill:#CBE9E6;}
	.st5{fill:#DCB493;}
	.st6{fill:#BEE4E1;}
	.st7{fill:#FFE2BD;}
	.st8{fill:#FFDCAE;}
	.st9{fill:#CFE8D4;}
	.st10{fill:#C4E4CA;}
	.st11{fill:#E9F0BD;}
	.st12{fill:#E4ECAE;}
	.st13{fill:none;}
	.st14{fill:#594A42;}
	.st15{display:none;}
	.st16{display:inline;}
	.st17{fill:#B9A2AF;}
	.st18{fill:none;stroke:#000000;stroke-miterlimit:10;}
	.st19{fill:#FFFFFF;}
	.st20{fill:#D1D3D4;}
	.st21{fill:#BCBEC0;}
	.st22{fill:#A7A9AC;}
	.st23{fill:#303441;}
	.st24{fill:#444755;}
	.st25{fill:#3C3F4D;}
	.st26{fill:#2D303D;}
	.st27{fill:#333646;}
	.st28{fill:#2D313E;}
	.st29{fill:#8B5E3C;}
	.st30{fill:#FEEBC7;}
	.st31{fill:#EFCEAC;}
	.st32{fill:#333746;}
	.st33{fill:#E6EAED;}
	.st34{fill:#D4D8DD;}
	.st35{fill:#D4DBE1;}
	.st36{fill:#C3C7CF;}
	.st37{fill:#463F3B;}
	.st38{fill:#A28266;}
	.st39{fill:#F1F2F2;}
	.st40{fill:#414042;}
	.st41{fill:#E6E7E8;}
	.st42{fill:url(#XMLID_300_);}
	.st43{fill:#D5D8DB;}
	.st44{fill:#C2B59B;}
	.st45{fill:#A49C8D;}
	.st46{fill:#CDC1AC;}
	.st47{opacity:0.5;fill:#F1F2F2;}
	.st48{fill:#C3C0C6;}
	.st49{fill:#858791;}
	.st50{fill:#333747;}
	.st51{fill:#AEAFB6;}
	.st52{opacity:0.6;}
	.st53{opacity:0.4;fill:#FFFFFF;}
	.st54{opacity:0.32;}
	.st55{fill:#C7C8CA;}
</style>
<g id="leeves">
	<g id="XMLID_634_">
		<g id="XMLID_658_">
			<path id="XMLID_297_" class="st0" d="M457.5,191.7l-8.1,10.3l-0.1-0.1L411,188.9l-48.6,6.2l-33.3-5l-34.4-41.9l3.1-5.5l20.8-36.7
				h78.9c5.2,7.6,10.6,15,18.5,20.3c0.9,0.6,1.8,0.9,2.7,0.8c2.1,2.9,4.3,5.7,6.5,8.5c3.9,5,8.3,10.5,13.4,15
				c1.4,3.1,2.8,6.1,4.3,9.2c1.2,2.4,2.4,4.7,3.7,7C449.9,175.2,453.5,183.5,457.5,191.7z"/>
			<polygon id="XMLID_296_" class="st1" points="449.4,201.9 436.9,217.8 398.7,204.9 350,211.1 318.5,206.3 316.8,206 284.4,166.3
				287.9,160.3 290.3,155.9 294.7,148.2 329.1,190.1 362.4,195.1 411,188.9 449.3,201.8 			"/>
			<polygon id="XMLID_295_" class="st3" points="410.4,299.4 383.9,333 348.6,321.1 303.7,326.8 273,322.2 240.7,282.7 245.6,274.2
				260.7,247.4 285.1,247.4 337.4,247.4 360.2,271.9 389,279.9 			"/>
			<path id="XMLID_294_" class="st2" d="M355,92.8l9.7-12.4c3,1.9,6,3.8,9.1,5.6c5.5,3.4,11.1,6.8,16.7,10.1c2.5,3.2,4.7,6.5,7,9.8
				h-78.9l-20.8,36.7l-26.5,3.4l-8-1.2h0l-15.7-16.9h-21.9l-11-13.4l12.3-15.6l-21.3-19.4l5.3-9.4c2.9-0.8,5.9-1.6,8.8-2.5
				c0.9-0.3,1.9-0.6,2.8-0.9l17,20.9l30.7,4.7l44.9-5.7l35.3,11.9L355,92.8z"/>
			<polygon id="XMLID_293_" class="st5" points="383.9,333 369.9,350.7 334.6,338.8 289.7,344.5 259,339.8 235.9,311.5 229.1,303.2
				240.7,282.7 273,322.2 303.7,326.8 348.6,321.1 			"/>
			<path id="XMLID_292_" class="st4" d="M364.8,80.5L355,92.8l-35.2-11.9l-44.9,5.7L244.2,82l-14.4-17.8c3.4-1.4,6.7-3.2,9.4-5.7
				c0.1-0.1,0.2-0.2,0.2-0.3c30,12.3,64.7,0.5,94.9,12.5c0.8,0.3,1.6,0.4,2.3,0.3c7.4,2.4,14.7,5,22.1,7.5c1.2,0.4,2.4,0.8,3.6,1.2
				c0.6,0.2,1.2,0.2,1.7,0.2C364.3,80.2,364.5,80.3,364.8,80.5z"/>
			<path id="XMLID_291_" class="st6" d="M319.8,80.9L355,92.8l-4.5,5.7l-35.3-11.9l-44.9,5.7l-30.7-4.7l-17-20.9
				c2.4-0.8,4.9-1.6,7.3-2.6L244.2,82l30.7,4.7L319.8,80.9z"/>
			<polygon id="XMLID_290_" class="st7" points="188.1,148.2 204.1,127.9 225.6,127.9 247.5,127.9 263.2,144.8 263.3,144.8
				274.1,156.5 277.8,157.5 277.9,157.5 287.9,160.3 284.4,166.3 316.8,206 318.5,206.3 295,235.3 294.9,235.2 254.4,221.5
				202.8,228.1 174.2,223.7 158.9,207.4 155,207.4 130.6,177.4 130.2,177.2 145.1,151 177.3,161.9 			"/>
			<polygon id="XMLID_289_" class="st2" points="297.8,142.7 294.7,148.2 290.3,155.9 277.9,157.5 277.8,157.5 274.1,156.5
				263.3,144.8 271.3,146 			"/>
			<polygon id="XMLID_288_" class="st8" points="295,235.3 285.1,247.4 244.3,234.4 197.7,240.3 186.8,237.3 174.2,223.7
				202.8,228.1 254.4,221.5 294.9,235.2 			"/>
			<path id="XMLID_287_" class="st9" d="M240.7,282.7l-11.6,20.5l6.8,8.3l-8.3,4.9l-43.3-14.7l-54.8,7L91.9,303L64,268.8v0
				c-0.1-3.9-0.3-7.9-0.4-11.8c-0.1-1.6-0.9-2.9-2-3.7v-1.1c0.6-2.5,1.1-5,1.6-7.5l0,0l21.1-37.3h48.8H155h3.9l15.2,16.4l12.6,13.5
				l10.9,3L222,247l23.6,27.2L240.7,282.7z"/>
			<path id="XMLID_286_" class="st10" d="M227.6,316.4l-29,17l-43.1-14.5l-54.8,7l-37.5-5.7l-0.2-0.2c1.7-17,1.6-34.1,1.1-51.2
				L91.9,303l37.5,5.7l54.8-7L227.6,316.4z"/>
			<path id="XMLID_285_" class="st11" d="M226.9,98.9l-12.3,15.6l-10.6,13.4l-16,20.3l-43.3-14.6l-43.4,5.5
				c11.8-14.2,25.9-27.7,41.5-39c1.1,1.3,2.9,2.1,5,1.7c9.6-1.8,24.8-5.8,31-15.1c2.4-1.1,4.8-2.2,7.2-3.4c2.8-1.4,2.9-4.5,1.7-6.8
				c2.4-0.8,4.9-1.6,7.3-2.3c0.5-0.1,0.9-0.3,1.4-0.4l4.2,1.2l4.9,4.4L226.9,98.9z"/>
			<polygon id="XMLID_284_" class="st2" points="214.6,114.5 225.6,127.9 204.1,127.9 			"/>
			<path id="XMLID_283_" class="st12" d="M188.1,148.2l-10.8,13.7L145.1,151l-11.1-3.7l-42.7,5.4c3.1-4.5,6.3-8.9,9.8-13.1
				c0.1-0.2,0.3-0.3,0.4-0.5l43.4-5.5L188.1,148.2z"/>
			<polygon id="XMLID_282_" class="st8" points="130.6,177.4 155,207.4 133.1,207.4 121.3,192.9 130.2,177.2 			"/>
			<path id="XMLID_281_" class="st10" d="M84.3,207.4l-21.1,37.3c1.7-8.9,2.7-17.9,1.9-26.8c0.9-3.6,2.1-7,3.4-10.5H84.3z"/>
		</g>
		<g id="XMLID_659_">
		</g>
	</g>
	<path id="XMLID_633_" class="st13" d="M363.4,153.1"/>
</g>

</svg>
