<?xml version="1.0" encoding="utf-8"?>
<!-- Generator: Adobe Illustrator 19.0.0, SVG Export Plug-In . SVG Version: 6.00 Build 0)  -->
<svg version="1.1" xmlns="http://www.w3.org/2000/svg" xmlns:xlink="http://www.w3.org/1999/xlink" x="0px" y="0px"
	 viewBox="0 0 481.9 368.5" style="enable-background:new 0 0 481.9 368.5;" xml:space="preserve">
<style type="text/css">
	.st0{fill:#F3BAB5;}
	.st1{fill:#F1AAA6;}
	.st2{fill:#D3D0E8;}
	.st3{fill:#E2C0A5;}
	.st4{fill:#CBE9E6;}
	.st5{fill:#DCB493;}
	.st6{fill:#BEE4E1;}
	.st7{fill:#FFE2BD;}
	.st8{fill:#FFDCAE;}
	.st9{fill:#CFE8D4;}
	.st10{fill:#C4E4CA;}
	.st11{fill:#E9F0BD;}
	.st12{fill:#E4ECAE;}
	.st13{fill:none;}
	.st14{fill:#594A42;}
	.st15{display:none;}
	.st16{display:inline;}
	.st17{fill:#B9A2AF;}
	.st18{fill:none;stroke:#000000;stroke-miterlimit:10;}
	.st19{fill:#FFFFFF;}
	.st20{fill:#D1D3D4;}
	.st21{fill:#BCBEC0;}
	.st22{fill:#A7A9AC;}
	.st23{fill:#303441;}
	.st24{fill:#444755;}
	.st25{fill:#3C3F4D;}
	.st26{fill:#2D303D;}
	.st27{fill:#333646;}
	.st28{fill:#2D313E;}
	.st29{fill:#8B5E3C;}
	.st30{fill:#FEEBC7;}
	.st31{fill:#EFCEAC;}
	.st32{fill:#333746;}
	.st33{fill:#E6EAED;}
	.st34{fill:#D4D8DD;}
	.st35{fill:#D4DBE1;}
	.st36{fill:#C3C7CF;}
	.st37{fill:#463F3B;}
	.st38{fill:#A28266;}
	.st39{fill:#F1F2F2;}
	.st40{fill:#414042;}
	.st41{fill:#E6E7E8;}
	.st42{fill:url(#XMLID_300_);}
	.st43{fill:#D5D8DB;}
	.st44{fill:#C2B59B;}
	.st45{fill:#A49C8D;}
	.st46{fill:#CDC1AC;}
	.st47{opacity:0.5;fill:#F1F2F2;}
	.st48{fill:#C3C0C6;}
	.st49{fill:#858791;}
	.st50{fill:#333747;}
	.st51{fill:#AEAFB6;}
	.st52{opacity:0.6;}
	.st53{opacity:0.4;fill:#FFFFFF;}
	.st54{opacity:0.32;}
	.st55{fill:#C7C8CA;}
</style>
<g id="window">
	<g id="XMLID_180_">
		<g id="XMLID_239_">
			<path id="XMLID_276_" class="st19" d="M448.4,157.5c0,0,33,48,32.5,118s0,93,0,93H374.7V348V210.5V108.8V84.3
				C401.8,99.2,428.6,122.2,448.4,157.5z M389.7,253.7h72.5c0,0-6.3-55.3-29-87.8h-43.5V253.7z M462,347v-85.7h-72.2V347H462z
				 M389.7,160.5h39.7c0,0-7.8-18.2-39.7-44.3V160.5z"/>
			<path id="XMLID_275_" class="st20" d="M374.7,348v20.5H367v-28h1.7v7.5c0.5,0.3,0.9,0.5,1.3,0.6c1.6,0.4,2.8-0.6,2.8-0.6H374.7z"
				/>
			<path id="XMLID_274_" class="st20" d="M374.7,210.5V348h-1.9v-7.5v-2.7v-6.2v-1c-2.2-1.7-4.1,0-4.1,0v7.3H367V220.4l1,0v7.5
				c0.5,0.3,0.9,0.5,1.3,0.6c1.6,0.4,2.8-0.6,2.8-0.6v-7.5v-2.7v-6.2v-1H374.7z"/>
			<path id="XMLID_267_" class="st20" d="M370,109.4c1.6,0.4,2.8-0.6,2.8-0.6h1.9v101.7h-2.6c-2.2-1.7-4.1,0-4.1,0v7.3h-1V101.4h1.7
				v7.5C369.1,109.1,369.6,109.3,370,109.4z"/>
			<path id="XMLID_264_" class="st20" d="M374.7,84.3v24.6h-1.9v-7.5v-2.7v-6.2v-1.1c-2.2-1.7-4.1,0-4.1,0v7.3H367V80.2
				C369.6,81.5,372.1,82.8,374.7,84.3z"/>
			<path id="XMLID_263_" class="st21" d="M372.8,340.5v7.5c0,0-1.2,1-2.8,0.6v-7.4v0C371.4,341.4,372.8,340.5,372.8,340.5z"/>
			<path id="XMLID_262_" class="st21" d="M372.8,337.8v2.7c0,0-1.4,0.9-2.8,0.6c0,0-0.1,0-0.1,0c-0.4-0.1-0.8-0.3-1.2-0.6v-2.7
				c0,0,0.5,0.4,1.3,0.6C370.8,338.7,371.8,338.7,372.8,337.8z"/>
			<path id="XMLID_261_" class="st21" d="M372.8,331.6v6.2c-1,0.9-2,0.9-2.8,0.6v-6.9H372.8z"/>
			<path id="XMLID_260_" class="st22" d="M372.8,330.6v1H370v6.9c-0.8-0.2-1.3-0.6-1.3-0.6v-7.3
				C368.7,330.6,370.6,328.9,372.8,330.6z"/>
			<path id="XMLID_259_" class="st21" d="M372.8,101.4v7.5c0,0-1.2,1-2.8,0.6V102v0C371.4,102.2,372.8,101.4,372.8,101.4z"/>
			<path id="XMLID_258_" class="st21" d="M372.8,98.7v2.7c0,0-1.4,0.9-2.8,0.6c0,0-0.1,0-0.1,0c-0.4-0.1-0.8-0.3-1.2-0.6v-2.7
				c0,0,0.5,0.4,1.3,0.7C370.8,99.6,371.8,99.6,372.8,98.7z"/>
			<path id="XMLID_257_" class="st21" d="M372.8,92.5v6.2c-1,0.9-2,0.9-2.8,0.7v-6.8H372.8z"/>
			<path id="XMLID_256_" class="st22" d="M372.8,91.4v1.1H370v6.8c-0.8-0.2-1.3-0.7-1.3-0.7v-7.3C368.7,91.4,370.6,89.8,372.8,91.4z
				"/>
			<path id="XMLID_248_" class="st21" d="M372.1,220.4v7.5c0,0-1.2,1-2.8,0.6v-7.4v0C370.7,221.3,372.1,220.4,372.1,220.4z"/>
			<path id="XMLID_247_" class="st21" d="M372.1,217.7v2.7c0,0-1.4,0.9-2.8,0.6c0,0-0.1,0-0.1,0c-0.4-0.1-0.8-0.3-1.2-0.6v-2.7
				c0,0,0.5,0.4,1.3,0.7C370.1,218.6,371.1,218.6,372.1,217.7z"/>
			<path id="XMLID_246_" class="st21" d="M372.1,211.5v6.2c-1,0.9-2,0.9-2.8,0.7v0v-6.9H372.1z"/>
			<path id="XMLID_245_" class="st22" d="M372.1,210.5v1h-2.8v6.9v0c-0.8-0.2-1.3-0.7-1.3-0.7v-7.3
				C368,210.5,369.9,208.8,372.1,210.5z"/>
			<path id="XMLID_243_" class="st22" d="M370,341.1v7.4c-0.4-0.1-0.9-0.3-1.3-0.6v-7.5c0.4,0.3,0.8,0.5,1.2,0.6
				C369.9,341.1,370,341.1,370,341.1L370,341.1z"/>
			<path id="XMLID_242_" class="st22" d="M370,102v7.4c-0.4-0.1-0.9-0.3-1.3-0.6v-7.5c0.4,0.3,0.8,0.5,1.2,0.6
				C369.9,102,370,102,370,102L370,102z"/>
			<path id="XMLID_216_" class="st22" d="M369.3,221.1v7.4c-0.4-0.1-0.9-0.3-1.3-0.6v-7.5c0.4,0.3,0.8,0.5,1.2,0.6
				C369.3,221,369.3,221,369.3,221.1L369.3,221.1z"/>
			<rect id="XMLID_215_" x="367" y="337.8" class="st21" width="1.7" height="2.7"/>
			<rect id="XMLID_186_" x="367" y="98.7" class="st21" width="1.7" height="2.7"/>
			<polygon id="XMLID_185_" class="st21" points="368,217.7 368,220.4 367,220.4 367,217.7 			"/>
			<path id="XMLID_159_" class="st19" d="M367,340.5v28H263.6v-312c0,0,51-2.5,103.4,23.7v0v18.5v2.7v116.4v2.6v117.4V340.5z
				 M350.7,347v-85.7h-72.2V347H350.7z M350.7,253.7V168h-72.2v85.7H350.7z M349.9,160.5V92.3c0,0-32.2-15.8-71.3-18.8v87H349.9z
				 M272.9,235.7v-14.2h-1.8v-4.1h-3.4v4.1h-1.8v14.2h1.8v2.8h3.4v-2.8H272.9z"/>
			<rect id="XMLID_158_" x="271.1" y="221.5" class="st22" width="1.8" height="14.2"/>
			<rect id="XMLID_157_" x="267.7" y="235.7" class="st21" width="3.4" height="2.8"/>
			<rect id="XMLID_156_" x="267.7" y="221.5" class="st21" width="3.4" height="14.2"/>
			<rect id="XMLID_155_" x="267.7" y="217.4" class="st21" width="3.4" height="4.1"/>
			<rect id="XMLID_154_" x="265.9" y="221.5" class="st22" width="1.8" height="14.2"/>
			<path id="XMLID_149_" class="st19" d="M263.6,56.5v312H160.2v-28v-2.7V220.4v-2.6V101.4v-2.7V80.2v0
				C212.7,54.1,263.6,56.5,263.6,56.5z M248.7,347v-85.7h-72.2V347H248.7z M248.7,253.7V168h-72.2v85.7H248.7z M248.7,160.5v-87
				c-39.2,3-71.3,18.8-71.3,18.8v68.2H248.7z"/>
			<path id="XMLID_148_" class="st20" d="M160.2,340.5v28h-7.7V348h1.9c0,0,1.2,1,2.8,0.6c0.4-0.1,0.9-0.3,1.3-0.6v-7.5H160.2z"/>
			<rect id="XMLID_147_" x="158.5" y="337.8" class="st21" width="1.7" height="2.7"/>
			<path id="XMLID_146_" class="st20" d="M160.2,220.4v117.4h-1.7v-7.3c0,0-1.9-1.7-4.1,0v1v6.2v2.7v0v7.5h-1.9V210.5h2.6v1v6.2v2.7
				v7.5c0,0,1.2,1,2.8,0.6c0.4-0.1,0.9-0.3,1.3-0.6v-7.5L160.2,220.4z"/>
			<polygon id="XMLID_145_" class="st21" points="160.2,217.7 160.2,220.4 159.2,220.4 159.2,217.7 			"/>
			<path id="XMLID_144_" class="st20" d="M157.2,109.4c0.4-0.1,0.9-0.3,1.3-0.6v-7.5h1.7v116.4h-1v-7.3c0,0-1.9-1.7-4.1,0h-2.6
				V108.8h1.9C154.4,108.8,155.6,109.8,157.2,109.4z"/>
			<rect id="XMLID_143_" x="158.5" y="98.7" class="st21" width="1.7" height="2.7"/>
			<path id="XMLID_141_" class="st20" d="M160.2,80.2v18.5h-1.7v-7.3c0,0-1.9-1.7-4.1,0v1.1v6.2v2.7v0v7.4h-1.9V84.3
				C155.1,82.8,157.7,81.5,160.2,80.2z"/>
			<path id="XMLID_140_" class="st22" d="M159.2,220.4v7.5c-0.5,0.3-0.9,0.5-1.3,0.6v-7.4v0c0,0,0.1,0,0.1,0
				C158.4,220.9,158.8,220.7,159.2,220.4z"/>
			<path id="XMLID_139_" class="st21" d="M159.2,217.7v2.7c-0.4,0.3-0.8,0.5-1.2,0.6c0,0-0.1,0-0.1,0c-1.4,0.2-2.8-0.6-2.8-0.6v-2.7
				c1,0.9,2,0.9,2.8,0.7C158.7,218.2,159.2,217.7,159.2,217.7z"/>
			<path id="XMLID_138_" class="st22" d="M159.2,210.5v7.3c0,0-0.5,0.4-1.3,0.7v0v-6.9h-2.8v-1C157.3,208.8,159.2,210.5,159.2,210.5
				z"/>
			<path id="XMLID_137_" class="st22" d="M158.5,340.5v7.5c-0.4,0.3-0.9,0.5-1.3,0.6v-7.4v0c0,0,0.1,0,0.1,0
				C157.7,341,158.2,340.8,158.5,340.5z"/>
			<path id="XMLID_136_" class="st21" d="M158.5,337.8v2.7c-0.4,0.3-0.8,0.5-1.2,0.6c0,0-0.1,0-0.1,0c-1.4,0.3-2.8-0.6-2.8-0.6v0
				v-2.7c1,0.9,2,0.9,2.8,0.6C158,338.3,158.5,337.8,158.5,337.8z"/>
			<path id="XMLID_134_" class="st22" d="M158.5,330.6v7.3c0,0-0.5,0.4-1.3,0.6v-6.9l-2.8,0v-1C156.7,328.9,158.5,330.6,158.5,330.6
				z"/>
			<path id="XMLID_133_" class="st22" d="M158.5,101.4v7.5c-0.4,0.3-0.9,0.5-1.3,0.6V102v0c0,0,0.1,0,0.1,0
				C157.7,101.9,158.2,101.7,158.5,101.4z"/>
			<path id="XMLID_132_" class="st21" d="M158.5,98.7v2.7c-0.4,0.3-0.8,0.5-1.2,0.6c0,0-0.1,0-0.1,0c-1.4,0.2-2.8-0.6-2.8-0.6v0
				v-2.7c1,0.9,2,0.9,2.8,0.7C158,99.1,158.5,98.7,158.5,98.7z"/>
			<path id="XMLID_131_" class="st22" d="M158.5,91.4v7.3c0,0-0.5,0.4-1.3,0.7v-6.8h-2.8v-1.1C156.7,89.8,158.5,91.4,158.5,91.4z"/>
			<path id="XMLID_130_" class="st21" d="M157.9,221.1v7.4c-1.6,0.4-2.8-0.6-2.8-0.6v-7.5C155.1,220.4,156.5,221.3,157.9,221.1
				L157.9,221.1z"/>
			<path id="XMLID_129_" class="st21" d="M157.9,218.4L157.9,218.4c-0.8,0.2-1.8,0.2-2.8-0.6v-6.2h2.8V218.4z"/>
			<path id="XMLID_128_" class="st21" d="M157.2,341.1v7.4c-1.6,0.4-2.8-0.6-2.8-0.6v-7.5C154.4,340.5,155.8,341.4,157.2,341.1
				L157.2,341.1z"/>
			<path id="XMLID_127_" class="st21" d="M157.2,331.6v6.9c-0.8,0.2-1.8,0.2-2.8-0.6v-6.2L157.2,331.6z"/>
			<path id="XMLID_124_" class="st21" d="M157.2,102v7.4c-1.6,0.4-2.8-0.6-2.8-0.6v-7.4C154.4,101.4,155.8,102.2,157.2,102
				L157.2,102z"/>
			<path id="XMLID_123_" class="st21" d="M157.2,92.5v6.8c-0.8,0.2-1.8,0.2-2.8-0.7v-6.2H157.2z"/>
			<path id="XMLID_72_" class="st19" d="M152.5,348v20.5H46.4c0,0,0.5-23,0-93s32.5-118,32.5-118c19.8-35.3,46.6-58.3,73.7-73.2
				v24.6v101.7V348z M137.5,253.7v-87.8H94c-22.7,32.5-29,87.8-29,87.8H137.5z M137.5,160.5v-44.3c-31.8,26.2-39.7,44.3-39.7,44.3
				H137.5z M137.4,347v-85.7H65.2V347H137.4z"/>
		</g>
		<g id="XMLID_241_">
		</g>
	</g>
</g>
</svg>
