<?xml version="1.0" encoding="utf-8"?>
<!-- Generator: Adobe Illustrator 19.0.0, SVG Export Plug-In . SVG Version: 6.00 Build 0)  -->
<svg version="1.1" xmlns="http://www.w3.org/2000/svg" xmlns:xlink="http://www.w3.org/1999/xlink" x="0px" y="0px"
	 viewBox="0 0 481.9 368.5" style="enable-background:new 0 0 481.9 368.5;" xml:space="preserve">
<style type="text/css">
	.st0{fill:#F3BAB5;}
	.st1{fill:#F1AAA6;}
	.st2{fill:#D3D0E8;}
	.st3{fill:#E2C0A5;}
	.st4{fill:#CBE9E6;}
	.st5{fill:#DCB493;}
	.st6{fill:#BEE4E1;}
	.st7{fill:#FFE2BD;}
	.st8{fill:#FFDCAE;}
	.st9{fill:#CFE8D4;}
	.st10{fill:#C4E4CA;}
	.st11{fill:#E9F0BD;}
	.st12{fill:#E4ECAE;}
	.st13{fill:none;}
	.st14{fill:#594A42;}
	.st15{display:none;}
	.st16{display:inline;}
	.st17{fill:#B9A2AF;}
	.st18{fill:none;stroke:#000000;stroke-miterlimit:10;}
	.st19{fill:#FFFFFF;}
	.st20{fill:#D1D3D4;}
	.st21{fill:#BCBEC0;}
	.st22{fill:#A7A9AC;}
	.st23{fill:#303441;}
	.st24{fill:#444755;}
	.st25{fill:#3C3F4D;}
	.st26{fill:#2D303D;}
	.st27{fill:#333646;}
	.st28{fill:#2D313E;}
	.st29{fill:#8B5E3C;}
	.st30{fill:#FEEBC7;}
	.st31{fill:#EFCEAC;}
	.st32{fill:#333746;}
	.st33{fill:#E6EAED;}
	.st34{fill:#D4D8DD;}
	.st35{fill:#D4DBE1;}
	.st36{fill:#C3C7CF;}
	.st37{fill:#463F3B;}
	.st38{fill:#A28266;}
	.st39{fill:#F1F2F2;}
	.st40{fill:#414042;}
	.st41{fill:#E6E7E8;}
	.st42{fill:url(#XMLID_300_);}
	.st43{fill:#D5D8DB;}
	.st44{fill:#C2B59B;}
	.st45{fill:#A49C8D;}
	.st46{fill:#CDC1AC;}
	.st47{opacity:0.5;fill:#F1F2F2;}
	.st48{fill:#C3C0C6;}
	.st49{fill:#858791;}
	.st50{fill:#333747;}
	.st51{fill:#AEAFB6;}
	.st52{opacity:0.6;}
	.st53{opacity:0.4;fill:#FFFFFF;}
	.st54{opacity:0.32;}
	.st55{fill:#C7C8CA;}
</style>
<g id="body">
	<g id="XMLID_712_">
		<g id="XMLID_732_">
			<path id="XMLID_68_" class="st23" d="M337.8,152.3c1.5,3.2,2.6,8.8-3.8,13.7H298c0,0,4.7-2.5,5.3-4.4v-0.1l3.8-4.5h23
				C330.1,157,335.6,157.2,337.8,152.3z"/>
			<path id="XMLID_67_" class="st24" d="M336.4,149.7c0,0,0.8,1,1.5,2.5c-2.3,5-7.7,4.7-7.7,4.7h-23l8.6-10l7.4-8.7L336.4,149.7z"/>
			<polygon id="XMLID_64_" class="st25" points="323,138.3 315.6,147 315.3,146.7 314.5,145.8 303.5,145.8 303.5,131.9 309.5,126.6
							"/>
			<path id="XMLID_63_" class="st25" d="M315.6,147l-8.6,10h-3.5c0,0,0-0.1,0-0.1v-10.3h11.8L315.6,147z"/>
			<polygon id="XMLID_62_" class="st26" points="314.5,145.8 315.3,146.7 303.5,146.7 303.5,145.8 			"/>
			<polygon id="XMLID_61_" class="st27" points="309.5,126.6 303.5,131.9 303.5,121.5 			"/>
			<path id="XMLID_60_" class="st28" d="M307.1,157l-3.8,4.5c0.4-0.9,0.3-4,0.3-4.5H307.1z"/>
			<path id="XMLID_59_" class="st29" d="M233.9,79c-0.5,0.5-0.7,0.8-0.7,0.8c-0.1-2.4,2.7-5,2.7-5c-7.7,1.8-7.2,14.3-6.8,18.6
				c0,0-3.4-9.3-4.7-9.9c0,0,0.1-3-0.5-3.6c-0.5-0.6-0.8-1-0.8-1c-3.4-6.5,3.1-13,3.1-13c-1.3-0.4-3.5,3.3-3.5,3.3
				c-0.7-3.7,5-7.4,5-7.4c-2.3-0.4-5.7,0.9-5.7,0.9c1.8-3.5,8.2-4,8.2-4c-3.7-1.8-4.2-4.2-4.2-4.2c3.1,1,8.9,0.8,8.9,0.8
				c-5.7-2.4-3.5-4.2-3.5-4.2c2.3,1.6,8.2,1.6,8.2,1.6c-5.1-3.7-1.6-4.5-1.6-4.5c1.6,2.3,7.7,3.3,7.7,3.3l4,0.4l-3.4-4.4l13.3,3.8
				l-2.1-3.8c4.4,0.7,11.6,6.5,11.6,6.5l-0.1,3l5.4,0.8l-2.3,0.8c9.5,6.8,7.1,18.4,7.1,18.4l-1.3-2.4V82l-0.9-1.1l0.9,7.2l-1-1.4
				l-1.6,8.9c0.1-0.8-0.6-2.2-0.9-4.1c-0.7-5.4-1.2-12.1-1.4-14.7c0-0.7-0.1-1.1-0.1-1.1l-15.6,1.8l2.3-3c-0.4,0-0.8,0.1-1.2,0.1
				l0.9-1.2c-4.8,0.2-8.2,2.6-9.9,4.2c0.6-1.1,1.2-2.1,1.2-2.1l-1.2,0.5c0.5-0.9,0.9-1.7,0.9-1.7L246,76l1.3-1.6
				c-0.4-0.1-0.8-0.1-1.2,0l0.9-1.1c-3-0.7-6.4,4.5-6.4,4.5c-0.1-0.1-0.2-0.3-0.3-0.4c0.1-1.3,1.6-2.3,1.6-2.3c-0.5,0-1,0.1-1.6,0.2
				c0.5-0.8,1.3-1.4,1.3-1.4C238.9,73.8,235.4,77.3,233.9,79z"/>
			<path id="XMLID_58_" class="st30" d="M274.4,91.4c0.3,1.9,1,3.3,0.9,4.1l-46.3-2c-0.4-4.3-0.9-16.9,6.8-18.6c0,0-2.8,2.6-2.7,5
				c0,0,0.3-0.3,0.7-0.8c-0.3,0.6-0.5,1.3-0.4,2c0,0,3.7-4.5,6.9-5.6c-0.4,0.6-0.5,1.3,0,2.1c0,0.5,0.1,1,0.6,1.5
				c0,0,2.5-3.9,5.2-4.5l-1.9,2.4L246,76l-1.6,1.9l4.9-2.2c-0.5,1-1.1,2.3-1.2,2.9c0,0,0.4-0.5,1.3-1.3c-0.5,0.9-0.9,1.9-1,2.4
				c0,0,3.6-4.5,9.9-5.3l-2.3,3.1l1.3-0.1l-1,1.3l16.6-1.9C273.2,79.3,273.7,86.1,274.4,91.4z"/>
			<path id="XMLID_51_" class="st31" d="M273,76.7l-16.6,1.9l1-1.3l15.6-1.8C272.9,75.7,273,76.1,273,76.7z"/>
			<path id="XMLID_50_" class="st29" d="M259.6,74.4l-2.3,3l-1.3,0.1l2.3-3.1C258.8,74.4,259.2,74.4,259.6,74.4z"/>
			<path id="XMLID_49_" class="st31" d="M259.3,73.3l-0.9,1.2c-6.3,0.8-9.9,5.3-9.9,5.3c0.1-0.5,0.5-1.5,1-2.4
				C251.1,75.9,254.6,73.5,259.3,73.3z"/>
			<path id="XMLID_48_" class="st29" d="M249.4,75.8l1.2-0.5c0,0-0.6,1-1.2,2.1c-0.8,0.7-1.3,1.3-1.3,1.3
				C248.2,78.1,248.8,76.9,249.4,75.8z"/>
			<path id="XMLID_47_" class="st31" d="M246,76l4.2-1.9c0,0-0.4,0.8-0.9,1.7l-4.9,2.2L246,76z"/>
			<path id="XMLID_46_" class="st29" d="M247.3,74.5L246,76l-1.9,0.8l1.9-2.4C246.5,74.4,246.9,74.4,247.3,74.5z"/>
			<path id="XMLID_45_" class="st31" d="M247,73.3l-0.9,1.1c-2.6,0.6-5.2,4.5-5.2,4.5c-0.5-0.5-0.7-1-0.6-1.5
				c0.1,0.1,0.2,0.3,0.3,0.4C240.6,77.8,244,72.6,247,73.3z"/>
			<path id="XMLID_44_" class="st29" d="M240.4,75.4c0.5-0.2,1.1-0.3,1.6-0.2c0,0-1.5,1-1.6,2.3C239.8,76.7,240,76,240.4,75.4z"/>
			<path id="XMLID_43_" class="st31" d="M233.9,79c1.5-1.7,5.1-5.2,7.8-5c0,0-0.8,0.6-1.3,1.4c-3.3,1.1-6.9,5.6-6.9,5.6
				C233.4,80.3,233.6,79.6,233.9,79z"/>
			<path id="XMLID_34_" class="st28" d="M205.2,165.9h-37.9c-6.4-4.9-5.2-10.5-3.7-13.7c2.3,5,7.7,4.7,7.7,4.7h26.6
				c0,0,0,3.8,0.1,4.3c0.2,0.5,1,2.4,1.5,2.7L205.2,165.9z"/>
			<path id="XMLID_33_" class="st32" d="M197.9,146.7v10.3h-26.6c0,0-5.5,0.3-7.7-4.7c0.7-1.6,1.5-2.5,1.5-2.5l32.8-28.3v24.4h-0.1
				h-10.9l-0.8,0.9H197.9L197.9,146.7z"/>
			<polygon id="XMLID_32_" class="st28" points="197.9,145.8 197.9,146.7 197.9,146.7 186.1,146.7 186.9,145.8 197.9,145.8 			"/>
		</g>
		<g id="XMLID_731_">
		</g>
	</g>
</g>
</svg>
