<?xml version="1.0" encoding="utf-8"?>
<!-- Generator: Adobe Illustrator 19.0.0, SVG Export Plug-In . SVG Version: 6.00 Build 0)  -->
<svg version="1.1" xmlns="http://www.w3.org/2000/svg" xmlns:xlink="http://www.w3.org/1999/xlink" x="0px" y="0px"
	 viewBox="0 0 481.9 368.5" style="enable-background:new 0 0 481.9 368.5;" xml:space="preserve">
<style type="text/css">
	.st0{fill:#F3BAB5;}
	.st1{fill:#F1AAA6;}
	.st2{fill:#D3D0E8;}
	.st3{fill:#E2C0A5;}
	.st4{fill:#CBE9E6;}
	.st5{fill:#DCB493;}
	.st6{fill:#BEE4E1;}
	.st7{fill:#FFE2BD;}
	.st8{fill:#FFDCAE;}
	.st9{fill:#CFE8D4;}
	.st10{fill:#C4E4CA;}
	.st11{fill:#E9F0BD;}
	.st12{fill:#E4ECAE;}
	.st13{fill:none;}
	.st14{fill:#594A42;}
	.st15{display:none;}
	.st16{display:inline;}
	.st17{fill:#B9A2AF;}
	.st18{fill:none;stroke:#000000;stroke-miterlimit:10;}
	.st19{fill:#FFFFFF;}
	.st20{fill:#D1D3D4;}
	.st21{fill:#BCBEC0;}
	.st22{fill:#A7A9AC;}
	.st23{fill:#303441;}
	.st24{fill:#444755;}
	.st25{fill:#3C3F4D;}
	.st26{fill:#2D303D;}
	.st27{fill:#333646;}
	.st28{fill:#2D313E;}
	.st29{fill:#8B5E3C;}
	.st30{fill:#FEEBC7;}
	.st31{fill:#EFCEAC;}
	.st32{fill:#333746;}
	.st33{fill:#E6EAED;}
	.st34{fill:#D4D8DD;}
	.st35{fill:#D4DBE1;}
	.st36{fill:#C3C7CF;}
	.st37{fill:#463F3B;}
	.st38{fill:#A28266;}
	.st39{fill:#F1F2F2;}
	.st40{fill:#414042;}
	.st41{fill:#E6E7E8;}
	.st42{fill:url(#XMLID_300_);}
	.st43{fill:#D5D8DB;}
	.st44{fill:#C2B59B;}
	.st45{fill:#A49C8D;}
	.st46{fill:#CDC1AC;}
	.st47{opacity:0.5;fill:#F1F2F2;}
	.st48{fill:#C3C0C6;}
	.st49{fill:#858791;}
	.st50{fill:#333747;}
	.st51{fill:#AEAFB6;}
	.st52{opacity:0.6;}
	.st53{opacity:0.4;fill:#FFFFFF;}
	.st54{opacity:0.32;}
	.st55{fill:#C7C8CA;}
</style>
<g id="bucket">
	<g id="XMLID_595_">
		<g id="XMLID_623_">
			<path id="XMLID_87_" class="st44" d="M402,152.5c0.4,2-1.5,4.1-1.5,4.3s-2.9,2.8-2.9,2.8L394,163c-0.5,0.4-0.9,0.6-0.9,0.6
				c-0.2,0-0.4,0.1-0.5,0.2c-0.2,0.2-0.3,0.4-0.3,0.4c0,0,0,0.1-0.1,0.1c-0.7,0.8-2,1.5-3.1,1.9c-1.4,0-2.7,0-3.8,0v-20.9
				c6.6,0,9.5,0,9.5,0s-0.1,2.4,0,3.5c0,0.1,0,0.2,0,0.3v0l-0.1,3.5c0,0,1.6-2.4,3.5-2.5c1.8-0.1,0.7-0.7,0.6-0.8
				c0.9,0.1,1.4,0.4,1.4,0.4C402,150.8,402,152.5,402,152.5z M399.9,156.8c1-1.2,1.4-3.2,1.4-3.2c-0.3-2-0.7-2.6-1.4-2.8
				c-0.7-0.2-1.5,0.1-1.5,0.1v0c-0.2,0-0.5,0-0.9,0.2c-0.9,0.3-1.7,1.5-1.7,1.5c-0.9,2-1.2,1.8-1.2,1.8s-0.6,3.1-0.8,4.5
				c0,0.2,0,0.3,0,0.4c0,0,0,0,0,0l-1.1,3.7C392.9,163,398.9,158,399.9,156.8z"/>
			<path id="XMLID_85_" class="st45" d="M401.4,153.6c0,0-0.4,2-1.4,3.2c-1,1.2-7,6.3-7,6.3l1.1-3.7c0,0.9,0.8,0.5,0.8,0.5
				c1.5-0.6,3.7-3.2,4.4-4c0.7-0.7,1.3-2.4,1.3-2.4s0.1-0.9-0.3-1.6s-1.4-0.9-1.4-0.9s-0.1,0-0.3,0v0c0,0,0.8-0.3,1.5-0.1
				C400.7,151,401.1,151.6,401.4,153.6z"/>
			<path id="XMLID_84_" class="st45" d="M398.8,149.5c0.2,0.1,1.2,0.7-0.6,0.8c-1.9,0.1-3.5,2.5-3.5,2.5l0.1-3.5
				c0.2,0.8,0.9,0.5,0.9,0.5l1.4-0.3C397.8,149.4,398.3,149.5,398.8,149.5C398.8,149.5,398.8,149.5,398.8,149.5z"/>
			<path id="XMLID_81_" class="st45" d="M392.3,164.5c-0.8,1.8-1.4,1.9-1.4,1.9c-0.6,0-1.2,0-1.7,0
				C390.4,165.9,391.7,165.3,392.3,164.5z"/>
			<path id="XMLID_80_" class="st46" d="M385.4,145.5v20.9c-3.4,0-5.7,0-5.7,0c-2.1-2.6-3-8-3-8c-0.8-3.1-0.7-12.9-0.7-12.9
				C379.7,145.5,382.9,145.5,385.4,145.5z"/>
		</g>
		<g id="XMLID_605_">
		</g>
	</g>
	<path id="XMLID_594_" class="st47" d="M384.5,142.7c0,0-6.6-4.7-7.3-10.1c0,0-0.4-2.4,4-5.8c0,0,7.2-5.4,7.4-6.7
		c0,0,2.2-1.9,1.4-7.5c0,0,3.5,3.5,0.2,8.7c0,0-2.4,3.6-4.9,5.5c0,0-3.3,2.3-4.3,4.4c0,0-1.6,2.6,0,5.5
		C382.6,139.5,384.5,142.7,384.5,142.7z"/>
	<path id="XMLID_593_" class="st47" d="M386.3,144.8c0,0,3.7-3.1,0.3-6.4c0,0-2-1.6-2-5.8c0,0,0.9-3.1,3.2-4.5
		c2.2-1.3,4.4-3.3,8.9-4.1c0,0-4.8,3-6,4c-1.2,1-2.6,3.1-2.6,3.1s-1,1.4,0.9,4.2c2,2.8,2,2.9,2,3.4s0.5,1.5-1.6,4L386.3,144.8z"/>
</g>
</svg>
