<?xml version="1.0" encoding="utf-8"?>
<!-- Generator: Adobe Illustrator 19.0.0, SVG Export Plug-In . SVG Version: 6.00 Build 0)  -->
<svg version="1.1" xmlns="http://www.w3.org/2000/svg" xmlns:xlink="http://www.w3.org/1999/xlink" x="0px" y="0px"
	 viewBox="0 0 481.9 368.5" style="enable-background:new 0 0 481.9 368.5;" xml:space="preserve">
<style type="text/css">
	.st0{fill:#F3BAB5;}
	.st1{fill:#F1AAA6;}
	.st2{fill:#D3D0E8;}
	.st3{fill:#E2C0A5;}
	.st4{fill:#CBE9E6;}
	.st5{fill:#DCB493;}
	.st6{fill:#BEE4E1;}
	.st7{fill:#FFE2BD;}
	.st8{fill:#FFDCAE;}
	.st9{fill:#CFE8D4;}
	.st10{fill:#C4E4CA;}
	.st11{fill:#E9F0BD;}
	.st12{fill:#E4ECAE;}
	.st13{fill:none;}
	.st14{fill:#594A42;}
	.st15{display:none;}
	.st16{display:inline;}
	.st17{fill:#B9A2AF;}
	.st18{fill:none;stroke:#000000;stroke-miterlimit:10;}
	.st19{fill:#FFFFFF;}
	.st20{fill:#D1D3D4;}
	.st21{fill:#BCBEC0;}
	.st22{fill:#A7A9AC;}
	.st23{fill:#303441;}
	.st24{fill:#444755;}
	.st25{fill:#3C3F4D;}
	.st26{fill:#2D303D;}
	.st27{fill:#333646;}
	.st28{fill:#2D313E;}
	.st29{fill:#8B5E3C;}
	.st30{fill:#FEEBC7;}
	.st31{fill:#EFCEAC;}
	.st32{fill:#333746;}
	.st33{fill:#E6EAED;}
	.st34{fill:#D4D8DD;}
	.st35{fill:#D4DBE1;}
	.st36{fill:#C3C7CF;}
	.st37{fill:#463F3B;}
	.st38{fill:#A28266;}
	.st39{fill:#F1F2F2;}
	.st40{fill:#414042;}
	.st41{fill:#E6E7E8;}
	.st42{fill:url(#XMLID_300_);}
	.st43{fill:#D5D8DB;}
	.st44{fill:#C2B59B;}
	.st45{fill:#A49C8D;}
	.st46{fill:#CDC1AC;}
	.st47{opacity:0.5;fill:#F1F2F2;}
	.st48{fill:#C3C0C6;}
	.st49{fill:#858791;}
	.st50{fill:#333747;}
	.st51{fill:#AEAFB6;}
	.st52{opacity:0.6;}
	.st53{opacity:0.4;fill:#FFFFFF;}
	.st54{opacity:0.32;}
	.st55{fill:#C7C8CA;}
</style>
<g id="desk">
	<g id="XMLID_610_">
		<g id="XMLID_666_">
			<polygon id="XMLID_118_" class="st19" points="105.6,171.9 50.5,171.9 26.9,171.9 26.9,165.9 81.9,165.9 105.6,165.9
				140.6,165.9 204.2,165.9 297.2,165.9 474.5,165.9 474.5,171.9 450.2,171.9 356.5,171.9 162.5,171.9 			"/>
			<polygon id="XMLID_117_" class="st33" points="450.2,180.7 450.2,335.6 356.5,335.6 356.5,324.9 356.5,180.7 			"/>
			<rect id="XMLID_116_" x="356.5" y="171.9" class="st34" width="93.7" height="8.8"/>
			<polygon id="XMLID_115_" class="st35" points="356.5,180.7 356.5,324.9 305.5,324.9 281.6,324.9 224,324.9 200.1,324.9
				162.5,324.9 162.5,180.7 			"/>
			<rect id="XMLID_114_" x="162.5" y="171.9" class="st36" width="194.1" height="8.8"/>
			<path id="XMLID_113_" class="st37" d="M307.6,332.2v1.3c0,1.2-1,2.2-2.2,2.2h-23.9c-1.2,0-2.2-1-2.2-2.2v-1.3H307.6z"/>
			<path id="XMLID_112_" class="st38" d="M307.6,327.1v5.1h-28.2v-5.1c0-1.2,1-2.2,2.2-2.2h23.9
				C306.7,324.9,307.6,325.9,307.6,327.1z"/>
			<path id="XMLID_111_" class="st39" d="M303.5,96.6v63c0,3.5-2.8,6.3-6.3,6.3h-93c-3.5,0-6.3-2.8-6.3-6.3v-63
				c0-3.5,2.8-6.3,6.3-6.3h93C300.7,90.3,303.5,93.1,303.5,96.6z"/>
			<path id="XMLID_110_" class="st37" d="M226.2,332.2v1.3c0,1.2-1,2.2-2.2,2.2h-23.9c-1.2,0-2.2-1-2.2-2.2v-1.3H226.2z"/>
			<path id="XMLID_108_" class="st38" d="M226.2,327.1v5.1h-28.2v-5.1c0-1.2,1-2.2,2.2-2.2H224C225.2,324.9,226.2,325.9,226.2,327.1
				z"/>
			<path id="XMLID_107_" class="st40" d="M190.4,73.3v76.5c0,5.7-4.6,10.3-10.3,10.3l-39.9-1.3l-2.8-45.5h0.1
				c0-12.7-10.3-23.6-23-23c-0.3,0-0.6,0-0.9,0.1v-0.1V65l66.6-2C185.8,63,190.4,67.6,190.4,73.3z"/>
			<polygon id="XMLID_105_" class="st33" points="162.5,324.9 162.5,335.6 105.6,335.6 105.6,180.7 162.5,180.7 			"/>
			<rect id="XMLID_104_" x="105.6" y="171.9" class="st34" width="56.9" height="8.8"/>
			<path id="XMLID_103_" class="st19" d="M140.2,158.8l0.4,7.2h-35l7.9-52.7V90.3c0.3,0,0.6-0.1,0.9-0.1c12.7-0.6,23,10.3,23,23
				h-0.1L140.2,158.8z"/>
			<path id="XMLID_100_" class="st41" d="M113.5,90.3v22.9l-7.9,52.7H81.9l1.3-9.2l6.4-45.2C89.5,99.1,99.3,91.3,113.5,90.3z"/>
			<linearGradient id="XMLID_300_" gradientUnits="userSpaceOnUse" x1="50.5283" y1="110.8684" x2="190.4083" y2="110.8684">
				<stop  offset="0" style="stop-color:#3D3D3E"/>
				<stop  offset="0.4147" style="stop-color:#414142"/>
				<stop  offset="0.7298" style="stop-color:#4A4A4C"/>
				<stop  offset="1" style="stop-color:#58595B"/>
			</linearGradient>
			<path id="XMLID_99_" class="st42" d="M113.5,90.3L113.5,90.3c-14.2,1-24,8.8-24,21.3l-6.4,45.2l-0.1,0l-22.3-0.9
				c-5.7-0.2-10.3-4.6-10.3-10.3V76.9c0-5.7,4.6-10.3,10.3-10.3l52.6-1.6V90.3z"/>
			<rect id="XMLID_98_" x="50.5" y="180.7" class="st43" width="55.1" height="154.9"/>
			<rect id="XMLID_97_" x="50.5" y="171.9" class="st34" width="55.1" height="8.8"/>
		</g>
		<g id="XMLID_664_">
		</g>
	</g>
</g>
</svg>
