<?xml version="1.0" encoding="utf-8"?>
<!-- Generator: Adobe Illustrator 19.0.0, SVG Export Plug-In . SVG Version: 6.00 Build 0)  -->
<svg version="1.1" xmlns="http://www.w3.org/2000/svg" xmlns:xlink="http://www.w3.org/1999/xlink" x="0px" y="0px"
	 viewBox="0 0 481.9 368.5" style="enable-background:new 0 0 481.9 368.5;" xml:space="preserve">
<style type="text/css">
	.st0{fill:#F3BAB5;}
	.st1{fill:#F1AAA6;}
	.st2{fill:#D3D0E8;}
	.st3{fill:#E2C0A5;}
	.st4{fill:#CBE9E6;}
	.st5{fill:#DCB493;}
	.st6{fill:#BEE4E1;}
	.st7{fill:#FFE2BD;}
	.st8{fill:#FFDCAE;}
	.st9{fill:#CFE8D4;}
	.st10{fill:#C4E4CA;}
	.st11{fill:#E9F0BD;}
	.st12{fill:#E4ECAE;}
	.st13{fill:none;}
	.st14{fill:#594A42;}
	.st15{display:none;}
	.st16{display:inline;}
	.st17{fill:#B9A2AF;}
	.st18{fill:none;stroke:#000000;stroke-miterlimit:10;}
	.st19{fill:#FFFFFF;}
	.st20{fill:#D1D3D4;}
	.st21{fill:#BCBEC0;}
	.st22{fill:#A7A9AC;}
	.st23{fill:#303441;}
	.st24{fill:#444755;}
	.st25{fill:#3C3F4D;}
	.st26{fill:#2D303D;}
	.st27{fill:#333646;}
	.st28{fill:#2D313E;}
	.st29{fill:#8B5E3C;}
	.st30{fill:#FEEBC7;}
	.st31{fill:#EFCEAC;}
	.st32{fill:#333746;}
	.st33{fill:#E6EAED;}
	.st34{fill:#D4D8DD;}
	.st35{fill:#D4DBE1;}
	.st36{fill:#C3C7CF;}
	.st37{fill:#463F3B;}
	.st38{fill:#A28266;}
	.st39{fill:#F1F2F2;}
	.st40{fill:#414042;}
	.st41{fill:#E6E7E8;}
	.st42{fill:url(#XMLID_300_);}
	.st43{fill:#D5D8DB;}
	.st44{fill:#C2B59B;}
	.st45{fill:#A49C8D;}
	.st46{fill:#CDC1AC;}
	.st47{opacity:0.5;fill:#F1F2F2;}
	.st48{fill:#C3C0C6;}
	.st49{fill:#858791;}
	.st50{fill:#333747;}
	.st51{fill:#AEAFB6;}
	.st52{opacity:0.6;}
	.st53{opacity:0.4;fill:#FFFFFF;}
	.st54{opacity:0.32;}
	.st55{fill:#C7C8CA;}
</style>
<g id="light">
	<g id="XMLID_321_">
		<g id="XMLID_508_">
			<path id="XMLID_92_" class="st48" d="M452.3,103.7c2.4,0,4.4,2,4.4,4.4c0,2.4-2,4.4-4.4,4.4c-1.2,0-2.3-0.5-3.1-1.3
				c-0.8-0.8-1.3-1.9-1.3-3.2c0-0.6,0.1-1.2,0.3-1.7c0.5-1.1,1.4-2,2.5-2.4C451.2,103.8,451.7,103.7,452.3,103.7z M455.1,108.1
				c0-1.6-1.3-2.8-2.8-2.8s-2.8,1.3-2.8,2.8s1.3,2.8,2.8,2.8S455.1,109.6,455.1,108.1z"/>
			<path id="XMLID_91_" class="st49" d="M452.3,105.3c1.5,0,2.8,1.3,2.8,2.8s-1.3,2.8-2.8,2.8s-2.8-1.3-2.8-2.8
				S450.7,105.3,452.3,105.3z"/>
			<path id="XMLID_90_" class="st50" d="M452.3,112.5l-22.7,39.4c-0.6-0.8-1.4-1.4-2.5-1.6l0-0.1l22.1-38.9
				C450,112,451.1,112.5,452.3,112.5z"/>
			<path id="XMLID_89_" class="st50" d="M390.2,80.1l60.5,23.9c-1.1,0.4-2,1.3-2.5,2.4l-59.4-22.9c0.5-0.5,0.9-1,1.2-1.8
				C390.2,81.2,390.3,80.6,390.2,80.1z"/>
			<path id="XMLID_88_" class="st50" d="M445.6,166H407c0-1.8,6.6-9.5,15.3-11.4c1.3-0.3,2.6-0.4,4-0.4c1.4,0,2.7,0.2,4,0.4
				C439.1,156.5,445.6,164.1,445.6,166z"/>
			<path id="XMLID_86_" class="st48" d="M430.4,154.2l-0.1,0.4c-1.3-0.3-2.6-0.4-4-0.4c-1.4,0-2.7,0.2-4,0.4l-0.1-0.4
				c0-2.3,1.8-4.1,4.1-4.1c0.3,0,0.6,0,0.9,0.1c1,0.2,1.9,0.8,2.5,1.6C430.1,152.5,430.4,153.3,430.4,154.2z"/>
			<path id="XMLID_83_" class="st48" d="M388.8,83.4c-1.1,1-2.7,1.3-4.1,0.8l2.9-7.9c1,0.4,1.6,1,2.1,1.8c0.3,0.6,0.5,1.2,0.6,1.9
				c0,0.5,0,1.1-0.2,1.6C389.8,82.4,389.3,83,388.8,83.4z"/>
			<path id="XMLID_82_" class="st41" d="M388.7,73.4l-1.1,3l-2.9,7.9l-2.1,5.7c3,4.9-2,12.7-2,12.7l-3.6-2.5c0,0,5-7.9,2-12.8
				l6.1-16.6l1.2,0.9l-2.1,3l1.6,1.1l2.1-3L388.7,73.4z"/>
			<polygon id="XMLID_79_" class="st51" points="387.8,72.8 387.8,72.8 387.8,72.8 			"/>
			<polygon id="XMLID_78_" class="st51" points="387.8,72.8 385.7,75.8 384.1,74.7 386.3,71.7 387.8,72.8 			"/>
			<path id="XMLID_77_" class="st19" d="M384.7,70.6l0.4,0.3L379,87.4c3,4.9-2,12.8-2,12.8l-21.6-14.5c0,0,5.4-7.6,11.1-6.6
				l12.9-12.3l0.8,0.6l-2.1,3l1.5,1.1l2.1-3l1.5,1.1l-2.1,3l1.6,1.1L384.7,70.6z"/>

				<rect id="XMLID_76_" x="383.9" y="69" transform="matrix(0.7071 -0.7071 0.7071 0.7071 62.9537 291.9804)" class="st51" width="0" height="1.9"/>

				<rect id="XMLID_75_" x="381.9" y="69.7" transform="matrix(-0.813 -0.5822 0.5822 -0.813 652.4967 352.5279)" class="st51" width="1.9" height="3.7"/>
			<polygon id="XMLID_74_" class="st51" points="381.7,68.4 379.5,71.4 378,70.3 380.1,67.3 			"/>
			<polygon id="XMLID_73_" class="st51" points="381.7,68.4 380.1,67.3 380.1,67.3 			"/>
		</g>
		<g id="XMLID_507_">
		</g>
	</g>
	<g id="XMLID_313_" class="st52">
		<g id="XMLID_319_">
			<path id="XMLID_70_" class="st19" d="M373.5,97.8l-35.8,68l-3.7,0.1c0,0,9.5-5.9,2.3-16.1l-13.4-11.7l39.1-48L373.5,97.8z"/>
		</g>
		<g id="XMLID_318_">
		</g>
	</g>
	<polygon id="XMLID_312_" class="st53" points="380.4,102.6 359.2,165.9 337.7,165.9 373.5,97.9 	"/>
	<g id="XMLID_125_" class="st54">
		<g id="XMLID_310_">
			<polygon id="XMLID_1_" class="st19" points="362,90.1 322.9,138.1 309.3,126.4 355.2,85.5 			"/>
		</g>
		<g id="XMLID_309_">
		</g>
	</g>
</g>
</svg>
