<!-- Generator: Adobe Illustrator 19.0.0, SVG Export Plug-In  -->
<svg version="1.1"
	 xmlns="http://www.w3.org/2000/svg" xmlns:xlink="http://www.w3.org/1999/xlink" xmlns:a="http://ns.adobe.com/AdobeSVGViewerExtensions/3.0/"
	 x="0px" y="0px" width="1271px" height="1193.5px" viewBox="0 0 1271 1193.5" style="enable-background:new 0 0 1271 1193.5;"
	 xml:space="preserve">
<style type="text/css">
	.st0{fill:#FFFFFF;}
	.st1{fill:#F6B287;}
	.st2{fill:#F8C09C;}
	.st3{fill:#804F1C;}
	.st4{fill:#FAD4C0;}
	.st5{fill:#FFE4B7;}
	.st6{fill:none;stroke:#FFFFFF;stroke-width:0;stroke-linecap:round;stroke-linejoin:round;}
	.st7{fill:#C49A6C;}
	.st8{fill:#754C29;}
	.st9{fill:#A97C50;}
	.st10{fill:#A49C8D;}
	.st11{fill:#8B5E3C;}
	.st12{fill:#C2B59B;}
	.st13{fill:#603913;}
</style>
<defs>
</defs>
<g id="XMLID_174_">
	<g id="XMLID_209_">
		<path id="XMLID_235_" class="st0" d="M903.5,897.5l120.2,49.3c-107.9,105.8-246.9,157.8-384.1,159.8V979.9
			c10.2,0,20.7-0.4,31.3-1.2c54-3.7,112.6-17.5,173.5-47.4C864,921.7,883.6,910.5,903.5,897.5z"/>
		<path id="XMLID_234_" class="st1" d="M639.6,897.5h263.9c-19.9,13-39.6,24.3-59.1,33.9l-1.1-2.1c-160.4-17.6-179,9.6-179,9.6
			c-2.8,20.7,0.6,26.7,5.5,26.7l1.1,13.3c-10.6,0.8-21.1,1.2-31.3,1.2V897.5z"/>
		<path id="XMLID_233_" class="st1" d="M903.5,897.5H639.6V796.9c0,0,87.4-24.4,133.2-96.6c0,0-6.8,145.5,17.6,150.8L903.5,897.5z"
			/>
		<path id="XMLID_232_" class="st2" d="M851.5,474.5c0,0,1.6,18.7-24.9,77.6c0,0-15.6,49.4-26.3,39.1l0.9-39.6l0.5-19.8
			c0,0,0,0,0-0.1c0.3-0.2,0.6-0.5,0.9-0.9c0.6-0.6,1.3-1.4,2.2-2.6c2.6-3.2,6.7-8.5,11.5-15.6c1-1.4,1.9-2.9,2.8-4.3
			c1.9-3,3.8-6.3,5.8-9.8c1.1-1.8,2-3.7,2.9-5.4c4.6-8.6,7.9-15.8,9.4-19.4C839.4,471.6,845.8,467.9,851.5,474.5z"/>
		<path id="XMLID_231_" class="st3" d="M846.5,455.8l-8.4,14.9c0,0-0.4,1-1.2,2.8c-0.8,0.6-1.2,1-1.2,1c-2.6,6.6-5.4,12.8-8.3,18.5
			c-1,1.8-1.9,3.7-2.9,5.4c-1.9,3.6-3.8,6.8-5.8,9.8c-1,1.4-1.8,2.9-2.8,4.3c-4.7,7.1-8.9,12.4-11.5,15.6c-0.8,0.9-1.4,1.7-2.2,2.6
			c-0.3,0.4-0.6,0.7-0.9,0.9c2.9-116.4-1.8-205.1-162-151.7c-160.1-53.4-164.9,35.3-162,151.6c0,0-0.1,0-0.1-0.1
			c-1.1-1.1-2-2.3-3.1-3.6c-0.1,0-0.1-0.1-0.1-0.1c-1.1-1.3-2.1-2.6-3.2-3.9c-0.2-0.3-0.4-0.6-0.7-0.9
			c-14.5-19.7-26.9-48.4-26.9-48.4h-0.1c0,0-0.1-0.1-0.2-0.2c-0.8-0.7-4.1-3.6-8.2-3.6l-7.2-9.5c25.9-15.6-14.4-26.5-14.4-26.5
			l3.4-3.4c0,0-11-5.9,7.7,0.1c18.7,6.1-0.2-20.8-0.2-20.8l-8.5-6.6l1.8-12.6l-6.6,1.3l-4.8-28.8l10.9,2.9c12.6,7.8,4.8-7.8,4.8-7.8
			c-16.3-41.6-15.7-66.2-15.7-66.2l9.6,2.4c32,38.5,6.1-9.6,6.1-9.6l-11.5-16.8L437,270c17.4,1.7,21.7-5.5,21.7-5.5l-39.1-22.8
			l29.4-2.4c85.5,7.2-6.6-16.3-6.6-16.3l14.4-9.6l-11.4-13.2l31.9,1.7l22.8,11.5c65.6,28.3-22.8-30-22.8-30
			c59.6,4.1,65.5,13.2,65.5,13.2c69.2,39.7,7.2-13.9,7.2-13.9c26.5-15.6,65,1.8,65,1.8c62.6,43.3,18.1-11.5,18.1-11.5l74.6,36.1
			c15,37.3,13.8-10.2,13.8-10.2l59,47.5c-1.3,46.9,28.9,9.6,28.9,9.6c-7.2,56.5,4.8,41.5,4.8,41.5c8.4-2.1,15-11.2,16.6-13.4
			c-7.4,11.5-4.7,69.3-4.7,69.3l16.4-5.4l-4.2,56.6h8.5c-10.2,7.2-8.4,51.1-8.4,51.1H846.5z"/>
		<path id="XMLID_230_" class="st1" d="M843.4,929.2l1.1,2.1c-60.9,29.9-119.5,43.8-173.5,47.4l-1.1-13.3c6.5,0,15.9-11,15.9-11
			C690.2,940.5,843.4,929.2,843.4,929.2z"/>
		<path id="XMLID_229_" class="st4" d="M835.9,474.5c0,0,0.4-0.4,1.2-1c-1.5,3.7-4.8,10.9-9.4,19.4
			C830.5,487.3,833.3,481.1,835.9,474.5z"/>
		<path id="XMLID_228_" class="st4" d="M824.7,498.4c1-1.7,1.9-3.6,2.9-5.4C826.7,494.7,825.8,496.5,824.7,498.4z"/>
		<path id="XMLID_227_" class="st4" d="M816.1,512.5c1-1.4,1.8-2.9,2.8-4.3C818.1,509.6,817.1,511.1,816.1,512.5z"/>
		<path id="XMLID_226_" class="st2" d="M639.6,379.9c160.1-53.4,164.9,35.3,162,151.7h-162V379.9z"/>
		<path id="XMLID_225_" class="st4" d="M801.6,531.7l-0.5,19.8C801.2,544.8,801.4,538.2,801.6,531.7z"/>
		<path id="XMLID_224_" class="st2" d="M801.6,531.6C801.6,531.7,801.6,531.7,801.6,531.6c-0.2,6.6-0.4,13.2-0.5,19.9
			c-0.6,17.3-1.1,35-1.1,52.9c0,38.6-11.1,70.3-27.2,95.9H639.6V531.6H801.6z"/>
		<path id="XMLID_223_" class="st2" d="M639.6,700.3h133.2c-45.8,72.2-133.2,96.6-133.2,96.6V700.3z"/>
		<path id="XMLID_222_" class="st5" d="M843.4,929.2c0,0-153.2,11.3-157.6,25.3c0,0-9.3,11-15.9,11c-4.9,0-8.3-6-5.5-26.7
			C664.4,938.8,682.9,911.6,843.4,929.2z"/>
		<path id="XMLID_221_" class="st0" d="M639.6,979.9v126.6c-145.6,2-289.2-52.5-391.2-160.1c0,0,60.8-24.6,121.4-48.9
			c0,0,23.5,17.4,64.2,36.2c42.1,19.5,102.6,40.4,174.6,45.2C618.7,979.5,629.1,979.9,639.6,979.9z"/>
		<path id="XMLID_220_" class="st2" d="M639.6,897.5v82.5c-10.6,0-21-0.4-31.1-1.1l1-13.4c4.9,0,8.3-6,5.5-26.7
			c0,0-18.7-27.2-179-9.6l-2,4.4c-40.7-18.8-64.2-36.2-64.2-36.2H639.6z"/>
		<path id="XMLID_219_" class="st2" d="M639.6,796.9v100.6H369.8c57-22.8,113.7-45.2,119.1-46.4c24.4-5.3,17.5-150.8,17.5-150.8
			C552.3,772.4,639.6,796.9,639.6,796.9z"/>
		<path id="XMLID_218_" class="st5" d="M639.6,700.3v96.6c0,0-87.4-24.4-133.2-96.6H639.6z"/>
		<path id="XMLID_217_" class="st5" d="M639.6,531.6v168.7H506.4c-16.2-25.6-27.2-57.3-27.2-95.9c0-4.4,0-8.9-0.1-13.3
			c0-0.2,0-0.3,0-0.5c-0.2-11.9-0.5-23.9-0.8-35.5c-0.1-1.5-0.1-3-0.2-4.5l-0.4-19c0,0,0,0,0-0.1H639.6z"/>
		<path id="XMLID_216_" class="st5" d="M639.6,379.9v151.7H477.8c-0.2-0.1-0.1-0.1-0.1-0.1C474.8,415.2,479.5,326.5,639.6,379.9z"/>
		<path id="XMLID_215_" class="st5" d="M615,938.8c2.8,20.7-0.6,26.7-5.5,26.7c-6.6,0-16-11-16-11c-4.4-14.1-157.5-25.3-157.5-25.3
			C596.3,911.6,615,938.8,615,938.8z"/>
		<path id="XMLID_214_" class="st2" d="M609.5,965.5l-1,13.4c-72-4.8-132.5-25.7-174.6-45.2l2-4.4c0,0,153.1,11.3,157.5,25.3
			C593.5,954.5,602.9,965.5,609.5,965.5z"/>
		<path id="XMLID_213_" class="st5" d="M479.1,590.7l-0.8-35.5C478.6,566.8,478.9,578.7,479.1,590.7z"/>
		<path id="XMLID_212_" class="st5" d="M479.1,590.7c0,0.2,0,0.3,0,0.5c-10.7,10.3-26.3-39.1-26.3-39.1
			c-26.6-58.9-24.9-77.6-24.9-77.6c2.4-2.8,4.9-3.8,7.2-3.8l8.2,3.6c0.1,0.1,0.2,0.2,0.2,0.2c8.7,22.2,19.9,39,27,48.4
			c0.3,0.3,0.5,0.6,0.7,0.9c1.2,1.5,2.2,2.9,3.2,3.9c0,0,0,0.1,0.1,0.1c1.5,1.9,2.6,3.1,3.1,3.6c0,0.1,0.1,0.1,0.1,0.1
			c0.2,6.4,0.4,12.7,0.5,19.2c0.1,1.5,0.1,3,0.2,4.5L479.1,590.7z"/>
		<path id="XMLID_211_" class="st5" d="M477.8,531.7l0.4,19c-0.1-6.4-0.3-12.8-0.5-19.2C477.7,531.5,477.6,531.5,477.8,531.7
			C477.8,531.7,477.8,531.7,477.8,531.7z"/>
		<path id="XMLID_210_" class="st5" d="M443.3,474.3l-8.2-3.6C439.2,470.7,442.5,473.6,443.3,474.3z"/>
	</g>
	<g id="XMLID_204_">
		<line id="XMLID_208_" class="st6" x1="639.6" y1="979.9" x2="639.6" y2="897.5"/>
		<line id="XMLID_207_" class="st6" x1="639.6" y1="1106.5" x2="639.6" y2="1106.7"/>
		<line id="XMLID_206_" class="st6" x1="639.6" y1="979.9" x2="639.6" y2="1106.5"/>
		<line id="XMLID_205_" class="st6" x1="639.6" y1="796.9" x2="639.6" y2="897.5"/>
	</g>
</g>
<g id="XMLID_112_">
	<g id="XMLID_155_">
		<polygon id="XMLID_173_" class="st7" points="1173.8,54.4 1270.7,310.7 1241.2,424 1182.1,358.3 1202.7,291.8 		"/>
		<polygon id="XMLID_172_" class="st7" points="1241.2,424 1241.2,590.9 1065.4,432.5 		"/>
		<polygon id="XMLID_171_" class="st7" points="1182.1,358.3 1241.2,424 1065.4,432.5 		"/>
		<polygon id="XMLID_170_" class="st8" points="1241.2,590.9 1118.7,915.5 1054.8,884 1186.6,676.8 		"/>
		<polygon id="XMLID_169_" class="st9" points="1241.2,590.9 1186.6,676.8 1123.8,550.2 1065.4,432.5 		"/>
		<polygon id="XMLID_168_" class="st10" points="1140.4,193.8 1202.7,291.8 1182.1,358.3 1141.7,314 		"/>
		<polygon id="XMLID_167_" class="st11" points="1186.6,676.8 1054.8,884 1068.4,818.6 1068.4,818.5 1123.8,550.2 		"/>
		<polygon id="XMLID_166_" class="st12" points="1141.7,314 1182.1,358.3 957,222.1 957,222.1 854.9,0.3 		"/>
		<polygon id="XMLID_165_" class="st7" points="1182.1,358.3 1065.4,432.5 772.6,110.4 957,222.1 957,222.1 		"/>
		<polygon id="XMLID_164_" class="st13" points="1118.7,915.5 832.2,1100.3 855.5,990.4 		"/>
		<polygon id="XMLID_163_" class="st8" points="1118.7,915.5 855.5,990.4 980.1,923.9 1054.8,884 		"/>
		<polygon id="XMLID_162_" class="st8" points="1068.4,818.5 1068.4,818.6 1054.8,884 980.1,923.9 1052.2,717.1 		"/>
		<polygon id="XMLID_161_" class="st13" points="855.5,990.4 832.2,1100.3 739.5,1144.1 683.2,1170.7 716,1064.8 		"/>
		<polygon id="XMLID_160_" class="st13" points="766.9,931.3 716,1064.8 635.5,1107.8 704.2,1015.5 		"/>
		<polygon id="XMLID_159_" class="st13" points="739.5,1144.1 683.2,1193.2 683.2,1170.7 		"/>
		<polygon id="XMLID_158_" class="st13" points="716,1064.8 683.2,1170.7 635.5,1193.2 635.5,1107.8 		"/>
		<polygon id="XMLID_157_" class="st8" points="694.9,938.3 704.2,1015.5 635.5,1107.8 		"/>
		<polygon id="XMLID_156_" class="st13" points="683.2,1170.7 683.2,1193.2 635.5,1193.2 		"/>
	</g>
	<g id="XMLID_154_">
	</g>
</g>
<g id="XMLID_30_">
	<g id="XMLID_93_">
		<polygon id="XMLID_111_" class="st7" points="97.2,54.4 0.3,310.7 29.8,424 88.8,358.3 68.3,291.8 		"/>
		<polygon id="XMLID_110_" class="st7" points="29.8,424 29.8,590.9 205.6,432.6 		"/>
		<polygon id="XMLID_109_" class="st7" points="88.8,358.3 29.8,424 205.6,432.6 		"/>
		<polygon id="XMLID_108_" class="st8" points="29.8,590.9 152.3,915.5 216.2,884 84.4,676.8 		"/>
		<polygon id="XMLID_107_" class="st9" points="29.8,590.9 84.4,676.8 147.2,550.2 205.6,432.6 		"/>
		<polygon id="XMLID_106_" class="st10" points="130.6,193.8 68.3,291.8 88.8,358.3 129.3,314 		"/>
		<polygon id="XMLID_105_" class="st11" points="84.4,676.8 216.2,884 202.6,818.6 202.6,818.6 147.2,550.2 		"/>
		<polygon id="XMLID_104_" class="st12" points="129.3,314 88.8,358.3 314,222.1 314,222.1 416.1,0.3 		"/>
		<polygon id="XMLID_103_" class="st7" points="88.8,358.3 205.6,432.6 498.4,110.4 314,222.1 314,222.1 		"/>
		<polygon id="XMLID_102_" class="st13" points="152.3,915.5 438.8,1100.3 415.5,990.4 		"/>
		<polygon id="XMLID_101_" class="st8" points="152.3,915.5 415.5,990.4 290.9,923.9 216.2,884 		"/>
		<polygon id="XMLID_100_" class="st8" points="202.6,818.6 202.6,818.6 216.2,884 290.9,923.9 218.8,717.1 		"/>
		<polygon id="XMLID_99_" class="st13" points="415.5,990.4 438.8,1100.3 531.5,1144.1 587.8,1170.7 555,1064.9 		"/>
		<polygon id="XMLID_98_" class="st13" points="504.1,931.3 555,1064.9 635.5,1107.8 566.8,1015.5 		"/>
		<polygon id="XMLID_97_" class="st13" points="531.5,1144.1 587.8,1193.2 587.8,1170.7 		"/>
		<polygon id="XMLID_96_" class="st13" points="555,1064.9 587.8,1170.7 635.5,1193.2 635.5,1107.8 		"/>
		<polygon id="XMLID_95_" class="st8" points="576.1,938.3 566.8,1015.5 635.5,1107.8 		"/>
		<polygon id="XMLID_94_" class="st13" points="587.8,1170.7 587.8,1193.2 635.5,1193.2 		"/>
	</g>
	<g id="XMLID_92_">
	</g>
</g>
</svg>